<svg xmlns="http://www.w3.org/2000/svg" xmlns:xlink="http://www.w3.org/1999/xlink" class="fb-share-button social-button" x="0px" y="0px" viewBox="0 0 42 46.6" data-reactid="258"><path class="fb-mark mark" fill-rule="evenodd" clip-rule="evenodd" fill="#010101" d="M24.5,18.1c0,0.9,0,2.4,0,2.4s-1.8-0.2-2.2,0.5c-0.2,0.4-0.1,1.5-0.1,2.2c0.8,0,1.6,0,2.4,0c-0.2,0.9-0.3,1.5-0.5,2.3c-0.7,0-1.9,0-1.9,0v7.5c0,0-2.2,0-3.3,0c0-2.3,0-5,0-7.5c-0.5,0-0.9,0-1.4,0c0-0.9,0-1.5,0-2.4c0.5,0,0.9,0,1.4,0c0.1-1.7,0.1-3.4,1-4.3C20.8,17.9,21.7,18.1,24.5,18.1z" data-reactid="259"></path><path class="ring" d="M21,46.1c-11.3,0-20.5-9.2-20.5-20.5S9.7,5.1,21,5.1c0.3,0,0.5,0.2,0.5,0.5S21.3,6.1,21,6.1c-10.8,0-19.5,8.7-19.5,19.5S10.3,45.1,21,45.1s19.5-8.7,19.5-19.5c0-0.3,0.2-0.5,0.5-0.5s0.5,0.2,0.5,0.5C41.5,36.9,32.3,46.1,21,46.1z" data-reactid="260"></path><path class="arrow" d="M17.3,10.6c-0.1,0-0.3,0-0.4-0.1c-0.2-0.2-0.2-0.5,0-0.7l4.2-4.2L17,1.4c-0.2-0.2-0.2-0.5,0-0.7s0.5-0.2,0.7,0l4.5,4.5c0.2,0.2,0.2,0.5,0,0.7l-4.5,4.5C17.6,10.5,17.4,10.6,17.3,10.6z" data-reactid="261"></path></svg>