<svg xmlns="http://www.w3.org/2000/svg" xmlns:xlink="http://www.w3.org/1999/xlink" class="player-icon" x="0px" y="0px" viewBox="22.7 152.8 566.6 486.4" data-reactid="151"><path class="headband" d="M481,369.3c10.7,0,21.4-8,21.4-21.4c0-106.9-88.2-195.1-195.1-195.1S109.6,241,109.6,347.9c0,10.7,8,21.4,21.4,21.4c13.4,0,21.4-8,21.4-21.4c0-85.5,69.5-155,155-155s155,69.5,155,155C462.3,358.6,470.4,369.3,481,369.3z" data-reactid="152"></path><g data-reactid="153"><path class="button-fg" d="M159,422.7c0-10.7-10.7-18.7-18.7-18.7c-64.1,0-117.6,53.4-117.6,117.6s53.4,117.6,117.6,117.6h24.1l0,0c10.7,0,21.4-8,21.4-21.4c0-2.7,0-5.3,0-8L159,422.7z" data-reactid="154"></path><path class="button-bg" d="M137.6,599.1c-42.8,0-77.5-34.7-77.5-77.5c0-37.4,26.7-66.8,58.8-74.8L137.6,599.1L137.6,599.1z" data-reactid="155"></path><path class="button-fg" d="M471.7,404c-10.7,0-18.7,8-18.7,18.7l-26.7,192.4c0,5.3,0,10.7,5.3,16c5.3,5.3,8,8,16,8h24.1c64.1,0,117.6-53.4,117.6-117.6C586.6,457.4,535.8,404,471.7,404z" data-reactid="156"></path><path class="button-bg" d="M471.7,599.1L471.7,599.1l18.7-152.3c34.7,8,58.8,37.4,58.8,74.8C546.5,564.3,511.8,599.1,471.7,599.1z" data-reactid="157"></path></g></svg>