<svg xmlns="http://www.w3.org/2000/svg" xmlns:xlink="http://www.w3.org/1999/xlink" class="twitter-button" x="0px" y="0px" viewBox="0 0 42 46.6" data-reactid="267"><path class="twitter-mark mark" fill-rule="evenodd" clip-rule="evenodd" fill="#010101" d="M24.3,19.4c1.2,0,1.8,0.4,2.4,1c0.5,0,1.2-0.3,1.6-0.5c0.1-0.1,0.3-0.1,0.4-0.2c-0.2,0.6-0.5,1.1-1,1.4c-0.1,0.1-0.2,0.2-0.3,0.2c0,0,0,0,0,0c0.7,0,1.2-0.3,1.7-0.5c0,0,0,0,0,0c-0.3,0.4-0.6,0.9-1,1.2c-0.2,0.1-0.3,0.3-0.5,0.4c0,0.7,0,1.4-0.1,1.9c-0.8,3.4-2.8,5.7-5.9,6.7c-1.1,0.4-3,0.5-4.3,0.2c-0.6-0.2-1.2-0.3-1.8-0.6c-0.3-0.1-0.6-0.3-0.9-0.4c-0.1-0.1-0.2-0.1-0.3-0.2c0.3,0,0.6,0.1,1,0c0.3,0,0.6,0,0.9-0.1c0.7-0.2,1.3-0.3,1.8-0.7c0.3-0.1,0.6-0.3,0.8-0.5c-0.3,0-0.6-0.1-0.9-0.2c-1-0.3-1.6-1-1.9-1.9c0.3,0,1.2,0.1,1.4-0.1c-0.4,0-0.7-0.2-1-0.4c-0.8-0.5-1.4-1.3-1.4-2.6c0.1,0,0.2,0.1,0.3,0.1c0.2,0.1,0.4,0.1,0.6,0.2c0.1,0,0.3,0.1,0.4,0h0c-0.2-0.2-0.4-0.3-0.6-0.5c-0.5-0.6-1-1.6-0.7-2.8c0.1-0.3,0.2-0.6,0.3-0.8c0,0,0,0,0,0c0.1,0.1,0.2,0.2,0.3,0.3c0.3,0.3,0.6,0.6,0.9,0.9c1.1,0.9,2.1,1.4,3.7,1.8c0.4,0.1,0.9,0.2,1.4,0.2c-0.1-0.4-0.1-1,0-1.4c0.3-1,0.9-1.7,1.7-2c0.2-0.1,0.4-0.2,0.7-0.2C24,19.5,24.1,19.5,24.3,19.4z" data-reactid="268"></path><path class="ring" d="M21,46C9.7,46,0.5,36.8,0.5,25.5S9.7,5,21,5c0.3,0,0.5,0.2,0.5,0.5S21.3,6,21,6C10.2,6,1.5,14.8,1.5,25.5S10.2,45,21,45s19.5-8.7,19.5-19.5c0-0.3,0.2-0.5,0.5-0.5s0.5,0.2,0.5,0.5C41.5,36.8,32.3,46,21,46z" data-reactid="269"></path><path class="arrow" d="M17.3,10.6c-0.1,0-0.3,0-0.4-0.1c-0.2-0.2-0.2-0.5,0-0.7l4.2-4.2l-4.1-4.1c-0.2-0.2-0.2-0.5,0-0.7s0.5-0.2,0.7,0l4.5,4.5c0.2,0.2,0.2,0.5,0,0.7l-4.5,4.5C17.5,10.5,17.4,10.6,17.3,10.6z" data-reactid="270"></path></svg>