<?xml version="1.0" encoding="utf-8"?>
<!-- Generator: Adobe Illustrator 16.0.0, SVG Export Plug-In . SVG Version: 6.00 Build 0)  -->
<!DOCTYPE svg PUBLIC "-//W3C//DTD SVG 1.1//EN" "http://www.w3.org/Graphics/SVG/1.1/DTD/svg11.dtd">
<svg version="1.1" id="Layer_1" xmlns="http://www.w3.org/2000/svg" xmlns:xlink="http://www.w3.org/1999/xlink" x="0px" y="0px"
	 width="960px" height="560px" viewBox="0 0 960 560" enable-background="new 0 0 960 560" xml:space="preserve">
<g>
	<path fill="#FFFFFF" d="M0,347.559c12.511,0,17.515-5.838,17.515-19.184v-96.75c0-13.345-4.17-19.183-17.515-19.183v-13.345h71.729
		c39.201,0,65.057,17.515,65.057,48.375c0,28.358-23.354,48.376-65.891,48.376H59.218v31.693c0,15.014,7.506,19.184,28.358,19.184
		v13.345H0V347.559z M59.218,211.607v72.563h6.672c20.017,0,30.86-15.013,30.86-36.698c0-22.52-10.843-35.864-31.694-35.864H59.218z
		"/>
	<path fill="#FFFFFF" d="M138.454,347.559c11.677,0,15.847-5.004,15.847-17.516v-45.039c0-6.672-5.004-10.842-11.677-10.008h-4.17
		v-14.179l44.205-13.345h10.843v81.737c0,12.512,4.17,17.516,15.847,17.516v13.345H137.62v-12.511H138.454z M174.318,200.765
		c11.677,0,21.686,10.009,21.686,21.686s-10.009,21.686-21.686,21.686s-21.686-10.009-21.686-21.686
		S161.807,200.765,174.318,200.765"/>
	<path fill="#FFFFFF" d="M220.191,269.157h-15.013v-9.175c17.515-5.004,39.201-19.183,45.873-40.035h8.34v35.031h27.524v14.179
		h-27.524v54.214c0,13.345,7.507,17.515,15.013,17.515c5.004,0,10.843-1.668,14.179-4.17l4.17,7.507
		c-6.672,10.843-22.52,19.183-38.366,19.183c-23.354,0-34.197-14.179-34.197-37.532V269.157z"/>
	<path fill="#FFFFFF" d="M349.47,247.472c15.013,0,28.358,4.17,40.869,10.843l-14.179,38.367h-9.174
		c-2.502-23.354-13.345-32.529-25.022-32.529c-14.179,0-22.52,12.511-22.52,29.192c0,25.021,17.515,37.533,35.865,37.533
		c14.179,0,21.686-5.839,26.689-16.682l8.341,3.336c-5.004,25.856-16.681,45.873-48.375,45.873
		c-29.192,0-50.043-20.851-50.043-53.379C292.754,271.659,315.273,247.472,349.47,247.472"/>
	<path fill="#FFFFFF" d="M387.002,347.559c11.677,0,15.847-5.004,15.847-17.516v-96.75c0-6.673-5.004-10.009-11.677-10.009h-5.004
		v-15.013l47.542-11.677h8.341v74.231c5.838-15.847,17.515-23.354,33.362-23.354c20.851,0,35.03,11.677,35.03,35.864v45.873
		c0,12.512,4.17,17.516,15.847,17.516v13.345h-65.891v-13.345c10.009,0,10.009-5.839,10.009-16.682V284.17
		c0-10.008-5.004-15.013-14.179-15.013c-7.507,0-13.345,5.004-15.013,12.511v48.375c0,10.843,0.834,16.682,10.008,16.682v13.345
		h-65.89v-12.511H387.002z"/>
	<path fill="#FFFFFF" d="M532.963,347.559c11.677,0,15.847-5.004,15.847-17.516v-60.886h-15.847v-9.175
		c12.511,0,16.681-3.336,16.681-12.511c0-21.686,19.184-50.877,58.384-50.877c12.512,0,25.856,4.17,37.533,9.175l-16.682,41.703
		l-8.34-1.668c0.834-22.52-6.673-36.699-20.018-36.699c-10.843,0-16.682,9.175-16.682,20.852c0,10.009,2.503,18.349,4.171,25.022
		h23.354v14.179h-22.52v60.052c0,12.512,4.17,17.516,15.847,17.516v13.345h-71.729V347.559L532.963,347.559z"/>
	<path fill="#FFFFFF" d="M610.53,305.021c0-37.532,26.689-58.384,57.55-58.384s57.55,20.852,57.55,58.384
		c0,37.533-26.689,58.384-57.55,58.384S610.53,342.555,610.53,305.021 M654.735,305.021c0,36.699,3.336,47.542,13.345,47.542
		s13.345-10.843,13.345-47.542c0-36.698-3.336-47.541-13.345-47.541C658.071,258.314,654.735,269.157,654.735,305.021"/>
	<path fill="#FFFFFF" d="M728.132,347.559c11.677,0,15.848-5.004,15.848-17.516v-43.371c0-6.672-5.005-10.842-11.677-10.842h-5.005
		v-14.179l41.703-12.511h11.677v17.516c0,9.174-0.834,22.52-0.834,27.524h0.834c3.336-33.363,18.35-47.542,35.864-47.542
		c3.337,0,4.171,0,6.673,0.834v38.366c-14.18-2.502-39.201-1.668-39.201,24.188v19.183c0,12.512,4.171,17.516,15.848,17.516v13.345
		h-71.729V347.559z"/>
	<path fill="#FFFFFF" d="M819.878,347.559c11.677,0,15.848-5.004,15.848-17.516v-96.75c0-6.673-5.005-10.009-11.677-10.009h-5.005
		v-15.013l48.376-11.677h8.34V298.35h1.669l19.183-9.175c9.175-4.171,10.843-8.341,10.843-14.179
		c0-7.506-5.838-11.677-15.013-11.677v-13.345h58.384v11.677c-12.511,15.013-24.188,20.851-37.532,27.524l25.855,35.03
		c8.341,10.843,13.345,22.52,21.686,22.52v13.345h-49.209l-34.196-55.048h-1.669v27.524c0,9.175,0.834,13.345,10.009,13.345v13.345
		h-65.891V347.559L819.878,347.559z"/>
</g>
</svg>
