<?xml version="1.0" encoding="utf-8"?>
<!-- Generator: Adobe Illustrator 21.0.0, SVG Export Plug-In . SVG Version: 6.00 Build 0)  -->
<svg version="1.1" id="Layer_1" xmlns="http://www.w3.org/2000/svg" xmlns:xlink="http://www.w3.org/1999/xlink" x="0px" y="0px"
	 viewBox="0 0 485 485" style="enable-background:new 0 0 485 485;" xml:space="preserve">
<style type="text/css">
	.st0{stroke:#000000;stroke-width:8;stroke-miterlimit:10;}
</style>
<g>
	<path d="M0,0v485h485V0H0z M455,455H30V30h425V455z"/>
</g>
<path class="st0" d="M356.5,219.2c-3.3-1.5-7.4-2.2-12.6-2.2c-27.4,0-45.7,21.1-45.7,56.2c0,40.1,18.7,56.2,43.1,56.2
	c5.2,0,10.9-0.7,15-2.4V219.2H356.5z M259,274.9c0-50.7,32.7-90.4,86.2-90.4c4.6,0,7,0,11.3,0.4v-56.6c0-1.3,1.1-2.2,2.2-2.2h35.1
	c1.7,0,2.2,0.7,2.2,1.7v199c0,5.9,0,13.3,1.1,21.3c0,1.5,0,1.7-1.3,2.4c-18.3,8.7-37.5,12.6-55.7,12.6
	C292.7,363.3,259,334.2,259,274.9L259,274.9z M184.7,239.7l61,118.2c1.1,1.7,0.4,3.5-1.3,3.5h-37.9c-2.4,0-3.5-0.7-4.6-2.8
	c-13.9-28.7-28.1-58.6-42.7-89.5h-0.4c-13.1,29.2-27.4,61-41.4,89.7c-1.1,1.7-2.2,2.4-3.9,2.4H77.4c-2.2,0-2.4-1.7-1.3-3l59.7-114.7
	L78,129.3c-1.3-1.7,0-3.3,1.5-3.3H117c2.2,0,3.3,0.4,3.9,2.4c13.7,29,27.7,57.5,40.7,86.7h0.4c12.6-28.7,26.6-57.7,39.8-86.2
	c1.1-1.7,1.7-2.8,3.9-2.8h35.1c1.7,0,2.4,1.3,1.3,3.3L184.7,239.7L184.7,239.7z"/>
</svg>
