<svg id="Layer_1" data-name="Layer 1" xmlns="http://www.w3.org/2000/svg" viewBox="0 0 701 401"><defs><style>.cls-1{fill:none;stroke:#000;stroke-miterlimit:10;opacity:0;}.cls-2{isolation:isolate;}.cls-3{fill:#1e2553;}.cls-4{fill:#f04337;}</style></defs><title>Ambulnz</title><rect class="cls-1" x="0.5" y="0.5" width="700" height="400"/><g id="Welcome_to_Drop_Off" data-name="Welcome to Drop Off" class="cls-2"><g class="cls-2"><path class="cls-3" d="M143.42,350.68H124.19a8.47,8.47,0,0,1-5.24-1.53,9.23,9.23,0,0,1-3-3.92l-8.08-22.85H60.17l-8.09,22.85A9.38,9.38,0,0,1,49.19,349a7.91,7.91,0,0,1-5.2,1.69H24.6L71.39,231H96.72Zm-41.59-45.46-13-36.64q-1.16-2.88-2.43-6.77c-.86-2.58-1.67-5.39-2.44-8.41q-1.16,4.62-2.43,8.54t-2.44,6.81L66.27,305.22Z"/><path class="cls-3" d="M151.26,350.68V265.61h14a5.52,5.52,0,0,1,5.69,4l1.32,5.53a59.14,59.14,0,0,1,4.58-4.29,29.51,29.51,0,0,1,5.07-3.43,27,27,0,0,1,12.79-3.09q7.84,0,13,4.17a25.78,25.78,0,0,1,7.75,11.09,26.44,26.44,0,0,1,11.68-11.71,31.13,31.13,0,0,1,7.59-2.68,37.77,37.77,0,0,1,8-.87,35,35,0,0,1,12.71,2.15,23.91,23.91,0,0,1,9.28,6.31,28,28,0,0,1,5.74,10.19,43.74,43.74,0,0,1,2,13.69v54.05H249.69V296.63q0-14.92-12.78-14.93a14.64,14.64,0,0,0-5.33.95,12,12,0,0,0-4.29,2.85,13.15,13.15,0,0,0-2.89,4.7,18.77,18.77,0,0,0-1,6.43v54.05H200.6V296.63q0-8.08-3.18-11.51c-2.11-2.28-5.24-3.42-9.36-3.42a15.72,15.72,0,0,0-7.47,1.86,24.6,24.6,0,0,0-6.56,5.15v62Z"/><path class="cls-3" d="M313.23,275.43a42.71,42.71,0,0,1,11.14-8.09,30.24,30.24,0,0,1,13.69-3,29.37,29.37,0,0,1,13.24,2.93,28.49,28.49,0,0,1,10.07,8.37,40.12,40.12,0,0,1,6.44,13.16A61.36,61.36,0,0,1,370.08,306a63.79,63.79,0,0,1-2.6,18.77,43.67,43.67,0,0,1-7.39,14.48,33.48,33.48,0,0,1-11.43,9.33,32.79,32.79,0,0,1-14.81,3.3,29.4,29.4,0,0,1-7.09-.79A25.52,25.52,0,0,1,321,349a26.42,26.42,0,0,1-4.87-3.34,37.63,37.63,0,0,1-4.2-4.34l-.91,5.12a5.57,5.57,0,0,1-1.9,3.34,6,6,0,0,1-3.55.95h-15.1v-123h22.78Zm0,52.81a18.1,18.1,0,0,0,7,5.19,21,21,0,0,0,7.8,1.49,18.5,18.5,0,0,0,7.63-1.53,14.83,14.83,0,0,0,5.9-4.86,24.27,24.27,0,0,0,3.79-8.71,54.92,54.92,0,0,0,1.32-12.95,53.33,53.33,0,0,0-1.07-11.51,22,22,0,0,0-3.18-7.8,12.66,12.66,0,0,0-5.15-4.46,16.94,16.94,0,0,0-7.1-1.4,17.65,17.65,0,0,0-9.28,2.35,30.21,30.21,0,0,0-7.63,6.89Z"/><path class="cls-3" d="M459.35,265.61v85.07h-14q-4.38,0-5.61-4l-1.49-5.94a59.92,59.92,0,0,1-5.28,4.54,34.11,34.11,0,0,1-5.82,3.54,31.89,31.89,0,0,1-6.68,2.31,34.75,34.75,0,0,1-7.8.83,30.24,30.24,0,0,1-12.33-2.39,24.82,24.82,0,0,1-9-6.69,29.64,29.64,0,0,1-5.53-10.23,42.78,42.78,0,0,1-1.89-13V265.61h22.77v54.05q0,7.09,3.26,11t9.69,3.92a19.91,19.91,0,0,0,9-2.1,33.2,33.2,0,0,0,8-5.74V265.61Z"/><path class="cls-3" d="M501.1,227.66v123H478.33v-123Z"/><path class="cls-3" d="M541.2,275.51a55.2,55.2,0,0,1,5.33-4.54,35.58,35.58,0,0,1,5.85-3.54,32,32,0,0,1,6.69-2.31,34.73,34.73,0,0,1,7.79-.83,30,30,0,0,1,12.3,2.39,25.3,25.3,0,0,1,9,6.69,28.68,28.68,0,0,1,5.53,10.23,43.41,43.41,0,0,1,1.86,13v54.05H572.89V296.63q0-7.1-3.3-11t-9.74-3.92a20.2,20.2,0,0,0-9,2.06,31,31,0,0,0-8,5.78v61.14H520.08V265.61h14a5.51,5.51,0,0,1,5.69,4Z"/><path class="cls-3" d="M675.78,274.85a13.51,13.51,0,0,1-.83,4.66,10.54,10.54,0,0,1-2.14,3.68L634.6,333.52h40.1v17.16H608.28v-9.41a10.65,10.65,0,0,1,.79-3.54,16.22,16.22,0,0,1,2.18-4.05l38.54-50.91H610.68V265.61h65.1Z"/></g></g><g id="_004-ambulance" data-name=" 004-ambulance"><path id="Path" class="cls-3" d="M390,42.74a4,4,0,0,0,4.2-3.68V31.71a4.24,4.24,0,0,0-8.41,0v7.35A4,4,0,0,0,390,42.74Z"/><path id="Path-2" class="cls-3" d="M402.65,49.05a4.2,4.2,0,0,0,3-1.23l4.21-4.21a4.2,4.2,0,0,0-5.95-5.94l-4.2,4.2a4.21,4.21,0,0,0,3,7.18Z"/><path id="Path-3" class="cls-3" d="M374.45,47.82a4.2,4.2,0,0,0,5.94-6l-4.2-4.2a4.2,4.2,0,0,0-5.94,5.94Z"/><path id="Path-4" class="cls-4" d="M299.64,89.78h8.41v7.88a4.21,4.21,0,0,0,8.41,0V89.78h8.41a3.95,3.95,0,1,0,0-7.88h-8.41V74a4.21,4.21,0,0,0-8.41,0V81.9h-8.41a3.95,3.95,0,1,0,0,7.88Z"/><path id="Shape" class="cls-3" d="M406.2,192A23.92,23.92,0,0,1,392,187.38a24.67,24.67,0,0,1-8.76-11.74h-60a24.73,24.73,0,0,1-8.76,11.74,24.1,24.1,0,0,1-28.36,0,24.69,24.69,0,0,1-8.76-11.73h-9.65a12.26,12.26,0,0,1-12.22-12.26V61.2a16.36,16.36,0,0,1,16.3-16.36h93.68a4.09,4.09,0,0,1,4.07,4.09V69.37h8.14V65.28A12.22,12.22,0,0,1,402.12,65v4.41h4.08a4.07,4.07,0,0,1,2.88,1.2l40.73,40.87a4.12,4.12,0,0,1,1.19,2.89v45a16.34,16.34,0,0,1-16.29,16.35h-5.57a24.73,24.73,0,0,1-8.76,11.74A23.91,23.91,0,0,1,406.2,192Zm0-40.88a16.35,16.35,0,1,0,16.29,16.41v-.06a16.34,16.34,0,0,0-16.29-16.35Zm-105.9,0a16.35,16.35,0,1,0,16.29,16.41v-.06a16.34,16.34,0,0,0-16.29-16.35ZM406.2,143a24.51,24.51,0,0,1,24.44,24.52h4.07a8.16,8.16,0,0,0,8.14-8.17V116L404.51,77.55h-35v89.92h12.22A24.51,24.51,0,0,1,406.2,143Zm-105.9,0a24.5,24.5,0,0,1,24.43,24.52h36.66V126.6H263.64v36.79a4.09,4.09,0,0,0,4.07,4.09h8.15A24.51,24.51,0,0,1,300.3,143ZM271.79,53a8.16,8.16,0,0,0-8.15,8.18v57.22h97.75V53ZM389.91,61.2a4.08,4.08,0,0,0-4.08,4.08v4.09H394V65.28A4.08,4.08,0,0,0,389.91,61.2Z"/><path id="Path-5" class="cls-3" d="M389.86,84.79a4.11,4.11,0,0,0-4,4.2v33.64a4.12,4.12,0,0,0,4,4.2h40.29a4.21,4.21,0,1,0,0-8.41H393.89V89A4.12,4.12,0,0,0,389.86,84.79Z"/></g></svg>