<svg id="Layer_1" data-name="Layer 1" xmlns="http://www.w3.org/2000/svg" xmlns:xlink="http://www.w3.org/1999/xlink" viewBox="0 0 579.8 181.87"><defs><style>.cls-1{fill:none;}.cls-2{clip-path:url(#clip-path);}.cls-3{fill:#57b7df;}.cls-4{fill:#4d4d4d;}</style><clipPath id="clip-path" transform="translate(-57.93 -98.33)"><path class="cls-1" d="M196.41,156.2H99.27V139.67h97.14Zm-31,49.6H101.34V189.27h64.07ZM99.27,164.47h97.14V181H99.27Zm114.06-55.8h-129a16.06,16.06,0,0,0-16,16.09l-.07,145.11,32.23-32.28H213.33a16.17,16.17,0,0,0,16.14-16.09V124.76A16.17,16.17,0,0,0,213.33,108.67Z"/></clipPath></defs><title>Ask-horizontal</title><g class="cls-2"><rect class="cls-3" width="181.87" height="181.87"/></g><path class="cls-4" d="M382.72,269.33H356.4a11.31,11.31,0,0,1-7-2,8.13,8.13,0,0,1-3.18-5.38l-4.7-27.36H289.78L278.5,261.91a11.35,11.35,0,0,1-4.49,5.17,13,13,0,0,1-7.42,2.25H239.86l72.68-152.15h34.88Zm-83.44-58H337.5l-7.41-43.44q-.94-5.43-2-11t-1.83-10.18c-.55,1.67-1.29,3.57-2.19,5.69s-1.79,4.2-2.66,6.21-1.71,3.9-2.51,5.64-1.37,3-1.72,3.87Z" transform="translate(-57.93 -98.33)"/><path class="cls-4" d="M485.06,147.67a13.42,13.42,0,0,1-3.6,3.65,8,8,0,0,1-4.34,1.15,8.75,8.75,0,0,1-4.8-1.56c-1.6-1-3.4-2.2-5.38-3.45A43.59,43.59,0,0,0,460.1,144a24.23,24.23,0,0,0-9.09-1.56,23.64,23.64,0,0,0-8.4,1.36,16.62,16.62,0,0,0-6,3.75,15.65,15.65,0,0,0-3.6,5.64,20.33,20.33,0,0,0-1.2,7.11,10.53,10.53,0,0,0,2.35,7,21.19,21.19,0,0,0,6.27,5,62.54,62.54,0,0,0,8.82,3.92q4.9,1.77,10.08,3.86a98.45,98.45,0,0,1,10.13,4.81,36.85,36.85,0,0,1,8.87,6.78,31,31,0,0,1,6.27,9.82,36.47,36.47,0,0,1,2.35,13.78,58.84,58.84,0,0,1-4,21.62,52.21,52.21,0,0,1-11.38,17.7,54.15,54.15,0,0,1-18,12,64.16,64.16,0,0,1-37.07,3,69,69,0,0,1-12.74-4.13,64.46,64.46,0,0,1-11.33-6.32,43.54,43.54,0,0,1-8.88-8.14l12.12-15.87a10.5,10.5,0,0,1,3.55-2.93A9.43,9.43,0,0,1,403.6,231a9.53,9.53,0,0,1,5.7,2l6.1,4.49a44.32,44.32,0,0,0,7.78,4.49,26.09,26.09,0,0,0,10.92,2q9.5,0,14.67-5.17t5.17-15.3a12.23,12.23,0,0,0-2.35-7.73,19.68,19.68,0,0,0-6.16-5.12,52.43,52.43,0,0,0-8.72-3.7q-4.92-1.62-10-3.5a84,84,0,0,1-10-4.44,31,31,0,0,1-14.88-16.81,40.68,40.68,0,0,1-2.35-14.78,51.23,51.23,0,0,1,14.72-36A52.59,52.59,0,0,1,431.38,120a61.22,61.22,0,0,1,35.35-2.93,59.24,59.24,0,0,1,11.44,3.76,51.47,51.47,0,0,1,9.71,5.69,39.52,39.52,0,0,1,7.41,7.16Z" transform="translate(-57.93 -98.33)"/><path class="cls-4" d="M540.61,179.42h5a16.23,16.23,0,0,0,6.47-1.21,10.37,10.37,0,0,0,4.6-3.81L592.83,124a14.44,14.44,0,0,1,6.68-5.43,25.94,25.94,0,0,1,8.77-1.35h29.45L589.9,179.31a28.39,28.39,0,0,1-5,5.33,33.49,33.49,0,0,1-5.43,3.55,21.41,21.41,0,0,1,6.27,3.91,19.68,19.68,0,0,1,4.59,6.63l32.17,70.6H592.2a25,25,0,0,1-5-.42,12.14,12.14,0,0,1-3.44-1.2,7.57,7.57,0,0,1-2.35-2,11.8,11.8,0,0,1-1.57-2.67l-23.6-53.46a8.08,8.08,0,0,0-3.92-4.23,16.58,16.58,0,0,0-6.94-1.2h-7.83l-8.05,65.16H495.71L514.3,117.18h34Z" transform="translate(-57.93 -98.33)"/></svg>