<svg id="Layer_1" data-name="Layer 1" xmlns="http://www.w3.org/2000/svg" xmlns:xlink="http://www.w3.org/1999/xlink" viewBox="0 0 701 401"><defs><style>.cls-1,.cls-5{fill:none;}.cls-2{clip-path:url(#clip-path);}.cls-3{fill:#57b7df;}.cls-4{fill:#4d4d4d;}.cls-5{stroke:#bdccd4;stroke-miterlimit:10;opacity:0;}</style><clipPath id="clip-path" transform="translate(0.5 0.5)"><path class="cls-1" d="M168.76,156.59H54.47V137.14H168.76ZM132.29,215H56.91V195.5h75.38ZM54.47,166.32H168.76v19.45H54.47Zm134.21-65.65H36.93A18.91,18.91,0,0,0,18.08,119.6L18,290.33l37.92-38H188.68a19,19,0,0,0,19-18.93V119.6A19,19,0,0,0,188.68,100.67Z"/></clipPath></defs><title>Ask</title><g class="cls-2"><rect class="cls-3" x="6.34" y="89.01" width="213.98" height="213.98"/></g><path class="cls-4" d="M388,289.69H357a13.34,13.34,0,0,1-8.29-2.39A9.55,9.55,0,0,1,345,281l-5.53-32.19H278.62L265.35,281a13.41,13.41,0,0,1-5.29,6.08,15.31,15.31,0,0,1-8.72,2.64H219.89l85.51-179h41ZM289.8,221.5h45L326,170.39q-1.1-6.39-2.39-13t-2.15-12c-.66,2-1.52,4.2-2.58,6.7s-2.11,4.93-3.14,7.31-2,4.58-2.95,6.63-1.61,3.56-2,4.55Z" transform="translate(0.5 0.5)"/><path class="cls-4" d="M508.37,146.56a15.75,15.75,0,0,1-4.24,4.3,9.36,9.36,0,0,1-5.09,1.35,10.31,10.31,0,0,1-5.66-1.85c-1.88-1.22-4-2.58-6.32-4.05a50.75,50.75,0,0,0-8.05-4.05,31.6,31.6,0,0,0-20.58-.25,19.62,19.62,0,0,0-7.07,4.42,18.33,18.33,0,0,0-4.24,6.64,23.87,23.87,0,0,0-1.41,8.35,12.38,12.38,0,0,0,2.77,8.23,25,25,0,0,0,7.37,5.84,73.92,73.92,0,0,0,10.38,4.61q5.77,2.09,11.86,4.54A115.42,115.42,0,0,1,490,190.29a43.55,43.55,0,0,1,10.45,8,36.35,36.35,0,0,1,7.37,11.55,42.86,42.86,0,0,1,2.76,16.22,69.11,69.11,0,0,1-4.66,25.43,61.52,61.52,0,0,1-13.4,20.83,63.59,63.59,0,0,1-21.19,14.13,75.5,75.5,0,0,1-43.62,3.5,82,82,0,0,1-15-4.85,76.54,76.54,0,0,1-13.33-7.44A51,51,0,0,1,389,268.07l14.25-18.68a12.39,12.39,0,0,1,4.18-3.44,11,11,0,0,1,5.16-1.35,11.16,11.16,0,0,1,6.69,2.4l7.19,5.28a51.41,51.41,0,0,0,9.15,5.28,30.69,30.69,0,0,0,12.84,2.4q11.19,0,17.27-6.08t6.08-18a14.33,14.33,0,0,0-2.77-9.09,22.86,22.86,0,0,0-7.24-6,61.57,61.57,0,0,0-10.26-4.37q-5.79-1.91-11.8-4.11a102.68,102.68,0,0,1-11.79-5.22,36.53,36.53,0,0,1-17.51-19.79q-2.76-7-2.77-17.38A60.34,60.34,0,0,1,425,127.51,61.9,61.9,0,0,1,445.22,114a72.09,72.09,0,0,1,41.59-3.44A68.86,68.86,0,0,1,500.26,115a59.47,59.47,0,0,1,11.43,6.7,46,46,0,0,1,8.72,8.41Z" transform="translate(0.5 0.5)"/><path class="cls-4" d="M573.74,183.91h5.89a19.14,19.14,0,0,0,7.62-1.42,12.25,12.25,0,0,0,5.41-4.48l42.51-59.35a16.83,16.83,0,0,1,7.86-6.38,30.23,30.23,0,0,1,10.32-1.6H688l-56.27,73.1a33.76,33.76,0,0,1-5.9,6.27,39.14,39.14,0,0,1-6.39,4.18,25.28,25.28,0,0,1,7.37,4.6,23.26,23.26,0,0,1,5.41,7.81l37.84,83.05H634.43a29.48,29.48,0,0,1-5.84-.49,14.54,14.54,0,0,1-4.05-1.41,8.86,8.86,0,0,1-2.76-2.34,14.11,14.11,0,0,1-1.85-3.13l-27.76-62.91a9.55,9.55,0,0,0-4.61-5,19.55,19.55,0,0,0-8.17-1.42h-9.22l-9.46,76.67H520.9l21.87-179h40.06Z" transform="translate(0.5 0.5)"/><rect class="cls-5" x="0.5" y="0.5" width="700" height="400"/></svg>