<svg width="695" height="128" viewBox="0 0 695 128" fill="none" xmlns="http://www.w3.org/2000/svg">
<path d="M390.863 42.0793H368.582V18.2296C368.582 17.4252 369.239 16.7695 370.041 16.7695H389.403C390.205 16.7695 390.863 17.4262 390.863 18.2285V42.0793Z" fill="#53B5C9"/>
<path d="M368.581 64.3589H390.863V88.2096C390.863 89.013 390.206 89.6697 389.404 89.6697H370.041C369.239 89.6697 368.582 89.013 368.582 88.2096V64.36" fill="#DC701A"/>
<path d="M368.581 42.0791V64.3592H344.731C343.929 64.3592 343.272 63.7025 343.272 62.9002V43.5381C343.272 42.7358 343.929 42.0791 344.731 42.0791H368.581Z" fill="#E32687"/>
<path d="M390.863 64.3592V42.0791H414.713C415.516 42.0791 416.172 42.7358 416.172 43.5381V62.9002C416.172 63.7025 415.516 64.3592 414.712 64.3592H390.863Z" fill="#6BC42E"/>
<path d="M390.863 64.3602H368.582V42.0779H390.863V64.3602Z" fill="#254A9B"/>
<path d="M22.3427 73.9361C22.3427 78.5441 24.9882 80.8448 30.2802 80.8448C33.022 80.8448 36.1096 79.4263 39.5398 76.5816V64.8242C37.5796 64.7268 35.9389 64.6524 34.6167 64.602C33.6124 64.561 32.6075 64.5369 31.6024 64.5298C25.4293 64.5298 22.3427 67.6656 22.3427 73.9361ZM66.7333 84.9624C66.2418 87.0201 65.3115 89.2255 63.9411 91.5777C62.5675 93.9276 61.1468 95.6416 59.678 96.7219C52.8175 96.5249 47.5255 93.9276 43.803 88.9311C37.4307 94.8098 30.5221 97.7497 23.076 97.7497C19.2561 97.7497 15.9211 97.1367 13.0808 95.9131C10.2373 94.6905 7.83808 93.0465 5.87779 90.9888C3.92615 88.9468 2.42427 86.5184 1.46905 83.8602C0.485881 81.1509 -0.0113631 78.2893 0.000197018 75.4072C0.000197018 71.1933 0.757607 67.4938 2.2768 64.3087C3.796 61.1236 5.87779 58.4793 8.52653 56.3723C11.1709 54.2654 14.2585 52.6728 17.7862 51.5947C21.3138 50.5166 25.0856 49.977 29.1036 49.977C31.3572 49.977 33.3416 50.0022 35.0578 50.0504C36.7718 50.1018 38.2658 50.1751 39.5398 50.2703V47.4465C39.5398 41.1968 36.3548 38.0697 29.9858 38.0697C25.8703 38.0697 18.6684 39.6874 8.37877 42.9217C5.43779 39.4926 3.57491 34.1524 2.79342 26.9001C5.14555 26.0179 7.76474 25.1861 10.6565 24.4002C13.546 23.6176 16.5122 22.9303 19.5506 22.3425C22.5868 21.7547 25.5759 21.2907 28.5147 20.9459C31.4568 20.6033 34.1012 20.4315 36.4533 20.4315C39.8835 20.4315 43.1901 20.9229 46.3751 21.9014C49.5591 22.8821 52.3512 24.3772 54.7548 26.3846C57.154 28.3952 59.065 30.9925 60.4868 34.1765C61.9064 37.3615 62.6179 41.1574 62.6179 45.5672V75.4072C62.6179 79.9144 63.9893 83.1028 66.7333 84.9624ZM74.7999 91.3303C74.8273 88.7822 75.4128 85.9715 76.5566 82.9025C77.6982 79.8334 79.0773 77.3915 80.6983 75.5845C88.6445 79.4886 95.5072 81.3603 101.288 81.2038C104.029 81.1304 106.126 80.6105 107.57 79.6386C109.014 78.6688 109.715 77.4003 109.673 75.8308C109.594 72.8931 107.279 70.75 102.734 69.4015L94.5703 66.5339C82.2022 62.3605 75.8835 55.1782 75.6077 44.9904C75.4074 37.5465 77.8186 31.5748 82.8447 27.0763C87.8696 22.58 94.7399 20.2115 103.46 19.9761C107.77 19.859 112.537 20.345 117.762 21.4286C122.986 22.5143 127.287 23.8431 130.663 25.4181C130.933 28.1577 130.474 31.183 129.291 34.4983C128.105 37.8147 126.599 40.1843 124.777 41.605C116.448 38.1047 109.541 36.4279 104.054 36.5757C102.095 36.6293 100.614 37.1098 99.6106 38.0194C98.6036 38.9289 98.1198 40.0694 98.157 41.4408C98.2194 43.7919 100.13 45.6033 103.892 46.874L113.089 49.861C126.241 54.1154 132.968 61.823 133.269 72.9905C133.467 80.338 130.929 86.2386 125.66 90.6933C120.389 95.148 112.756 97.5122 102.766 97.7814C92.7731 98.0507 83.4521 95.901 74.7988 91.3314M228.862 50.4181H248.12V48.8015C248.12 45.1786 247.314 42.1862 245.712 39.8341C244.106 37.483 241.7 36.3064 238.491 36.3064C235.38 36.3064 233.068 37.4097 231.562 39.6141C230.055 41.8184 229.154 45.4216 228.862 50.4181ZM267.235 66.292H229.009C229.205 70.6569 230.328 74.0522 232.376 76.4743C234.425 78.8998 237.794 80.1092 242.481 80.1092C244.823 80.1092 247.533 79.7809 250.608 79.1154C253.681 78.4543 257.221 77.3642 261.225 75.8483C264.445 79.18 266.447 83.6872 267.227 89.3722C259.386 94.9564 249.785 97.7486 238.418 97.7486C232.245 97.7486 227.073 96.7701 222.909 94.8087C218.743 92.8495 215.363 90.1077 212.767 86.5779C210.169 83.0513 208.332 78.8867 207.256 74.0839C206.174 69.2844 205.639 64.0405 205.639 58.3556C205.639 52.8687 206.299 47.7978 207.622 43.1417C208.947 38.4889 210.953 34.4468 213.648 31.0144C216.344 27.5864 219.772 24.8916 223.939 22.9303C228.103 20.9711 232.979 19.9904 238.564 19.9904C243.268 19.9904 247.506 20.7762 251.28 22.3425C255.05 23.9099 258.261 26.0672 260.907 28.8111C263.553 31.554 265.585 34.8365 267.007 38.6586C268.427 42.4806 269.139 46.6464 269.139 51.1536C269.139 57.1319 268.501 62.1755 267.235 66.292ZM326.024 22.0492C326.611 24.768 326.905 27.4868 326.905 30.2066C326.905 32.9254 326.611 35.5972 326.024 38.2186L308.532 37.923V71.7329C308.532 76.3408 310.686 78.6415 315 78.6415H323.23C324.503 82.1987 325.14 85.4604 325.14 88.4243C325.14 91.3905 324.943 93.5139 324.554 94.7988C317.299 95.7861 310.638 96.2797 304.562 96.2797C292.216 96.2797 286.042 89.4521 286.042 75.7946V38.0697L274.577 38.2175C273.893 35.7898 273.547 33.1443 273.547 30.2778C273.547 27.4134 273.893 24.6716 274.577 22.0481L286.042 22.3425V13.8162C286.042 8.81967 286.997 5.26794 288.909 3.15989C290.819 1.05403 294.028 0 298.535 0H307.503L308.532 1.02885V22.3425L326.024 22.0492ZM477.327 51.3003C477.327 44.7353 475.124 41.4507 470.712 41.4507C469.145 41.4507 467.554 41.918 465.935 42.8484C464.32 43.7798 462.677 44.9783 461.012 46.4494V95.5442C459.344 95.8397 457.533 96.0586 455.575 96.2053C453.569 96.3546 451.558 96.4287 449.546 96.4275C447.489 96.4275 445.479 96.352 443.522 96.2053C441.699 96.0758 439.883 95.8551 438.082 95.5442V22.1947L439.11 21.167H447.636C453.907 21.167 458.023 24.2535 459.982 30.4277C466.94 24.0576 473.701 20.8726 480.268 20.8726C488.206 20.8726 493.939 24.2535 497.466 31.0155C505.111 24.2535 512.361 20.8726 519.223 20.8726C526.081 20.8726 531.202 23.0036 534.583 27.2668C537.963 31.5288 539.654 37.1886 539.654 44.245V77.1694C539.654 83.5417 540.877 88.3915 543.327 91.7221C539.603 95.0539 535.144 96.7197 529.952 96.7197C524.855 96.7197 521.375 95.5431 519.517 93.1921C517.652 90.8389 516.721 87.263 516.721 82.4614V51.1525C516.721 44.6839 514.418 41.4496 509.813 41.4496C506.97 41.4496 503.835 43.1658 500.406 46.5949V95.542C498.738 95.8375 496.927 96.0564 494.969 96.2042C492.963 96.3535 490.952 96.4276 488.941 96.4264C486.883 96.4264 484.849 96.3509 482.839 96.2042C480.992 96.0771 479.152 95.8564 477.327 95.5431V51.3003ZM573.325 73.9361C573.325 78.5441 575.97 80.8448 581.26 80.8448C584.004 80.8448 587.089 79.4263 590.523 76.5816V64.8242C588.882 64.7415 587.241 64.6674 585.6 64.602C584.595 64.561 583.59 64.5369 582.585 64.5298C576.412 64.5298 573.325 67.6656 573.325 73.9361ZM617.717 84.9613C617.225 87.019 616.294 89.2244 614.924 91.5766C613.549 93.9265 612.132 95.6405 610.661 96.7208C603.8 96.5238 598.508 93.9265 594.785 88.93C588.415 94.8087 581.506 97.7486 574.06 97.7486C570.238 97.7486 566.905 97.1356 564.064 95.912C561.222 94.6894 558.819 93.0454 556.862 90.9877C554.91 88.9453 553.408 86.517 552.451 83.8591C551.469 81.1498 550.973 78.2888 550.983 75.4072C550.983 71.1933 551.742 67.4938 553.262 64.3087C554.78 61.1236 556.863 58.4793 559.507 56.3723C562.156 54.2654 565.243 52.6728 568.769 51.5947C572.298 50.5166 576.07 49.977 580.089 49.977C582.341 49.977 584.324 50.0022 586.04 50.0504C587.755 50.1018 589.249 50.1751 590.524 50.2703V47.4465C590.524 41.1968 587.337 38.0697 580.969 38.0697C576.853 38.0697 569.651 39.6874 559.361 42.9217C556.422 39.4926 554.558 34.1524 553.776 26.9001C556.127 26.0179 558.75 25.1861 561.639 24.4002C564.529 23.6176 567.494 22.9303 570.532 22.3425C573.57 21.7547 576.561 21.2907 579.499 20.9459C582.44 20.6033 585.084 20.4315 587.437 20.4315C590.864 20.4315 594.173 20.9229 597.358 21.9014C600.541 22.8821 603.334 24.3772 605.738 26.3846C608.137 28.3952 610.049 30.9925 611.471 34.1765C612.89 37.3615 613.601 41.1574 613.601 45.5672V75.4072C613.601 79.9144 614.973 83.1017 617.718 84.9613M662.554 38.3641C658.439 38.3641 654.86 40.3255 651.824 44.245V76.5816C655.548 78.8385 658.732 79.9626 661.379 79.9626C668.043 79.9626 671.375 72.5669 671.375 57.7678C671.375 44.8328 668.435 38.3641 662.554 38.3641ZM665.302 97.0152C660.811 97.0152 656.316 95.9864 651.824 93.9265V113.478C651.824 118.572 650.891 122.152 649.033 124.209C647.167 126.265 643.886 127.295 639.184 127.295H630.363L629.337 126.265V22.1947L630.363 21.167H636.391C641.976 21.167 646.14 23.5684 648.885 28.3689C654.454 22.7836 661.241 19.9904 669.253 19.9904C673.354 19.9904 676.967 20.8977 680.093 22.7103C683.219 24.5239 685.881 27.0971 688.08 30.4277C690.276 33.7595 691.937 37.7764 693.061 42.4806C694.183 47.1849 694.747 52.4758 694.747 58.3545C694.747 64.2354 693.988 69.5766 692.474 74.3783C690.961 79.18 688.888 83.2494 686.252 86.5779C683.613 89.9118 680.513 92.4828 676.95 94.2954C673.383 96.1068 669.498 97.0152 665.302 97.0152Z" fill="#393E3F"/>
<path d="M139.558 91.3303C139.586 88.7823 140.172 85.9715 141.314 82.9025C142.457 79.8334 143.836 77.3916 145.456 75.5845C153.402 79.4887 160.265 81.3603 166.047 81.2038C168.788 81.1304 170.883 80.6105 172.328 79.6386C173.771 78.6689 174.473 77.4003 174.431 75.8308C174.353 72.8931 172.036 70.75 167.492 69.4015L159.328 66.5339C146.96 62.3605 140.641 55.1782 140.365 44.9893C140.165 37.5454 142.577 31.5737 147.603 27.0752C152.627 22.5789 159.499 20.2104 168.219 19.9751C172.528 19.858 177.295 20.3439 182.52 21.4275C187.745 22.5133 192.045 23.842 195.421 25.417C195.691 28.1566 195.233 31.1819 194.05 34.4972C192.863 37.8136 191.358 40.1832 189.534 41.6039C181.205 38.1037 174.298 36.4268 168.812 36.5746C166.853 36.6282 165.371 37.1087 164.367 38.0183C163.361 38.9278 162.879 40.0683 162.915 41.4398C162.978 43.7908 164.888 45.6022 168.649 46.873L177.847 49.8599C190.999 54.1143 197.727 61.822 198.027 72.9894C198.226 80.3369 195.688 86.2375 190.418 90.6922C185.147 95.1469 177.515 97.5111 167.524 97.7803C157.531 98.0496 148.211 95.8999 139.558 91.3303Z" fill="#393E3F"/>
</svg>
