<svg width="700" height="400" viewBox="0 0 700 400" fill="none" xmlns="http://www.w3.org/2000/svg">
<path d="M393.863 178.079H371.582V154.23C371.582 153.425 372.239 152.77 373.041 152.77H392.403C393.205 152.77 393.863 153.426 393.863 154.229V178.079Z" fill="#53B5C9"/>
<path d="M371.581 200.359H393.863V224.21C393.863 225.013 393.206 225.67 392.404 225.67H373.041C372.239 225.67 371.582 225.013 371.582 224.21V200.36" fill="#DC701A"/>
<path d="M371.581 178.079V200.359H347.731C346.929 200.359 346.272 199.702 346.272 198.9V179.538C346.272 178.736 346.929 178.079 347.731 178.079H371.581Z" fill="#E32687"/>
<path d="M393.863 200.359V178.079H417.713C418.516 178.079 419.172 178.736 419.172 179.538V198.9C419.172 199.702 418.516 200.359 417.712 200.359H393.863Z" fill="#6BC42E"/>
<path d="M393.863 200.36H371.582V178.078H393.863V200.36Z" fill="#254A9B"/>
<path d="M25.3427 209.936C25.3427 214.544 27.9882 216.845 33.2802 216.845C36.022 216.845 39.1096 215.426 42.5398 212.582V200.824C40.5796 200.727 38.9389 200.652 37.6167 200.602C36.6124 200.561 35.6075 200.537 34.6024 200.53C28.4293 200.53 25.3427 203.666 25.3427 209.936ZM69.7333 220.962C69.2418 223.02 68.3115 225.226 66.9411 227.578C65.5675 229.928 64.1468 231.642 62.678 232.722C55.8175 232.525 50.5255 229.928 46.803 224.931C40.4307 230.81 33.5221 233.75 26.076 233.75C22.2561 233.75 18.9211 233.137 16.0808 231.913C13.2373 230.69 10.8381 229.047 8.87779 226.989C6.92615 224.947 5.42427 222.518 4.46905 219.86C3.48588 217.151 2.98864 214.289 3.0002 211.407C3.0002 207.193 3.75761 203.494 5.2768 200.309C6.796 197.124 8.87779 194.479 11.5265 192.372C14.1709 190.265 17.2585 188.673 20.7862 187.595C24.3138 186.517 28.0856 185.977 32.1036 185.977C34.3572 185.977 36.3416 186.002 38.0578 186.05C39.7718 186.102 41.2658 186.175 42.5398 186.27V183.446C42.5398 177.197 39.3548 174.07 32.9858 174.07C28.8703 174.07 21.6684 175.687 11.3788 178.922C8.43779 175.493 6.57491 170.152 5.79342 162.9C8.14555 162.018 10.7647 161.186 13.6565 160.4C16.546 159.618 19.5122 158.93 22.5506 158.342C25.5868 157.755 28.5759 157.291 31.5147 156.946C34.4568 156.603 37.1012 156.431 39.4533 156.431C42.8835 156.431 46.1901 156.923 49.3751 157.901C52.5591 158.882 55.3512 160.377 57.7548 162.385C60.154 164.395 62.065 166.993 63.4868 170.176C64.9064 173.362 65.6179 177.157 65.6179 181.567V211.407C65.6179 215.914 66.9893 219.103 69.7333 220.962ZM77.7999 227.33C77.8273 224.782 78.4128 221.972 79.5566 218.902C80.6982 215.833 82.0773 213.392 83.6983 211.584C91.6445 215.489 98.5072 217.36 104.288 217.204C107.029 217.13 109.126 216.611 110.57 215.639C112.014 214.669 112.715 213.4 112.673 211.831C112.594 208.893 110.279 206.75 105.734 205.402L97.5703 202.534C85.2022 198.36 78.8835 191.178 78.6077 180.99C78.4074 173.547 80.8186 167.575 85.8447 163.076C90.8696 158.58 97.7399 156.211 106.46 155.976C110.77 155.859 115.537 156.345 120.762 157.429C125.986 158.514 130.287 159.843 133.663 161.418C133.933 164.158 133.474 167.183 132.291 170.498C131.105 173.815 129.599 176.184 127.777 177.605C119.448 174.105 112.541 172.428 107.054 172.576C105.095 172.629 103.614 173.11 102.611 174.019C101.604 174.929 101.12 176.069 101.157 177.441C101.219 179.792 103.13 181.603 106.892 182.874L116.089 185.861C129.241 190.115 135.968 197.823 136.269 208.99C136.467 216.338 133.929 222.239 128.66 226.693C123.389 231.148 115.756 233.512 105.766 233.781C95.7731 234.051 86.4521 231.901 77.7988 227.331M231.862 186.418H251.12V184.801C251.12 181.179 250.314 178.186 248.712 175.834C247.106 173.483 244.7 172.306 241.491 172.306C238.38 172.306 236.068 173.41 234.562 175.614C233.055 177.818 232.154 181.422 231.862 186.418ZM270.235 202.292H232.009C232.205 206.657 233.328 210.052 235.376 212.474C237.425 214.9 240.794 216.109 245.481 216.109C247.823 216.109 250.533 215.781 253.608 215.115C256.681 214.454 260.221 213.364 264.225 211.848C267.445 215.18 269.447 219.687 270.227 225.372C262.386 230.956 252.785 233.749 241.418 233.749C235.245 233.749 230.073 232.77 225.909 230.809C221.743 228.849 218.363 226.108 215.767 222.578C213.169 219.051 211.332 214.887 210.256 210.084C209.174 205.284 208.639 200.041 208.639 194.356C208.639 188.869 209.299 183.798 210.622 179.142C211.947 174.489 213.953 170.447 216.648 167.014C219.344 163.586 222.772 160.892 226.939 158.93C231.103 156.971 235.979 155.99 241.564 155.99C246.268 155.99 250.506 156.776 254.28 158.342C258.05 159.91 261.261 162.067 263.907 164.811C266.553 167.554 268.585 170.836 270.007 174.659C271.427 178.481 272.139 182.646 272.139 187.154C272.139 193.132 271.501 198.175 270.235 202.292ZM329.024 158.049C329.611 160.768 329.905 163.487 329.905 166.207C329.905 168.925 329.611 171.597 329.024 174.219L311.532 173.923V207.733C311.532 212.341 313.686 214.641 318 214.641H326.23C327.503 218.199 328.14 221.46 328.14 224.424C328.14 227.39 327.943 229.514 327.554 230.799C320.299 231.786 313.638 232.28 307.562 232.28C295.216 232.28 289.042 225.452 289.042 211.795V174.07L277.577 174.217C276.893 171.79 276.547 169.144 276.547 166.278C276.547 163.413 276.893 160.672 277.577 158.048L289.042 158.342V149.816C289.042 144.82 289.997 141.268 291.909 139.16C293.819 137.054 297.028 136 301.535 136H310.503L311.532 137.029V158.342L329.024 158.049ZM480.327 187.3C480.327 180.735 478.124 177.451 473.712 177.451C472.145 177.451 470.554 177.918 468.935 178.848C467.32 179.78 465.677 180.978 464.012 182.449V231.544C462.344 231.84 460.533 232.059 458.575 232.205C456.569 232.355 454.558 232.429 452.546 232.427C450.489 232.427 448.479 232.352 446.522 232.205C444.699 232.076 442.883 231.855 441.082 231.544V158.195L442.11 157.167H450.636C456.907 157.167 461.023 160.254 462.982 166.428C469.94 160.058 476.701 156.873 483.268 156.873C491.206 156.873 496.939 160.254 500.466 167.016C508.111 160.254 515.361 156.873 522.223 156.873C529.081 156.873 534.202 159.004 537.583 163.267C540.963 167.529 542.654 173.189 542.654 180.245V213.169C542.654 219.542 543.877 224.391 546.327 227.722C542.603 231.054 538.144 232.72 532.952 232.72C527.855 232.72 524.375 231.543 522.517 229.192C520.652 226.839 519.721 223.263 519.721 218.461V187.153C519.721 180.684 517.418 177.45 512.813 177.45C509.97 177.45 506.835 179.166 503.406 182.595V231.542C501.738 231.838 499.927 232.056 497.969 232.204C495.963 232.354 493.952 232.428 491.941 232.426C489.883 232.426 487.849 232.351 485.839 232.204C483.992 232.077 482.152 231.856 480.327 231.543V187.3ZM576.325 209.936C576.325 214.544 578.97 216.845 584.26 216.845C587.004 216.845 590.089 215.426 593.523 212.582V200.824C591.882 200.741 590.241 200.667 588.6 200.602C587.595 200.561 586.59 200.537 585.585 200.53C579.412 200.53 576.325 203.666 576.325 209.936ZM620.717 220.961C620.225 223.019 619.294 225.224 617.924 227.577C616.549 229.926 615.132 231.641 613.661 232.721C606.8 232.524 601.508 229.926 597.785 224.93C591.415 230.809 584.506 233.749 577.06 233.749C573.238 233.749 569.905 233.136 567.064 231.912C564.222 230.689 561.819 229.045 559.862 226.988C557.91 224.945 556.408 222.517 555.451 219.859C554.469 217.15 553.973 214.289 553.983 211.407C553.983 207.193 554.742 203.494 556.262 200.309C557.78 197.124 559.863 194.479 562.507 192.372C565.156 190.265 568.243 188.673 571.769 187.595C575.298 186.517 579.07 185.977 583.089 185.977C585.341 185.977 587.324 186.002 589.04 186.05C590.755 186.102 592.249 186.175 593.524 186.27V183.446C593.524 177.197 590.337 174.07 583.969 174.07C579.853 174.07 572.651 175.687 562.361 178.922C559.422 175.493 557.558 170.152 556.776 162.9C559.127 162.018 561.75 161.186 564.639 160.4C567.529 159.618 570.494 158.93 573.532 158.342C576.57 157.755 579.561 157.291 582.499 156.946C585.44 156.603 588.084 156.431 590.437 156.431C593.864 156.431 597.173 156.923 600.358 157.901C603.541 158.882 606.334 160.377 608.738 162.385C611.137 164.395 613.049 166.993 614.471 170.176C615.89 173.362 616.601 177.157 616.601 181.567V211.407C616.601 215.914 617.973 219.102 620.718 220.961M665.554 174.364C661.439 174.364 657.86 176.326 654.824 180.245V212.582C658.548 214.838 661.732 215.963 664.379 215.963C671.043 215.963 674.375 208.567 674.375 193.768C674.375 180.833 671.435 174.364 665.554 174.364ZM668.302 233.015C663.811 233.015 659.316 231.986 654.824 229.927V249.478C654.824 254.572 653.891 258.152 652.033 260.209C650.167 262.265 646.886 263.295 642.184 263.295H633.363L632.337 262.265V158.195L633.363 157.167H639.391C644.976 157.167 649.14 159.568 651.885 164.369C657.454 158.784 664.241 155.99 672.253 155.99C676.354 155.99 679.967 156.898 683.093 158.71C686.219 160.524 688.881 163.097 691.08 166.428C693.276 169.759 694.937 173.776 696.061 178.481C697.183 183.185 697.747 188.476 697.747 194.354C697.747 200.235 696.988 205.577 695.474 210.378C693.961 215.18 691.888 219.249 689.252 222.578C686.613 225.912 683.513 228.483 679.95 230.295C676.383 232.107 672.498 233.015 668.302 233.015Z" fill="#393E3F"/>
<path d="M142.558 227.33C142.586 224.782 143.172 221.972 144.314 218.902C145.457 215.833 146.836 213.392 148.456 211.584C156.402 215.489 163.265 217.36 169.047 217.204C171.788 217.13 173.883 216.611 175.328 215.639C176.771 214.669 177.473 213.4 177.431 211.831C177.353 208.893 175.036 206.75 170.492 205.402L162.328 202.534C149.96 198.36 143.641 191.178 143.365 180.989C143.165 173.545 145.577 167.574 150.603 163.075C155.627 158.579 162.499 156.21 171.219 155.975C175.528 155.858 180.295 156.344 185.52 157.428C190.745 158.513 195.045 159.842 198.421 161.417C198.691 164.157 198.233 167.182 197.05 170.497C195.863 173.814 194.358 176.183 192.534 177.604C184.205 174.104 177.298 172.427 171.812 172.575C169.853 172.628 168.371 173.109 167.367 174.018C166.361 174.928 165.879 176.068 165.915 177.44C165.978 179.791 167.888 181.602 171.649 182.873L180.847 185.86C193.999 190.114 200.727 197.822 201.027 208.989C201.226 216.337 198.688 222.237 193.418 226.692C188.147 231.147 180.515 233.511 170.524 233.78C160.531 234.05 151.211 231.9 142.558 227.33Z" fill="#393E3F"/>
</svg>
