<svg xmlns="http://www.w3.org/2000/svg" viewBox="0 0 738.1 684.1"> <path d="M366.3 662.3c-1.1 0-2.1-.2-3.2-.5l-1.3-.4-167.5-55.9c-4.2-1.4-7-5.3-7-9.7V377.3L27.5 324c-4.2-1.4-7-5.3-7-9.7v-225c0-.9.1-1.7.5-2.8l.1-.4V86c0-.1.1-.1.1-.2.3-.8.6-1.4.9-1.9.2-.2.3-.4.5-.7.1-.1.1-.2.2-.3.4-.5 1.1-1.2 1.8-1.7l.1-.1.2-.2c.1-.1.2-.1.2-.2.7-.5 1.5-.9 2.4-1.2l168.6-56.2c1.1-.4 2.2-.5 3.3-.5 1.1 0 2.2.2 3.2.5l164.8 55.1 165.2-55c1.1-.4 2.2-.5 3.3-.5 1.1 0 2.2.2 3.2.5l169 56.5h.1c.3.1 1.1.4 2.2 1.2l.1.1.2.2h.1l.4.3c.6.4 1.1.9 1.5 1.5.2.2.3.4.4.6l.2.3.2.2c.2.3.5 1 .8 1.7.1.3.2.5.3.8.3 1 .5 1.9.5 2.9v224.7c0 4.5-2.8 8.3-7 9.7l-162.7 54.3v217.5c0 4.5-2.8 8.3-7 9.7l-168 56-.8.2c-1.1.3-2.2.5-3.3.5zm-158.6-73.8L356 638V434.5L207.7 385v203.5zm168.8-154v203.3l148.2-49.4V385.1l-148.2 49.4zm-146.1-63.4l135.8 45.3 136.4-45.5-135.9-45.3-136.3 45.5zM40.9 307l148.3 49.5V153L40.9 103.5V307zm337.6.3l147.2 49.1V153l-147.2-49.1v203.4zM546.2 153v203.3L694.4 307V103.5L546.2 153zm-336.5 0v203L357 306.9V103.8L209.7 153zm189.8-63.7l136.4 45.5 136.4-45.5-136.4-45.4-136.4 45.4zM63 89.3l136.4 45.5 136.4-45.5-136.4-45.4L63 89.3z"></path> </svg>
