<svg id="Layer_1" data-name="Layer 1" xmlns="http://www.w3.org/2000/svg" viewBox="0 0 650.1 208.34"><defs><style>.cls-1{isolation:isolate;}.cls-2{fill:#1e2553;}.cls-3{fill:#509cca;}</style></defs><title>AYS</title><g id="AYS" class="cls-1"><g class="cls-1"><path class="cls-2" d="M398,296H371.91a10.88,10.88,0,0,1-7-2.08,9,9,0,0,1-3.25-5.58l-7.79-39.2h-70L266.5,288.3a14.15,14.15,0,0,1-4.68,5.32,12.1,12.1,0,0,1-7.26,2.34H228.07l90.74-187.71h34.4ZM294.41,225.34h54.65l-12.72-64.26c-.69-3.11-1.39-6.4-2.08-9.86s-1.34-7.36-1.94-11.69q-2.47,6.5-4.87,12T323,161.21Z" transform="translate(-20.9 -89.7)"/><path class="cls-2" d="M479,222.88,469.92,296H436.17l9.08-73.21-48.81-114.5h30q4.41,0,6.75,2.14a14.36,14.36,0,0,1,3.64,5.52l24.27,64.91A73.12,73.12,0,0,1,464,190q1.11,4.47,1.88,8.76c1.39-2.86,2.88-5.75,4.48-8.7s3.4-6,5.39-9.21l40.37-64.91a20.37,20.37,0,0,1,4.74-5.33,11.22,11.22,0,0,1,7.21-2.33H556Z" transform="translate(-20.9 -89.7)"/><path class="cls-2" d="M661,142a14.82,14.82,0,0,1-3.63,3.83,7.68,7.68,0,0,1-4.41,1.23,8.86,8.86,0,0,1-5.33-2.07c-1.81-1.39-4-2.92-6.49-4.61a48.17,48.17,0,0,0-8.89-4.61,33.12,33.12,0,0,0-12.4-2.08,35.35,35.35,0,0,0-12.59,2.08,26.08,26.08,0,0,0-9.15,5.71,23.65,23.65,0,0,0-5.58,8.57,29.51,29.51,0,0,0-1.89,10.64,15.72,15.72,0,0,0,3.06,9.93,28.38,28.38,0,0,0,8,6.95A65.44,65.44,0,0,0,613,182.89q6.36,2.34,12.92,4.94a129.35,129.35,0,0,1,12.92,6,47.26,47.26,0,0,1,11.29,8.3,38.51,38.51,0,0,1,8,11.88,41.59,41.59,0,0,1,3,16.81,71.3,71.3,0,0,1-4.73,26,63.2,63.2,0,0,1-13.63,21.35,65.38,65.38,0,0,1-21.55,14.54,72.15,72.15,0,0,1-28.5,5.39,74.84,74.84,0,0,1-16.1-1.75,73.08,73.08,0,0,1-14.92-5,69.34,69.34,0,0,1-13-7.79,57.35,57.35,0,0,1-10.38-10.13l11.94-16.09a11.18,11.18,0,0,1,3.64-3,9.34,9.34,0,0,1,4.41-1.17,7.53,7.53,0,0,1,4.09,1.3q2,1.31,4.41,3.18c1.6,1.26,3.33,2.64,5.2,4.16a37.35,37.35,0,0,0,6.42,4.15,43.29,43.29,0,0,0,8.18,3.18,38.22,38.22,0,0,0,10.52,1.3q14.65,0,23-8.31t8.31-23a17.87,17.87,0,0,0-3-10.64,25.13,25.13,0,0,0-7.92-7,63,63,0,0,0-11.17-5q-6.23-2.14-12.79-4.54a113.15,113.15,0,0,1-12.78-5.59,43.12,43.12,0,0,1-11.17-8.17,37.4,37.4,0,0,1-7.91-12.27q-3-7.27-3-17.92a61.71,61.71,0,0,1,4.48-23.23A59.46,59.46,0,0,1,576,125.06a62.3,62.3,0,0,1,20.18-13.63A67,67,0,0,1,623,106.3a68.27,68.27,0,0,1,14.73,1.56,63.18,63.18,0,0,1,13.18,4.41,60,60,0,0,1,11.23,6.82,50.22,50.22,0,0,1,8.89,8.76Z" transform="translate(-20.9 -89.7)"/></g></g><path id="clipboard-outline" class="cls-3" d="M62.48,162.45V141.66H41.69V276.77H187.21V141.66h-20.8v20.79Zm20.79-41.58a31.18,31.18,0,0,1,62.36,0h41.58A20.79,20.79,0,0,1,208,141.66V276.77a20.79,20.79,0,0,1-20.79,20.79H41.69A20.79,20.79,0,0,1,20.9,276.77V141.66a20.79,20.79,0,0,1,20.79-20.79Zm31.18-10.39a10.4,10.4,0,1,0,10.39,10.39h0a10.39,10.39,0,0,0-10.39-10.39h0Z" transform="translate(-20.9 -89.7)"/></svg>