<?xml version="1.0" encoding="utf-8"?>
<!-- Generator: Adobe Illustrator 21.0.0, SVG Export Plug-In . SVG Version: 6.00 Build 0)  -->
<svg version="1.1" id="Layer_1" xmlns="http://www.w3.org/2000/svg" xmlns:xlink="http://www.w3.org/1999/xlink" x="0px" y="0px"
	 viewBox="0 0 512 512" style="enable-background:new 0 0 512 512;" xml:space="preserve">
<style type="text/css">
	.st0{fill:#F9F9F9;stroke:#000000;stroke-width:16;stroke-miterlimit:10;}
</style>
<g>
	<path class="st0" d="M63.4,498.4c0-87.9,0-175.7,0-263.6c0.6,0,1.1-0.3,1.6-0.6c2.1-1.2,4.2-2.4,6.3-3.6c4.4-2.5,8.8-5,13.2-7.5
		c3.2-1.8,6.3-3.6,9.5-5.4c4.1-2.3,8.2-4.7,12.3-7c3.3-1.9,6.7-3.8,10-5.6c4.2-2.4,8.4-4.8,12.7-7.2c0.5-0.2,0.9-0.4,1.4-0.7
		c22.2-12.7,44.4-25.3,66.7-38c0.4-0.2,0.8-0.5,1.2-0.7c0.3-0.2,0.1-0.5,0.1-0.7c0.7,0,1.3-0.1,1.9-0.4c3.5-2,7.1-4,10.7-6.1
		c4.3-2.4,8.6-4.9,12.8-7.3c3-1.7,6.1-3.5,9.1-5.2c4.3-2.5,8.7-5,13-7.4c4.2-2.4,8.4-4.8,12.7-7.2c0.5-0.3,1-0.7,1.6-0.7
		c0,0.9,0,1.8,0,2.7c0,21.6,0,43.2,0,64.8c0,2.2,0,4.4,0,6.6c0,0.6,0,1.3,0.4,1.9c-0.8,0-1.3,0.5-1.9,0.8
		c-31.4,17.9-62.8,35.8-94.2,53.7c-0.6,0.4-1.2,0.8-1.8,1.1c-0.6,0.3-1.2,0.4-1.8,0.8c-3.6,2-7.1,4-10.6,6.1
		c-6.5,3.7-13.1,7.5-19.6,11.2c-1.1,0.6-1.7,1.3-1.5,2.6c0,0.2,0,0.4,0,0.6c0,11.1,0,22.2,0,33.3c0,0.5,0,0.9,0,1.4
		c0,0.5,0.2,0.9,0.5,1.3c-0.3,0.1-0.5,0.3-0.5,0.5c0,0.6,0,1.2,0,1.8c0,22.9,0,45.9,0,68.8c0,0.4,0,0.8,0,1.2c0,0.3-0.1,0.6,0.4,0.9
		c0.7-0.4,1.4-0.7,2.1-1.2c17.5-10,35-19.9,52.5-29.9c2.8-1.6,5.5-3.1,8.3-4.7c0.4-0.2,1-0.4,1-1c1.2-0.2,2.2-0.9,3.2-1.4
		c3.3-1.9,6.6-3.8,10-5.7c3.3-1.9,6.6-3.7,9.8-5.6c4.3-2.4,8.6-4.9,12.8-7.3c3-1.7,6.1-3.5,9.1-5.2c4.2-2.4,8.5-4.8,12.7-7.2
		c2.9-1.7,5.8-3.4,8.8-5.1c0.1,0,0.3,0,0.4,0.1c0,0.9,0,1.8,0,2.7c0,23.5,0,46.9,0,70.4c0,0.5,0,1,0,1.6c0,0.5,0.2,0.9,0.4,1.3
		c-0.8,0-1.5,0.5-2.1,0.9c-17.1,9.8-34.3,19.5-51.4,29.3c-41.3,23.6-82.7,47.1-124,70.7c-5.9,3.3-11.7,6.7-17.6,10
		C64.6,498,64.1,498.5,63.4,498.4z"/>
	<path class="st0" d="M260.3,386.8c-0.2-0.4-0.4-0.8-0.4-1.3c0-0.5,0-1,0-1.6c0-23.5,0-46.9,0-70.4c0-0.9,0-1.8,0-2.7c0,0,0,0,0,0
		c0.7-0.1,1.2,0.4,1.8,0.7c2.6,1.5,5.2,3,7.8,4.4c5.2,3,10.5,5.9,15.7,8.9c6.8,3.9,13.6,7.8,20.4,11.7c7,4,14.1,8,21.1,12
		c0.7,0.4,1.3,0.8,2,1.2c12,6.9,24,13.7,36,20.5c8.2,4.7,16.4,9.3,24.5,14c0.5,0.3,1,0.8,1.9,0.8c0-24.4,0-48.8,0-73.1
		c0-2.9,0-5.8,0-8.8c0-9.3,0-18.6,0-27.9c0-1.1-0.3-1.8-1.3-2.3c-2.3-1.2-4.5-2.5-6.8-3.8c-4.1-2.3-8.2-4.7-12.3-7.1
		c-3.6-2.1-7.2-4.1-10.8-6.2c-0.8-0.4-1.5-1-2.5-1.1c-0.4-0.7-1.2-1-1.9-1.3c-25.8-14.7-51.6-29.4-77.4-44.2
		c-6-3.4-11.9-6.8-17.9-10.2c-0.4-0.6-0.4-1.2-0.4-1.9c0-2.2,0-4.4,0-6.6c0-21.6,0-43.2,0-64.8c0-0.9,0-1.8,0-2.7c0,0,0,0,0,0
		c0.5,0,0.9,0.2,1.3,0.4c1.5,0.9,3.1,1.7,4.6,2.6c4.1,2.3,8.2,4.7,12.3,7.1c4.1,2.3,8.1,4.6,12.2,6.9c4.4,2.5,8.9,5.1,13.3,7.6
		c3.2,1.8,6.4,3.7,9.6,5.5c2.8,1.5,5.4,3.3,8.3,4.6c0.4,0.6,1.1,0.8,1.8,1.2c11,6.3,22,12.5,32.9,18.8c11,6.3,22.1,12.6,33.1,18.9
		c0.6,0.3,1.2,0.9,1.9,0.9c0.2,0.4,0.7,0.6,1.1,0.8c4.9,2.8,9.8,5.6,14.7,8.4c5.2,3,10.5,6,15.7,9c5,2.9,10,5.7,15.1,8.5
		c6.1,3.5,12.1,7,18.2,10.4c0,13.3,0,26.5,0,39.8c-0.3,0.2-0.4,0.5-0.4,0.8c0,0.5,0,1,0,1.6c0,73.7,0,147.3,0,221
		c-0.7,0-1.2-0.5-1.7-0.8c-57.1-32.5-114.2-65.1-171.3-97.6C275.2,395.3,267.8,391,260.3,386.8z"/>
	<path class="st0" d="M63.4,11.4c0.3-0.1,0.6-0.1,0.9,0.1c0.6,0.3,1.1,0.6,1.7,1c64.5,36.8,129,73.5,193.5,110.3
		c0.2,0.1,0.3,0.2,0.5,0.3c-0.1,0.1-0.1,0.2-0.1,0.3c0,0,0,0,0,0c-0.6,0-1.1,0.4-1.6,0.7c-4.2,2.4-8.4,4.8-12.7,7.2
		c-4.3,2.5-8.7,5-13,7.4c-3,1.7-6.1,3.5-9.1,5.2c-4.3,2.4-8.6,4.9-12.8,7.3c-3.6,2-7.1,4-10.7,6.1c-0.6,0.3-1.2,0.5-1.9,0.4
		c-0.6-0.3-1.2-0.6-1.7-0.9c-15.4-8.8-30.8-17.5-46.2-26.3c-7-4-14-8-21-12c-0.1-0.3-0.3-0.3-0.5,0c0,0.6-0.1,1.2-0.1,1.7
		c0,25.2,0,50.4,0,75.6c0,0.6,0,1.3,0.1,1.9c-4.2,2.4-8.4,4.8-12.7,7.2c-3.3,1.9-6.7,3.8-10,5.6c-4.1,2.3-8.2,4.7-12.3,7
		c-3.2,1.8-6.3,3.6-9.5,5.4c-4.4,2.5-8.8,5-13.2,7.5c-2.1,1.2-4.2,2.4-6.3,3.6c-0.5,0.3-1,0.6-1.6,0.6
		C63.4,160.3,63.4,85.9,63.4,11.4z"/>
	<path class="st0" d="M259.9,123.3c0-0.1,0.1-0.2,0.1-0.3c22.7-13,45.5-25.9,68.2-38.9C370.1,60.2,412,36.3,454,12.4
		c0.7-0.4,1.3-0.9,2.1-1.1c0,74.5,0,148.9,0,223.4c-6.1-3.5-12.1-7-18.2-10.4c-5-2.9-10-5.7-15.1-8.5c-5.2-3-10.5-6-15.7-9
		c-4.9-2.8-9.8-5.6-14.7-8.4c-0.4-0.2-0.8-0.4-1.1-0.8c0-0.7,0-1.4,0-2.1c0-24.9,0-49.9,0-74.8c0-0.7,0-1.4,0-2.2
		c-0.9,0-1.5,0.5-2,0.8c-17.5,10-35.1,20-52.6,30c-5,2.9-10,5.7-15,8.6c-2.9-1.4-5.5-3.1-8.3-4.6c-3.2-1.8-6.4-3.7-9.6-5.5
		c-4.4-2.5-8.9-5.1-13.3-7.6c-4.1-2.3-8.1-4.6-12.2-6.9c-4.1-2.3-8.2-4.7-12.3-7.1c-1.5-0.9-3-1.7-4.6-2.6
		C260.8,123.5,260.4,123.2,259.9,123.3z"/>
	<path class="st0" d="M456,498.4c-0.1-0.1-0.3-0.3-0.4-0.4c0-73.7,0-147.3,0-221c0-0.5,0-1,0-1.6c0-0.3,0.1-0.6,0.4-0.8
		C456,349.2,456,423.8,456,498.4z"/>
	<path class="st0" d="M162.4,254.9c32,18.2,63.9,36.4,95.9,54.7c0.4,0.3,1,0.4,1.3,0.9c0,0.1,0,0.2,0,0.4c-2.9,1.7-5.8,3.4-8.8,5.1
		c-4.2,2.4-8.5,4.8-12.7,7.2c-3,1.7-6.1,3.5-9.1,5.2c-4.3,2.4-8.6,4.9-12.8,7.3c-3.3,1.9-6.6,3.7-9.8,5.6c-3.3,1.9-6.6,3.8-10,5.7
		c-1,0.6-2,1.3-3.2,1.4c-0.6-0.3-1.3-0.7-1.9-1c-16-9.1-32.1-18.3-48.1-27.4c-4.6-2.6-9.2-5.3-13.8-7.9c-0.2-0.4-0.5-0.8-0.5-1.3
		c0-0.5,0-0.9,0-1.4c0-11.1,0-22.2,0-33.3c0-0.2,0-0.4,0-0.6c-0.2-1.3,0.4-2,1.5-2.6c6.6-3.7,13.1-7.4,19.6-11.2
		c3.5-2,7.1-4.1,10.6-6.1C161.2,255.3,161.8,255.1,162.4,254.9z"/>
	<path class="st0" d="M259.5,310.7c0-0.1,0-0.2,0-0.4c0.2,0,0.3,0.1,0.5,0.1c-0.1,0.1-0.1,0.2-0.1,0.3c0,0,0,0,0,0
		C259.8,310.8,259.7,310.8,259.5,310.7z"/>
	<path class="st0" d="M259.9,310.8c0-0.1,0.1-0.2,0.1-0.3c15.1-8.6,30.2-17.2,45.4-25.9c16.7-9.5,33.4-19,50.1-28.6
		c0.7-0.4,1.4-0.7,2.1-1.1c1,0,1.7,0.6,2.5,1.1c3.6,2,7.2,4.1,10.8,6.2c4.1,2.4,8.2,4.7,12.3,7.1c2.3,1.3,4.5,2.6,6.8,3.8
		c1,0.5,1.3,1.2,1.3,2.3c0,9.3,0,18.6,0,27.9c0,2.9,0,5.8,0,8.8c-0.8,0-1.3,0.5-1.9,0.8c-20.3,11.6-40.6,23.1-60.9,34.7
		c-0.6,0.3-1.2,0.5-1.6,1.1c-7-4-14.1-8-21.1-12c-6.8-3.9-13.6-7.8-20.4-11.7c-5.2-3-10.5-5.9-15.7-8.9c-2.6-1.5-5.2-3-7.8-4.4
		C261.1,311.2,260.6,310.8,259.9,310.8z"/>
	<path class="st0" d="M129.3,118.5c-0.2,0-0.3,0-0.5,0C129.1,118.1,129.2,118.2,129.3,118.5z"/>
</g>
</svg>
