<svg xmlns="http://www.w3.org/2000/svg" id="Layer_1" viewBox="0 0 356 395"> <style>.st0{fill:none;stroke:#000;stroke-width:12;stroke-linecap:round;stroke-linejoin:round;stroke-miterlimit:10}</style> <path id="XMLID_3_" class="st0" d="M339.4 123.8c0-6.1-1.3-11.6-4-16.2-2.6-4.6-6.5-8.4-11.7-11.4-43.2-24.9-86.5-49.8-129.7-74.7-11.7-6.7-22.9-6.5-34.5.3C142.2 31.9 56 81.3 30.4 96.1c-10.6 6.1-15.7 15.5-15.7 27.7v150.4c0 6 1.3 11.3 3.8 15.9 2.6 4.7 6.6 8.7 11.9 11.8 25.7 14.9 111.8 64.2 129 74.4 11.6 6.8 22.9 7.1 34.5.3 43.2-25 86.5-49.8 129.7-74.7 5.4-3.1 9.3-7 11.9-11.8 2.5-4.6 3.8-9.9 3.8-15.9.1 0 .1-100.3.1-150.4"></path> <path id="XMLID_6_" class="st0" d="M120.4 225.6c9.3 16.2 26.7 27.1 46.6 27.1 20.1 0 37.6-11 46.8-27.4"></path> <path id="XMLID_9_" class="st0" d="M213.8 225.3c-9.2 16.3-26.7 27.4-46.8 27.4-20 0-37.4-10.9-46.6-27.1-4.5-7.9-7.1-16.9-7.1-26.6 0-29.7 24-53.7 53.7-53.7 19.8 0 37.1 10.8 46.4 26.8l46.9-27c-18.7-32.2-53.5-53.9-93.4-53.9-59.6 0-107.8 48.3-107.8 107.8 0 19.5 5.2 37.9 14.3 53.7C92 285 127 306.8 167 306.8c40.1 0 75.1-21.9 93.7-54.4l-46.9-27.1"></path> <g id="XMLID_32_"> <path id="XMLID_1_" d="M262.4 173.5h10.7v51.7h-10.7z"></path> <path id="XMLID_30_" d="M286.1 173.5h10.7v51.7h-10.7z"></path> <path id="XMLID_31_" transform="rotate(90 279.608 187.5)" d="M274.3 161.7H285v51.7h-10.7z"></path> <path id="XMLID_23_" transform="rotate(90 279.608 211.166)" d="M274.3 185.3H285V237h-10.7z"></path> </g> </svg>
