<svg width="700" height="400" viewBox="0 0 700 400" version="1.1" xmlns="http://www.w3.org/2000/svg" xmlns:xlink="http://www.w3.org/1999/xlink">
<title>Logo</title>
<desc>Created using Figma</desc>
<g id="Canvas" transform="translate(-2606 584)">
<clipPath id="clip-0" clip-rule="evenodd">
<path d="M 2606 -584L 3306 -584L 3306 -184L 2606 -184L 2606 -584Z" fill="#FFFFFF"/>
</clipPath>
<g id="Logo" clip-path="url(#clip-0)">
<path d="M 2606 -584L 3306 -584L 3306 -184L 2606 -184L 2606 -584Z" fill="#FFFFFF"/>
<g id="CURO">
<use xlink:href="#path0_fill" transform="translate(2420 -577)" fill="#EB5757"/>
</g>
<g id="Group">
<g id="*">
<use xlink:href="#path1_fill" transform="translate(2731.02 -546.979)" fill="#ED6161"/>
</g>
</g>
</g>
</g>
<defs>
<path id="path0_fill" d="M 290.485 252.252C 279.977 252.252 271.49 251.501 265.024 250C 258.557 248.499 253.361 246.507 249.435 244.024C 245.566 241.542 242.478 238.366 240.168 234.498C 237.859 230.572 236.3 226.559 235.491 222.46C 234.741 218.361 234.366 213.568 234.366 208.084L 234.366 165.388C 234.366 150.145 237.455 139.464 243.632 133.344C 249.81 127.166 258.009 123.211 268.228 121.479C 274.002 120.44 280.526 119.949 287.8 120.007C 314.186 120.007 329.919 127.224 335 141.658C 337.309 148.124 338.464 155.861 338.464 164.868L 338.464 166.427L 313.262 169.371L 313.262 162.876C 313.262 153.985 311.501 147.98 307.979 144.862C 304.515 141.745 297.847 140.186 287.974 140.186C 278.101 140.186 270.97 141.773 266.582 144.949C 262.252 148.067 260.087 153.869 260.087 162.356L 260.087 210.682C 260.087 219.227 262.31 224.942 266.756 227.829C 271.259 230.658 278.389 232.073 288.147 232.073C 293.285 232.073 297.356 231.813 300.358 231.293C 303.36 230.716 305.872 229.59 307.893 227.916C 309.971 226.242 311.386 224.019 312.136 221.247C 312.887 218.476 313.262 214.781 313.262 210.162L 313.262 206.092L 338.464 206.092L 338.464 208.43C 338.464 221.074 336.588 230.225 332.835 235.883C 329.14 241.484 323.799 245.612 316.813 248.268C 309.827 250.924 301.051 252.252 290.485 252.252ZM 418.313 252.252C 394.295 252.252 378.562 246.536 371.114 235.104C 366.899 228.638 364.792 220.093 364.792 209.469L 364.792 122.085L 390.513 122.085L 390.513 210.595C 390.513 218.62 392.794 224.221 397.355 227.396C 401.974 230.514 408.989 232.073 418.4 232.073C 427.811 232.073 434.566 230.514 438.665 227.396C 442.822 224.279 444.901 218.678 444.901 210.595L 444.901 122.085L 470.622 122.085L 470.622 208.43C 470.622 225.404 465.599 237.24 455.553 243.938C 447.124 249.48 434.71 252.252 418.313 252.252ZM 528.041 181.15L 559.651 181.15C 565.714 181.15 569.871 179.446 572.122 176.04C 574.432 172.576 575.587 167.351 575.587 160.365C 575.587 147.085 570.621 140.446 560.691 140.446L 528.041 140.446L 528.041 181.15ZM 502.319 250L 502.319 122.172L 557.486 122.172C 573.999 122.172 585.229 125.521 591.175 132.218C 597.18 138.916 600.182 148.009 600.182 159.498C 600.182 170.93 598.508 179.273 595.159 184.527C 591.868 189.723 587.278 193.476 581.389 195.786L 606.071 250L 579.397 250L 556.967 199.51L 528.041 199.51L 528.041 250L 502.319 250ZM 684.535 252.252C 659.477 252.252 642.965 246.016 634.997 233.545C 630.494 226.617 628.242 217.639 628.242 206.611L 628.242 166.6C 628.242 148.644 633.814 136.086 644.957 128.927C 654.137 123.038 667.445 120.065 684.881 120.007C 709.188 120.007 725.239 126.647 733.033 139.926C 737.421 147.374 739.615 156.698 739.615 167.899L 739.615 205.226C 739.615 222.662 734.13 235.248 723.16 242.985C 714.384 249.163 701.509 252.252 684.535 252.252ZM 654.05 209.469C 654.05 217.841 656.619 223.701 661.758 227.05C 666.896 230.399 674.547 232.073 684.708 232.073C 694.927 232.073 702.318 230.427 706.879 227.136C 711.498 223.788 713.807 217.899 713.807 209.469L 713.807 163.136C 713.807 154.822 711.469 148.933 706.792 145.469C 702.116 141.947 694.754 140.186 684.708 140.186C 674.72 140.186 667.099 141.918 661.845 145.382C 656.648 148.846 654.05 154.764 654.05 163.136L 654.05 209.469Z"/>
<path id="path1_fill" d="M 479.283 198.124L 481.794 169.978L 458.151 185.047L 451.223 171.103L 476.338 160.971L 452.089 148.673L 460.316 135.422L 481.708 151.877L 479.283 124.77L 494.698 124.77L 492.1 152.917L 515.743 137.847L 522.758 151.791L 497.556 161.923L 521.805 174.221L 513.578 187.472L 492.187 171.017L 494.698 198.124L 479.283 198.124Z"/>
</defs>
</svg>
