<?xml version="1.0" encoding="utf-8"?>
<!-- Generator: Adobe Illustrator 21.0.0, SVG Export Plug-In . SVG Version: 6.00 Build 0)  -->
<svg version="1.1" id="Layer_1" xmlns="http://www.w3.org/2000/svg" xmlns:xlink="http://www.w3.org/1999/xlink" x="0px" y="0px"
	 viewBox="0 0 485 485" style="enable-background:new 0 0 485 485;" xml:space="preserve">
<style type="text/css">
	.st0{fill:#FFFFFF;}
</style>
<g>
	<path class="st0" d="M15,12.6c154.8,0,309.5,0,464.3,0c0,154.8,0,309.5,0,464.3c-154.8,0-309.5,0-464.3,0
		C15,322.1,15,167.4,15,12.6z M16.5,464.8c2.4,0,4.3,0,6.2,0c100.1,0,200.1,0.1,300.2-0.1c12,0,24.3-0.9,36.1-3.3
		c95.1-19.8,146.6-124.9,104.3-212.1c-1.9-4-1.9-7.1-0.1-11.2c25.3-56.8,19.6-110.6-18.6-159.4C414,39.5,371.9,22.3,322.4,22.4
		c-99.9,0.2-199.8,0-299.6,0c-2.1,0-4.1,0-6.3,0c0,53.4,0,106.1,0,159.4c2.3,0,4.4,0,6.5,0c20.2,0,40.4,0.1,60.6,0
		c15.5-0.1,29.6,3.6,41.9,13.6c20,16.1,28.1,42.6,20.3,67c-7.8,24.4-29.5,41.7-55.3,42.6c-22.3,0.8-44.6,0.4-66.9,0.5
		c-2.3,0-4.5,0-7.1,0C16.5,358.7,16.5,411.3,16.5,464.8z"/>
	<path d="M16.5,464.8c0-53.5,0-106.1,0-159.4c2.5,0,4.8,0,7.1,0c22.3-0.1,44.7,0.3,66.9-0.5c25.7-0.9,47.5-18.1,55.3-42.6
		c7.8-24.3-0.4-50.8-20.3-67c-12.3-9.9-26.4-13.6-41.9-13.6c-20.2,0.1-40.4,0-60.6,0c-2.1,0-4.2,0-6.5,0c0-53.3,0-106,0-159.4
		c2.2,0,4.2,0,6.3,0c99.9,0,199.8,0.1,299.6,0c49.5-0.1,91.6,17.2,122.2,56.3c38.2,48.8,43.9,102.6,18.6,159.4
		c-1.8,4-1.9,7.2,0.1,11.2c42.3,87.2-9.2,192.4-104.3,212.1c-11.8,2.4-24,3.3-36.1,3.3c-100.1,0.3-200.1,0.1-300.2,0.1
		C20.8,464.8,18.9,464.8,16.5,464.8z M202.6,424.8c0.7,0,1.6,0.1,2.5,0.1c40,0,80.1,0.1,120.1-0.1c6.3,0,12.7-0.4,19-1.3
		c82.9-12.4,122.2-109.1,71.5-176c-2.3-3-2.3-4.9,0-7.9c16.5-21.9,23.8-46.5,22.3-73.9c-3-55.8-50.6-102.4-106.4-103.2
		c-42.3-0.6-84.7-0.2-127-0.3c-0.8,0-1.7,0.2-3,0.3c0.9,0.9,1.2,1.4,1.6,1.7c29.4,19.1,52.7,44.1,70.1,74.5c0.9,1.6,3.9,3,5.9,3
		c16.5,0.3,33.1-0.1,49.6,0.3c13.9,0.4,25.1,9.7,28.7,22.7c3.6,13-1.8,26.8-13.3,34.1c-6.4,4.1-13.6,4.9-21,4.8
		c-8.6-0.1-17.2,0-26.3,0c4.8,26.8,4.8,52.8,0,79.7c10,0,19.6-0.6,29.1,0.2c6.1,0.5,12.7,1.9,18,4.8c11.8,6.5,17,20.9,13.5,33.9
		c-3.6,13.2-15.1,22.5-29.2,22.8c-15.4,0.3-30.8,0.3-46.2,0c-5.2-0.1-8.2,1.3-10.8,6.1c-8.9,16.1-19.9,30.8-33.3,43.3
		C226.7,405,214.5,414.7,202.6,424.8z M56.3,142c3.4,0,6.2-0.1,9.1,0c11.3,0.3,22.8-0.2,34,1.1c53.1,6,91,51.9,88.8,107
		c-2,50.3-45.7,93.2-97.1,94.9c-11.5,0.4-23,0.1-34.7,0.1c0,27,0,53.2,0,79.7c24,0.3,47.6,0.7,70.9-4.5
		c78.2-17.5,137.2-87.4,140.4-167.6c2.3-56.2-17.2-104.1-58.5-142.5c-43.2-40.1-95.4-52-153-47.3C56.3,89,56.3,115.1,56.3,142z"/>
	<path class="st0" d="M202.6,424.8c11.9-10.2,24.1-19.8,35.4-30.4c13.5-12.5,24.4-27.2,33.3-43.3c2.6-4.7,5.6-6.2,10.8-6.1
		c15.4,0.3,30.8,0.4,46.2,0c14.1-0.3,25.6-9.6,29.2-22.8c3.5-12.9-1.7-27.4-13.5-33.9c-5.3-2.9-11.9-4.3-18-4.8
		c-9.5-0.8-19.1-0.2-29.1-0.2c4.8-26.9,4.8-52.9,0-79.7c9.1,0,17.7-0.1,26.3,0c7.4,0.1,14.6-0.7,21-4.8
		c11.5-7.4,16.8-21.1,13.3-34.1c-3.6-13-14.8-22.4-28.7-22.7c-16.5-0.4-33.1,0-49.6-0.3c-2,0-5-1.4-5.9-3
		c-17.5-30.4-40.7-55.4-70.1-74.5c-0.4-0.3-0.7-0.8-1.6-1.7c1.3-0.2,2.2-0.3,3-0.3c42.3,0,84.7-0.3,127,0.3
		C387.4,63.3,435,109.9,438,165.7c1.5,27.4-5.8,52.1-22.3,73.9c-2.3,3-2.2,4.9,0,7.9c50.6,67,11.4,163.6-71.5,176
		c-6.2,0.9-12.6,1.3-19,1.3c-40,0.1-80.1,0.1-120.1,0.1C204.2,424.9,203.3,424.9,202.6,424.8z"/>
	<path class="st0" d="M56.3,142c0-26.9,0-53,0-79c57.5-4.7,109.8,7.2,153,47.3c41.3,38.4,60.7,86.3,58.5,142.5
		c-3.2,80.1-62.2,150-140.4,167.6c-23.3,5.2-46.9,4.8-70.9,4.5c0-26.5,0-52.8,0-79.7c11.7,0,23.2,0.3,34.7-0.1
		c51.4-1.7,95.1-44.6,97.1-94.9c2.1-55.1-35.8-101-88.8-107c-11.2-1.3-22.7-0.8-34-1.1C62.6,141.9,59.7,142,56.3,142z"/>
</g>
</svg>
