<svg width="700" height="400" viewBox="0 0 700 400" version="1.1" xmlns="http://www.w3.org/2000/svg" xmlns:xlink="http://www.w3.org/1999/xlink">
<g data-name="Canvas" fill="none">
<g data-name="Logo" clip-path="url(#clip0)">
<rect width="700" height="400" fill="white"/>
<g data-name="Group 3">
<g data-name="Diti">
<path d="M 304.843 158.973C 304.843 185.545 297.466 205.877 282.712 219.97C 267.958 233.99 246.708 241 218.962 241L 173.93 241L 173.93 80.0287L 223.697 80.0287C 249.314 80.0287 269.243 86.9286 283.483 100.728C 297.723 114.528 304.843 133.943 304.843 158.973ZM 277.097 159.854C 277.097 121.318 259.077 102.049 223.036 102.049L 200.245 102.049L 200.245 218.869L 218.962 218.869C 257.719 218.869 277.097 199.197 277.097 159.854ZM 362.647 241L 336.773 241L 336.773 119.226L 362.647 119.226L 362.647 241ZM 335.232 86.9653C 335.232 82.3409 336.479 78.7809 338.975 76.2852C 341.544 73.7895 345.178 72.5417 349.875 72.5417C 354.426 72.5417 357.95 73.7895 360.445 76.2852C 363.014 78.7809 364.299 82.3409 364.299 86.9653C 364.299 91.3694 363.014 94.856 360.445 97.4251C 357.95 99.9208 354.426 101.169 349.875 101.169C 345.178 101.169 341.544 99.9208 338.975 97.4251C 336.479 94.856 335.232 91.3694 335.232 86.9653ZM 445.115 222.282C 451.427 222.282 457.74 221.291 464.053 219.31L 464.053 238.798C 461.19 240.046 457.483 241.073 452.932 241.881C 448.455 242.762 443.794 243.202 438.949 243.202C 414.433 243.202 402.174 230.283 402.174 204.446L 402.174 138.824L 385.549 138.824L 385.549 127.373L 403.386 117.904L 412.194 92.1401L 428.159 92.1401L 428.159 119.226L 462.841 119.226L 462.841 138.824L 428.159 138.824L 428.159 204.005C 428.159 210.244 429.7 214.869 432.783 217.878C 435.939 220.814 440.05 222.282 445.115 222.282ZM 514.37 241L 488.496 241L 488.496 119.226L 514.37 119.226L 514.37 241ZM 486.954 86.9653C 486.954 82.3409 488.202 78.7809 490.698 76.2852C 493.267 73.7895 496.9 72.5417 501.598 72.5417C 506.149 72.5417 509.672 73.7895 512.168 76.2852C 514.737 78.7809 516.021 82.3409 516.021 86.9653C 516.021 91.3694 514.737 94.856 512.168 97.4251C 509.672 99.9208 506.149 101.169 501.598 101.169C 496.9 101.169 493.267 99.9208 490.698 97.4251C 488.202 94.856 486.954 91.3694 486.954 86.9653Z" transform="translate(98.3427 44)" fill="black"/>
</g>
<g data-name="iconmonstr-check-mark-5">
<g data-name="Vector">
<path d="M 86.8349 14.4656C 126.736 14.4656 159.197 46.9121 159.197 86.7939C 159.197 126.676 126.736 159.122 86.8349 159.122C 46.9343 159.122 14.4725 126.676 14.4725 86.7939C 14.4725 46.9121 46.9343 14.4656 86.8349 14.4656ZM 86.8349 0C 38.8803 0 0 38.862 0 86.7939C 0 134.726 38.8803 173.588 86.8349 173.588C 134.789 173.588 173.67 134.726 173.67 86.7939C 173.67 38.862 134.789 0 86.8349 0ZM 118.624 54.2462L 77.7896 96.0808L 58.657 77.9554L 45.2265 91.3939L 77.7896 122.958L 132.061 67.6775L 118.624 54.2462L 118.624 54.2462Z" transform="translate(60 127.412)" fill="black"/>
</g>
</g>
</g>
</g>
</g>
<defs>

<clipPath id="clip0">
<rect width="700" height="400" fill="white"/>
</clipPath>

</defs>
</svg>

