<svg xmlns="http://www.w3.org/2000/svg" id="Ebene_1" viewBox="0 0 272 343.3"> <style>.st0{fill:none;stroke:#000;stroke-width:10;stroke-miterlimit:10}</style> <path class="st0" d="M122.5 10.1h53.3v244.2c-27.3 5.2-47.4 7.2-69.1 7.2-65.1-.1-99-29.2-99-85 0-53.8 35.9-88.7 91.6-88.7 8.6 0 15.2.7 23.2 2.7V10.1zm1.9 124.4c-6.2-2-11.4-2.7-18-2.7-26.9 0-42.5 16.4-42.5 45.2 0 28 14.9 43.5 42.2 43.5 5.9 0 10.7-.3 18.3-1.4v-84.6z"></path> <path class="st0" d="M262.9 94.4v122.3c0 42.1-3.2 62.4-12.4 79.8-8.6 16.8-20 27.4-43.5 39.1l-49.4-23.3c23.5-10.9 34.9-20.6 42.2-35.3 7.6-15.1 10-32.5 10-78.4V94.4h53.1zm-58.6-84.3h53.3v54.1h-53.3V10.1z"></path> </svg>