<?xml version="1.0" encoding="utf-8"?>
<!-- Generator: Adobe Illustrator 21.0.0, SVG Export Plug-In . SVG Version: 6.00 Build 0)  -->
<svg version="1.1" id="Layer_1" xmlns="http://www.w3.org/2000/svg" xmlns:xlink="http://www.w3.org/1999/xlink" x="0px" y="0px"
	 viewBox="0 0 629.1 100" style="enable-background:new 0 0 629.1 100;" xml:space="preserve">
<style type="text/css">
	.st0{fill:#F06292;}
</style>
<title>dragquiz</title>
<g>
	<path class="st0" d="M165,83.4V20.7h19.7c8.2,0,14.8,2.5,19.8,7.6c5,5,7.5,11.6,7.5,19.6v8.6c0,8-2.5,14.5-7.5,19.6
		c-5,5-11.6,7.5-19.8,7.5H165z M173.5,27.4v49.5h11.2c5.8,0,10.4-1.9,13.7-5.7c3.4-3.8,5-8.7,5-14.7v-8.7c0-5.9-1.7-10.8-5-14.6
		c-3.4-3.8-7.9-5.7-13.7-5.7L173.5,27.4z"/>
	<path class="st0" d="M233.3,56.2v27.2h-8.5V20.7h21.5c6.9,0,12.1,1.5,15.7,4.6s5.4,7.5,5.4,13.3c0.1,3-0.8,5.9-2.5,8.4
		c-1.9,2.5-4.4,4.5-7.4,5.7c3.4,1.1,5.9,2.9,7.4,5.5c1.6,2.8,2.4,6.1,2.3,9.3v5.9c0,1.8,0.2,3.5,0.6,5.3c0.4,1.5,1.2,2.8,2.2,3.8v1
		h-8.8c-1.2-1.1-2-2.7-2.2-4.3c-0.3-1.9-0.5-3.9-0.5-5.9v-5.8c0-3.4-1-6.1-3-8.2c-2-2.1-4.6-3.1-8-3.1L233.3,56.2z M233.3,49.5h12.1
		c4.8,0,8.3-0.9,10.4-2.7c2.1-1.8,3.2-4.6,3.2-8.3c0-3.5-1-6.3-3.1-8.2s-5.3-2.9-9.6-2.9h-13V49.5z"/>
	<path class="st0" d="M313.4,67.3h-23.6l-5.6,16.2h-8.7l22.6-62.8h7.3l22.2,62.8h-8.7L313.4,67.3z M292.2,60.1H311l-9.1-26.9h-0.3
		L292.2,60.1z"/>
	<path class="st0" d="M381.5,75c-1.5,2.3-4.1,4.5-7.8,6.4s-8.5,2.9-14.4,2.9c-7.2,0-13.2-2.4-18-7.2c-4.7-4.8-7.1-11-7.1-18.6V45.6
		c0-7.6,2.3-13.8,6.9-18.6c4.6-4.8,10.5-7.2,17.7-7.2c7,0,12.5,1.9,16.6,5.6c4,3.7,6,8.5,5.9,14.2l-0.1,0.3H373
		c0.1-3.6-1.2-7-3.7-9.6c-2.5-2.5-6-3.8-10.5-3.8c-4.5-0.1-8.8,1.9-11.6,5.4c-2.9,3.6-4.4,8.1-4.4,13.7v13c0,5.6,1.6,10.2,4.7,13.8
		c2.9,3.5,7.3,5.5,11.9,5.4c3.7,0,6.6-0.5,8.8-1.4c1.9-0.7,3.5-1.9,4.8-3.4V58.7h-14.2V52h22.7L381.5,75z"/>
	<path class="st0" d="M466,57.6c0,3.2-0.5,6.3-1.4,9.4c-0.9,2.9-2.3,5.5-4.1,7.9l9.4,9.1l-5.8,5.6l-9.6-9.2c-2,1.3-4.2,2.3-6.6,2.9
		c-2.4,0.7-5,1-7.5,1c-7.3,0-13.3-2.5-17.9-7.6c-4.6-5.1-6.9-11.4-6.9-19.1V46.5c0-7.6,2.3-14,6.9-19.1c4.6-5.1,10.5-7.6,17.9-7.6
		c7.6,0,13.8,2.5,18.5,7.6c4.8,5.1,7.1,11.4,7.1,19.1V57.6z M457.6,46.4c0-5.7-1.6-10.5-4.7-14.1c-3.1-3.7-7.3-5.5-12.5-5.5
		c-4.9,0-8.9,1.8-11.8,5.5s-4.4,8.4-4.4,14.1v11.3c0,5.8,1.5,10.5,4.4,14.2s6.9,5.5,11.8,5.5c5.3,0,9.4-1.8,12.5-5.5
		c3.1-3.7,4.6-8.4,4.6-14.2V46.4z"/>
	<path class="st0" d="M525.9,20.7v41.7c0,6.9-2.2,12.3-6.7,16.2c-4.5,3.9-10.3,5.8-17.3,5.8c-6.8,0-12.4-1.9-16.7-5.8
		s-6.5-9.3-6.5-16.1V20.7h8.5v41.7c0,4.8,1.4,8.6,4.1,11.3c2.7,2.7,6.3,4.1,10.6,4.1c4.6,0,8.3-1.4,11.2-4.1
		c2.9-2.7,4.3-6.5,4.3-11.3V20.7H525.9z"/>
	<path class="st0" d="M548.8,83.4h-8.5V20.7h8.5L548.8,83.4z"/>
	<path class="st0" d="M570.8,76.8h35.1v6.6h-44.7v-6.3l33.5-49.8h-33.1v-6.7h42.8v6.1L570.8,76.8z"/>
</g>
<path class="st0" d="M114.8,76.7H35.6l-8.2-35.2c-6-0.2-10.7-5.2-10.5-11.2c0.2-6,5.2-10.7,11.2-10.5c6,0.2,10.7,5.2,10.5,11.2
	c-0.1,2.7-1.2,5.3-3.1,7.3c13.1,14.2,23.9,13.1,34-3.8c-4.7-3.7-5.6-10.5-1.9-15.2c3.7-4.7,10.5-5.6,15.2-1.9s5.6,10.5,1.9,15.2
	c-0.7,0.9-1.5,1.7-2.4,2.3c8.6,16.6,19.7,17.4,34.1,3.4c-3.9-4.5-3.5-11.3,0.9-15.2c4.5-3.9,11.3-3.5,15.2,0.9s3.5,11.3-0.9,15.2
	c-2,1.7-4.5,2.7-7.1,2.7L114.8,76.7z M39.4,71.9h71.7l8.3-29.8c-17.5,16.8-32.6,14-42.6-7.2l-0.9-1.9l-1,1.9
	c-11.7,21.3-26.6,23.9-42.3,7.4L39.4,71.9z M122.1,36.7l1,0.2c3.3,0.7,6.5-1.3,7.2-4.6s-1.3-6.5-4.6-7.2c-3.3-0.7-6.5,1.3-7.2,4.6
	c-0.5,2.5,0.5,5,2.6,6.4L122.1,36.7z M27.8,24.7c-3.3,0-6,2.7-6,6c0,3.3,2.7,6,6,6c0.3,0,0.7,0,1-0.1l1-0.2l0.9-0.5c1.9-1,3-3,3-5.2
	C33.8,27.4,31.1,24.7,27.8,24.7z M76.1,20c-3.3,0-6,2.7-5.9,6c0,2.4,1.4,4.5,3.6,5.4l2.1,1l2.3-0.8c3.1-1.1,4.7-4.5,3.5-7.6
	C80.8,21.6,78.6,20,76.1,20L76.1,20z"/>
<path class="st0" d="M112,86.4H38.4c-1.3,0-2.4-1.1-2.4-2.4l0,0c0-1.3,1.1-2.4,2.4-2.4H112c1.3,0,2.4,1.1,2.4,2.4l0,0
	C114.4,85.3,113.4,86.4,112,86.4z"/>
</svg>
