<svg id="Layer_1" data-name="Layer 1" xmlns="http://www.w3.org/2000/svg" viewBox="0 0 629.08 381.84"><title>dragquiz</title><path d="M39.45,405.73V316.15H67.62q17.53,0,28.21,10.8t10.67,27.9v12.24q0,17.17-10.67,27.9T67.62,405.73Zm12.12-80v70.57H67.62q12.43,0,19.6-8.18t7.17-21V354.72q0-12.67-7.17-20.86t-19.6-8.18Z" transform="translate(-39.45 -32.68)" style="fill:#f06292"/><path d="M136.9,366.9v38.82H124.78V316.21h30.64q14.7,0,22.46,6.52t7.75,18.95a20.29,20.29,0,0,1-3.6,12,24.37,24.37,0,0,1-10.49,8.12q7.38,2.4,10.61,7.78a25.48,25.48,0,0,1,3.23,13.32v8.43a28.06,28.06,0,0,0,.92,7.51,11.25,11.25,0,0,0,3.2,5.41v1.48H177a10,10,0,0,1-3.08-6.15,50.77,50.77,0,0,1-.68-8.37V383q0-7.26-4.25-11.69t-11.38-4.43Zm0-9.54h17.29q10.27,0,14.8-3.91t4.52-11.91q0-7.57-4.4-11.72t-13.69-4.15H136.9Z" transform="translate(-39.45 -32.68)" style="fill:#f06292"/><path d="M251.21,382.65H217.5l-8,23.07H197.13l32.3-89.58h10.4l31.62,89.58H259.09ZM221,372.5h26.76l-13-38.45h-.37Z" transform="translate(-39.45 -32.68)" style="fill:#f06292"/><path d="M348.36,393.67q-3.2,5-11.1,9.17T316.73,407q-15.5,0-25.66-10.27t-10.15-26.58V351.71q0-16.3,9.78-26.58t25.22-10.27q15,0,23.63,8T348,343.09l-.12.37H336.24a18.77,18.77,0,0,0-5.29-13.63q-5.29-5.45-15-5.45a20.31,20.31,0,0,0-16.55,7.69q-6.28,7.69-6.28,19.5v18.58q0,11.94,6.64,19.66a21.4,21.4,0,0,0,17,7.72q7.94,0,12.58-2.06a18.11,18.11,0,0,0,6.92-4.89V370.41h-20.3v-9.47h32.42Z" transform="translate(-39.45 -32.68)" style="fill:#f06292"/><path d="M469,368.93a42.83,42.83,0,0,1-2.06,13.38,37.67,37.67,0,0,1-5.88,11.29l13.35,13-8.31,7.94-13.66-13.1a34.35,34.35,0,0,1-9.35,4.18A39.47,39.47,0,0,1,432.4,407q-15.69,0-25.5-10.83t-9.81-27.25V353q0-16.37,9.81-27.25t25.5-10.89q16.24,0,26.42,10.86T469,353Zm-12.12-16.06q0-12.3-6.64-20.18t-17.84-7.87q-10.58,0-16.89,7.88t-6.31,20.18v16.06q0,12.43,6.31,20.3t16.89,7.88q11.26,0,17.87-7.84t6.61-20.33Z" transform="translate(-39.45 -32.68)" style="fill:#f06292"/><path d="M554.46,316.15v59.49q0,14.77-9.6,23.07T520.13,407q-14.58,0-23.87-8.34t-9.29-23V316.15h12.12v59.49q0,10.28,5.88,16.09t15.17,5.81q9.84,0,16-5.81t6.18-16.09V316.15Z" transform="translate(-39.45 -32.68)" style="fill:#f06292"/><path d="M587.07,405.73H574.88V316.15h12.18Z" transform="translate(-39.45 -32.68)" style="fill:#f06292"/><path d="M618.44,396.25h50.08v9.47H604.79v-9l47.87-71.06H605.46v-9.54h61v8.67Z" transform="translate(-39.45 -32.68)" style="fill:#f06292"/><path d="M458.92,204.83H237.38l-23-98.55a30.42,30.42,0,1,1,22.66-9c36.74,39.7,67,36.63,95.11-10.59a30.27,30.27,0,1,1,35.66,1c24.16,46.4,55.09,48.77,95.47,9.61A30.19,30.19,0,1,1,486,107.5ZM248.12,191.3H448.63l23.18-83.43c-49.08,47-91.15,39.27-119.21-20.13l-2.55-5.39-2.9,5.27c-32.79,59.58-74.34,67-118.47,20.64ZM479.47,93l2.86.59a16.88,16.88,0,1,0-5.53-2.31ZM215.58,59.41a16.68,16.68,0,0,0,0,33.36,16.46,16.46,0,0,0,2.86-.31l2.73-.48,2.59-1.48a16.47,16.47,0,0,0,8.48-14.42A16.7,16.7,0,0,0,215.58,59.41ZM350.66,46.22A16.66,16.66,0,0,0,344,78.14L350,80.82l6.36-2.35a16.63,16.63,0,0,0-5.73-32.25Z" transform="translate(-39.45 -32.68)" style="fill:#f06292"/><path d="M451.13,232h-206a6.83,6.83,0,0,1-6.82-6.82h0a6.83,6.83,0,0,1,6.82-6.82h206a6.83,6.83,0,0,1,6.82,6.82h0A6.84,6.84,0,0,1,451.13,232Z" transform="translate(-39.45 -32.68)" style="fill:#f06292"/></svg>
