<svg xmlns="http://www.w3.org/2000/svg" viewBox="0 0 141.8 153.5"> <path d="M104.7 129c-15.6 0-34.7-5.9-52.5-16.1-11.6-6.6-22-14.8-30-23.6-.5-.5-.8-1.2-.7-1.9 0-.7.4-1.4.9-1.9s1.1-.7 1.8-.7c.8 0 1.5.3 2 .9 7.6 8.4 17.5 16.2 28.7 22.7 17 9.8 35.1 15.4 49.7 15.4 7.7 0 14.1-1.6 18.5-4.6.5-.3 1-.5 1.6-.5.9 0 1.8.4 2.2 1.2.8 1.2.5 3-.7 3.8-5.2 3.4-12.6 5.3-21.5 5.3.1 0 .1 0 0 0zM14.3 76.8c-1 0-1.9-.5-2.3-1.4C5.3 63.8 4.2 53 8.8 45c4.7-8 14.7-12.5 28.2-12.5 4.3 0 8.9.4 13.7 1.3 1.5.3 2.3 1.6 2.1 3.1-.2 1.3-1.3 2.2-2.6 2.2h-.5C45.2 38.4 40.9 38 37 38c-11.5 0-19.9 3.5-23.5 9.8-3.6 6.3-2.4 15.2 3.2 25 .4.6.5 1.3.3 2.1-.2.7-.7 1.3-1.3 1.6-.4.2-.9.3-1.4.3z"></path> <path d="M9.1 111.5c-1.4 0-2.5-.9-2.8-2.3-2.7-18.5 16.3-43.4 46-60.5C64 42 76.3 37.1 88.1 34.5c.2 0 .4-.1.5-.1 1.2 0 2.3.8 2.7 2 .2.7.1 1.5-.3 2.1-.4.6-1 1-1.7 1.2-11.1 2.4-22.9 7.1-34.3 13.6-27.5 15.9-45.7 39-43.4 55 .1 1.5-.8 2.8-2.3 3.1 0 .1-.1.1-.2.1zm110.5-23.7c-.7 0-1.3-.2-1.8-.6-1.1-1-1.2-2.7-.3-3.8 11.6-13.7 15.6-26.9 10.6-35.5-3.6-6.2-11.6-9.6-22.7-9.7-1.5 0-2.7-1.2-2.7-2.7s1.2-2.7 2.7-2.7c13.1.2 22.8 4.6 27.3 12.5 6.1 10.6 1.9 26.2-11.2 41.7-.3.4-1.1.8-1.9.8z"></path> <path d="M71 152.4c-12.4 0-23.6-11.1-30.6-30.6-.3-.6-.2-1.4.1-2.1.3-.7.9-1.2 1.6-1.5.3-.1.6-.2.9-.2 1.1 0 2.1.7 2.6 1.8 6 17.1 15.5 27.2 25.4 27.2 7.2 0 14-5 19.7-14.6.4-.8 1.3-1.4 2.3-1.4.5 0 1 .1 1.4.4.6.3 1 .9 1.2 1.6.2.7.1 1.5-.3 2.1-6.8 11.3-15.2 17.3-24.3 17.3zm59-26.1c-5.7 0-10.3-4.6-10.3-10.3 0-5.7 4.6-10.3 10.3-10.3 5.7 0 10.3 4.6 10.3 10.3.1 5.8-4.5 10.3-10.3 10.3zm0-15.2c-2.7 0-4.9 2.2-4.9 4.9s2.2 4.9 4.9 4.9 4.9-2.2 4.9-4.9-2.2-4.9-4.9-4.9zM11.5 126.3c-5.7 0-10.3-4.6-10.3-10.3 0-5.7 4.6-10.3 10.3-10.3s10.3 4.6 10.3 10.3c.1 5.7-4.6 10.3-10.3 10.3zm0-15.2c-2.7 0-4.9 2.2-4.9 4.9s2.2 4.9 4.9 4.9 4.9-2.2 4.9-4.9-2.2-4.9-4.9-4.9zm88.6 9c-.2 0-.5 0-.7-.1-1.4-.4-2.2-1.9-1.8-3.4 3.3-10.8 5.1-23.1 5.1-35.7 0-31-10.6-58.3-25.3-64.8-1.3-.5-1.9-2.1-1.4-3.5.4-1 1.4-1.6 2.5-1.6.4 0 .7.1 1.1.2 16.8 7.4 28.5 36.1 28.5 69.7 0 13.4-1.8 26.3-5.3 37.3-.5 1.1-1.6 1.9-2.7 1.9z"></path> <path d="M70.9 88.6c-3.6 0-6.7-2.5-7.5-6-.9-4.1 1.7-8.2 5.8-9 .5-.1 1.1-.2 1.6-.2 3.6 0 6.7 2.5 7.5 6 .4 2 .1 4.1-1 5.8-1.1 1.7-2.8 2.9-4.8 3.3-.5 0-1.1.1-1.6.1zm.1-66.3c-5.7 0-10.3-4.6-10.3-10.3S65.3 1.7 71 1.7c5.7 0 10.3 4.6 10.3 10.3S76.6 22.3 71 22.3zm0-15.2c-2.7 0-4.9 2.2-4.9 4.9s2.2 4.9 4.9 4.9 4.9-2.2 4.9-4.9c-.1-2.7-2.3-4.9-4.9-4.9z"></path> </svg>