<svg xmlns="http://www.w3.org/2000/svg" viewBox="0 0 471.09 178.93"><defs><style>.cls-1{fill:#fcfcfc;}.cls-2,.cls-3{fill:#fefefe;}.cls-2{stroke:#000;stroke-miterlimit:10;}.cls-4{fill:#fff;}</style></defs><title>Asset 2</title><g id="Layer_2" data-name="Layer 2"><g id="Layer_1-2" data-name="Layer 1"><path d="M281.67,35.1a89,89,0,0,1-7.26,26.23,145.76,145.76,0,0,1-11.46,21.05c-2.42,3.7-4.93,7.34-7.63,10.84a.8.8,0,0,0-.08.27c0,.11-.19.36.16.24a17.77,17.77,0,0,1,9.17-4.2,17.54,17.54,0,0,1,3,0c5.8,1,10,4.62,13.66,8.85a28.63,28.63,0,0,1,6.43,14c.22,1.17.31,2.35.46,3.53.14.63-.09,1.28.13,1.9v2.25c-.24.68,0,1.4-.15,2.09l0,1.12c-.19.3,0,.65-.14,1a72.75,72.75,0,0,1-3.21,13.65,84.5,84.5,0,0,1-5.35,12.25c-.1.19-.17.4-.28.65a3.58,3.58,0,0,0,2-.58A97.7,97.7,0,0,0,293,144.12c3.15-1.87,6.24-3.84,9.34-5.79.38-.24,1-.42.74-1.1.21-.44,0-.92.14-1.36l.05-1.09c.16-.32,0-.67.12-1A65.17,65.17,0,0,1,306,122a60.46,60.46,0,0,1,5.45-13,61.86,61.86,0,0,1,16.62-19c4.89-3.67,10.43-5.23,16.35-5.87a22.29,22.29,0,0,1,10.18,1.08c5.82,2.13,9.15,6.52,10.64,12.3,3.44,13.33.41,25.1-9.09,35.07-7.65,8-17.16,13.08-27.55,16.63-1,.36-1.06.36-.47,1.27a13.4,13.4,0,0,0,9.4,5.95c5.57,1,10.88-.19,16-2.17,8.28-3.18,15.6-8,22.6-13.35A4,4,0,0,0,378,138c1-10.63,3.61-21,6.19-31.27,1.28-5.11,2.73-10.17,4.26-15.22a6,6,0,0,1,4-4.16,14.8,14.8,0,0,1,7.94-.57c2,.39,2.44,1,2.69,3,.65,5.1.4,10.23.33,15.34,0,3.53-.27,7.06-.41,10.61a1.32,1.32,0,0,0,1.38-1,67.56,67.56,0,0,1,12.91-21.8,17.33,17.33,0,0,1,10.52-5.95,10.74,10.74,0,0,1,1.32-.05,4.08,4.08,0,0,1,4.1,2.63,20.25,20.25,0,0,1,1.52,6.71,93.19,93.19,0,0,1-.44,16.27,38.31,38.31,0,0,0,1,14.28,12.82,12.82,0,0,0,1.18,2.78,6.51,6.51,0,0,0,5.76,3.54,27.17,27.17,0,0,0,12.23-2.9,47.78,47.78,0,0,0,7.85-4.56c3.3-2.34,7.4-.91,8.34,3a13.15,13.15,0,0,1-.41,7.74,8.78,8.78,0,0,1-3.38,4.33c-6.49,4.43-13.36,8-21,9.9a28.52,28.52,0,0,1-11.46.58,15.68,15.68,0,0,1-10.4-6.67A37.23,37.23,0,0,1,418.29,131a73.17,73.17,0,0,1-1.71-11.23c0-.34.25-.87-.45-.94a1,1,0,0,0-1.18.74c-2.48,7-5,13.89-7.51,20.83-3,8.28-5.91,16.58-8.95,24.84a33.71,33.71,0,0,1-5.7,10.31,10.9,10.9,0,0,1-2.94,2.51,5.67,5.67,0,0,1-5.45.23c-4.49-2.06-6.93-5.71-8.07-10.38a24.29,24.29,0,0,1-.52-3.79,43.38,43.38,0,0,1-5.29,4.59,50.34,50.34,0,0,1-23.86,9.45,47.59,47.59,0,0,1-21.77-1.94,31.68,31.68,0,0,1-9.28-5.19A36.19,36.19,0,0,1,306,159.75c-.82-1.52-.82-1.51-2.32-.61a95.94,95.94,0,0,1-12.22,6,205.7,205.7,0,0,1-30.28,9.68c-4.68,1.17-9.41,2.15-14.14,3.1a9.15,9.15,0,0,1-.94.09c-.45.14-.93-.06-1.37.13H240.3c-.44-.2-.91,0-1.35-.13a37.7,37.7,0,0,1-8.37-1.44,47.67,47.67,0,0,1-11.9-5.1,39.52,39.52,0,0,1-4-2.73.49.49,0,0,0-.71,0,58.88,58.88,0,0,1-7.42,4.37,51.4,51.4,0,0,1-8.11,3.85,36.56,36.56,0,0,1-5.6,1.26c-.31.12-.67,0-1,.13h-3.35c-.3-.2-.66,0-1-.15a11.39,11.39,0,0,1-7-3.19,14,14,0,0,1-3.27-5.42,47,47,0,0,1-1.66-7,26.83,26.83,0,0,1-.27-3.06c-.12-.32,0-.68-.13-1l-.06-1.28c-.15-.5.08-1-.14-1.53l0-1.88c-.18-1.34.08-2.69-.14-4v-3.34a28.79,28.79,0,0,0,.09-3.55,3.83,3.83,0,0,1,.06-1l0-2.44a17.29,17.29,0,0,0,.13-1.92l.06-1.71c.22-.49,0-1,.13-1.52l.07-1.47c.19-.44,0-.93.14-1.38l0-1.11c.2-.37,0-.79.14-1.17l.06-1.09c.17-.32,0-.67.13-1l0-.94c.2-.3,0-.64.13-1s.34-.72-.28-.8a.93.93,0,0,0-1.11.6c-1.58,3.56-3.23,7.1-4.77,10.67-2.93,6.78-5.6,13.66-7.87,20.7-1.18,3.65-2.07,7.38-3.54,10.94a26.53,26.53,0,0,1-4.52,7.74,7.59,7.59,0,0,1-3.66,2.37,25,25,0,0,1-3.4,0,13.72,13.72,0,0,1-7.51-2.67,11.12,11.12,0,0,1-3.86-6c-.19-.61-.1-1.23-.26-1.83-.13-.31.06-.66-.14-1l0-1.69a25,25,0,0,1,0-3.4l.06-2.44c.21-.5,0-1,.13-1.55l.05-1.31c.2-.37,0-.78.13-1.15l.06-1.13c.19-.3,0-.65.13-1l.06-.95c.2-.29,0-.65.14-1l.24-2.46c.21-.29,0-.65.15-1,.33-2.67.62-5.34,1-8,.32-2.22.78-4.42,1.12-6.63.4-2.54.78-5.08,1.33-7.6.06-.3-.06-.39-.34-.4-.64,0-.93.4-1.23.87-1.95,3-3.45,6.23-5.09,9.4-3.21,6.19-5.65,12.72-8.5,19.06-1.43,3.19-2.85,6.38-4.4,9.52a59,59,0,0,1-6.14,10.4c-1.71,2.19-3.67,4.05-6.57,4.54a16.47,16.47,0,0,1-2.83,0,10,10,0,0,1-9.46-6.67,16.29,16.29,0,0,1-1.34-5.26c0-.56-.27-.53-.67-.3-1.69,1-3.42,1.82-5.07,2.83a55.31,55.31,0,0,1-15.45,6.54c-3.16.81-6.36,1.4-9.55,2a26.67,26.67,0,0,1-2.7.27c-.38.13-.79-.06-1.17.13l-1.68,0a26.25,26.25,0,0,1-3.59,0l-1.68-.06c-.31-.18-.66,0-1-.13a25.77,25.77,0,0,1-10.1-2.93,25.34,25.34,0,0,1-4.49-3.25,32.24,32.24,0,0,1-4-4,48.57,48.57,0,0,1-4-5.69,32.7,32.7,0,0,1-4.06-10.15c-.38-1.72-1.51-1.22-2.25-1.32-2.5-.34-5-.78-7.47-1.23a73.18,73.18,0,0,1-9.63-2.44,10.47,10.47,0,0,1-3.17-1.4,4.65,4.65,0,0,1-1.95-3.53,3.68,3.68,0,0,1,0-1.31c.28-2.95,1.85-5.31,3.43-7.69a4.38,4.38,0,0,1,2.69-1.85,7.09,7.09,0,0,1,1.88,0,11.52,11.52,0,0,1,3.39,2,10.54,10.54,0,0,0,6.09,2.07c.3.19.65,0,1,.13a17.74,17.74,0,0,0,3.44,0c.37-.14.79.07,1.15-.14,1.37,0,1.76.29,1.91-1.83a41.19,41.19,0,0,1,.76-5.21c.45-2.25.9-4.5,1.5-6.72a65.31,65.31,0,0,1,3.28-9.46,54.61,54.61,0,0,1,6.45-11.17,40.42,40.42,0,0,1,7.16-7.28A30.07,30.07,0,0,1,51.62,89a29,29,0,0,1,9.52-2,9.88,9.88,0,0,1,2.07,0l2.07.05c.36.21.78,0,1.16.15a24.81,24.81,0,0,1,11,3.83,25.4,25.4,0,0,1,6.9,7,16.55,16.55,0,0,1,1.87,5.54c.27,1.18.42,2.4.63,3.6.16.5-.08,1,.14,1.53v2c-.22.5,0,1-.14,1.53a31.47,31.47,0,0,1-8,17.15A60.55,60.55,0,0,1,65.27,140.8,88.57,88.57,0,0,1,48.85,149a3.45,3.45,0,0,0-.63.4,1.57,1.57,0,0,0,0,1.13,6.59,6.59,0,0,0,3.66,5.64,11,11,0,0,0,5.62,1.53c.44.2.91,0,1.36.13h2.11c.43-.16.91.08,1.33-.15a27.5,27.5,0,0,0,8.17-1.91A102,102,0,0,0,92,144.61c.86-.57,1.73-1.15,2.61-1.7.18-.11.17-.23.16-.39.2-.29,0-.65.14-1,.41-3.74,1.11-7.44,1.75-11.15.75-4.35,1.65-8.67,2.53-13S101,109,102,104.8c.91-3.72,1.74-7.46,2.89-11.12.27-.87.49-1.77.82-2.62,1-2.69,3.24-3.8,5.88-4.31.59-.11,1.18-.18,1.77-.27,1.33-.15,2.67.1,4-.13h.7c.31.18.66,0,1,.14,3.39.74,4.76,3.14,5.18,6.31a32.52,32.52,0,0,1,0,3.77l-.06,1.47c-.16.32,0,.67-.12,1l-.06.95c-.2.29,0,.65-.14,1l0,.76c-.21.29,0,.65-.15,1-.39,2.53-.75,5.07-1.18,7.59-.69,4-1.43,8.05-2.16,12.08-.25,1.37-.59,2.73-.85,4.11a1,1,0,0,0,.1.91c.19.2.4.51.62.53s.3-.38.42-.62c1-1.94,1.92-3.9,3-5.8,1.4-2.55,2.88-5.07,4.35-7.58,2.27-3.88,4.6-7.73,6.84-11.63A35.86,35.86,0,0,1,141.07,94c3.25-3.09,6.92-5.47,11.44-6.24a9.67,9.67,0,0,1,5.4.12c2.15.88,2.93,2.81,3.38,4.89.23,1.07.3,2.17.44,3.26a16.49,16.49,0,0,1,0,2.83l-.06,1.7c-.2.37,0,.78-.14,1.15a131.21,131.21,0,0,1-4.82,21.89,20.43,20.43,0,0,1-.68,2,1.61,1.61,0,0,0,.5,2.22,22.91,22.91,0,0,0,2-3.65c1.46-2.74,3.11-5.37,4.74-8q7-11.4,14.51-22.52A17,17,0,0,1,183,89a14.7,14.7,0,0,1,5.3-2.13,11.23,11.23,0,0,1,2.45,0A15.26,15.26,0,0,1,196,89.2a6.85,6.85,0,0,1,2.52,4.44c.19,1,.29,2.1.44,3.15a26.34,26.34,0,0,1,0,3.39l-.07,1.29c-.17.32,0,.67-.13,1l-.05.93c-.2.3,0,.66-.15,1-.46,3.44-.88,6.88-1.38,10.32-.45,3.12-1,6.23-1.47,9.35-.52,3.33-1,6.67-1.55,10a13.37,13.37,0,0,0-.38,3c-.2.29,0,.65-.15,1l-.06.9c-.17.32,0,.67-.13,1l0,1.12c-.22.5,0,1-.14,1.53a52.17,52.17,0,0,0,0,6.09c.14.37-.07.79.14,1.15a10.74,10.74,0,0,0,1.85,6.2,2.29,2.29,0,0,0,1.7,1,3.42,3.42,0,0,0,1.62,0,9.62,9.62,0,0,0,3.93-1.07,32.31,32.31,0,0,0,8.64-5.56,2.58,2.58,0,0,1,.36-.31,2,2,0,0,0,1.13-1.84c.08-1.68.49-3.35.71-5s.36-3.44.57-5.16.53-3.48.75-5.22.36-3.57.59-5.34.51-3.47.73-5.22.4-3.44.61-5.17c.17-1.37.37-2.75.53-4.12.14-1.2.26-2.4.39-3.59.21-.29,0-.65.15-1l.42-3.79c.21-.29,0-.65.15-1l.23-2.27c.21-.29,0-.65.15-1l.61-5.5c.21-.29,0-.65.15-1l.42-4c.2-.3,0-.66.15-1l.42-4c.2-.29,0-.65.15-1l0-.75c.21-.29,0-.65.15-1l0-.74c.2-.3,0-.66.15-1l0-.74c.2-.3,0-.66.15-1l0-.74c.2-.3,0-.66.15-1l0-.75c.2-.29,0-.65.15-1l0-.75c.2-.29,0-.65.14-1,.21-2,.32-4.09.64-6.11.49-3.06,1-6.12,1.62-9.16.84-4,1.83-8,3-12,1.07-3.59,2.33-7.12,3.66-10.62,1.1-2.91,2.26-5.8,3.59-8.6a100.89,100.89,0,0,1,7.71-14.11,26.63,26.63,0,0,1,5.07-5.18,45.34,45.34,0,0,1,9.27-5.76A23.68,23.68,0,0,1,262.85.15c.3-.14.66.06,1-.15a14.68,14.68,0,0,1,5.71.89,13.89,13.89,0,0,1,6.69,6,38.1,38.1,0,0,1,4.86,13.76c.22,1.29.41,2.59.62,3.89.11.32,0,.68.12,1l.07,1.66c.06,1.7.09,3.4,0,5.1l0,1.51C281.59,34.19,281.84,34.66,281.67,35.1Z"/><path class="cls-1" d="M281.86,32.25l0-5.1A18,18,0,0,1,281.86,32.25Z"/><path class="cls-1" d="M175,141.95a44.37,44.37,0,0,1-.15,4.57A25.67,25.67,0,0,1,175,141.95Z"/><path class="cls-1" d="M174.81,149.86a38.59,38.59,0,0,1,.14,4A19.37,19.37,0,0,1,174.81,149.86Z"/><path class="cls-1" d="M117.32,86.35c-1.32.34-2.67,0-4,.13A22.06,22.06,0,0,1,117.32,86.35Z"/><path class="cls-1" d="M124.17,96.58V92.8A10.34,10.34,0,0,1,124.17,96.58Z"/><path class="cls-1" d="M53.93,177.86l3.59,0A8.92,8.92,0,0,1,53.93,177.86Z"/><path class="cls-1" d="M198.95,100.18V96.79A8.45,8.45,0,0,1,198.95,100.18Z"/><path class="cls-1" d="M135.08,160.93v3.4A8.32,8.32,0,0,1,135.08,160.93Z"/><path class="cls-1" d="M146.91,177.47h3.4A8.29,8.29,0,0,1,146.91,177.47Z"/><path class="cls-1" d="M267.58,89.53h-3A6.39,6.39,0,0,1,267.58,89.53Z"/><path class="cls-1" d="M161.75,98.85l0-2.83A5.61,5.61,0,0,1,161.75,98.85Z"/><path class="cls-1" d="M104.59,178.23h2.83A5.58,5.58,0,0,1,104.59,178.23Z"/><path class="cls-1" d="M190.73,86.87h-2.45A4.12,4.12,0,0,1,190.73,86.87Z"/><path class="cls-1" d="M63.2,87.05H61.14A3.22,3.22,0,0,1,63.2,87.05Z"/><path class="cls-1" d="M288.12,122.2a8.77,8.77,0,0,1,.15-2.09C288.2,120.8,288.45,121.52,288.12,122.2Z"/><path class="cls-1" d="M288.27,117.85a6.77,6.77,0,0,1-.13-1.9A5.3,5.3,0,0,1,288.27,117.85Z"/><path class="cls-1" d="M175.12,137.59a6.34,6.34,0,0,1-.13,1.92A5.18,5.18,0,0,1,175.12,137.59Z"/><path class="cls-1" d="M8.17,130.9H6.29A2.51,2.51,0,0,1,8.17,130.9Z"/><path class="cls-1" d="M193.25,142.5a3.9,3.9,0,0,1,.14-1.53C193.33,141.48,193.54,142,193.25,142.5Z"/><path class="cls-1" d="M86.93,108.76a4.78,4.78,0,0,1-.14-1.53C87.09,107.71,86.87,108.25,86.93,108.76Z"/><path class="cls-1" d="M198.55,156.94a2.08,2.08,0,0,1-1.62,0Z"/><path class="cls-1" d="M86.78,112.33a4.78,4.78,0,0,1,.14-1.53C86.87,111.31,87.09,111.84,86.78,112.33Z"/><path class="cls-1" d="M135.28,156.94a4.47,4.47,0,0,1-.13,1.55C135.19,158,135,157.44,135.28,156.94Z"/><path class="cls-1" d="M175,155.77a4.17,4.17,0,0,1,.14,1.53C174.84,156.81,175,156.28,175,155.77Z"/><path class="cls-1" d="M175.31,134.36a3.81,3.81,0,0,1-.13,1.52C175.23,135.38,175,134.85,175.31,134.36Z"/><path class="cls-1" d="M62.28,157.7a2.88,2.88,0,0,1-1.33.15C61.36,157.55,61.83,157.75,62.28,157.7Z"/><path class="cls-1" d="M281.67,35.1a3.22,3.22,0,0,1,.15-1.34C281.76,34.21,282,34.68,281.67,35.1Z"/><path class="cls-1" d="M303.23,135.88a3.46,3.46,0,0,1-.14,1.36C303.13,136.78,302.93,136.3,303.23,135.88Z"/><path class="cls-1" d="M.18,140.43l0,1.31A1.35,1.35,0,0,1,.18,140.43Z"/><path class="cls-1" d="M58.84,157.84a2.87,2.87,0,0,1-1.36-.13C57.94,157.74,58.41,157.55,58.84,157.84Z"/><path class="cls-1" d="M175.52,131.51a3.56,3.56,0,0,1-.14,1.38C175.42,132.43,175.22,131.94,175.52,131.51Z"/><path class="cls-1" d="M238.95,178a3.5,3.5,0,0,1,1.35.13C239.85,178.14,239.38,178.32,238.95,178Z"/><path class="cls-1" d="M244.76,178.17a3.76,3.76,0,0,1,1.37-.13C245.7,178.32,245.22,178.14,244.76,178.17Z"/><path class="cls-1" d="M255.39,93.73c-.14.23-.29.44-.64.37a1.3,1.3,0,0,1,.48-.61Z"/><path class="cls-1" d="M66.43,87.25a2.53,2.53,0,0,1-1.16-.15C65.66,87.15,66.08,87,66.43,87.25Z"/><path class="cls-1" d="M135.46,154.48a2.39,2.39,0,0,1-.13,1.15C135.37,155.24,135.2,154.84,135.46,154.48Z"/><path class="cls-1" d="M175.7,129.23a2.49,2.49,0,0,1-.14,1.17C175.6,130,175.43,129.6,175.7,129.23Z"/><path class="cls-1" d="M59.19,177.79a2.52,2.52,0,0,1,1.17-.13C60,177.93,59.58,177.76,59.19,177.79Z"/><path class="cls-1" d="M193.38,149.75a2.16,2.16,0,0,1-.14-1.15C193.52,149,193.35,149.36,193.38,149.75Z"/><path class="cls-1" d="M161.56,101.7a2.49,2.49,0,0,1,.14-1.15C161.66,100.93,161.82,101.34,161.56,101.7Z"/><path class="cls-1" d="M23.2,134.93a2.25,2.25,0,0,1-1.15.14C22.4,134.8,22.81,135,23.2,134.93Z"/><path class="cls-1" d="M48.21,150.54a1.4,1.4,0,0,1,0-1.13Z"/><path class="cls-1" d="M193.62,137.95a1.66,1.66,0,0,1,.15-1C193.74,137.31,193.88,137.66,193.62,137.95Z"/><path class="cls-1" d="M220.87,80.65a1.72,1.72,0,0,1-.15,1C220.75,81.29,220.61,80.94,220.87,80.65Z"/><path class="cls-1" d="M193.43,139.85a1.84,1.84,0,0,1,.13-1C193.55,139.19,193.69,139.54,193.43,139.85Z"/><path class="cls-1" d="M220.49,84.07a1.66,1.66,0,0,1-.15,1C220.37,84.7,220.23,84.36,220.49,84.07Z"/><path class="cls-1" d="M119,86.49a2.16,2.16,0,0,1-1-.14C118.35,86.37,118.7,86.23,119,86.49Z"/><path class="cls-1" d="M94.86,141.57a1.69,1.69,0,0,1-.14,1C94.75,142.2,94.61,141.86,94.86,141.57Z"/><path class="cls-1" d="M219.92,89a1.72,1.72,0,0,1-.15,1C219.8,89.64,219.66,89.29,219.92,89Z"/><path class="cls-1" d="M136.24,147.07a1.71,1.71,0,0,1-.15,1C136.12,147.71,136,147.36,136.24,147.07Z"/><path class="cls-1" d="M219.35,93.94a1.63,1.63,0,0,1-.15,1C219.24,94.57,219.09,94.22,219.35,93.94Z"/><path class="cls-1" d="M124,99a1.9,1.9,0,0,1,.12-1C124.1,98.38,124.23,98.74,124,99Z"/><path class="cls-1" d="M123.79,100.94a1.69,1.69,0,0,1,.14-1C123.9,100.31,124,100.65,123.79,100.94Z"/><path class="cls-1" d="M135.85,150.49a1.69,1.69,0,0,1-.14,1C135.74,151.12,135.6,150.78,135.85,150.49Z"/><path class="cls-1" d="M135.65,152.39a1.63,1.63,0,0,1-.13,1C135.55,153,135.41,152.68,135.65,152.39Z"/><path class="cls-1" d="M218.6,100.39a1.63,1.63,0,0,1-.15,1C218.48,101,218.33,100.67,218.6,100.39Z"/><path class="cls-1" d="M198.75,102.46a2,2,0,0,1,.13-1C198.86,101.8,199,102.16,198.75,102.46Z"/><path class="cls-1" d="M123.59,102.65a1.71,1.71,0,0,1,.15-1C123.71,102,123.86,102.37,123.59,102.65Z"/><path class="cls-1" d="M198.55,104.36a1.72,1.72,0,0,1,.15-1C198.67,103.72,198.82,104.07,198.55,104.36Z"/><path class="cls-1" d="M218.22,103.62a1.71,1.71,0,0,1-.15,1C218.1,104.25,218,103.9,218.22,103.62Z"/><path class="cls-1" d="M217.65,108.36a1.71,1.71,0,0,1-.15,1C217.53,109,217.38,108.64,217.65,108.36Z"/><path class="cls-1" d="M175.19,158.59a1.88,1.88,0,0,1,.13,1C175.07,159.27,175.21,158.92,175.19,158.59Z"/><path class="cls-1" d="M287.94,124.28a1.7,1.7,0,0,1,.14-1C288.05,123.64,288.19,124,287.94,124.28Z"/><path class="cls-1" d="M176.07,125.25a1.63,1.63,0,0,1-.13,1C176,125.88,175.83,125.54,176.07,125.25Z"/><path class="cls-1" d="M135.14,166a1.79,1.79,0,0,1,.14,1C135,166.69,135.17,166.34,135.14,166Z"/><path class="cls-1" d="M220.68,82.36a1.71,1.71,0,0,1-.15,1C220.56,83,220.42,82.65,220.68,82.36Z"/><path class="cls-1" d="M175.89,127.15a1.87,1.87,0,0,1-.13,1C175.78,127.81,175.64,127.45,175.89,127.15Z"/><path class="cls-1" d="M221.62,73.83a1.6,1.6,0,0,1-.14,1C221.51,74.46,221.37,74.11,221.62,73.83Z"/><path class="cls-1" d="M51.27,177.66a1.82,1.82,0,0,1,1,.13C51.92,177.77,51.57,177.91,51.27,177.66Z"/><path class="cls-1" d="M303.4,133.79a1.9,1.9,0,0,1-.12,1C303.3,134.45,303.16,134.1,303.4,133.79Z"/><path class="cls-1" d="M221.44,75.53a1.66,1.66,0,0,1-.15,1C221.32,76.17,221.18,75.82,221.44,75.53Z"/><path class="cls-1" d="M18.61,135.06a1.56,1.56,0,0,1-1-.13C18,135,18.31,134.82,18.61,135.06Z"/><path class="cls-1" d="M221.25,77.24a1.72,1.72,0,0,1-.15,1C221.13,77.88,221,77.53,221.25,77.24Z"/><path class="cls-1" d="M221.06,78.95a1.72,1.72,0,0,1-.15,1C220.94,79.59,220.8,79.24,221.06,78.95Z"/><path class="cls-2" d="M266.64,127.75c-.41,8.89-2.42,17.34-7.7,24.67-4.52,6.29-10.89,9-18.58,8.58a33,33,0,0,1-7.89-1.49,1.71,1.71,0,0,1-1.33-1.75,38.63,38.63,0,0,1,.05-8.42,116.12,116.12,0,0,1,6-26.34,23.34,23.34,0,0,1,6.29-9.89c5-4.49,11.51-4.49,16.82-1.93a7.83,7.83,0,0,1,2.84,3.12,22.82,22.82,0,0,1,3.46,10.9C266.7,126,266.64,126.9,266.64,127.75Z"/><path class="cls-1" d="M187.52,178.22a1.81,1.81,0,0,1,1,.15C188.16,178.34,187.81,178.49,187.52,178.22Z"/><path class="cls-1" d="M191.84,178.36a1.82,1.82,0,0,1,1-.13C192.52,178.48,192.17,178.34,191.84,178.36Z"/><path class="cls-3" d="M234.55,94.4a40.22,40.22,0,0,1,.88-7.69c2.82-14.6,6.71-28.94,10.86-43.21a80.29,80.29,0,0,1,5.92-13.61,46.3,46.3,0,0,1,4.94-8.06,9.71,9.71,0,0,1,1.95-1.93c1.58-1.12,2.73-.86,3.61.85A12.67,12.67,0,0,1,264,26.15a32.53,32.53,0,0,1-1.27,9.45c-2.15,8.32-5.54,16.16-9.19,23.9A388.17,388.17,0,0,1,235,93.77C234.82,94,234.68,94.19,234.55,94.4Z"/><path class="cls-4" d="M325.28,131a35.47,35.47,0,0,1,3.32-13.71,43.84,43.84,0,0,1,6.17-10.82,13.29,13.29,0,0,1,3.07-2.79,5.85,5.85,0,0,1,8.34,1.61A13.12,13.12,0,0,1,348,116.91c-2.12,7.43-9.71,16.29-21.21,17-1.43.09-1.46.06-1.53-1.37C325.26,132,325.28,131.51,325.28,131Z"/><path class="cls-3" d="M69.95,112.81a16.36,16.36,0,0,1-3.78,10.1,31.92,31.92,0,0,1-17.37,11,8.3,8.3,0,0,1-2.36.17c-.44,0-.69-.15-.66-.67.5-9.24,2.7-17.85,9.26-24.8a13.2,13.2,0,0,1,7.83-4.45,5,5,0,0,1,4.92,2A10.14,10.14,0,0,1,69.95,112.81Z"/></g></g></svg>