<svg xmlns="http://www.w3.org/2000/svg" viewBox="0 0 207.76 80.1"><defs><style>.cls-1{fill:#fff;stroke:#000;stroke-miterlimit:10;stroke-width:2px;}</style></defs><title>Asset 3</title><g id="Layer_2" data-name="Layer 2"><g id="Layer_1-2" data-name="Layer 1"><path class="cls-1" d="M124,66.08c3.13-.68,5.63-2.59,8.22-4.3a3.41,3.41,0,0,0,1.19-2.47A29.05,29.05,0,0,1,144,40.45a12.86,12.86,0,0,1,7.78-3c5.65-.37,8.47,2.24,9.3,7.68.81,5.28-.33,10-4.73,13.77-3.29,2.82-6.4,5.72-10.74,6.8-.46.11-1.17.22-1.12.7a2,2,0,0,0,.95,1.28,9.39,9.39,0,0,0,6.66,1.24,30.92,30.92,0,0,0,13-6.35,2.25,2.25,0,0,0,.86-1.84c.44-6.82,2.89-13.16,4.81-19.62a3.28,3.28,0,0,1,2.68-2.68c2.72-.43,3.53.09,3.61,2.86.1,3.09,0,6.19,0,9.37,2.55-4,4.65-8.3,8.65-11.15,2.39-1.7,4.49-1.18,5.16,1.65a20.29,20.29,0,0,1,.25,6.92,20.37,20.37,0,0,0,.15,7.39c.71,2.78,1.85,3.56,4.69,3.07a20.79,20.79,0,0,0,6.61-2.68c1-.59,2-1,3.13-.36s1.11,1.73,1.05,2.77c-.1,2.06-.68,3.9-2.61,5.07a26.75,26.75,0,0,1-10.65,4.08c-4.49.55-7.8-1.7-9.09-6a42.22,42.22,0,0,1-1.47-6.91c-.62-.2-.67.2-.76.45-2.08,6.08-5.13,11.79-6.91,18a13,13,0,0,1-1.68,3.43c-2.25,3.44-6,3.14-7.82-.59-.38-.78-.6-1.64-1-2.69-5,4.48-10.93,6-17.46,5.57-5.42-.34-9.43-3-12.35-7.44-.64-1-1.07-1.38-2.19-.62-7.14,4.8-15.45,6.2-23.64,7.8a17.63,17.63,0,0,1-12.83-2.78,2.57,2.57,0,0,0-3-.09C91.13,76.67,89,78,86.61,78.66c-5.37,1.38-8.36-.7-9-6.18a63.67,63.67,0,0,1-.14-12.21c.09-1.11.15-2.22.23-3.38-1,0-1,.8-1.2,1.29-2,4.71-4.11,9.35-5.24,14.37-.8,3.58-3.51,6-6.23,5.69-3-.3-4.61-2-4.75-5-.22-5,.64-9.88,1.28-14.79a12.5,12.5,0,0,0,.17-2.54A37.89,37.89,0,0,0,57,64.31C55.5,67.92,53.9,71.5,52.17,75c-1,2.11-2.48,3.91-5.32,3.71-2.65-.18-4-1.68-4.68-4.06-.45-1.57-1.26-.38-1.74-.1a35.92,35.92,0,0,1-12.6,4.35,13.77,13.77,0,0,1-15.61-9.24,3.16,3.16,0,0,0-2.64-2.31c-2.1-.49-4.2-1-6.24-1.7C.84,64.83.38,62.94,1.79,60c1.12-2.35,2.27-2.73,4.55-1.43a8,8,0,0,0,2.68,1c2,.33,3.09-.06,3.38-2.53.92-8,4.86-14.37,12.24-17.81,3.91-1.82,7.95-.47,11.25,2.46,4.23,3.75,4.5,9.49.92,13.89s-7.62,8.06-13.11,9.92c-1.9.64-2,2-.23,3.17a7.32,7.32,0,0,0,5.58.69c4.54-.87,8.54-3,12.44-5.4a2.41,2.41,0,0,0,1.11-2,172.71,172.71,0,0,1,3.87-19.49c1-4.06,3-4.42,6.6-4,2.18.28,2.31,2.48,2.18,4.2-.22,3-.75,6-1.1,9-.09.74-.54,1.52.14,2.4,1.4-.84,1.79-2.33,2.44-3.62,2.33-4.6,5.3-8.64,9.89-11.26,2.2-1.26,4.69-.28,5.07,2.27.62,4.18-.31,8.22-1.81,12.12-.25.66-.91,1.5-.26,1.86.92.49,1-.73,1.32-1.26C73,50.81,75,47.33,77.08,44a16.4,16.4,0,0,1,5-4.94c2.16-1.44,5.22.19,5.69,3.07.57,3.46-.39,6.84-.76,10.24s-1,7-1.37,10.46a23.88,23.88,0,0,0,.19,4.54,1.89,1.89,0,0,0,1.35,1.81c1.81.51,6.75-2.75,7-4.67,1.25-10.56,2.52-21.11,3.65-31.68a61,61,0,0,1,3.88-16.5,51.18,51.18,0,0,1,5.67-10.39A12.27,12.27,0,0,1,116.15,1c3.08-.36,5.48,1.56,6.59,5.09a26.73,26.73,0,0,1,.18,15.58,52.18,52.18,0,0,1-7.32,15.8A7.76,7.76,0,0,0,114.28,40l-.45.64a.71.71,0,0,0,1-.12c3.21-1.12,5.63.23,8.05,2.25,4.31,3.59,4.62,8.26,4,13.24a26.67,26.67,0,0,1-3.34,9.54l-.16.59Zm-6.45-8.7a10.61,10.61,0,0,0-1.28-6.13c-1.51-3.09-6.91-3.87-8.8-1.05a33.23,33.23,0,0,0-5.68,18.32,1.64,1.64,0,0,0,1.35,1.9,10.41,10.41,0,0,0,13-6.41A23.42,23.42,0,0,0,117.52,57.39ZM103.88,41.2a7.79,7.79,0,0,0,.91-1c2.77-5.47,5.61-10.9,8.26-16.43a37.66,37.66,0,0,0,3.32-10.07c.24-1.4.41-3.37-1-3.87S112.8,11,112,12.31c-2.58,4.21-3.88,8.92-5,13.65S104.3,35.62,103.88,41.2Zm49.25,9.19a5.78,5.78,0,0,0-.62-3c-1.08-1.93-2.67-2.28-4.31-.83-3.34,3-4.58,6.91-5.19,11.15-.11.77,0,1.35,1.11,1.37C148.36,59.15,153,54.7,153.13,50.38Zm-121.53.2c0-3.8-1.71-4.86-4.76-3.61-3.25,1.33-3.9,4.4-4.91,7.18-.54,1.51-1.56,3.57-.35,4.68,1,1,2.77-.49,4.11-1.13.28-.14.63-.14.9-.3C29.45,55.77,31.43,53.54,31.6,50.59Zm22.16,5.06c.15-.14.33-.22.32-.3a2.32,2.32,0,0,0-.15-.55c-.1.07-.28.14-.29.22A2.73,2.73,0,0,0,53.77,55.65Z"/><path class="cls-1" d="M117.52,57.39A23.42,23.42,0,0,1,116.07,64a10.41,10.41,0,0,1-13,6.41,1.64,1.64,0,0,1-1.35-1.9,33.23,33.23,0,0,1,5.68-18.32c1.89-2.81,7.29-2,8.8,1.05A10.61,10.61,0,0,1,117.52,57.39Z"/><path class="cls-1" d="M103.88,41.2c.42-5.57,2-10.37,3.13-15.24s2.42-9.43,5-13.65c.79-1.3,1.74-3,3.32-2.46s1.27,2.47,1,3.87A37.66,37.66,0,0,1,113,23.79c-2.65,5.53-5.48,11-8.26,16.43A7.79,7.79,0,0,1,103.88,41.2Z"/><path class="cls-1" d="M153.13,50.38c-.11,4.32-4.77,8.76-9,8.69-1.08,0-1.22-.6-1.11-1.37.6-4.23,1.85-8.19,5.19-11.15,1.64-1.45,3.23-1.1,4.31.83A5.77,5.77,0,0,1,153.13,50.38Z"/><path class="cls-1" d="M31.6,50.59c-.18,2.95-2.16,5.18-5,6.82-.27.15-.62.16-.9.3-1.35.65-3.07,2.09-4.11,1.13-1.22-1.11-.2-3.17.35-4.68,1-2.78,1.65-5.85,4.91-7.18C29.89,45.73,31.61,46.79,31.6,50.59Z"/><path class="cls-1" d="M53.77,55.65a2.73,2.73,0,0,1-.12-.63c0-.08.19-.15.29-.22a2.32,2.32,0,0,1,.15.55C54.09,55.43,53.92,55.51,53.77,55.65Z"/><path class="cls-1" d="M114.79,40.55a.71.71,0,0,1-1,.12l.45-.64Z"/><path class="cls-1" d="M124,66.08l-.61.09.16-.59Z"/></g></g></svg>