<svg id="Layer_1" data-name="Layer 1" xmlns="http://www.w3.org/2000/svg" viewBox="0 0 680.51 101.08"><defs><style>.cls-1{isolation:isolate;}.cls-2{fill:#9b9b9b;}.cls-3{fill:none;stroke:#4a90e2;stroke-width:6.99px;}.cls-4{fill:#3997ee;}</style></defs><title>encompass-line</title><g id="enc-mpass" class="cls-1"><g class="cls-1"><path class="cls-2" d="M71.83,223.29a28.12,28.12,0,0,1-12,10.54A38.19,38.19,0,0,1,44.08,237a34.22,34.22,0,0,1-13.32-2.49,30,30,0,0,1-10.27-7,30.68,30.68,0,0,1-6.59-10.69,38.94,38.94,0,0,1-2.29-13.67A36.7,36.7,0,0,1,14,189.84a32,32,0,0,1,6.67-10.62,31.19,31.19,0,0,1,10.13-7.07,31.64,31.64,0,0,1,12.9-2.57,31,31,0,0,1,13,2.57,28.24,28.24,0,0,1,15.19,16.44,32.16,32.16,0,0,1,2,11v5.83H19.93a28.59,28.59,0,0,0,1,6.73,23.86,23.86,0,0,0,3.82,8,24.18,24.18,0,0,0,7.42,6.67q4.65,2.78,12,2.77a26.88,26.88,0,0,0,12.35-3.05,22.27,22.27,0,0,0,9.16-8.33Zm-6.38-25.4a19,19,0,0,0-1.73-8A21.58,21.58,0,0,0,59,183.25a22.27,22.27,0,0,0-7.08-4.51,22.8,22.8,0,0,0-8.67-1.67,21.21,21.21,0,0,0-11.31,2.78,24.82,24.82,0,0,0-7.15,6.38,25.36,25.36,0,0,0-3.75,7,18.64,18.64,0,0,0-1.11,4.65Z" transform="translate(-11.61 -165.92)"/><path class="cls-2" d="M92.37,189.29c0-1.21-.05-2.66-.14-4.38s-.16-3.44-.2-5.2-.12-3.4-.21-4.93-.14-2.7-.14-3.54H100q.13,3.62.2,6.94a21.74,21.74,0,0,0,.35,4.31H101a22.4,22.4,0,0,1,8.32-9.09,24.23,24.23,0,0,1,13.6-3.82q7.5,0,12.22,2.36a19.65,19.65,0,0,1,7.42,6.17,23.48,23.48,0,0,1,3.75,8.82,50.46,50.46,0,0,1,1,10.27v38.16H139V197.61a40.89,40.89,0,0,0-.69-7.56,20.33,20.33,0,0,0-2.43-6.59,12.72,12.72,0,0,0-4.86-4.65,16.6,16.6,0,0,0-8.12-1.74,23.75,23.75,0,0,0-8.67,1.6,18.57,18.57,0,0,0-7.08,4.86,23.54,23.54,0,0,0-4.72,8.18,35.13,35.13,0,0,0-1.73,11.59v32.06H92.37Z" transform="translate(-11.61 -165.92)"/><path class="cls-2" d="M223.24,225.92a30,30,0,0,1-10.69,8.4,30.94,30.94,0,0,1-12.9,2.7,36.35,36.35,0,0,1-13.6-2.49,30.86,30.86,0,0,1-10.69-7,32.42,32.42,0,0,1-6.94-10.69,37.86,37.86,0,0,1,0-27.06,32.37,32.37,0,0,1,6.94-10.68,30.72,30.72,0,0,1,10.69-7,36.16,36.16,0,0,1,13.6-2.5,29.8,29.8,0,0,1,13.11,2.91,34.79,34.79,0,0,1,10.76,8.19l-6.67,5a28.69,28.69,0,0,0-7.91-6.32,19.51,19.51,0,0,0-9.29-2.29,26,26,0,0,0-10.55,2.08,24.59,24.59,0,0,0-8,5.62A24,24,0,0,0,176,193.1a30.93,30.93,0,0,0,0,20.4,24,24,0,0,0,5.07,8.33,24.44,24.44,0,0,0,8,5.62,25.8,25.8,0,0,0,10.55,2.08,19.5,19.5,0,0,0,9.64-2.43,25.2,25.2,0,0,0,7.56-6.45Z" transform="translate(-11.61 -165.92)"/></g><g class="cls-1"><path class="cls-2" d="M316.18,189.29c0-1.21-.05-2.66-.14-4.38s-.16-3.44-.21-5.2-.12-3.4-.21-4.93-.14-2.7-.14-3.54h8.33q.13,3.62.21,6.94a21,21,0,0,0,.35,4.31h.41a22.43,22.43,0,0,1,8.33-9.09,24.21,24.21,0,0,1,13.6-3.82,21.8,21.8,0,0,1,11.66,3.26q5.26,3.27,7.63,10.62a20.74,20.74,0,0,1,9.09-10.55,25.91,25.91,0,0,1,12.7-3.33q7.48,0,12.21,2.36a19.65,19.65,0,0,1,7.42,6.17,23.16,23.16,0,0,1,3.75,8.82,50.46,50.46,0,0,1,1,10.27v38.16h-8.33V197.61a40.89,40.89,0,0,0-.69-7.56,19.88,19.88,0,0,0-2.43-6.59,12.65,12.65,0,0,0-4.86-4.65,16.56,16.56,0,0,0-8.11-1.74,19.11,19.11,0,0,0-9.58,2.15,17,17,0,0,0-5.9,5.49,22.65,22.65,0,0,0-3.05,7.21,32.7,32.7,0,0,0-.9,7.36v36.08H360V196.78q0-8.88-3.26-14.29t-10.06-5.42a23.71,23.71,0,0,0-8.67,1.6,18.57,18.57,0,0,0-7.08,4.86,23.38,23.38,0,0,0-4.72,8.18,34.86,34.86,0,0,0-1.74,11.59v32.06h-8.32Z" transform="translate(-11.61 -165.92)"/><path class="cls-2" d="M432.61,171.24h8.33v11.25h.27a21.62,21.62,0,0,1,4.86-5.76,29.51,29.51,0,0,1,6.31-4,31.9,31.9,0,0,1,7.15-2.36,36.73,36.73,0,0,1,7.36-.76,35.69,35.69,0,0,1,13.53,2.5,31.44,31.44,0,0,1,17.69,17.69,37.86,37.86,0,0,1,0,27.06,31.42,31.42,0,0,1-17.69,17.7A35.88,35.88,0,0,1,466.89,237a36.73,36.73,0,0,1-7.36-.76,31.41,31.41,0,0,1-7.15-2.36,29.08,29.08,0,0,1-6.31-4,21.77,21.77,0,0,1-4.86-5.76h-.27V267h-8.33Zm7.49,32.06a25.42,25.42,0,0,0,2.08,10.2,26.29,26.29,0,0,0,5.69,8.33,27.41,27.41,0,0,0,8.47,5.62,26.45,26.45,0,0,0,10.55,2.08,25.79,25.79,0,0,0,10.54-2.08,24.44,24.44,0,0,0,8.05-5.62,24,24,0,0,0,5.07-8.33,30.93,30.93,0,0,0,0-20.4,24,24,0,0,0-5.07-8.33,24.59,24.59,0,0,0-8.05-5.62,26,26,0,0,0-10.54-2.08,26.62,26.62,0,0,0-10.55,2.08,27.59,27.59,0,0,0-8.47,5.62,26.29,26.29,0,0,0-5.69,8.33A25.42,25.42,0,0,0,440.1,203.3Z" transform="translate(-11.61 -165.92)"/><path class="cls-2" d="M569,208.44c0,3.14,0,6,.07,8.46s.12,4.81.21,6.94.21,4.12.35,6,.35,3.7.62,5.55H562.5a60.51,60.51,0,0,1-.83-10.41h-.28a23.43,23.43,0,0,1-8.95,9.16Q547.1,237,538.91,237a32.27,32.27,0,0,1-8.19-1,21.26,21.26,0,0,1-7.21-3.33A17.07,17.07,0,0,1,516.29,218q0-7.35,3.75-11.65a23.34,23.34,0,0,1,9.22-6.46,43.77,43.77,0,0,1,11.66-2.77,108.93,108.93,0,0,1,10.9-.63h9.71v-3.88q0-8.33-5.14-11.94t-12.9-3.61a29.28,29.28,0,0,0-19.57,7.22l-4.85-5.69a29.63,29.63,0,0,1,11.38-6.73,40.71,40.71,0,0,1,13-2.29q11.65,0,18.6,5.48T569,192.75Zm-16.65-5.28a71.87,71.87,0,0,0-10.2.7,35.61,35.61,0,0,0-8.88,2.36,16.57,16.57,0,0,0-6.32,4.44,10.34,10.34,0,0,0-2.35,6.94,10.23,10.23,0,0,0,1.31,5.2,11.58,11.58,0,0,0,3.4,3.75,16.11,16.11,0,0,0,4.65,2.22,18.15,18.15,0,0,0,5.21.76,26.83,26.83,0,0,0,11-1.94,18.68,18.68,0,0,0,6.87-5.07,17.65,17.65,0,0,0,3.54-7.08,33.62,33.62,0,0,0,1-8v-4.31Z" transform="translate(-11.61 -165.92)"/><path class="cls-2" d="M591.37,219a17.79,17.79,0,0,0,7.77,7.84A22.82,22.82,0,0,0,610,229.53a17.63,17.63,0,0,0,5.28-.83,16.14,16.14,0,0,0,4.71-2.36,12.81,12.81,0,0,0,3.4-3.68,9.21,9.21,0,0,0,1.32-4.93c0-2.95-.95-5.18-2.84-6.66a21.29,21.29,0,0,0-7-3.47,86.76,86.76,0,0,0-9.16-2.15,39.19,39.19,0,0,1-9.16-2.77,19.84,19.84,0,0,1-7-5.21q-2.84-3.33-2.84-9.43a16.43,16.43,0,0,1,1.94-8.19,18,18,0,0,1,5.07-5.76,21.75,21.75,0,0,1,7-3.4,28.55,28.55,0,0,1,7.9-1.11,30,30,0,0,1,13.67,2.91,20.28,20.28,0,0,1,9,9.16l-7.5,4.44a17.63,17.63,0,0,0-5.9-6.73,16.78,16.78,0,0,0-9.23-2.29,17.8,17.8,0,0,0-9,2.64,11.38,11.38,0,0,0-3.26,3.19,7.73,7.73,0,0,0-1.31,4.44c0,2.87.94,5,2.84,6.39a22.1,22.1,0,0,0,7,3.26,87.45,87.45,0,0,0,9.16,2,36.9,36.9,0,0,1,9.16,2.71,18.58,18.58,0,0,1,7,5.41q2.85,3.54,2.85,10.06a19,19,0,0,1-1.87,8.67A18,18,0,0,1,626,232a23.17,23.17,0,0,1-7.42,3.75,30.39,30.39,0,0,1-8.75,1.24,35.57,35.57,0,0,1-15.19-3.19A23.08,23.08,0,0,1,584,224Z" transform="translate(-11.61 -165.92)"/><path class="cls-2" d="M650.48,219a17.86,17.86,0,0,0,7.78,7.84,22.82,22.82,0,0,0,10.82,2.71,17.56,17.56,0,0,0,5.27-.83,16.19,16.19,0,0,0,4.72-2.36,12.81,12.81,0,0,0,3.4-3.68,9.21,9.21,0,0,0,1.32-4.93c0-2.95-.95-5.18-2.84-6.66a21.39,21.39,0,0,0-7-3.47,86.76,86.76,0,0,0-9.16-2.15,39,39,0,0,1-9.16-2.77,19.75,19.75,0,0,1-7-5.21q-2.85-3.33-2.84-9.43a16.43,16.43,0,0,1,1.94-8.19,17.89,17.89,0,0,1,5.06-5.76,22,22,0,0,1,7-3.4,28.67,28.67,0,0,1,7.91-1.11,30,30,0,0,1,13.67,2.91,20.26,20.26,0,0,1,8.95,9.16l-7.49,4.44a17.71,17.71,0,0,0-5.9-6.73A18.26,18.26,0,0,0,663,177.77a16.36,16.36,0,0,0-4.37,1.94,11.38,11.38,0,0,0-3.26,3.19,7.74,7.74,0,0,0-1.32,4.44q0,4.31,2.85,6.39a22,22,0,0,0,7,3.26,87.24,87.24,0,0,0,9.15,2,36.77,36.77,0,0,1,9.16,2.71,18.62,18.62,0,0,1,7,5.41q2.85,3.54,2.85,10.06a18.85,18.85,0,0,1-1.88,8.67,18,18,0,0,1-5.13,6.18,23.22,23.22,0,0,1-7.43,3.75,30.32,30.32,0,0,1-8.74,1.24,35.54,35.54,0,0,1-15.19-3.19A23.08,23.08,0,0,1,643.13,224Z" transform="translate(-11.61 -165.92)"/></g></g><g id="compass"><ellipse id="Oval" class="cls-3" cx="257.32" cy="35.62" rx="31.02" ry="32.13"/><path id="Shape" class="cls-4" d="M280.4,180.35c-.17,1-.32,1.94-.47,2.86l-2.34,14.29c-.46,2.79-.91,5.58-1.38,8.37a.73.73,0,0,1-.19.37L263.2,218.61l-4.4,4.23-.25.23c.1-.62.18-1.16.27-1.69q1.95-11.91,3.91-23.81a.84.84,0,0,1,.23-.41q4.95-4.8,9.93-9.58l7.31-7.05Zm-19.27,37.59.06,0,13.44-12.89c-3.44-2.25-6.84-4.47-10.28-6.7C263.28,204.94,262.21,211.44,261.13,217.94Z" transform="translate(-11.61 -165.92)"/></g></svg>