<?xml version="1.0" encoding="UTF-8"?>
<svg width="577px" height="107px" viewBox="0 0 577 107" version="1.1" xmlns="http://www.w3.org/2000/svg" xmlns:xlink="http://www.w3.org/1999/xlink">
    <!-- Generator: Sketch 52.6 (67491) - http://www.bohemiancoding.com/sketch -->
    <title>Group 9</title>
    <desc>Created with Sketch.</desc>
    <g id="Components" stroke="none" stroke-width="1" fill="none" fill-rule="evenodd">
        <g id="Group-9" transform="translate(-58.000000, -58.000000)">
            <text id="enc-mpass" font-family="Avenir-Light, Avenir" font-size="117.367367" font-weight="300" fill="#9B9B9B">
                <tspan x="52.9222981" y="117">enc  </tspan>
                <tspan x="300.919545" y="117" font-size="25.1501501"> </tspan>
                <tspan x="307.458584" y="117">mpass</tspan>
            </text>
            <g id="compass" transform="translate(252.000000, 61.295775)">
                <ellipse id="Oval" stroke="#4A90E2" stroke-width="6.28753752" cx="26.685" cy="27.2443735" rx="26.235" ry="27.2164949"></ellipse>
                <g id="0c839ceedf50cdf2db05dfee9af83666-2" transform="translate(17.280000, 8.935095)" fill="#3997EE" fill-rule="nonzero">
                    <g id="0c839ceedf50cdf2db05dfee9af83666" transform="translate(0.628017, 0.353896)">
                        <path d="M18.48,0 C18.3413552,0.864933179 18.2116553,1.64893693 18.0864279,2.42788261 C17.4245111,6.45917935 16.7670668,10.4955342 16.1051501,14.526831 C15.7160504,16.8889584 15.331423,19.256144 14.9378509,21.6182714 C14.9199613,21.7295493 14.8528751,21.8560015 14.7768441,21.9318729 C11.1631365,25.4270122 7.54942885,28.9170935 3.9357212,32.4071747 C2.6968635,33.6059417 1.4535334,34.7996507 0.214675702,35.9933596 C0.161006776,36.0439405 0.102865441,36.0894633 0,36.185567 C0.0849757986,35.6645838 0.152061955,35.2093559 0.228092933,34.7541279 C1.3283059,28.0319279 2.42851888,21.309728 3.53767667,14.5925861 C3.56003872,14.4661339 3.64054211,14.3245074 3.72999032,14.2385199 C6.52524685,11.5324424 9.32944824,8.83142298 12.1291771,6.1253455 C14.1909583,4.13751661 16.2482672,2.14462963 18.3100484,0.156800752 C18.3413552,0.126452219 18.3816069,0.0910455977 18.48,0 Z M2.18700871,31.8457268 C2.20489835,31.8558431 2.21831559,31.8710173 2.23620522,31.8811334 C6.01986447,28.2443677 9.80352369,24.6076018 13.6050726,20.9556617 C10.6935334,19.0538204 7.81330107,17.1722114 4.91070668,15.2804861 C3.99833495,20.8292095 3.09490804,26.3374682 2.18700871,31.8457268 Z" id="Shape"></path>
                    </g>
                </g>
            </g>
        </g>
    </g>
</svg>