<?xml version="1.0" encoding="UTF-8"?>
<svg width="700px" height="400px" viewBox="0 0 700 400" version="1.1" xmlns="http://www.w3.org/2000/svg" xmlns:xlink="http://www.w3.org/1999/xlink">
    <!-- Generator: Sketch 52.6 (67491) - http://www.bohemiancoding.com/sketch -->
    <title>encompass</title>
    <desc>Created with Sketch.</desc>
    <g id="encompass" stroke="none" stroke-width="1" fill="none" fill-rule="evenodd">
        <rect fill="#FFFFFF" x="0" y="0" width="700" height="400"></rect>
        <g id="Group-9" transform="translate(-35.000000, 109.000000)">
            <text id="enc-mpass" font-family="Avenir-Light, Avenir" font-size="130.408186" font-weight="300" fill="#9B9B9B">
                <tspan x="58.8025535" y="130">enc  </tspan>
                <tspan x="334.35505" y="130" font-size="27.9446112"> </tspan>
                <tspan x="341.620649" y="130">mpass</tspan>
            </text>
            <g id="compass" transform="translate(280.000000, 68.000000)">
                <ellipse id="Oval" stroke="#4A90E2" stroke-width="6.9861528" cx="29.65" cy="30.2242268" rx="29.15" ry="30.193299"></ellipse>
                <g id="0c839ceedf50cdf2db05dfee9af83666-2" transform="translate(19.200000, 9.912371)" fill="#3997EE" fill-rule="nonzero">
                    <g id="0c839ceedf50cdf2db05dfee9af83666" transform="translate(0.697797, 0.392603)">
                        <path d="M20.5333333,0 C20.3792836,0.959535245 20.2351726,1.82928941 20.096031,2.69343227 C19.3605679,7.16565209 18.6300742,11.6434832 17.8946112,16.1157031 C17.4622782,18.7361882 17.0349145,21.3622847 16.5976121,23.9827698 C16.5777348,24.1062188 16.5031946,24.2465017 16.4187157,24.3306715 C12.403485,28.2080917 8.38825428,32.0799006 4.37302356,35.9517094 C2.996515,37.2815916 1.61503711,38.6058625 0.238528558,39.9301333 C0.178896418,39.9862465 0.114294934,40.0367484 0,40.1433634 C0.094417554,39.5653977 0.168957728,39.0603792 0.253436592,38.5553606 C1.47589545,31.09792 2.69835431,23.6404795 3.93075186,16.1886502 C3.95559858,16.0483673 4.04504679,15.8912504 4.14443369,15.795858 C7.25027428,12.7938033 10.3660536,9.79735987 13.4768635,6.79530516 C15.7677315,4.59005749 18.0536302,2.3791985 20.3444982,0.173950834 C20.3792836,0.140282931 20.4240077,0.10100371 20.5333333,0 Z M2.43000968,35.3288532 C2.44988706,35.3400759 2.4647951,35.3569098 2.48467247,35.3681324 C6.6887383,31.3335954 10.8928041,27.2990583 15.1167473,23.2476872 C11.8817038,21.137832 8.68144563,19.050422 5.45634076,16.9517893 C4.44259439,23.1074043 3.43878671,29.2181288 2.43000968,35.3288532 Z" id="Shape"></path>
                    </g>
                </g>
            </g>
        </g>
    </g>
</svg>