<svg id="Layer_1" data-name="Layer 1" xmlns="http://www.w3.org/2000/svg" viewBox="0 0 630.5 148.96"><defs><style>.cls-1{isolation:isolate;}.cls-2,.cls-5{fill:#1e2553;}.cls-3,.cls-7,.cls-8{fill:#509cca;}.cls-4{fill:#fff;stroke-width:9px;}.cls-4,.cls-5,.cls-6,.cls-7,.cls-8{stroke:#1e2553;stroke-miterlimit:10;}.cls-5,.cls-8{stroke-width:8px;}.cls-6,.cls-9{fill:none;}.cls-6,.cls-7{stroke-width:7px;}.cls-9{stroke:#fff;stroke-width:5px;}</style></defs><title>EquipMe</title><g id="EquipMe" class="cls-1"><g class="cls-1"><path class="cls-2" d="M252.73,171.17v22.27h28.89V207H252.73v22.74h37.13v14H234.7V157.14h55.16v14Z" transform="translate(-39.5 -126.56)"/><path class="cls-2" d="M351.1,182.22v81.42H334.63V236.48a29.55,29.55,0,0,1-8.06,5.94,23.28,23.28,0,0,1-10.51,2.24,19.78,19.78,0,0,1-9.07-2.09,20.34,20.34,0,0,1-7.14-6.12,30.1,30.1,0,0,1-4.68-9.88,48.55,48.55,0,0,1-1.67-13.37,41.74,41.74,0,0,1,1.88-12.78,31.08,31.08,0,0,1,5.34-10.21,24.93,24.93,0,0,1,8.36-6.74,25.56,25.56,0,0,1,16-1.94,20.47,20.47,0,0,1,4.26,1.4,17.76,17.76,0,0,1,3.59,2.21,34.55,34.55,0,0,1,3.19,2.93l.78-3a3.83,3.83,0,0,1,4.06-2.86Zm-16.47,16a13.19,13.19,0,0,0-5.05-3.76,15.63,15.63,0,0,0-5.76-1.07,12.84,12.84,0,0,0-5.43,1.13,10.85,10.85,0,0,0-4.21,3.55,18,18,0,0,0-2.71,6.18,36.59,36.59,0,0,0-1,9,41.56,41.56,0,0,0,.78,8.71,16.91,16.91,0,0,0,2.23,5.79,8.73,8.73,0,0,0,3.56,3.2,10.85,10.85,0,0,0,4.65,1,14.22,14.22,0,0,0,7.32-1.73,21.28,21.28,0,0,0,5.58-4.89Z" transform="translate(-39.5 -126.56)"/><path class="cls-2" d="M416.35,182.22v61.54H406.2a3.84,3.84,0,0,1-4.06-2.86l-1.07-4.3a41.49,41.49,0,0,1-3.82,3.28,24.43,24.43,0,0,1-4.21,2.57,22.92,22.92,0,0,1-4.83,1.67,25.17,25.17,0,0,1-5.65.6,21.91,21.91,0,0,1-8.92-1.73,18,18,0,0,1-6.54-4.84,21.52,21.52,0,0,1-4-7.4,31,31,0,0,1-1.37-9.43v-39.1H378.2v39.1q0,5.13,2.36,8t7,2.83a14.35,14.35,0,0,0,6.5-1.52,24.19,24.19,0,0,0,5.8-4.15V182.22Z" transform="translate(-39.5 -126.56)"/><path class="cls-2" d="M446.5,164.72a9,9,0,0,1-.84,3.88,10.73,10.73,0,0,1-2.24,3.17,10.32,10.32,0,0,1-7.31,2.92,9.66,9.66,0,0,1-3.85-.77,10.14,10.14,0,0,1-3.19-2.15,10.37,10.37,0,0,1-2.18-3.17,9.27,9.27,0,0,1-.81-3.88,9.54,9.54,0,0,1,.81-3.91,10.34,10.34,0,0,1,2.18-3.19,10.14,10.14,0,0,1,3.19-2.15,9.66,9.66,0,0,1,3.85-.77,10.32,10.32,0,0,1,7.31,2.92,10.69,10.69,0,0,1,2.24,3.19A9.25,9.25,0,0,1,446.5,164.72Zm-2,17.5v61.54H428.05V182.22Z" transform="translate(-39.5 -126.56)"/><path class="cls-2" d="M471.75,190.27a36.48,36.48,0,0,1,3.94-3.73,25,25,0,0,1,4.48-2.92,23.79,23.79,0,0,1,5.13-1.91,24.45,24.45,0,0,1,6-.69,19.73,19.73,0,0,1,9.1,2.12,20.29,20.29,0,0,1,7.14,6.15,30.48,30.48,0,0,1,4.65,9.88,48.55,48.55,0,0,1,1.67,13.37A41.66,41.66,0,0,1,512,225.35a31,31,0,0,1-5.34,10.17,24.6,24.6,0,0,1-8.33,6.72,24,24,0,0,1-10.83,2.42,21.72,21.72,0,0,1-8.51-1.49,21.45,21.45,0,0,1-6.24-4.06v24.53H456.23V182.22h10.14a4,4,0,0,1,4.12,2.86Zm.95,37.25a13.12,13.12,0,0,0,5.05,3.77,15.8,15.8,0,0,0,5.82,1.07,12.84,12.84,0,0,0,5.43-1.13,10.87,10.87,0,0,0,4.21-3.56,17.81,17.81,0,0,0,2.71-6.18,36.5,36.5,0,0,0,1-9,40.07,40.07,0,0,0-.81-8.71,17.47,17.47,0,0,0-2.26-5.8,8.78,8.78,0,0,0-3.56-3.19,10.7,10.7,0,0,0-4.65-1,14.42,14.42,0,0,0-7.32,1.7,20,20,0,0,0-5.58,5Z" transform="translate(-39.5 -126.56)"/></g><g class="cls-1"><path class="cls-3" d="M565.41,212.42c.28,1.08.56,2.17.84,3.28.48-1.11,1-2.2,1.55-3.28s1.15-2.13,1.79-3.16l30-49.31a5.78,5.78,0,0,1,1.1-1.4,3.87,3.87,0,0,1,1.2-.75,5,5,0,0,1,1.4-.3c.52,0,1.11-.06,1.79-.06h11.76l-10.62,86.32H592.57l6.93-56.23c.12-1,.3-2.17.54-3.4s.49-2.49.77-3.77l-29.67,49.31a6.63,6.63,0,0,1-5.85,3.35h-2.15a5.79,5.79,0,0,1-3.13-.84,4.68,4.68,0,0,1-1.94-2.51l-17.79-49.13c0,1.24-.09,2.43-.15,3.59s-.15,2.2-.27,3.16l-6.8,56.47H519.39L530,157.44h11.64c.68,0,1.28,0,1.79.06a4.67,4.67,0,0,1,1.38.3,2.55,2.55,0,0,1,1,.75,5.13,5.13,0,0,1,.78,1.4l17.85,49.31C564.82,210.29,565.13,211.35,565.41,212.42Z" transform="translate(-39.5 -126.56)"/><path class="cls-3" d="M670,196.72a17.13,17.13,0,0,1-1.64,7.52,15.42,15.42,0,0,1-5.88,6.09A42,42,0,0,1,651,215,120.13,120.13,0,0,1,632.51,218v.78q0,14.44,12.24,14.45a19.12,19.12,0,0,0,4.65-.51,19.42,19.42,0,0,0,3.56-1.23,15.81,15.81,0,0,0,2.74-1.61c.82-.59,1.57-1.13,2.27-1.61a17.33,17.33,0,0,1,2.06-1.22,4.85,4.85,0,0,1,2.21-.51,3.39,3.39,0,0,1,1.43.33,3.08,3.08,0,0,1,1.2,1l3.76,4.54a62.45,62.45,0,0,1-6.21,5.49,34.23,34.23,0,0,1-6.21,3.82,29.18,29.18,0,0,1-6.69,2.21,38.39,38.39,0,0,1-7.7.72,25.1,25.1,0,0,1-9.73-1.82,21.51,21.51,0,0,1-7.46-5.14,22.9,22.9,0,0,1-4.8-8,30.34,30.34,0,0,1-1.71-10.47,43.08,43.08,0,0,1,1-9.5,42.36,42.36,0,0,1,3-8.83,37.72,37.72,0,0,1,4.84-7.7,32.74,32.74,0,0,1,6.48-6.09,29.76,29.76,0,0,1,7.94-4,29.43,29.43,0,0,1,9.28-1.43,23.88,23.88,0,0,1,8.45,1.37,19.1,19.1,0,0,1,6,3.55,14.51,14.51,0,0,1,3.62,4.87A13,13,0,0,1,670,196.72ZM649.88,192a12.66,12.66,0,0,0-5.55,1.22,15.53,15.53,0,0,0-4.63,3.43,22.34,22.34,0,0,0-3.58,5.28,33.35,33.35,0,0,0-2.42,6.72,102.32,102.32,0,0,0,11.91-2.21,28.83,28.83,0,0,0,7-2.63,7.89,7.89,0,0,0,3.28-3,7.59,7.59,0,0,0,.81-3.46,4.88,4.88,0,0,0-.39-1.85,4.73,4.73,0,0,0-1.19-1.7,6.72,6.72,0,0,0-2.09-1.26A8.76,8.76,0,0,0,649.88,192Z" transform="translate(-39.5 -126.56)"/></g></g><path id="Path_851" data-name="Path 851" class="cls-4" d="M180.81,254.53H61a17,17,0,0,1-17-17V159.41a17,17,0,0,1,17-17.08H180.81a17,17,0,0,1,17.08,17v78.12A17.08,17.08,0,0,1,180.81,254.53Z" transform="translate(-39.5 -126.56)"/><path id="Path_852" data-name="Path 852" class="cls-5" d="M82.59,154.23H80.51A2.52,2.52,0,0,1,78,151.74V133.05a2.52,2.52,0,0,1,2.52-2.49h2.08a2.52,2.52,0,0,1,2.52,2.49v18.57a2.53,2.53,0,0,1-2.44,2.61Z" transform="translate(-39.5 -126.56)"/><path id="Path_853" data-name="Path 853" class="cls-5" d="M161.29,154.23h-2.07a2.53,2.53,0,0,1-2.53-2.49V133.05a2.53,2.53,0,0,1,2.53-2.49h2.07a2.53,2.53,0,0,1,2.53,2.49v18.57a2.53,2.53,0,0,1-2.44,2.61Z" transform="translate(-39.5 -126.56)"/><path id="Path_854" data-name="Path 854" class="cls-6" d="M87.77,194.12,68.58,194a5.68,5.68,0,0,1-5.65-5.71h0L63,180a5.67,5.67,0,0,1,5.71-5.64h0l19.19.1a5.69,5.69,0,0,1,5.65,5.71h0l0,8.29a5.68,5.68,0,0,1-5.71,5.65Z" transform="translate(-39.5 -126.56)"/><path id="Path_855" data-name="Path 855" class="cls-6" d="M130.25,194.18H111.1a5.67,5.67,0,0,1-5.72-5.63v-8.33a5.68,5.68,0,0,1,5.68-5.68h19.19a5.68,5.68,0,0,1,5.68,5.68h0v8.29a5.67,5.67,0,0,1-5.68,5.67Z" transform="translate(-39.5 -126.56)"/><path id="Path_856" data-name="Path 856" class="cls-7" d="M172.77,194.18h-19.1a5.67,5.67,0,0,1-5.68-5.67v-8.29a5.68,5.68,0,0,1,5.68-5.52h19.14a5.68,5.68,0,0,1,5.72,5.64v8.33A5.67,5.67,0,0,1,172.77,194.18Z" transform="translate(-39.5 -126.56)"/><path id="Path_857" data-name="Path 857" class="cls-6" d="M130.1,230.29,111,230.18a5.67,5.67,0,0,1-5.69-5.67v0l0-8a5.71,5.71,0,0,1,5.75-5.64l19.15.1a5.68,5.68,0,0,1,5.65,5.71h0l0,8.29A5.67,5.67,0,0,1,130.1,230.29Z" transform="translate(-39.5 -126.56)"/><path id="Path_858" data-name="Path 858" class="cls-6" d="M87.57,230.05,68.38,230a5.68,5.68,0,0,1-5.64-5.71l0-8a5.72,5.72,0,0,1,5.71-5.65l19.19.11a5.72,5.72,0,0,1,5.65,5.71l0,8.28A5.68,5.68,0,0,1,87.57,230.05Z" transform="translate(-39.5 -126.56)"/><circle id="Ellipse_29" data-name="Ellipse 29" class="cls-8" cx="139.37" cy="114.08" r="30.88"/><g id="Group_981" data-name="Group 981"><line id="Line_21" data-name="Line 21" class="cls-9" x1="122.72" y1="114.61" x2="155.88" y2="114.61"/><line id="Line_22" data-name="Line 22" class="cls-9" x1="139.3" y1="98.03" x2="139.3" y2="131.18"/></g></svg>