<svg id="Layer_1" data-name="Layer 1" xmlns="http://www.w3.org/2000/svg" viewBox="0 0 11.34 13.45"><title>express</title><path d="M1.69,7.15A7.55,7.55,0,0,0,2,9.32a5.44,5.44,0,0,0,.89,1.85,4.47,4.47,0,0,0,1.49,1.28,4.36,4.36,0,0,0,2.09.47,4.58,4.58,0,0,0,3-1A4.69,4.69,0,0,0,11,9.1h1a5.44,5.44,0,0,1-1.81,3.46,5.68,5.68,0,0,1-3.74,1.19,5.68,5.68,0,0,1-2.48-.51,5,5,0,0,1-1.79-1.4A6.14,6.14,0,0,1,1.08,9.76,8,8,0,0,1,.74,7.25a9.15,9.15,0,0,1,.31-2.57,6.67,6.67,0,0,1,1-2.23A5.38,5.38,0,0,1,3.89.89,5.18,5.18,0,0,1,6.42.3,5.76,5.76,0,0,1,9,.85a5,5,0,0,1,1.8,1.49,6.06,6.06,0,0,1,1,2.19,8.78,8.78,0,0,1,.24,2.63Zm9.43-.83a6.52,6.52,0,0,0-.35-2,5.12,5.12,0,0,0-.92-1.66A4.63,4.63,0,0,0,8.38,1.56a4.28,4.28,0,0,0-2-.44,4,4,0,0,0-1.91.45A4.71,4.71,0,0,0,3.07,2.76a5.89,5.89,0,0,0-.95,1.67,6.93,6.93,0,0,0-.43,1.89Z" transform="translate(-0.74 -0.3)"/></svg>
