<?xml version="1.0" encoding="utf-8"?>
<!-- Generator: Adobe Illustrator 21.0.0, SVG Export Plug-In . SVG Version: 6.00 Build 0)  -->
<svg version="1.1" id="Layer_1" xmlns="http://www.w3.org/2000/svg" xmlns:xlink="http://www.w3.org/1999/xlink" x="0px" y="0px"
	 viewBox="0 0 605.4 100" style="enable-background:new 0 0 605.4 100;" xml:space="preserve">
<style type="text/css">
	.st0{fill:#D99728;}
	.st1{fill:none;}
</style>
<title>farm voyage</title>
<g>
	<path class="st0" d="M93.2,28.6v21.3h20.6v4.8H93.2v25.6H88V23.8h27.5v4.8H93.2z"/>
	<path class="st0" d="M157.8,80.3l-6.2-16.7h-24.2l-6.1,16.7h-5.8L137,23.8h5.3l21.4,56.5H157.8z M140.6,33.7
		c-0.2-0.5-0.4-1.1-0.6-1.7c-0.2-0.7-0.4-1.5-0.5-2.2h-0.2c-0.1,0.8-0.3,1.5-0.5,2.2c-0.2,0.7-0.4,1.2-0.6,1.7l-9.1,25.1h20.7
		L140.6,33.7z"/>
	<path class="st0" d="M203.3,80.3l-8.5-16.2c-0.7-1.4-1.5-2.7-2.4-4c-0.7-1-1.5-1.8-2.4-2.6c-0.8-0.6-1.7-1.1-2.7-1.4
		c-1-0.3-2.1-0.4-3.2-0.4h-6.2v24.6h-5.2V23.8h16.3c2.1,0,4.2,0.3,6.2,0.9c1.9,0.6,3.7,1.5,5.3,2.8c1.6,1.3,2.8,2.8,3.7,4.6
		c1,2,1.4,4.2,1.4,6.5c0,1.9-0.3,3.7-0.9,5.5c-0.6,1.6-1.5,3.2-2.6,4.5c-1.2,1.3-2.5,2.5-4.1,3.3c-1.7,0.9-3.5,1.6-5.4,2v0.2
		c0.7,0.3,1.5,0.7,2.1,1.2c0.7,0.5,1.3,1.1,1.8,1.8c0.6,0.8,1.2,1.6,1.8,2.4c0.6,0.9,1.2,2,1.8,3.2l9.5,17.5L203.3,80.3z
		 M177.8,28.6V51h9.4c1.8,0,3.5-0.3,5.2-0.8c1.5-0.5,2.9-1.3,4-2.4c1.1-1,2-2.3,2.6-3.7c0.6-1.5,0.9-3.2,0.9-4.9
		c0.2-2.9-1-5.8-3.2-7.7c-2.1-1.9-5.2-2.8-9.1-2.8L177.8,28.6z"/>
	<path class="st0" d="M269,80.3v-39c0-2,0.2-5.2,0.5-9.6h-0.2c-0.4,1.2-0.7,2.2-1,3.1c-0.2,0.7-0.5,1.4-0.8,2.1l-19.7,43.4h-2.2
		l-19.7-43.2c-0.7-1.8-1.3-3.7-1.8-5.6h-0.2c0.1,1.2,0.2,2.6,0.2,4.2c0,1.6,0.1,3.3,0.1,5.2v39.4H219V23.8h6.2l19.2,42.5
		c0.4,0.9,0.8,1.8,1.2,2.7c0.4,0.9,0.7,1.9,1,3h0.2l1-2.9c0.3-0.9,0.7-1.8,1.1-2.8l19.3-42.5h5.9v56.5H269z"/>
	<path class="st0" d="M330.4,80.3h-5.1l-20.6-56.5h5.9l16,45.1c0.3,0.8,0.5,1.7,0.8,2.5c0.2,0.9,0.4,1.8,0.5,2.7h0.2
		c0.1-0.7,0.3-1.5,0.5-2.4c0.2-0.9,0.5-1.8,0.9-2.9l16.6-45h5.7L330.4,80.3z"/>
	<path class="st0" d="M382.8,81.3c-3.8,0.1-7.5-0.7-11-2.2c-3.2-1.4-6-3.5-8.3-6.1c-2.3-2.7-4.1-5.7-5.2-9.1
		c-1.2-3.6-1.9-7.4-1.8-11.2c0-4.1,0.6-8.2,1.8-12.1c1.1-3.5,2.9-6.7,5.3-9.4c2.4-2.6,5.3-4.7,8.6-6.1c3.7-1.5,7.6-2.2,11.6-2.1
		c3.7-0.1,7.4,0.7,10.8,2.1c3.1,1.4,5.9,3.4,8.1,5.9c2.3,2.6,4,5.7,5.1,9c1.2,3.6,1.8,7.5,1.8,11.3c0,4-0.6,8.1-1.8,11.9
		c-1.1,3.5-2.8,6.7-5.2,9.5c-2.3,2.7-5.2,4.8-8.4,6.3C390.7,80.6,386.8,81.4,382.8,81.3z M383.2,27.6c-3.1-0.1-6.2,0.6-9.1,1.9
		c-2.6,1.3-4.8,3.1-6.7,5.3c-1.9,2.3-3.3,5-4.1,7.8c-0.9,3.1-1.4,6.3-1.4,9.5c0,3.1,0.4,6.2,1.2,9.2c0.8,2.8,2.1,5.4,3.9,7.8
		c1.7,2.2,3.9,4.1,6.5,5.4c2.9,1.4,6,2.1,9.2,2c3.2,0.1,6.3-0.6,9.3-1.8c2.6-1.2,4.9-2.9,6.7-5.1c1.8-2.3,3.2-4.9,4-7.7
		c1-3.2,1.4-6.5,1.4-9.8c0-3.2-0.4-6.3-1.2-9.4c-0.7-2.8-2-5.5-3.7-7.8c-1.7-2.2-3.9-4-6.5-5.3C389.7,28.2,386.5,27.5,383.2,27.6
		L383.2,27.6z"/>
	<path class="st0" d="M436.9,59.1v21.1h-5.2v-21l-17.7-35.4h5.9l12.9,26.4c0.2,0.3,0.4,0.8,0.6,1.4c0.3,0.6,0.6,1.4,0.9,2.4h0.1
		c0.2-0.6,0.4-1.1,0.7-1.7c0.3-0.6,0.6-1.3,1.1-2.1l13.5-26.4h5.6L436.9,59.1z"/>
	<path class="st0" d="M494.3,80.3l-6.2-16.7h-24.2l-6.1,16.7H452l21.5-56.5h5.3l21.4,56.5H494.3z M477.1,33.7
		c-0.2-0.5-0.4-1.1-0.6-1.7c-0.2-0.7-0.4-1.5-0.5-2.2h-0.2c-0.1,0.8-0.3,1.5-0.5,2.2c-0.2,0.7-0.4,1.2-0.6,1.7l-9.1,25.1h20.7
		L477.1,33.7z"/>
	<path class="st0" d="M549.5,76.4c-5.6,3.2-12,4.9-18.4,4.9c-3.8,0.1-7.5-0.7-11-2.1c-3.2-1.3-6-3.3-8.3-5.9c-2.3-2.6-4.1-5.7-5.3-9
		c-1.3-3.7-1.9-7.6-1.8-11.5c0-2.7,0.3-5.3,0.9-8c0.6-2.5,1.4-4.9,2.6-7.2c1.1-2.2,2.5-4.2,4.2-6.1c1.7-1.8,3.6-3.4,5.7-4.7
		c2.2-1.3,4.6-2.4,7.1-3c2.7-0.7,5.5-1.1,8.3-1.1c5.1-0.1,10.3,0.9,15,3v5.8c-4.8-2.7-10.1-4-15.6-4c-3.2,0-6.4,0.6-9.3,1.9
		c-2.7,1.2-5.1,3-7.1,5.2c-2,2.3-3.5,4.9-4.5,7.8c-1.1,3.1-1.7,6.5-1.7,9.8c0,3.3,0.4,6.5,1.4,9.6c0.9,2.8,2.3,5.4,4.2,7.7
		c1.9,2.2,4.2,3.9,6.8,5c3,1.3,6.2,1.9,9.4,1.8c4.3,0.1,8.6-0.9,12.5-3V56.3h-12.9v-4.8h18.1V76.4z"/>
	<path class="st0" d="M562.6,80.3V23.8h27.5v4.8h-22.3v20.7h20.6v4.7h-20.6v21.5h23.5v4.8H562.6z"/>
</g>
<g id="Layer_2">
	<g id="Layer_1-2">
		<line class="st1" x1="24.2" y1="10.6" x2="24.2" y2="49.2"/>
		<path class="st0" d="M24.3,10.6c0.2,3.2,0.3,6.4,0.5,9.7l0.4,9.7c0.1,3.2,0.5,6.4,0.3,9.7c-0.1,3.3-0.6,6.5-1.3,9.7H24
			c-0.7-3.2-1.1-6.4-1.3-9.7c-0.2-3.2,0.2-6.4,0.3-9.7l0.4-9.7c0.2-3.2,0.3-6.4,0.5-9.7L24.3,10.6z"/>
		<line class="st1" x1="34" y1="10.6" x2="34" y2="34.9"/>
		<path class="st0" d="M34.1,10.6c0.2,2,0.3,4.1,0.5,6.1l0.4,6.1c0.2,2,0.3,4.1,0.3,6.1c-0.2,2.1-0.6,4.1-1.3,6.1h-0.2
			c-0.7-2-1.1-4-1.3-6.1c-0.1-2,0-4.1,0.3-6.1l0.5-6.1c0.2-2,0.3-4.1,0.5-6.1L34.1,10.6z"/>
		<line class="st1" x1="52.5" y1="10.6" x2="52.5" y2="34.9"/>
		<path class="st0" d="M52.6,10.6c0.2,2,0.3,4.1,0.5,6.1l0.4,6.1c0.2,2,0.3,4.1,0.3,6.1c-0.2,2.1-0.6,4.1-1.3,6.1h-0.3
			c-0.7-2-1.1-4-1.3-6.1c-0.1-2,0-4.1,0.3-6.1l0.5-6.1c0.2-2,0.3-4.1,0.5-6.1L52.6,10.6z"/>
		<line class="st1" x1="43.2" y1="6.4" x2="43.2" y2="24.5"/>
		<path class="st0" d="M43.3,6.4c0.2,1.5,0.3,3,0.5,4.5s0.3,3,0.4,4.5c0.2,1.5,0.3,3,0.3,4.5c-0.2,1.6-0.6,3.1-1.3,4.5h-0.2
			c-0.7-1.4-1.1-2.9-1.3-4.5c-0.1-1.5,0-3,0.3-4.5c0.1-1.5,0.2-3,0.4-4.5c0.2-1.5,0.3-3,0.5-4.5H43.3z"/>
		<line class="st1" x1="62.2" y1="10.6" x2="62.2" y2="49.2"/>
		<path class="st0" d="M62.4,10.6c0.2,3.2,0.3,6.4,0.5,9.7l0.4,9.7c0.1,3.2,0.5,6.4,0.3,9.7c-0.1,3.3-0.6,6.5-1.3,9.7H62
			c-0.7-3.2-1.1-6.4-1.3-9.7c-0.2-3.2,0.2-6.4,0.3-9.7l0.4-9.7c0.2-3.2,0.3-6.4,0.5-9.7L62.4,10.6z"/>
		<path class="st0" d="M42.1,63.9c-2.5,0-5-0.5-7.3-1.5c-2.2-1-4.2-2.3-5.9-4c-1.7-1.7-3-3.8-4-6c-1.1-2.7-1.6-5.6-1.5-8.4l0.1-1.3
			l1.3-0.1c2.9-0.2,5.8,0.3,8.4,1.5c2.2,1,4.2,2.3,5.9,4c1.7,1.7,3.1,3.7,4,5.9c1.1,2.7,1.6,5.6,1.3,8.5l-0.1,1.2l-1.2,0.1
			L42.1,63.9z M26.1,45.4c0,2.1,0.5,4.1,1.3,6c0.8,1.9,2,3.6,3.4,5.1c1.5,1.5,3.2,2.6,5.1,3.4c1.9,0.8,3.9,1.3,6,1.3
			c0-2.1-0.5-4.1-1.3-6c-0.8-1.9-2-3.6-3.4-5c-1.5-1.5-3.2-2.6-5.1-3.4C30.2,45.9,28.2,45.4,26.1,45.4L26.1,45.4z"/>
		<path class="st0" d="M42.1,78.2c-2.5,0-5-0.5-7.3-1.5c-2.2-1-4.2-2.3-5.9-4c-1.7-1.7-3-3.7-4-5.9c-1.1-2.6-1.6-5.5-1.5-8.4
			l0.1-1.3l1.3-0.1c2.9-0.2,5.8,0.3,8.4,1.5c2.2,0.9,4.2,2.3,6,4c1.7,1.7,3.1,3.7,4,5.9c1.1,2.7,1.6,5.6,1.3,8.5l-0.1,1.2l-1.2,0.1
			L42.1,78.2z M26.1,59.8c0,2.1,0.5,4.1,1.3,6c0.8,1.9,2,3.6,3.4,5.1c1.5,1.5,3.2,2.6,5.1,3.4c1.9,0.8,3.9,1.3,6,1.3
			c0-2.1-0.5-4.1-1.3-6c-0.8-1.9-2-3.6-3.4-5c-1.5-1.5-3.2-2.6-5.1-3.4C30.2,60.3,28.2,59.8,26.1,59.8L26.1,59.8z"/>
		<path class="st0" d="M42.1,92.7c-2.5,0-5-0.5-7.3-1.5c-2.2-1-4.2-2.3-5.9-4c-1.7-1.7-3-3.7-4-5.9c-1.1-2.7-1.6-5.5-1.5-8.4
			l0.1-1.3l1.3-0.1c2.9-0.2,5.8,0.3,8.4,1.5c2.2,0.9,4.2,2.3,5.9,4c1.7,1.7,3.1,3.7,4,5.9c1.1,2.7,1.6,5.6,1.3,8.5l-0.1,1.2
			l-1.2,0.1L42.1,92.7z M26.1,74.2c0,2.1,0.5,4.1,1.3,6c0.8,1.9,2,3.6,3.4,5.1c1.5,1.5,3.2,2.6,5.1,3.4c1.9,0.8,3.9,1.3,6,1.3
			c0-2.1-0.5-4.1-1.3-6c-0.8-1.9-2-3.6-3.4-5c-1.5-1.5-3.2-2.6-5.1-3.4C30.2,74.7,28.2,74.3,26.1,74.2L26.1,74.2z"/>
		<path class="st0" d="M44.3,63.9h-1.2l-1.2-0.2v-1.2c-0.2-2.9,0.3-5.8,1.5-8.4c1-2.2,2.3-4.2,4-5.9c1.7-1.7,3.7-3,5.9-4
			c2.7-1.2,5.6-1.7,8.5-1.5l1.3,0.1l0.1,1.3c0.1,2.9-0.4,5.8-1.6,8.4c-0.9,2.2-2.3,4.2-4,5.9c-1.7,1.7-3.7,3.1-5.9,4
			C49.3,63.4,46.9,63.9,44.3,63.9z M60.3,45.4c-2.1,0-4.1,0.5-6,1.3c-1.9,0.8-3.6,2-5.1,3.4c-1.5,1.5-2.6,3.2-3.4,5.1
			c-0.8,1.9-1.3,3.9-1.3,6c2.1,0,4.1-0.5,6-1.3c1.9-0.8,3.6-2,5-3.4c1.5-1.5,2.6-3.2,3.4-5.1C59.8,49.5,60.3,47.4,60.3,45.4
			L60.3,45.4z"/>
		<path class="st0" d="M43.2,55.9l-0.9-0.8c-2.2-1.9-3.9-4.3-4.9-7c-0.9-2.2-1.4-4.6-1.4-7c0-2.4,0.5-4.8,1.4-7
			c1.1-2.7,2.8-5.1,4.9-7l0.9-0.8l0.9,0.8c2.2,1.9,3.8,4.3,4.9,7c0.9,2.2,1.4,4.6,1.4,7c0,2.4-0.4,4.8-1.3,7c-1.1,2.7-2.8,5.1-5,7
			L43.2,55.9z M43.2,29.9c-1.4,1.5-2.6,3.2-3.3,5.1c-0.8,1.9-1.2,3.9-1.2,6c0,2.1,0.4,4.1,1.2,6c0.8,1.9,1.9,3.6,3.3,5.1
			c1.4-1.5,2.6-3.2,3.3-5.1c0.8-1.9,1.1-3.9,1.1-6c0-2.1-0.4-4.1-1.2-6C45.8,33.1,44.6,31.4,43.2,29.9z"/>
		<path class="st0" d="M44.3,78.2h-1.2l-1.2-0.1v-1.2c-0.2-2.9,0.3-5.8,1.5-8.4c1-2.2,2.3-4.2,4-5.9c1.7-1.7,3.7-3,5.9-4
			c2.7-1.1,5.6-1.7,8.5-1.5l1.3,0.1l0.1,1.3c0.2,2.9-0.3,5.8-1.5,8.4c-0.9,2.2-2.3,4.2-4,5.9c-1.7,1.7-3.8,3-6,3.9
			C49.3,77.7,46.8,78.2,44.3,78.2z M60.3,59.8c-2.1,0-4.1,0.5-6,1.3c-1.9,0.8-3.6,2-5.1,3.4c-1.5,1.5-2.6,3.2-3.4,5.1
			c-0.8,1.9-1.3,3.9-1.3,6c2.1,0,4.1-0.5,6-1.3c1.9-0.8,3.6-2,5-3.4c1.5-1.5,2.6-3.2,3.4-5.1C59.8,63.9,60.3,61.8,60.3,59.8
			L60.3,59.8z"/>
		<path class="st0" d="M44.3,92.7h-1.2l-1.2-0.1v-1.2c-0.2-2.9,0.3-5.8,1.5-8.4c1-2.2,2.3-4.2,4-5.9c1.7-1.7,3.7-3,5.9-4
			c2.7-1.1,5.5-1.6,8.4-1.4l1.3,0.1l0.1,1.3c0.2,2.9-0.3,5.8-1.5,8.4c-0.9,2.2-2.3,4.2-4,5.9c-1.7,1.7-3.7,3.1-5.9,4
			C49.4,92.3,46.9,92.8,44.3,92.7z M60.3,74.2c-2.1,0-4.1,0.5-6,1.3c-1.9,0.8-3.6,2-5.1,3.4c-1.5,1.5-2.6,3.2-3.4,5.1
			c-0.8,1.9-1.3,3.9-1.3,6c2.1,0,4.1-0.5,6-1.3c1.9-0.8,3.6-2,5-3.4c1.5-1.5,2.6-3.2,3.4-5.1C59.8,78.3,60.3,76.3,60.3,74.2
			L60.3,74.2z"/>
	</g>
</g>
</svg>
