<svg id="Layer_1" data-name="Layer 1" xmlns="http://www.w3.org/2000/svg" viewBox="0 0 605.4 360.55"><title>farm voyage</title><path d="M56.91,317.87v25.58H81.73v5.73H56.91V380h-6.3V312.09H83.72v5.78Z" transform="translate(-50.62 -20.64)" style="fill:#d99728"/><path d="M134.54,380l-7.48-20.08H97.93L90.64,380h-7l25.86-67.92h6.35L141.55,380Zm-20.7-56q-.33-.9-.69-2.08a20.25,20.25,0,0,1-.59-2.7h-.19a26.4,26.4,0,0,1-.64,2.7q-.36,1.19-.69,2.08l-11,30.22h24.87Z" transform="translate(-50.62 -20.64)" style="fill:#d99728"/><path d="M189.25,380,179,360.54a38.84,38.84,0,0,0-2.94-4.83,15.07,15.07,0,0,0-2.94-3.1,9.76,9.76,0,0,0-3.24-1.66,14,14,0,0,0-3.86-.5h-7.48V380h-6.3V312.09h19.56a24.33,24.33,0,0,1,7.41,1.14,19.72,19.72,0,0,1,6.37,3.36,16.44,16.44,0,0,1,4.48,5.59,17.26,17.26,0,0,1,1.68,7.81,19.48,19.48,0,0,1-1.09,6.63,17,17,0,0,1-3.1,5.38,18.36,18.36,0,0,1-4.88,4,23.19,23.19,0,0,1-6.46,2.44v.19a10.49,10.49,0,0,1,2.51,1.47,15.11,15.11,0,0,1,2.2,2.18,27.34,27.34,0,0,1,2.11,2.94q1,1.66,2.18,3.79l11.41,21Zm-30.69-62.14v26.86h11.27a18.81,18.81,0,0,0,6.25-1,13.85,13.85,0,0,0,4.85-2.84,12.78,12.78,0,0,0,3.13-4.45,14.83,14.83,0,0,0,1.11-5.87,11.81,11.81,0,0,0-3.81-9.31q-3.81-3.39-11-3.39Z" transform="translate(-50.62 -20.64)" style="fill:#d99728"/><path d="M268.3,380V333.12q0-3.6.57-11.6h-.19q-.66,2.13-1.21,3.7a26.23,26.23,0,0,1-1,2.56L242.77,380h-2.7L216.34,328.1a44.27,44.27,0,0,1-2.13-6.68H214q.19,2.18.26,5t.07,6.21V380h-6.16V312.09h7.44l23.07,51.06q.71,1.61,1.4,3.29t1.25,3.58h.28l1.21-3.46q.54-1.56,1.35-3.36l23.26-51.1h7.06V380Z" transform="translate(-50.62 -20.64)" style="fill:#d99728"/><path d="M342.14,380H336l-24.72-67.92h7.06l19.23,54.28q.52,1.52.92,3.05a28.93,28.93,0,0,1,.64,3.2h.19q.24-1.33.66-2.91t1.09-3.43l20-54.18h6.82Z" transform="translate(-50.62 -20.64)" style="fill:#d99728"/><path d="M405.18,381.19A31.51,31.51,0,0,1,392,378.51a29.32,29.32,0,0,1-10-7.32,32.6,32.6,0,0,1-6.3-10.92,40.39,40.39,0,0,1-2.2-13.47,45.82,45.82,0,0,1,2.2-14.56,31.84,31.84,0,0,1,6.42-11.32,29,29,0,0,1,10.32-7.34A34.93,34.93,0,0,1,406.36,311a31.16,31.16,0,0,1,12.93,2.58,28.36,28.36,0,0,1,9.76,7.15,31.88,31.88,0,0,1,6.18,10.82,41.46,41.46,0,0,1,2.16,13.59,46.93,46.93,0,0,1-2.11,14.33,32.93,32.93,0,0,1-6.21,11.44A28.73,28.73,0,0,1,419,378.44,32.83,32.83,0,0,1,405.18,381.19Zm.52-64.51A24.41,24.41,0,0,0,394.78,319a23.83,23.83,0,0,0-8,6.35,27.78,27.78,0,0,0-4.95,9.38,39.13,39.13,0,0,0-1.73,11.44,38.16,38.16,0,0,0,1.49,11.06,28.07,28.07,0,0,0,4.64,9.33A22.7,22.7,0,0,0,394,373a24.07,24.07,0,0,0,11.08,2.42,26.54,26.54,0,0,0,11.15-2.2,22.25,22.25,0,0,0,8-6.11,26.51,26.51,0,0,0,4.85-9.31A40.55,40.55,0,0,0,430.8,346a43.28,43.28,0,0,0-1.45-11.32,26.71,26.71,0,0,0-4.5-9.35,21.82,21.82,0,0,0-7.79-6.35A25.4,25.4,0,0,0,405.7,316.68Z" transform="translate(-50.62 -20.64)" style="fill:#d99728"/><path d="M470.21,354.57V380h-6.3V354.71l-21.31-42.63h7.15l15.54,31.73q.28.57.76,1.71t1.14,2.89h.14a20.17,20.17,0,0,1,.8-2q.52-1.14,1.28-2.56l16.25-31.78h6.72Z" transform="translate(-50.62 -20.64)" style="fill:#d99728"/><path d="M539.31,380l-7.48-20.08H502.7L495.4,380h-7l25.86-67.92h6.35L546.32,380Zm-20.7-56q-.33-.9-.69-2.08a20.18,20.18,0,0,1-.59-2.7h-.19a26.39,26.39,0,0,1-.64,2.7q-.36,1.19-.69,2.08l-11,30.22H529.7Z" transform="translate(-50.62 -20.64)" style="fill:#d99728"/><path d="M605.67,375.32a44.62,44.62,0,0,1-22.17,5.87,33.18,33.18,0,0,1-13.26-2.53,28.72,28.72,0,0,1-10-7.06,31.11,31.11,0,0,1-6.32-10.8,41.43,41.43,0,0,1-2.2-13.81,42.19,42.19,0,0,1,1.07-9.57,37.34,37.34,0,0,1,3.13-8.62,33.19,33.19,0,0,1,5-7.29,31.59,31.59,0,0,1,6.84-5.64,32.89,32.89,0,0,1,8.5-3.65,37.53,37.53,0,0,1,10-1.28,43,43,0,0,1,18,3.6v7a38.07,38.07,0,0,0-18.76-4.83A26.91,26.91,0,0,0,574.31,319a25.11,25.11,0,0,0-8.55,6.25,28.44,28.44,0,0,0-5.47,9.4,35.45,35.45,0,0,0-2,11.77A37.5,37.5,0,0,0,559.94,358a26.09,26.09,0,0,0,5,9.21,22.85,22.85,0,0,0,8.19,6.06,27.39,27.39,0,0,0,11.27,2.18,29.84,29.84,0,0,0,15-3.6v-20.7H583.93v-5.73h21.74Z" transform="translate(-50.62 -20.64)" style="fill:#d99728"/><path d="M621.39,380V312.09H654.5v5.78H627.69v24.91h24.82v5.68H627.69v25.81H656V380Z" transform="translate(-50.62 -20.64)" style="fill:#d99728"/><g id="Layer_2" data-name="Layer 2"><g id="Layer_1-2" data-name="Layer 1-2"><line x1="247.6" y1="12.02" x2="247.6" y2="123.18" style="fill:none"/><path d="M298.62,32.66c.63,9.27,1,18.39,1.58,27.8l1.29,27.8c.33,9.27,1.36,18.39.77,27.8a161.79,161.79,0,0,1-3.68,27.8h-.77a161.79,161.79,0,0,1-3.68-27.8c-.59-9.27.44-18.39.77-27.8l1.18-27.8c.51-9.27,1-18.39,1.58-27.8Z" transform="translate(-50.62 -20.64)" style="fill:#d99728"/><line x1="275.8" y1="12.02" x2="275.8" y2="82" style="fill:none"/><path d="M326.78,32.66c.63,5.85,1,11.66,1.58,17.5l1.18,17.5a112.15,112.15,0,0,1,.77,17.5,66.63,66.63,0,0,1-3.68,17.5H326a66.63,66.63,0,0,1-3.68-17.5,112.15,112.15,0,0,1,.77-17.5l1.32-17.61c.51-5.85,1-11.66,1.58-17.5Z" transform="translate(-50.62 -20.64)" style="fill:#d99728"/><line x1="328.97" y1="12.02" x2="328.97" y2="82" style="fill:none"/><path d="M380,32.66c.63,5.85,1,11.66,1.58,17.5l1.18,17.5a112.15,112.15,0,0,1,.77,17.5,66.63,66.63,0,0,1-3.68,17.5h-.77a66.63,66.63,0,0,1-3.68-17.5,112.15,112.15,0,0,1,.77-17.5l1.47-17.61c.51-5.85,1-11.66,1.58-17.5Z" transform="translate(-50.62 -20.64)" style="fill:#d99728"/><line x1="302.39" x2="302.39" y2="52.11" style="fill:none"/><path d="M353.37,20.64c.63,4.34,1,8.68,1.58,13s.85,8.68,1.18,13a62.51,62.51,0,0,1,.77,13,38.83,38.83,0,0,1-3.68,13h-.63a38.83,38.83,0,0,1-3.68-13,62.51,62.51,0,0,1,.77-13q.48-6.51,1.18-13c.51-4.34,1-8.68,1.58-13Z" transform="translate(-50.62 -20.64)" style="fill:#d99728"/><line x1="357.14" y1="12.02" x2="357.14" y2="123.18" style="fill:none"/><path d="M408.12,32.66c.63,9.27,1,18.39,1.58,27.8l1.18,27.8c.33,9.27,1.36,18.39.77,27.8a161.79,161.79,0,0,1-3.68,27.8h-.77a161.79,161.79,0,0,1-3.68-27.8c-.59-9.27.44-18.39.77-27.8l1.18-27.8c.51-9.27,1-18.39,1.58-27.8Z" transform="translate(-50.62 -20.64)" style="fill:#d99728"/><path d="M349.76,186.11a52.69,52.69,0,0,1-21-4.3,54.31,54.31,0,0,1-17.06-11.58A55.16,55.16,0,0,1,300.23,153,53.43,53.43,0,0,1,296,128.71l.18-3.68,3.68-.18a53.24,53.24,0,0,1,24.27,4.23,55.16,55.16,0,0,1,17.1,11.55,54.2,54.2,0,0,1,11.55,17,53,53,0,0,1,3.86,24.53l-.18,3.49-3.49.18Zm-46-53.36A45.23,45.23,0,0,0,307.4,150a47.4,47.4,0,0,0,9.85,14.71A46.44,46.44,0,0,0,332,174.6a44.49,44.49,0,0,0,17.21,3.68A44.64,44.64,0,0,0,345.5,161a46.33,46.33,0,0,0-9.85-14.52,47.4,47.4,0,0,0-14.71-9.89A45.08,45.08,0,0,0,303.73,132.75Z" transform="translate(-50.62 -20.64)" style="fill:#d99728"/><path d="M349.76,227.33a52.69,52.69,0,0,1-21-4.45,54.31,54.31,0,0,1-17.06-11.58,55.16,55.16,0,0,1-11.47-17,53.43,53.43,0,0,1-4.27-24.2l.18-3.68,3.68-.18a53.1,53.1,0,0,1,24.27,4.23A55.16,55.16,0,0,1,341.23,182a54.2,54.2,0,0,1,11.55,17,53,53,0,0,1,3.86,24.53l-.18,3.49-3.49.18Zm-46-53.21a45.23,45.23,0,0,0,3.68,17.25,47.4,47.4,0,0,0,9.85,14.71A46.44,46.44,0,0,0,332,216a44.49,44.49,0,0,0,17.21,3.68,44.64,44.64,0,0,0-3.68-17.28,46.33,46.33,0,0,0-9.85-14.52,47.4,47.4,0,0,0-14.71-9.89A45.08,45.08,0,0,0,303.73,174.12Z" transform="translate(-50.62 -20.64)" style="fill:#d99728"/><path d="M349.76,269a52.66,52.66,0,0,1-21-4.3,54.31,54.31,0,0,1-17.06-11.58,55.16,55.16,0,0,1-11.51-17A53.47,53.47,0,0,1,296,211.85l.18-3.68,3.68-.18a53.36,53.36,0,0,1,24.27,4.23,55.16,55.16,0,0,1,17.1,11.51,54.2,54.2,0,0,1,11.55,17,52.91,52.91,0,0,1,3.86,24.45l-.18,3.49-3.49.18Zm-46-53.17a45.23,45.23,0,0,0,3.68,17.25,47.4,47.4,0,0,0,9.85,14.71A46.48,46.48,0,0,0,332,257.67a44.53,44.53,0,0,0,17.21,3.68,44.6,44.6,0,0,0-3.68-17.28,46.3,46.3,0,0,0-9.85-14.52,47.4,47.4,0,0,0-14.71-9.89A45.08,45.08,0,0,0,303.73,215.82Z" transform="translate(-50.62 -20.64)" style="fill:#d99728"/><path d="M356.24,186.11h-3.38l-3.57-.48v-3.46a52.91,52.91,0,0,1,4.19-24.31,54.31,54.31,0,0,1,11.58-17.06,55.16,55.16,0,0,1,17-11.51A53.21,53.21,0,0,1,406.43,125l3.68.18.18,3.68A53.36,53.36,0,0,1,405.77,153a55.16,55.16,0,0,1-11.51,17.1,54.24,54.24,0,0,1-17,11.55A52.8,52.8,0,0,1,356.24,186.11Zm46-53.36A45.3,45.3,0,0,0,385,136.43a47.29,47.29,0,0,0-14.71,9.85A46.44,46.44,0,0,0,360.43,161a44.53,44.53,0,0,0-3.68,17.25A44.64,44.64,0,0,0,374,174.56a46.33,46.33,0,0,0,14.49-9.85A47.43,47.43,0,0,0,398.38,150,45.12,45.12,0,0,0,402.27,132.75Z" transform="translate(-50.62 -20.64)" style="fill:#d99728"/><path d="M353,163.13l-2.61-2.32a52.91,52.91,0,0,1-14.23-20.15,54.31,54.31,0,0,1-3.9-20.26,55.16,55.16,0,0,1,3.9-20.15A53.5,53.5,0,0,1,350.32,80L353,77.63,355.57,80a53.36,53.36,0,0,1,14.16,20.15,55.16,55.16,0,0,1,3.93,20.22A54.24,54.24,0,0,1,370,140.55a52.91,52.91,0,0,1-14.27,20.22Zm0-74.83A45.27,45.27,0,0,0,343.4,103a47.29,47.29,0,0,0-3.35,17.25,46.44,46.44,0,0,0,3.31,17.28,44.57,44.57,0,0,0,9.6,14.71,44.64,44.64,0,0,0,9.6-14.71,46.37,46.37,0,0,0,3.27-17.25A47.36,47.36,0,0,0,362.49,103,45,45,0,0,0,353,88.3Z" transform="translate(-50.62 -20.64)" style="fill:#d99728"/><path d="M356.24,227.33h-3.38l-3.57-.29v-3.49a52.91,52.91,0,0,1,4.19-24.31,54.31,54.31,0,0,1,11.58-17.06,55.16,55.16,0,0,1,17-11.51,53.39,53.39,0,0,1,24.34-4.27l3.68.18.18,3.68a53.36,53.36,0,0,1-4.23,24.27,55.16,55.16,0,0,1-11.51,17.1,54.24,54.24,0,0,1-17.32,11.25A52.8,52.8,0,0,1,356.24,227.33Zm46-53.21A45.3,45.3,0,0,0,385,177.8a47.29,47.29,0,0,0-14.71,9.85,46.44,46.44,0,0,0-9.89,14.71,44.53,44.53,0,0,0-3.68,17.25A44.64,44.64,0,0,0,374,215.93a46.33,46.33,0,0,0,14.49-9.85,47.43,47.43,0,0,0,9.85-14.71A45.12,45.12,0,0,0,402.27,174.12Z" transform="translate(-50.62 -20.64)" style="fill:#d99728"/><path d="M356.24,269h-3.38l-3.57-.29V265.2a52.91,52.91,0,0,1,4.19-24.31,54.31,54.31,0,0,1,11.58-17.06,55.16,55.16,0,0,1,17-11.51,53.13,53.13,0,0,1,24.2-4.16l3.68.18.18,3.68a53.36,53.36,0,0,1-4.23,24.27,55.16,55.16,0,0,1-11.51,17.1,54.2,54.2,0,0,1-17,11.55A52.8,52.8,0,0,1,356.24,269Zm46-53.17A45.19,45.19,0,0,0,385,219.5a47.25,47.25,0,0,0-14.71,9.85,46.44,46.44,0,0,0-9.89,14.71,44.53,44.53,0,0,0-3.68,17.21A44.64,44.64,0,0,0,374,257.59a46.37,46.37,0,0,0,14.49-9.85A47.43,47.43,0,0,0,398.38,233,45.12,45.12,0,0,0,402.27,215.82Z" transform="translate(-50.62 -20.64)" style="fill:#d99728"/></g></g></svg>