<?xml version="1.0" encoding="utf-8"?>
<!-- Generator: Adobe Illustrator 21.0.0, SVG Export Plug-In . SVG Version: 6.00 Build 0)  -->
<svg version="1.1" id="Layer_1" xmlns="http://www.w3.org/2000/svg" xmlns:xlink="http://www.w3.org/1999/xlink" x="0px" y="0px"
	 viewBox="0 0 485 485" style="enable-background:new 0 0 485 485;" xml:space="preserve">
<style type="text/css">
	.st0{fill:none;stroke:#000000;stroke-width:26;stroke-miterlimit:10;}
</style>
<g>
	<g>
		<path class="st0" d="M172.2,171.1c-4.3-1.1-8.7-1.4-13-2.6c-29.7-8.1-50.8-32.6-54.3-63.1c-4.6-40.3,24.3-76.9,64.5-81.6
			c3.3-0.4,6.6-0.6,9.9-0.6c48.9,0,97.9-0.1,146.8-0.1c37.5,0,68.9,27.9,73.3,65.1c4.9,40.7-24.1,77.4-64.6,82.2
			c-0.8,0.1-1.5,0.4-2.3,0.6c-4.5,0-9,0.1-13.5,0.1c-22.3,0-44.7,0-67,0C225.5,171.2,198.8,171.1,172.2,171.1z"/>
		<path class="st0" d="M172.2,171.1c26.6,0,53.3,0.1,79.9,0.1c0.1,22.4,0.1,44.8,0.2,67.3c0,5.2-0.7,10.3,0.4,15.5
			c-1,1.1-0.5,2.4-0.5,3.6c0,16.4-0.2,32.7,0.1,49.1c0.1,4.1-0.2,8.2-0.2,12.3c-27.8,0-55.5,0-83.3,0c-3.4-1.6-7.3-1.6-10.8-2.6
			c-23.3-6.8-39.3-21.8-48.2-44c-17.8-44.1,10.2-93,57.2-100.5C168.6,171.6,170.4,171.4,172.2,171.1z"/>
		<path class="st0" d="M168.7,318.9c27.8,0,55.5,0,83.3,0c0,26,0.9,52.1-0.2,78c-1.1,26-14,45.9-36.3,59.7
			c-14.1,8.7-29.5,11.5-45.6,10c-14.4-1.3-27.4-7-38.8-16.3c-8.1-6.6-14.4-14.5-19-23.6c-5.1-9.9-7.7-20.5-7.9-31.8
			c-0.2-13.2,2.2-25.7,8.5-37.1c11.7-21.3,29.9-33.9,53.9-38.1C167.4,319.6,168.3,319.8,168.7,318.9z"/>
		<path class="st0" d="M252.7,253.9c-1.1-5.1-0.4-10.3-0.4-15.5c0.1-0.5,0.3-1.1,0.4-1.6c3.3-26.2,16.9-45.4,40.1-57.8
			c8.2-4.4,17.2-6.4,26.3-7.8c4.5,0,9-0.1,13.5-0.1c8.6,1.3,16.9,3.2,24.9,6.9c45.8,21,57,82.6,21.7,118.5
			c-7.3,7.4-15.6,13.5-24.9,17.3c-10.2,4.1-21.2,5.9-32.5,5.2c-13-0.8-24.9-4.3-35.6-11.6C267.1,294.4,255.8,276.7,252.7,253.9z"/>
	</g>
</g>
</svg>
