<?xml version="1.0" encoding="utf-8"?>
<!-- Generator: Adobe Illustrator 21.0.0, SVG Export Plug-In . SVG Version: 6.00 Build 0)  -->
<svg version="1.1" id="Layer_1" xmlns="http://www.w3.org/2000/svg" xmlns:xlink="http://www.w3.org/1999/xlink" x="0px" y="0px"
	 viewBox="0 0 485 485" style="enable-background:new 0 0 485 485;" xml:space="preserve">
<style type="text/css">
	.st0{fill:none;stroke:#000000;stroke-width:30;stroke-miterlimit:10;}
</style>
<g>
	<path d="M0,0v485h485V0H0z M455,455H30V30h425V455z"/>
	<g>
		<path class="st0" d="M182.8,190.6c-3.3-0.9-6.8-1.1-10.1-2c-23-6.3-39.3-25.2-42-48.8c-3.6-31.2,18.8-59.5,49.9-63.1
			c2.6-0.3,5.1-0.4,7.6-0.4c37.9,0,75.7,0,113.6,0c29,0,53.3,21.6,56.7,50.4c3.8,31.5-18.6,59.9-50,63.6c-0.6,0.1-1.2,0.3-1.8,0.5
			c-3.5,0-6.9,0-10.4,0.1c-17.3,0-34.6,0-51.8,0C224,190.7,203.4,190.6,182.8,190.6z"/>
		<path class="st0" d="M182.8,190.6c20.6,0,41.2,0.1,61.8,0.1c0,17.3,0.1,34.7,0.1,52c0,4-0.5,8,0.3,12c-0.8,0.8-0.4,1.8-0.4,2.8
			c0,12.7-0.1,25.3,0.1,38c0,3.2-0.1,6.4-0.2,9.5c-21.5,0-43,0-64.4,0c-2.7-1.2-5.6-1.2-8.4-2c-18-5.3-30.4-16.9-37.3-34
			c-13.8-34.1,7.9-71.9,44.2-77.7C180,191,181.4,190.8,182.8,190.6z"/>
		<path class="st0" d="M180.1,305c21.5,0,43,0,64.4,0c0,20.1,0.7,40.3-0.2,60.4c-0.9,20.1-10.9,35.5-28.1,46.2
			c-10.9,6.7-22.9,8.9-35.3,7.7c-11.2-1-21.2-5.4-30-12.6c-6.2-5.1-11.1-11.2-14.7-18.3c-3.9-7.6-5.9-15.8-6.1-24.6
			c-0.2-10.2,1.7-19.9,6.6-28.7c9.1-16.5,23.1-26.2,41.7-29.4C179.1,305.5,179.7,305.6,180.1,305z"/>
		<path class="st0" d="M245.1,254.7c-0.8-4-0.3-8-0.3-12c0.1-0.4,0.3-0.8,0.3-1.3c2.6-20.3,13.1-35.1,31-44.7
			c6.4-3.4,13.3-5,20.3-6.1c3.5,0,6.9,0,10.4-0.1c6.6,1,13.1,2.5,19.3,5.3c35.4,16.3,44.1,63.9,16.8,91.7
			c-5.6,5.7-12,10.4-19.3,13.3c-7.9,3.2-16.4,4.5-25.2,4c-10-0.6-19.3-3.4-27.6-9C256.2,286,247.5,272.3,245.1,254.7z"/>
	</g>
</g>
</svg>
