<svg xmlns="http://www.w3.org/2000/svg" id="Ebene_1" viewBox="0 0 269.3 367.3"> <style>.st0{fill:none;stroke:#000;stroke-width:10;stroke-linejoin:round;stroke-miterlimit:10}</style> <path class="st0" d="M6.3 292.8l2.1-3L108.8 99.3l.2-2-44.2-83.1c-3.7-7-14.1-5.2-15.4 2.6l-43.1 276z"></path> <path id="path-1" class="st0" d="M7.6 290.5l1.6-3.1 99.4-188.5-44.2-83.5c-3.7-6.9-13-5.1-14.2 2.6L7.6 290.5z"></path> <path class="st0" d="M7.6 290.5l1.6-3.1 99.4-188.5-44.2-83.5c-3.7-6.9-13-5.1-14.2 2.6L7.6 290.5zM141.3 160.2l33-33.8-33-62.9c-3.1-6-11.9-6-15 0l-17.6 33.6v2.9l32.6 60.2z"></path> <path id="path-3" class="st0" d="M140.7 158.8l32-32.8-32-61c-3-5.8-10.4-6.4-13.4-.6l-17.7 34.1-.5 1.7 31.6 58.6z"></path> <path class="st0" d="M140.7 158.8l32-32.8-32-61c-3-5.8-10.4-6.4-13.4-.6l-17.7 34.1-.5 1.7 31.6 58.6z"></path> <path class="st0" d="M6.3 292.8l1-1 3.5-1.4 128.4-128 1.7-4.4-32.1-61.1L6.3 292.8z"></path> <path class="st0" d="M145.4 357.4l116.3-64.8L228.5 88c-1-6.4-8.9-8.9-13.5-4.3L6.3 292.8l115.6 64.5c7.3 4.1 16.2 4.1 23.5.1"></path> <path class="st0" d="M260.7 292l-33-202.9c-1-6.3-7.6-9-12.1-4.4L7.6 292.4l114.3 63.9c7.3 4 16.1 4.1 23.3 0L260.7 292z"></path> <path class="st0" d="M145.4 355.4c-7.3 4.1-16.2 4.1-23.5 0L7.2 291.8l-.9 1 115.6 64.5c7.3 4.1 16.2 4.1 23.5 0l116.3-64.8-.3-1.8-116 64.7z"></path> </svg>
