<svg xmlns="http://www.w3.org/2000/svg" viewBox="0 0 422 566"> <path d="M27.4 321.5c-7.8 0-16.4-4.7-18.2-13.8l-.6-.9c-2-3-4.8-17.2-3.7-22.4v-.2c4.4-17.8 23.7-26.3 40.9-26.8h2.4c1 0 2 0 2.9.1.5-.1 1-.1 1.5-.1 2.7 0 5.1 1.1 6.9 3.2 2.1 2.6 3 6.5 2.3 10.3-.4 2.4-.4 15-.4 17.8 0 6.2 0 13.3-4.5 19.3-.4.5-.8.9-1.3 1.2-1.5.8-3 1.7-4.6 2.6-4.9 2.8-10 5.8-15.5 7.9-2.4 1.1-5.2 1.8-8.1 1.8zm-1.9-36.2c1.5 2 2.1 14.3 2.5 16.2 2.3-.2 4.9-1.9 7.7-3.6 1.9-1.2 3.8-2.4 5.9-3.3.1-1.4.2-2.8.2-4.2 0-1 .1-12 .1-13-8.5 1.7-13.9 4.3-16.4 7.9zM339.3 556.8c-4.6 0-8.8-1.4-12.3-4.1-4.7-3.1-8.4-7.5-11.9-11.7-5.6-6.6-10.4-12.3-18.3-12.8-1.5-.1-2.9-1-3.5-2.4-.7-1.4-.6-3 .3-4.3 8.5-12.4 20.5-27 38.1-29.5.4-.1.7-.1 1.1-.1 1.4 0 2.5.5 3.3.8.1.1.2.1.3.1.3.1.5.2.8.4 11.2 6.4 20.4 16.2 25.9 27.5 5 10.2 2.1 22.7-6.9 29-4.6 4.4-10.9 7.1-16.9 7.1zM323.5 521c2.5 2.2 4.6 4.8 6.6 7.4 2.9 3.7 5.6 7.1 9.3 8.8 2.1-.1 4.9-2.1 6.5-4.5-.4-8.3-8.3-14.9-15-20.3-3.3 1.2-6.6 3.3-9.7 6.3.6.6 1.5 1.3 2.3 2.3zM52.6 121c-.3 0-.6 0-.9-.1-19-4-32.9-14.4-38.2-28.6-4.8-12.8-2.6-27.3 5.9-39.7C28.3 39.5 42.8 31.3 57.2 31c.7 0 1.4-.1 2.1-.1 11 0 22.5 4.2 33.1 12 1.7 1.3 2.2 3.5 1.2 5.4-12 23-24.6 46.7-37.3 70.5-.7 1.4-2.2 2.2-3.7 2.2zm6.1-70.6c-12.8.2-24.7 10.1-27.6 23 0 .1 0 .2-.1.3-1.7 5.6 0 10.5 1.6 13.6 2.6 4.8 7.2 8.9 12.4 11.2l24.4-46c-3.5-1.3-7-2-10.3-2h-.3c0-.1 0-.1-.1-.1zm304.6 68.1c-1.5 0-2.9-.8-3.7-2.1-9-15.7-18.2-31.7-27.2-47.1-4.3-7.4-8.6-14.8-12.8-22.2-1.1-1.8-.6-4.1 1-5.4 10.6-8.5 22-13.1 33.1-13.3h1.7c24.4 0 46 21.9 46.3 46.8 1 22.4-18.6 39-37.5 43.3-.3-.1-.6 0-.9 0zm6.6-23.4c3.3-1.9 6.2-4.3 8.3-7.1 4.9-6.8 5.3-16 .9-24.5-4.9-9.6-14.1-15.8-23.4-15.8h-.7-.1c-3.7 0-7.4.8-11.1 2.4l26.1 45zM75.9 561.8c-4.4.4-8.6-.5-12.3-2.9-.4-.2-.7-.5-1-.9-.8-1-2.2-1.8-3.8-2.7-2.5-1.4-5.7-3.2-7.6-6.8-3.7-5.6-4.6-12.3-2.8-19.4 1.5-5.9 4.9-11.8 9.6-16.4l.3-.3c1.8-1.4 3.5-3.2 5.3-5.1 4.5-4.7 9.6-10 17.4-11 .5-.1 1-.1 1.5-.2 14.6-1.5 26.7 8.4 34.3 17 .1.1.2.2.2.3.4.5 1.4 1.4 2.3 2.2 3.1 2.7 9.4 8.2 4.5 15-.7 1-1.8 1.6-3 1.7h-.3c-8.2.8-14.3 7.1-20.8 13.7-1.9 2-3.9 4.1-6 5.9-4.9 5.6-11.6 9.3-17.8 9.9zM67.3 537c2.5.9 4.4 2.7 5.8 4 .4.4.7.7 1.1 1 5.1-2.2 9.1-6.5 13.4-11.1 3.1-3.3 6.3-6.7 10-9.5-3.7-3.3-8.1-6.1-12.7-5.9-2.6.7-5.1 3.3-7.6 5.7l-2.4 2.4-.1.1c-3.6 3.1-8.9 8.7-7.5 13.3zM395.5 319.2c-4.7 0-9.8-1.4-14-3.8-.1-.1-.3-.2-.4-.3-2.3-1.7-4.9-3-7.7-4.3-1.8-.9-3.7-1.8-5.5-2.8-.3-.1-.5-.3-.7-.5-6-5.4-6.1-13.5-6.2-20.1 0-1.8 0-13.5-.2-15-.4-3.7-1.2-9.7 2.1-13.7 1.6-2 3.9-3.1 6.6-3.3h3.1c10.7 0 19.5 1.9 27.1 5.9 10.9 5.4 20.9 16.7 16.8 29-.2.5-.4.9-.7 1.3-2.2 2.8-3.5 15.2-4.1 17.7l-.3.9c-2.8 5.7-8.6 9-15.9 9zm-6.1-21.8c.7.3 1.3.6 2 1 .8.4 2 1 2.9 1.3.3-1.9.8-14.3 2.5-16.3-3.1-4.6-9.7-7.1-16.4-8.1.1 2.5.3 14.9.5 17.2 1 .8 2.5 1.5 3.8 2.2 1.6.9 3.2 1.7 4.7 2.7z"></path> <path d="M204.5 546.8c-28 0-54.5-4.3-78.7-12.8-36.6-11.9-64.9-37-77.5-68.8-16.2-42-12.6-87.2-9.1-130.9.3-4.3.7-8.6 1-12.8v-.2c3.6-30.3 1-61.3-1.5-91.2-2.3-27.4-4.6-55.8-2.3-83.9 2.4-30.1 11.7-71.8 42.6-99.9 33.3-30 79-37.6 119.3-41.1h.2c4.3-.1 8.6-.2 12.8-.2 22.2 0 41.9 2 60.3 6.2 36.4 7.3 68 30.2 84.5 61.4 0 .1.1.1.1.2 19.9 43.2 22.1 90.9 22.7 136v.1c-.4 34 .8 70.5 4 118.4 2.7 48.9 2.2 100.1-20.1 144.3-15.7 32.5-49.7 57.2-93.2 67.7-21.8 5-43.8 7.5-65.1 7.5zM59.1 238.3c4.2 35.9 1.9 70.5-1.5 112-2.4 37.8-5.2 80.6 12.9 116 7.9 15.6 29.1 43.4 82.2 55.2 18.1 3.8 36.4 5.7 54.4 5.7 25 0 49-3.7 71.3-10.9 32.5-9.8 58.7-32.2 70.4-59.9 20.1-47.3 16.7-100.2 13.4-151.3l-.1-1.2c-2.2-24-2.3-48.6-2.4-72.3-.2-39.6-.3-80.5-10.2-119.4v-.2c-5.3-25.5-18.3-47.3-36.8-61.4-31.4-23.9-72.8-26.1-109.1-26.3-23.7 2-48.8 5-72.3 13.6h-.1c-30.3 9.9-54.5 32.8-64.8 61.3-15.5 41.1-11.7 86.3-8 130 .2 3.1.4 6.1.7 9.1z"></path> <path d="M272.9 175.1c-4.6 0-9.1-.5-13.4-1.4-27.9-4.5-48.9-32.2-45-59.3 1.6-13.9 8.9-26.9 20.7-36.5 11.1-9.1 25.5-14.4 39.4-14.7h2.2c6.2 0 12 .8 17.5 2.4 13.8 3.4 25.8 13.2 33 26.9 7.7 14.7 9 32.2 3.4 46.8-8.5 21.4-31.6 35.8-57.8 35.8zm5-92.6c-10.7 0-21 3.2-28.8 9-.1 0-.1.1-.2.1-7.6 5-13 13.4-14.7 23.1-1.7 9.1.1 17.8 5 24.6 7.1 10.3 19.7 16.3 34 16.3 8.3 0 16.3-2 23.2-5.8.1 0 .2-.1.2-.1 13.4-6.4 21-23.1 17.1-38.1 0-.1-.1-.2-.1-.4-2.6-16.1-18-28.8-35-28.8-.2.1-.5.1-.7.1zM137.6 180.3c-6.6 0-13-1-19-2.9-26.5-7-44-37.1-37.5-64.5 2.4-12.6 10-24.1 21.4-32.3 10.7-7.7 23.8-12 36.9-12h1.9c7.9 0 15.4 1.3 22.4 3.9 12.6 4.1 23.1 13.4 29.4 26.3 6.9 13.9 7.9 29.9 2.9 43.9-8 22.5-31.5 37.6-58.4 37.6zm5.5-92.5H142h-.1c-8.9.1-16.8 2-23.7 5.8-.1 0-.2.1-.2.1-8.2 3.8-14.2 11.2-17.1 20.6-3 10-1.7 20.9 3.4 29.2 6.5 10.9 19.1 17.4 33.8 17.4 7.5 0 14.9-1.7 21.2-5 .1 0 .2-.1.3-.1 14.5-6.2 23-22.9 19.7-38.7 0-.1 0-.2-.1-.3-2-14.2-16-29-36.1-29z"></path> <path d="M114.9 151c-7.8 0-14.7-3.6-18.5-9.7-5.2-6.9-5.9-16.8-1.9-25.3 3.9-8.2 11.1-13.2 19.3-13.4.5 0 1-.1 1.5-.1 7.9 0 15.1 4.4 19.3 11.7 4.5 7.9 4.7 17.4.4 24.8-3.5 7.5-11.2 12-20.1 12zm134.1-4c-7 0-13.2-3-17.1-8.2-5.9-6.7-7.2-16.9-3.3-26 3.7-8.6 10.9-13.9 19.5-14.2.5 0 1-.1 1.5-.1 7.7 0 14.5 4 18.7 11.1 4.6 7.7 5.1 17.1 1.2 24.5-3.3 7.9-11.3 12.9-20.5 12.9zM235.9 254.8c-4.9 0-10.4-1.4-15.4-3.8-.1-.1-.2-.1-.3-.2-3.1-1.9-6.7-2.9-10.5-2.9-3.1 0-6.3.7-9.2 1.9-5.6 2.7-11.6 4.1-17 4.1-7.8 0-24.1-3-28-8.7-5.6-7.5-6.4-17.5-1.9-26.9 4.7-9.9 24.2-16.6 34.1-17l37.1-1.5h.5c8.7.6 27.3 5.3 36.3 14.4 4.7 4 7.4 10.1 7.6 16.6.1 6.6-2.4 12.8-7 17-4 4.6-19.6 7-26.3 7zm-26.7-26.6c7.3 0 13.9 2.6 20.2 5 2.1.8 14.1 1.6 16.1 2.3 1.8-.1 3.3-1.5 3.8-2.9.6-1.4.4-2.6-.6-3.6l-.2-.2c-2.4-2.7-8.7-9.1-15.9-9.2-5.4 0-20.9.3-26.4.6-1.9.3-3.8.5-6.4.5h-6.2c-2.9 0-15.9.2-18.4 1.5-2.7 1.4-4.9 5-5 8.1-.1 2.2.8 3.3 1.5 3.9.7.1 11.4.2 12.1.2 3.1 0 6.3-1.3 9.8-2.7 3.9-1.5 7.9-3.1 12.4-3.3 1.2-.1 2.2-.2 3.2-.2z"></path> <path d="M205 215.4c-14.4 0-24.4-6.1-26.6-16.2 0-.2-.1-.3-.1-.5-.6-6.2 1.4-12 5.8-16.9 5.7-6.2 14.6-10.1 23.5-10.1h2c.9 0 1.9 0 2.9.1 7.8.1 16 3.6 20.9 9.1 3.9 4.3 5.7 9.5 5.1 15 0 .1 0 .3-.1.4-2.7 13.2-17.1 18.4-29.8 18.9-1.1.2-2.3.2-3.6.2zM194.5 270c-3.1 0-6.3-2.2-7.9-5.4 0-.1-.1-.1-.1-.2-1.6-4.3-1.2-8.7-.8-13 .2-2.2.4-4.3.3-6.3v-1.4c0-.6.3-1.2.7-1.6.3-.3.7-.4 1.1-.4.2 0 .3 0 .5.1 2 .7 4 1.4 5.9 2 2.2.8 4.6 1.6 6.9 2.3.8.3 1.3 1.1 1.3 2-.1 1.8.1 3.7.2 5.6.1 1.4.2 2.9.2 4.4.4 3.7-.6 8.6-4.4 10.4-1.1 1.1-2.5 1.5-3.9 1.5zM226.2 270c-1.4 0-2.8-.4-4-1.3-3.8-1.8-4.8-6.7-4.4-10.4 0-1.5.1-3 .2-4.4.1-1.9.2-3.8.2-5.6 0-.9.5-1.8 1.3-2 2.3-.7 4.6-1.6 6.9-2.3 1.9-.7 3.9-1.4 5.9-2 .2-.1.3-.1.5-.1.4 0 .7.1 1.1.4.4.4.7.9.7 1.6v1.4c-.1 2 .1 4.1.3 6.3.4 4.3.8 8.7-.8 13 0 .1-.1.1-.1.2-1.5 3-4.7 5.2-7.8 5.2z"></path> </svg>
