<svg id="Layer_1" data-name="Layer 1" xmlns="http://www.w3.org/2000/svg" viewBox="0 0 701 401"><defs><style>.cls-1{fill:none;stroke:#000;stroke-miterlimit:10;opacity:0;}.cls-2{fill:#4885ed;}.cls-3{fill:#db3236;}.cls-4{fill:#f4c20d;}.cls-5{fill:#3cba54;}</style></defs><title>google</title><rect class="cls-1" x="0.5" y="0.5" width="700" height="400"/><path id="path2998" class="cls-2" d="M184.42,178.43H107.63v22.78h54.46c-2.69,32-29.28,45.58-54.37,45.58-32.11,0-60.12-25.26-60.12-60.66,0-34.49,26.7-61,60.19-61a59.14,59.14,0,0,1,41.06,16.46l16-16.52s-20.48-22.8-57.83-22.8c-47.56,0-84.35,40.14-84.35,83.5,0,42.49,34.61,83.91,85.57,83.91,44.81,0,77.62-30.7,77.62-76.1a68.38,68.38,0,0,0-1.39-15.11Z" transform="translate(0.5 0.5)"/><path id="path3000" class="cls-3" d="M247.32,161.92c-31.51,0-54.09,24.64-54.09,53.37,0,29.15,21.9,54.25,54.46,54.25,29.47,0,53.62-22.53,53.62-53.62,0-35.64-28.09-54-54-54Zm.31,21.14c15.5,0,30.18,12.53,30.18,32.71,0,19.76-14.62,32.65-30.25,32.65-17.17,0-30.72-13.76-30.72-32.8,0-18.64,13.38-32.56,30.79-32.56Z" transform="translate(0.5 0.5)"/><path id="path3005" class="cls-4" d="M365,161.92c-31.51,0-54.09,24.64-54.09,53.37,0,29.15,21.9,54.25,54.46,54.25C394.8,269.54,419,247,419,215.92c0-35.64-28.09-54-54-54Zm.31,21.14c15.5,0,30.18,12.53,30.18,32.71,0,19.76-14.62,32.65-30.25,32.65-17.17,0-30.72-13.76-30.72-32.8,0-18.64,13.38-32.56,30.79-32.56Z" transform="translate(0.5 0.5)"/><path id="path3007" class="cls-2" d="M480.35,162c-28.92,0-51.66,25.33-51.66,53.76,0,32.39,26.36,53.87,51.16,53.87,15.33,0,23.49-6.09,29.51-13.08v10.61c0,18.57-11.27,29.68-28.29,29.68-16.43,0-24.67-12.22-27.54-19.15l-20.68,8.64C440.19,301.82,455,318,481.25,318c28.75,0,50.67-18.11,50.67-56.1V165.22H509.36v9.11c-6.94-7.47-16.42-12.35-29-12.35Zm2.09,21.09c14.18,0,28.74,12.11,28.74,32.79,0,21-14.53,32.6-29.05,32.6-15.42,0-29.77-12.52-29.77-32.4,0-20.66,14.9-33,30.08-33Z" transform="translate(0.5 0.5)"/><path id="path3011" class="cls-3" d="M632.22,161.85c-27.28,0-50.19,21.71-50.19,53.74,0,33.89,25.54,54,52.81,54,22.77,0,36.74-12.46,45.08-23.62l-18.6-12.37c-4.83,7.49-12.9,14.81-26.36,14.81-15.13,0-22.08-8.28-26.39-16.31l72.14-29.93L677,193.38c-7-17.18-23.23-31.52-44.74-31.52Zm.94,20.7c9.83,0,16.91,5.22,19.91,11.49l-48.18,20.14c-2.07-15.59,12.7-31.63,28.27-31.63Z" transform="translate(0.5 0.5)"/><path id="path3015" class="cls-5" d="M547.64,266.38h23.7V107.79h-23.7Z" transform="translate(0.5 0.5)"/></svg>