<svg xmlns="http://www.w3.org/2000/svg" viewBox="0 0 358 400"> <path d="M195.7 26.9l.9-1.6-14.4-8.3-.9 1.5c5.9.7 11.1 3.8 14.4 8.4zM56.4 268.1L176.7 59.7c-9.6-1-17.2-8.6-18.3-18.1L52.1 103c4.7 3.5 7.5 8.9 8.1 14.5l96-55.4L48.1 249.3V138.5c-2.6 1.2-5.5 1.8-8.5 1.8-2.8 0-5.6-.6-8.1-1.7v122.8c2.6-1.1 5.4-1.7 8.2-1.7 6.6 0 12.8 3.2 16.7 8.4zM176.7 18.5l-.9-1.5-14.4 8.3.9 1.6c3.4-4.6 8.5-7.7 14.4-8.4zM299.2 272.2H58.8c3.8 8.8 1 19.1-6.7 24.9l106.3 61.4c.7-5.9 3.8-11 8.4-14.3l-95.9-55.4h218l-97 56c3.8 3.1 6.5 7.5 7.4 12.5l105.5-60.9c-6.8-5.9-9.2-15.7-5.6-24.2zM326.5 138.6c-2.5 1.1-5.3 1.7-8.1 1.7-3 0-5.9-.6-8.5-1.8v110.8l-108-187.1 95.9 55.4c.6-5.6 3.4-10.9 8.1-14.5L199.6 41.6c-1.2 9.5-8.7 17-18.3 18.1l120.3 208.4c3.9-5.2 10.1-8.4 16.7-8.4 2.8 0 5.6.6 8.2 1.7V138.6zM20.8 272.2h-2v16.6h2c-2.4-5.4-2.3-11.4 0-16.6zM320.6 301l.9 1.6 14.4-8.3-1-1.7c-3.3 4.7-8.5 7.8-14.3 8.4zM337.3 272.2c.4.9.8 1.9 1 2.9 1.2 4.6.8 9.4-1.1 13.7h1.8v-16.6h-1.7zM23 292.7l-.9 1.6 14.4 8.3.9-1.6c-5.7-.6-11-3.6-14.4-8.3z"></path> <g> <path d="M335.7 250.2c-16.7-9.6-38.1-3.9-47.7 12.8-9.6 16.7-3.9 38.1 12.8 47.7 16.7 9.6 38.1 3.9 47.7-12.8 9.7-16.7 4-38-12.8-47.7zm.5 40.6c-3.7 6.4-10.6 10.4-18 10.4-3.6 0-7.2-1-10.4-2.8-9.9-5.7-13.3-18.4-7.6-28.3 3.7-6.4 10.6-10.3 18-10.3 3.6 0 7.2 1 10.4 2.8 4.8 2.8 8.3 7.3 9.7 12.6 1.5 5.2.7 10.8-2.1 15.6zM57.1 89.3C40.4 79.7 19 85.4 9.4 102.1c-9.6 16.7-3.9 38.1 12.8 47.7 16.7 9.6 38.1 3.9 47.7-12.8 9.6-16.7 3.9-38-12.8-47.7zm.5 40.6c-3.7 6.4-10.6 10.4-18 10.4-3.6 0-7.2-1-10.4-2.8-4.8-2.7-8.2-7.2-9.6-12.6-1.4-5.4-.7-11 2.1-15.8 3.7-6.4 10.6-10.4 18-10.4 3.6 0 7.2 1 10.4 2.8 9.8 5.8 13.2 18.5 7.5 28.4zM70 263c-9.7-16.7-31-22.4-47.7-12.8-16.7 9.7-22.4 31-12.8 47.7s30.9 22.4 47.7 12.8c16.7-9.7 22.4-31 12.8-47.7zm-19.9 35.4c-3.2 1.8-6.8 2.8-10.4 2.8-7.4 0-14.3-4-18-10.4-5.7-9.9-2.3-22.6 7.6-28.4 3.1-1.8 6.7-2.7 10.3-2.7 7.4 0 14.3 4 18 10.4 5.8 9.8 2.4 22.6-7.5 28.3zM348.6 102.1c-9.7-16.7-31-22.4-47.7-12.8-16.7 9.7-22.4 31-12.8 47.7 9.6 16.7 31 22.4 47.7 12.8 16.7-9.7 22.4-31 12.8-47.7zm-19.9 35.4c-3.1 1.8-6.7 2.7-10.3 2.7-7.4 0-14.3-4-18-10.4-5.7-9.9-2.3-22.6 7.6-28.4 3.1-1.8 6.7-2.7 10.3-2.7 7.4 0 14.3 4 18 10.4 5.7 10 2.3 22.7-7.6 28.4zM179 326c-19.3 0-34.9 15.6-34.9 34.9s15.6 34.9 34.9 34.9 34.9-15.7 34.9-34.9c0-19.3-15.6-34.9-34.9-34.9zm0 55.6c-11.4 0-20.7-9.3-20.7-20.7s9.3-20.7 20.7-20.7 20.7 9.3 20.7 20.7-9.3 20.7-20.7 20.7zM179 4.2c-19.3 0-34.9 15.6-34.9 34.9 0 19.3 15.6 34.9 34.9 34.9s34.9-15.6 34.9-34.9c0-19.3-15.6-34.9-34.9-34.9zm0 55.6c-11.4 0-20.7-9.3-20.7-20.7 0-11.4 9.3-20.7 20.7-20.7s20.7 9.3 20.7 20.7c0 11.4-9.3 20.7-20.7 20.7z"></path> </g> </svg>
