<?xml version="1.0" encoding="UTF-8"?><svg width="289" height="379" version="1.1" viewBox="0 0 289 379" xmlns="http://www.w3.org/2000/svg" xmlns:xlink="http://www.w3.org/1999/xlink"><!--Generated by IJSVG (https://github.com/iconjar/IJSVG)--><g transform="scale(0.998963)"><path fill="#000" d="M45.7,55.6l-1.7,-1.1c-5,0.2 1.7,1.1 1.7,1.1Zm63.7,5c-0.9,-17.9 13.8,-32.1 18.9,-32.7c0.3,3 -0.3,14.8 4.8,18.5c1.5,-9.7 6.5,-20.3 26.2,-27.3c-4.2,11.2 -0.6,20.6 1.2,24.9c13.4,-12.1 22.5,-10.1 22.5,-10.1c0,0 -9.4,16.2 -5.7,26.8c-27.1,-2.2 -67.8,2.8 -67.9,-0.1Z"></path><path fill="#000" d="M52,87.9c-6.5,-5.4 -1.6,-10.3 -2.2,-16.4c-0.3,-3.2 -0.5,-6.3 -1.6,-8c-5.9,-9.4 -20,-12.2 -20.1,-12.3l-6.6,-1.3l4.4,-5.1c0.6,-0.7 18.4,-17.7 46.1,-8.8c19.4,6.2 33.7,27.4 34.2,28.3l-9.7,4.6c-0.1,-0.2 -11.4,-20.1 -28,-25.4c-13.4,-4.3 -25.8,-0.2 -31.1,2.5c5.6,2.2 13,6.3 17.4,13.3c2.1,3.3 2.4,7.5 2.8,11.5c0.4,5.3 0.9,10.4 4.8,13.6l-10.4,3.5Zm-17.2,78.1c0,0 8.1,-10.1 10.5,-29.7c0.9,-7.7 -0.7,-23 -3.4,-28.8c0.5,14.4 -3.2,28.8 -3.2,28.8c0,0 -2.4,26.8 -3.9,29.7Z"></path><path fill="#000" d="M77.7,77.7c0,0 -2.6,-11.4 -9.8,-17.2c-10.2,-8.1 -22.6,-3.8 -22.7,-3.8l-1.8,-5.6c0.6,-0.2 14.8,-4.7 27.9,4.5c13.1,9.4 14.7,17.8 14.8,18.7l-8.4,3.4Zm-17.4,81.1c0,0 -4.3,-6.1 -3.5,-12.8c0.4,-3.3 1.9,-6.7 4.7,-7.9c5.1,-2.2 7.4,3.5 7.4,3.5c0,0 -7.2,1.8 -8.6,17.2Z"></path><path fill="#000" d="M107.2,168.1c0.2,0.3 0.3,0.5 0.3,0.5c0,0 -13.3,10 -26.9,-0.1c-7.3,-5.4 -6.6,-18.9 -4.4,-24.6c5.8,1.3 10.7,3.7 14.9,6.5c-5.2,-4.6 -9.8,-8.1 -9.8,-8.2l-5.9,-1.7l-11.5,-3.9c-0.1,0.9 -4.3,20.6 7.8,34c5.4,5.9 30.6,19.3 42.5,-3.5l-7,1Z"></path><path fill="#000" d="M105.9,169.6c7.5,11.4 26.4,4.9 26.1,-7.2c0,0 -12.6,7 -23.8,-5.9c-6.5,-7.5 -27.4,-28.2 -55.7,-21.3c19.6,4.4 45.4,22.2 53.4,34.4Z"></path><path fill="#000" d="M49.9,201.8c1.8,1 8.2,7.6 8.2,17.5c0,4.9 -0.5,29.7 -2.9,44.9c3.7,2.4 6.2,2.9 9.9,5.3c1.8,-17.5 3.1,-43 2.5,-53.2c-0.7,-11.7 -7,-19.6 -12.8,-22.9c-1.8,-1 -3.7,-2.1 -5.6,-3.1c-10,-5.4 -20.2,-10.9 -20.2,-20.4c0,-7.4 2.9,-9.8 5.9,-12.2l0.3,-0.3c2,-1.6 4.3,-3.5 5.7,-6.6c3.7,-8.3 4.3,-29.6 0,-35c-2.2,-2.7 -7.9,-11.7 -6.3,-17.8c0.6,-2.3 2.1,-4 4.5,-5.3c2.5,-1.3 5.9,-1.9 10.1,-1.9c8.2,0 17.3,2.5 22,4c16.8,5.3 37.1,20.7 42.9,25.3c0.2,0.1 0.3,0.2 0.3,0.2l3.7,2.6l-2.3,-3.9c-0.1,-0.2 -14.9,-24.5 -41.2,-33.4c-5.1,-1.7 -15.2,-4.6 -25.1,-4.6c-5.9,0 -10.9,1 -14.9,3.1c-4.8,2.5 -8.1,6.4 -9.5,11.4c-3.3,12.2 7.5,25.8 7.9,26.2c1.3,2.3 1.8,18.6 -1.1,25.2c-0.4,0.9 -1.5,1.8 -2.9,2.9c-0.4,0.4 -0.9,0.7 -1.4,1.1c-4.1,3.1 -10.3,7.8 -10.3,18.6c0,14.8 15,22.8 27.1,29.3c1.9,1 3.8,2 5.5,3Z"></path><path fill="#000" d="M52,87.9c-6.5,-5.4 -1.6,-10.3 -2.2,-16.4c-0.3,-3.2 -0.5,-6.3 -1.6,-8c-5.9,-9.4 -20,-12.2 -20.1,-12.3l-6.6,-1.3l4.4,-5.1c0.6,-0.7 18.4,-17.7 46.1,-8.8c19.4,6.2 33.7,27.4 34.2,28.3l-9.7,4.6c-0.1,-0.2 -11.4,-20.1 -28,-25.4c-13.4,-4.3 -25.8,-0.2 -31.1,2.5c5.6,2.2 13,6.3 17.4,13.3c2.1,3.3 2.4,7.5 2.8,11.5c0.4,5.3 0.9,10.4 4.8,13.6l-10.4,3.5Z"></path><path fill="#000" d="M51.8,89l-0.4,-0.3c-4.8,-4 -3.9,-7.9 -3.1,-11.7c0.4,-1.7 0.8,-3.6 0.6,-5.4c-0.3,-3.1 -0.5,-6.1 -1.4,-7.5c-5.7,-9 -19.4,-11.9 -19.5,-11.9l-8.2,-1.6l5.4,-6.4c0.1,-0.1 11.6,-11.7 31,-11.7c5.3,0 10.7,0.9 16.1,2.6c20.2,6.5 34.6,28.5 34.7,28.7l0.6,0.9l-11.5,5.4l-0.5,-0.7c-1.2,-2.1 -12.1,-20.1 -27.5,-25c-3.8,-1.2 -7.8,-1.8 -11.8,-1.8c-7.4,0 -13.4,2 -16.5,3.4c5.3,2.4 11.8,6.4 15.9,12.9c2.2,3.5 2.6,7.8 2.9,11.9c0.4,5.1 0.8,10 4.5,13l1.4,1.1l-12.7,4.1Z"></path><path fill="#000" d="M77.7,77.7c0,0 -2.6,-11.4 -9.8,-17.2c-10.2,-8.1 -22.6,-3.8 -22.7,-3.8l-1.8,-5.6c0.6,-0.2 14.8,-4.7 27.9,4.5c13.1,9.4 14.7,17.8 14.8,18.7l-8.4,3.4Z"></path><path fill="#000" d="M77,79l-0.3,-1.1c0,-0.1 -2.6,-11.1 -9.5,-16.6c-3.9,-3.1 -8.7,-4.7 -14.1,-4.7c-4.2,0 -7.4,1 -7.7,1.1l-0.9,0.3l-2.4,-7.4l0.9,-0.3c0.4,-0.1 4.2,-1.3 9.5,-1.3c7,0 13.7,2.1 19.3,6c13.5,9.5 15.2,18.3 15.3,19.2l0.1,0.8l-10.2,4Zm-23.9,-24.4c5.8,0 11.1,1.8 15.3,5.1c6.1,4.9 9,13.5 9.9,16.6l6.6,-2.6c-0.6,-2.3 -3.3,-9.4 -14.3,-17.2c-5.3,-3.7 -11.4,-5.6 -18.1,-5.6c-3.7,0 -6.6,0.6 -8,0.9l1.2,3.7c1.4,-0.3 4.1,-0.9 7.4,-0.9Zm60.2,267.1c-2.9,0 -5.8,-1 -7.9,-2.8c-1.6,-1.3 -6.9,-6.2 -9.2,-12.2c-0.9,-2.2 -0.7,-4 0.6,-5.3c0.9,-0.9 2.7,-1.9 6.3,-1.9h19.7c2.8,0 4.8,0.6 5.9,1.8c1.5,1.5 1,3.4 0.6,4.5c-0.7,1.8 -3.7,7.6 -8.7,13c-1.7,1.8 -4.3,2.9 -7.3,2.9Zm3,-151.5l-10.4,-0.7c0,0 2.7,4.7 4.4,10.8c1.9,6.9 -1.8,16.9 -1.8,16.9c0,0 13.9,-15.7 7.8,-27Zm-13,179c-37.1,-2.9 -50.2,-38.3 -50.2,-45.6l2.5,1.3l2,0.9l8,2.7c0,3.2 7.1,28.6 38.4,31l-0.7,9.7Z"></path><path fill="#000" d="M92.5,281.2c0,-3.1 0.7,-6 2.1,-9l0.3,-0.6c-9.6,-0.1 -20.8,-1 -30.2,-4.8c-10.4,-4.2 -23.4,-18.4 -25.6,-35.1c0,0 -19.6,15.1 -13.8,47.5c5.4,30.4 30.8,40.3 59.8,42c0,-0.2 -3.3,-7 -2.2,-11.1c-16.5,1.2 -34.9,-5.2 -43.8,-19.8c-8.1,-13.4 -5.9,-36.2 -2.5,-39.6c8.1,25.7 37.5,30.9 55.9,30.5Z"></path><path fill="#000" d="M95.5,262.8c-5.2,15.3 -15.9,27.7 -15.9,27.7c0,0 14.7,-0.7 15.5,-3.3c0.6,-1.9 13.2,-31.5 18.1,-66.1c-4.6,7.4 -17.3,40.3 -17.7,41.7Zm147.6,-207.2l1.7,-1.1c5,0.2 -1.7,1.1 -1.7,1.1Z"></path><path fill="#000" d="M236.8,87.9c6.5,-5.4 1.6,-10.3 2.2,-16.4c0.3,-3.2 0.5,-6.3 1.6,-8c5.9,-9.4 20,-12.2 20.1,-12.3l6.6,-1.3l-4.4,-5.1c-0.6,-0.7 -18.4,-17.7 -46.1,-8.8c-19.3,6.2 -33.7,27.4 -34.2,28.3l9.7,4.6c0.1,-0.2 11.4,-20.1 28,-25.4c13.4,-4.3 25.8,-0.2 31.1,2.5c-5.6,2.2 -13,6.3 -17.4,13.3c-2.1,3.3 -2.4,7.5 -2.8,11.5c-0.4,5.3 -0.9,10.4 -4.8,13.6l10.4,3.5Zm17.2,78.1c0,0 -8.1,-10.1 -10.5,-29.7c-0.9,-7.7 0.7,-23 3.4,-28.8c-0.5,14.4 3.2,28.8 3.2,28.8c0,0 2.5,26.8 3.9,29.7Z"></path><path fill="#000" d="M211.2,77.7c0,0 2.6,-11.4 9.8,-17.2c10.2,-8.1 22.6,-3.8 22.7,-3.8l1.8,-5.6c-0.6,-0.2 -14.8,-4.7 -27.9,4.5c-13.2,9.3 -14.8,17.7 -14.9,18.6l8.5,3.5Zm17.3,81.1c0,0 4.3,-6.1 3.5,-12.8c-0.4,-3.3 -1.9,-6.7 -4.7,-7.9c-5.1,-2.2 -7.4,3.5 -7.4,3.5c0,0 7.3,1.8 8.6,17.2Z"></path><path fill="#000" d="M181.7,168.1c-0.2,0.3 -0.3,0.5 -0.3,0.5c0,0 13.3,10 26.9,-0.1c7.3,-5.4 6.6,-18.9 4.4,-24.6c-5.8,1.3 -10.7,3.7 -14.9,6.5c5.2,-4.6 9.8,-8.1 9.8,-8.2l5.9,-1.7l11.5,-3.9c0.1,0.9 4.3,20.6 -7.8,34c-5.4,5.9 -30.6,19.3 -42.5,-3.5l7,1Z"></path><path fill="#000" d="M182.9,169.6c-7.5,11.4 -26.4,4.9 -26.1,-7.2c0,0 12.6,7 23.8,-5.9c6.5,-7.5 27.4,-28.2 55.7,-21.3c-19.5,4.4 -45.4,22.2 -53.4,34.4Z"></path><path fill="#000" d="M239,201.8c-1.8,1 -8.2,7.6 -8.2,17.5c0,4.9 0.5,29.7 2.9,44.9c-3.7,2.4 -6.2,2.9 -9.9,5.3c-1.8,-17.5 -3.1,-43 -2.5,-53.2c0.7,-11.7 7,-19.6 12.8,-22.9c1.8,-1 3.7,-2.1 5.6,-3.1c10,-5.4 20.2,-10.9 20.2,-20.4c0,-7.4 -2.9,-9.8 -6,-12.2l-0.3,-0.3c-2,-1.6 -4.3,-3.5 -5.7,-6.6c-3.7,-8.3 -4.3,-29.6 0,-35c2.2,-2.7 7.9,-11.7 6.3,-17.8c-0.6,-2.3 -2.1,-4 -4.5,-5.3c-2.5,-1.3 -5.9,-1.9 -10.1,-1.9c-8.2,0 -17.3,2.5 -22,4c-16.8,5.3 -37.1,20.7 -42.9,25.3c-0.2,0.1 -0.3,0.2 -0.3,0.2l-3.7,2.6l2.3,-3.9c0.1,-0.2 14.9,-24.5 41.2,-33.4c5.1,-1.7 15.2,-4.6 25.1,-4.6c5.9,0 10.9,1 14.9,3.1c4.8,2.5 8.1,6.4 9.5,11.4c3.3,12.2 -7.5,25.8 -7.9,26.2c-1.3,2.3 -1.8,18.6 1.1,25.2c0.4,0.9 1.5,1.8 2.9,2.9c0.4,0.4 0.9,0.7 1.4,1.1c4.1,3.1 10.3,7.8 10.3,18.6c0,14.8 -15,22.8 -27.1,29.3c-1.8,1 -3.7,2 -5.4,3Z"></path><path fill="#000" d="M221.1,86.1c-2.4,-4 -8.5,-11.9 -22.6,-18.7c-15.7,-7.7 -33.9,-11.5 -54,-11.6c-20.2,0 -38.3,3.9 -54,11.6c-14.1,6.9 -20.2,14.7 -22.6,18.7l-1,1.4l12.1,2.7l0.4,-0.5l0.2,-0.4c0.2,-0.8 1.8,-5.1 15.2,-11.7c14.4,-7 31.1,-10.6 49.8,-10.6c18.7,0 35.4,3.6 49.8,10.6c13.4,6.6 15.1,10.9 15.2,11.7l0.2,0.4l0.4,0.5l12.1,-2.7l-1.2,-1.4Z"></path><path fill="#000" d="M236.8,87.9c6.5,-5.4 1.6,-10.3 2.2,-16.4c0.3,-3.2 0.5,-6.3 1.6,-8c5.9,-9.4 20,-12.2 20.1,-12.3l6.6,-1.3l-4.4,-5.1c-0.6,-0.7 -18.4,-17.7 -46.1,-8.8c-19.3,6.2 -33.7,27.4 -34.2,28.3l9.7,4.6c0.1,-0.2 11.4,-20.1 28,-25.4c13.4,-4.3 25.8,-0.2 31.1,2.5c-5.6,2.2 -13,6.3 -17.4,13.3c-2.1,3.3 -2.4,7.5 -2.8,11.5c-0.4,5.3 -0.9,10.4 -4.8,13.6l10.4,3.5Z"></path><path fill="#000" d="M224.4,84.8l1.4,-1.1c3.6,-3 4,-7.8 4.5,-13c0.4,-4.1 0.7,-8.4 2.9,-11.9c4.1,-6.4 10.5,-10.5 15.9,-12.9c-3.2,-1.3 -9.2,-3.4 -16.5,-3.4c-4.1,0 -8.1,0.6 -11.8,1.8c-15.4,5 -26.3,22.9 -27.5,25l-0.5,0.7l-11.5,-5.4l0.6,-0.9c0.1,-0.2 14.5,-22.2 34.7,-28.7c5.4,-1.7 10.8,-2.6 16.1,-2.6c19.4,0 30.9,11.6 31,11.7l5.4,6.4l-8.2,1.6c-0.1,0 -13.8,2.9 -19.5,11.8c-0.9,1.5 -1.2,4.4 -1.4,7.5c-0.2,1.9 0.2,3.7 0.6,5.4c0.8,3.8 1.7,7.7 -3.1,11.7l-0.5,0.5l-12.6,-4.2Z"></path><path fill="#000" d="M211.2,77.7c0,0 2.6,-11.4 9.8,-17.2c10.2,-8.1 22.6,-3.8 22.7,-3.8l1.8,-5.6c-0.6,-0.2 -14.8,-4.7 -27.9,4.5c-13.2,9.3 -14.8,17.7 -14.9,18.6l8.5,3.5Z"></path><path fill="#000" d="M201.7,74.9l0.1,-0.8c0.1,-1 1.8,-9.7 15.3,-19.2c5.6,-3.9 12.2,-6 19.3,-6c5.3,0 9.1,1.2 9.5,1.3l0.9,0.3l-2.4,7.4l-0.9,-0.3c-0.3,-0.1 -3.5,-1.1 -7.7,-1.1c-5.4,0 -10.2,1.6 -14.1,4.7c-6.9,5.5 -9.5,16.5 -9.5,16.6l-0.3,1.1l-10.2,-4Zm41.4,-19.3l1.2,-3.7c-1.4,-0.4 -4.3,-0.9 -8,-0.9c-6.7,0 -12.8,1.9 -18.1,5.6c-11.1,7.8 -13.7,14.8 -14.3,17.2l6.7,2.6c0.9,-3.1 3.8,-11.7 9.9,-16.6c4.2,-3.4 9.5,-5.1 15.3,-5.1c3.2,-0.1 5.9,0.5 7.3,0.9Zm-75,263.1c-5,-5.4 -8,-11.2 -8.7,-13c-0.4,-1 -0.9,-2.9 0.6,-4.5c1.2,-1.2 3.1,-1.8 5.9,-1.8h19.7c3.7,0 5.5,1 6.3,1.9c1.3,1.3 1.5,3.1 0.6,5.3c-2.3,6 -7.6,10.8 -9.2,12.2c-2,1.8 -5,2.8 -7.9,2.8c-2.8,0.1 -5.5,-1 -7.3,-2.9Zm4.4,-148.5l10.4,-0.7c0,0 -2.7,4.7 -4.4,10.8c-1.9,6.9 1.8,16.9 1.8,16.9c0,0 -13.9,-15.7 -7.8,-27Zm-9.8,-37.3c-6.7,4 -12.6,5.4 -18.3,5.6c-5.7,-0.1 -11.6,-1.5 -18.3,-5.6c0,0 9.7,11.8 18.2,11.9c8.7,0 18.4,-11.9 18.4,-11.9Zm22.8,216.3l-0.7,-9.7c31.3,-2.4 40.1,-28.3 40.1,-31.5l10.8,-4.5c0,7.4 -13.1,42.9 -50.2,45.7Z"></path><path fill="#000" d="M196.4,281.2c0,-3.1 -0.7,-6 -2.1,-9l-0.3,-0.6c9.6,-0.1 20.8,-1 30.2,-4.8c10.4,-4.2 23.4,-18.4 25.6,-35.1c0,0 19.6,15.1 13.8,47.5c-5.4,30.4 -30.8,40.3 -59.8,42c0,-0.2 3.3,-7 2.2,-11.1c16.5,1.2 34.9,-5.2 43.8,-19.8c8.1,-13.4 5.8,-36.2 2.5,-39.6c-8.2,25.7 -37.5,30.9 -55.9,30.5Z"></path><path fill="#000" d="M208.1,288.8c-3.5,-3.7 -9.8,-8.2 -24.5,-8.2h-78.2c-14.7,0 -21,4.5 -24.5,8.2c-5,5.4 -5.8,13 -2.3,22.5c9.3,25.2 22.3,50.8 66,50.9c43.6,0 56.7,-25.7 66,-50.9c3.3,-9.5 2.5,-17.1 -2.5,-22.5Zm-6.8,20.7c-4.4,12.7 -16.3,43.3 -56.9,43.4c-40.6,-0.1 -52.5,-30.7 -56.9,-43.4c-2.4,-7 -2.3,-12.2 0.6,-15.5c1.9,-2.2 6.4,-4.8 16.5,-4.8h79.6c10.1,0 14.6,2.6 16.5,4.8c2.8,3.3 3,8.5 0.6,15.5Z"></path><path fill="#000" d="M193.3,262.8c5.2,15.3 15.9,27.7 15.9,27.7c0,0 -14.7,-0.7 -15.5,-3.3c-0.6,-1.9 -13.2,-31.5 -18.1,-66.1c4.6,7.4 17.3,40.3 17.7,41.7Z"></path></g></svg>