<svg id="Layer_1" data-name="Layer 1" xmlns="http://www.w3.org/2000/svg" viewBox="0 0 701 401"><defs><style>.cls-1{fill:none;stroke:#000;stroke-miterlimit:10;opacity:0;}.cls-2{fill:#fefefe;}.cls-3{fill:#34ccfe;}.cls-4{fill:#33cbfe;}.cls-5{fill:#fe4502;}.cls-6{fill:#030303;}.cls-7{fill:#010202;}</style></defs><title>ifttt</title><rect class="cls-1" x="0.5" y="0.5" width="700" height="400"/><path class="cls-2" d="M178.21,239.52a2.32,2.32,0,0,1,.27-.46c13.73.08,27.47.14,41.21.28,2.1,0,2.27-1.08,2.27-2.71,0-15.16-.05-30.33,0-45.5,0-2-.47-2.73-2.61-2.71-13.61.14-27.22.14-40.84.19l-.26-.28a104.86,104.86,0,0,0-.06-14.07,2,2,0,0,1,.27-.44q31.67.12,63.32.27c2,0,2-1.08,2-2.51,0-15.33,0-30.65,0-46,0-1.89-.59-2.44-2.46-2.43-21,.11-42,.13-63,.18-16.11,0-32.22,0-48.33-.2-2.57,0-2.61,1.19-2.61,3.1,0,14,0,28,0,42,0,1.94-.39,3.92.36,5.82a56.59,56.59,0,0,0-.15,14.42c-.08,14.88-.18,29.76-.21,44.64,0,2.06-.42,4.17.38,6.2a3.61,3.61,0,0,0-.37,1.09c-.05,13.34,0,26.68-.12,40,0,2,.9,2.38,2.64,2.38q23-.06,46,0c1.91,0,2.46-.7,2.44-2.52C178.34,266.7,178.29,253.11,178.21,239.52Zm392.43-65.77a3.88,3.88,0,0,1,.3.48,9,9,0,0,0-.26,1.54q0,52.06-.08,104.14c0,2.64,1.13,2.92,3.3,2.91,14-.07,28.07,0,42.1-.05,6.49,0,5.64.9,5.66-5.58q.09-51.46.12-102.95c.65-.06,1.3-.16,2-.16,10.37,0,20.74-.07,31.1,0,2.33,0,3.19-.53,3.17-3-.11-15.06-.07-30.14,0-45.21,0-1.6-.05-2.72-2.22-2.69-11.4.16-22.81.19-34.22.27-16.94-.42-33.88-.32-50.82,0-11.38-.06-22.77-.09-34.15-.21-1.76,0-2.21.62-2.2,2.27q.07,23.14,0,46.28c0,1.59.37,2.4,2.17,2.36C547.89,173.84,559.27,174.48,570.64,173.75Zm-87.23-.15c1.2.81,2.55.44,3.82.45,8.64,0,17.28,0,25.92,0,6.77,0,6.77,0,6.77-6.82,0-13.59,0-27.19,0-40.78,0-1.4.7-3.31-2-3.28-11.51.13-23,.18-34.53.27-16.87-.47-33.74-.32-50.61-.08-11.38-.06-22.76-.08-34.14-.2-1.75,0-2.22.64-2.22,2.28q.08,23.13,0,46.26c0,1.59.41,2.4,2.19,2.37,11.37-.24,22.75.39,34.11-.34.1.17.19.34.28.51a15.9,15.9,0,0,0-.24,1.93q0,51.69-.07,103.38c0,2.63.83,3.28,3.35,3.26,14.3-.1,28.6-.17,42.9,0,3.58.05,4.58-.89,4.57-4.52-.14-33.41-.08-66.82-.1-100.23,0-1.29-.21-2.59-.32-3.88A3,3,0,0,0,483.41,173.6Zm-137.94.14c11.37.75,22.74.1,34.11.34,1.78,0,2.21-.76,2.2-2.36q0-23.13,0-46.26c0-1.65-.48-2.3-2.22-2.28-11.38.12-22.77.15-34.15.21-16.86-.27-33.73-.38-50.6.06-11.38-.08-22.75-.11-34.13-.29-2.37,0-2.43,1.18-2.43,2.92,0,15,.08,30.06,0,45.08,0,2.61,1.07,3,3.28,3,8.24-.1,16.49,0,24.73-.07,2.84,0,5.73.52,8.54-.42a2.65,2.65,0,0,0,.33.62,7.55,7.55,0,0,0-.31,1.53q0,52.08-.08,104.16c0,2.68,1.23,2.89,3.35,2.88,14.44-.06,28.87-.13,43.3.05,3.23,0,4.17-.76,4.16-4.08-.13-33.67-.08-67.34-.09-101,0-1.17-.16-2.33-.25-3.5C345.28,174.08,345.38,173.91,345.47,173.74ZM105.87,203c0-25.28,0-50.57.06-75.85,0-3-.56-4.06-3.83-4-14.43.19-28.86.15-43.29,0-2.93,0-4,.53-4,3.81q.16,76.05,0,152.09c0,3.3,1.12,3.83,4,3.8,14.43-.12,28.87-.17,43.29,0,3.29,0,3.84-1.1,3.83-4C105.83,253.56,105.87,228.27,105.87,203Z" transform="translate(0.5 0.5)"/><path class="cls-3" d="M105.87,203c0,25.28,0,50.57.06,75.85,0,2.93-.54,4.07-3.83,4-14.42-.2-28.86-.15-43.29,0-2.91,0-4-.5-4-3.8q.16-76,0-152.09c0-3.28,1.1-3.83,4-3.81,14.43.13,28.86.17,43.29,0,3.27,0,3.85,1.07,3.83,4C105.83,152.42,105.87,177.71,105.87,203Z" transform="translate(0.5 0.5)"/><path class="cls-3" d="M621.78,174.24q-.06,51.48-.12,103c0,6.48.83,5.56-5.66,5.58-14,.05-28.07,0-42.1.05-2.17,0-3.31-.27-3.3-2.91q.14-52.08.08-104.14a9,9,0,0,1,.26-1.54c11.11-.07,22.23-.08,33.34-.23,5.61-.08,11.23.47,16.82-.32Z" transform="translate(0.5 0.5)"/><path class="cls-4" d="M345.19,174.26c.09,1.17.25,2.33.25,3.5,0,33.68,0,67.35.09,101,0,3.32-.93,4.12-4.16,4.08-14.43-.18-28.86-.11-43.3-.05-2.12,0-3.35-.2-3.35-2.88q.13-52.08.08-104.16a7.55,7.55,0,0,1,.31-1.53C311.8,173.89,328.49,173.86,345.19,174.26Z" transform="translate(0.5 0.5)"/><path class="cls-4" d="M483.08,174.24c.11,1.29.32,2.59.32,3.88,0,33.41,0,66.82.1,100.23,0,3.63-1,4.57-4.57,4.52-14.3-.21-28.6-.14-42.9,0-2.52,0-3.35-.63-3.35-3.26q.13-51.69.07-103.38a15.9,15.9,0,0,1,.24-1.93C449.68,173.86,466.38,173.89,483.08,174.24Z" transform="translate(0.5 0.5)"/><path class="cls-5" d="M178.42,123.35c21,0,42-.07,63-.18,1.87,0,2.46.54,2.46,2.43-.07,15.33-.05,30.65,0,46,0,1.43,0,2.52-2,2.51q-31.65-.18-63.32-.27Z" transform="translate(0.5 0.5)"/><path class="cls-6" d="M178.42,123.35l.06,50.47a2,2,0,0,0-.27.44l-50.31-.19c-.76-1.9-.37-3.88-.37-5.82,0-14,0-28,0-42,0-1.91,0-3.13,2.61-3.1C146.2,123.31,162.31,123.3,178.42,123.35Z" transform="translate(0.5 0.5)"/><path class="cls-6" d="M127.91,239.33c-.8-2-.38-4.14-.38-6.2,0-14.88.13-29.76.21-44.63l50.53-.17.26.28-.05,50.45a2.32,2.32,0,0,0-.27.46Z" transform="translate(0.5 0.5)"/><path class="cls-7" d="M345.19,174.26c-16.7-.4-33.39-.37-50.08,0a2.65,2.65,0,0,1-.33-.62q0-25.08,0-50.17c16.87-.44,33.74-.33,50.6-.06q0,25.17.05,50.35C345.38,173.91,345.28,174.08,345.19,174.26Z" transform="translate(0.5 0.5)"/><path class="cls-7" d="M483.08,174.24c-16.7-.35-33.4-.38-50.09,0-.09-.17-.18-.34-.28-.51q0-25.18.05-50.37c16.87-.24,33.74-.39,50.61.08q0,25.06,0,50.14A3,3,0,0,1,483.08,174.24Z" transform="translate(0.5 0.5)"/><path class="cls-7" d="M621.1,173.68c-5.59.79-11.21.24-16.82.32-11.11.15-22.23.16-33.34.23a3.88,3.88,0,0,0-.3-.48l.06-50.36c16.94-.27,33.88-.37,50.82,0-.07,2.74-.18,5.49-.2,8.23Q621.2,152.67,621.1,173.68Z" transform="translate(0.5 0.5)"/><path class="cls-5" d="M178.48,239.06l.05-50.45c13.62-.05,27.23-.05,40.84-.19,2.14,0,2.61.74,2.61,2.71-.07,15.17,0,30.34,0,45.5,0,1.63-.17,2.74-2.27,2.71C206,239.2,192.21,239.14,178.48,239.06Z" transform="translate(0.5 0.5)"/><path class="cls-3" d="M127.91,239.33l50.3.19c.08,13.59.13,27.18.25,40.77,0,1.82-.53,2.53-2.44,2.52q-23-.07-46,0c-1.74,0-2.65-.39-2.64-2.38.08-13.33.07-26.67.12-40A3.61,3.61,0,0,1,127.91,239.33Z" transform="translate(0.5 0.5)"/><path class="cls-5" d="M294.82,123.45q0,25.08,0,50.17c-2.81.94-5.7.39-8.54.42-8.24.09-16.49,0-24.73.07-2.21,0-3.3-.34-3.28-3,.11-15,.06-30,0-45.08,0-1.74.06-3,2.43-2.92C272.07,123.34,283.44,123.37,294.82,123.45Z" transform="translate(0.5 0.5)"/><path class="cls-5" d="M483.41,173.6q0-25.07,0-50.14c11.51-.09,23-.14,34.53-.27,2.7,0,2,1.88,2,3.28,0,13.59,0,27.19,0,40.78,0,6.82,0,6.82-6.77,6.82-8.64,0-17.28,0-25.92,0C486,174,484.61,174.41,483.41,173.6Z" transform="translate(0.5 0.5)"/><path class="cls-5" d="M621.1,173.68q.1-21,.22-42c0-2.74.13-5.49.2-8.23,11.41-.08,22.82-.11,34.22-.27,2.17,0,2.22,1.09,2.22,2.69,0,15.07-.07,30.15,0,45.21,0,2.51-.84,3.07-3.17,3-10.36-.1-20.73,0-31.1,0-.65,0-1.3.1-2,.16Z" transform="translate(0.5 0.5)"/><path class="cls-5" d="M345.47,173.74q0-25.17-.05-50.35c11.38-.06,22.77-.09,34.15-.21,1.74,0,2.22.63,2.22,2.28q-.07,23.13,0,46.26c0,1.6-.42,2.4-2.2,2.36C368.21,173.84,356.84,174.49,345.47,173.74Z" transform="translate(0.5 0.5)"/><path class="cls-5" d="M432.76,123.38q0,25.19-.05,50.37c-11.36.73-22.74.1-34.11.34-1.78,0-2.19-.78-2.19-2.37q0-23.13,0-46.26c0-1.64.47-2.3,2.22-2.28C410,123.3,421.38,123.32,432.76,123.38Z" transform="translate(0.5 0.5)"/><path class="cls-5" d="M570.7,123.39l-.06,50.36c-11.37.73-22.75.09-34.12.34-1.8,0-2.17-.77-2.17-2.36q.06-23.14,0-46.28c0-1.65.44-2.29,2.2-2.27C547.93,123.3,559.32,123.33,570.7,123.39Z" transform="translate(0.5 0.5)"/><path class="cls-3" d="M178.27,188.33l-50.53.17a56.21,56.21,0,0,1,.16-14.43l50.31.19A104.86,104.86,0,0,1,178.27,188.33Z" transform="translate(0.5 0.5)"/></svg>