<?xml version="1.0" encoding="iso-8859-1"?>
<!-- Generator: Adobe Illustrator 19.0.0, SVG Export Plug-In . SVG Version: 6.00 Build 0)  -->
<svg version="1.1" id="Layer_1" xmlns="http://www.w3.org/2000/svg" xmlns:xlink="http://www.w3.org/1999/xlink" x="0px" y="0px"
	 viewBox="0 0 485 485" style="enable-background:new 0 0 485 485;" xml:space="preserve">
<g>
	<rect x="117.532" y="130.729" width="52.634" height="231.999"/>
	<path d="M265.279,366.601c21.615,0,42.008-9.72,52.637-28.569h0.789l2.293,24.695h46.47c-0.591-11.261-1.382-31.335-1.382-50.302
		V118.399h-52.319v91.205h-0.632c-7.549-11.698-23.75-18.969-44.456-18.969c-40.269,0-75.793,32.72-75.318,89.546
		C193.361,332.499,225.29,366.601,265.279,366.601z M282.43,230.626c16.203,0,27.464,11.736,30.547,25.764
		c0.475,2.766,0.791,6.64,0.791,9.406v21.931c0,4.464-0.316,8.338-1.385,12.052c-3.082,14.819-15.135,25.132-30.269,25.132
		c-21.772,0-35.802-17.901-35.802-46.431C246.312,251.926,258.641,230.626,282.43,230.626z"/>
	<path d="M0,0v485h485V0H0z M455,455H30V30h425V455z"/>
</g>
<g>
</g>
<g>
</g>
<g>
</g>
<g>
</g>
<g>
</g>
<g>
</g>
<g>
</g>
<g>
</g>
<g>
</g>
<g>
</g>
<g>
</g>
<g>
</g>
<g>
</g>
<g>
</g>
<g>
</g>
</svg>
