<svg id="Layer_1" data-name="Layer 1" xmlns="http://www.w3.org/2000/svg" viewBox="0 0 701 401"><defs><style>.cls-1{fill:none;stroke:#000;stroke-miterlimit:10;opacity:0;}.cls-2{fill:#3f5d87;}</style></defs><title>instagram</title><rect class="cls-1" x="0.5" y="0.5" width="700" height="400"/><path class="cls-2" d="M56.18,116c-6,0-13.9,6.42-18.54,10.7-10.18,9-19.4,25.66-19.4,39,0,19,16.12,26.11,20.2,26.11a2.28,2.28,0,0,0,2.49-2.52c0-1.43-.91-2.62-1.81-3.84-3.74-5.71-4.93-11.16-4.93-18.5,0-15.32,7.06-29.36,12.92-35.79,1.08-1.16,3.52-3.67,4.25-3.67s.91.59.91,2.42l-.68,100.26c0,15.67-4.53,21.9-4.53,25.59,0,1.62.71,2,2,2,6.34,0,12.67-7.74,14.46-10.56,5.56-9.6,6.92-17.09,6.92-38.7V124.29c0-2.28-.64-3.27-2.81-4.67A20.72,20.72,0,0,0,56.18,116Zm181.47.28c-3,0-4.26,1.56-4.4,6.39l-.66,20-17.49-.6a1.84,1.84,0,0,0-2,1.24,16.17,16.17,0,0,0-2.27,8.6c0,2.95,1.34,3.27,2.54,3.27l18.19.52-.05,38.2c0,8.1-5.12,18.61-14.19,27.35a20.66,20.66,0,0,0,.74-5.41c0-7.83-5.05-14.94-11.77-20l-16.41-12.35c3.44-4,9.27-11.87,9.27-18.54,0-5.17-3.25-7.34-9.31-7.34-8.55,0-18.47,7.83-18.47,19.45A15.67,15.67,0,0,0,176.12,188c-4,7.5-9.55,17.37-13.7,24.4-3.14,5.38-8.44,13.62-11.58,13.62-2.32,0-3.39-3.64-3.39-17.63,0-11.63.83-24.27,1.24-36.4a8.36,8.36,0,0,0-4.06-7.86c-3.32-2.13-7.43-5.1-11.65-5.1-9.39,0-15.79,8.64-20.18,17.09-4.54,8.76-7,16.14-10.46,26.85l.38-36.85c.12-2.63-.55-3.65-2.65-4.55a28.72,28.72,0,0,0-10.3-2.49c-3,0-3.34,1.29-3.34,4.41L86,207.76l0,17.05c0,15.38,1.93,17.95,11,17.95,5,0,6.67-.6,6.77-4.8.14-2.77,1.47-9.5,3.27-16.25,5.25-19.92,11.48-35.68,22.22-47.69,1.12-1.16,2-.74,1.81.91,0,0-1.7,27-1.7,38,0,19.61,3,29.85,12.78,29.85,9.57,0,19-12.31,24.11-20.61l16.47-27.55c10.67,9.09,18.12,16.14,18.12,24.72,0,5.33-3.36,10.55-8.49,10.55-6.4,0-10.49-6.76-14.81-6.76-3.59,0-8.2,6.93-8.2,10.87,0,3.71,8.11,9,22.65,9,21.47,0,33-14.74,39.91-31,1.32,19.36,9,30.68,21.07,30.68,7.9,0,17-10,21.17-22.16,0,0,.41,3.16,3.56,9.64,4.34,8.46,10.94,12.35,19.13,12.35,10.19,0,18.91-6.18,24.23-16.54.81,7.85,7.4,16.5,18,16.5,6.66,0,12.72-5.1,16.71-13.5,0,0,5.16,13.87,20.09,13.87,8.38,0,18.31-7.76,20.68-13.41l.26,8.21L374.71,258c-6.44,6.24-13.28,15.21-13.28,25.14,0,12.63,11.93,19.89,22.42,19.89,10.91,0,18.15-6.91,22.11-12.7,5-7.49,7.1-21.62,7.1-35.42l-.49-20.76C427.49,217.71,439.18,195,444.38,179l11.33-.3c2.19-.15,2.08.72,1.78,2-2,8.42-3.73,17.95-3.73,27.44,0,15.68,3.61,22.5,8.8,28.08,4.52,4.67,9,6.25,13.73,6.25,9.24,0,15-7.63,16.88-12.44,4.34,8.46,10.73,12.4,18.92,12.4,10.19,0,18.91-6.18,24.23-16.54.81,7.85,7.4,16.5,18,16.5,7.92,0,12.52-4.57,16.13-13.18.07,2.77.18,5.72.26,8.49A3.27,3.27,0,0,0,573,240.4a25.72,25.72,0,0,0,9,1.91c6.93,0,8.43-1.43,8.43-5.95,0-7.47.22-19.27,2.34-28.74s5.65-20.11,10.34-27.54a.79.79,0,0,1,1.51.36c.67,15.9,1.73,42.81,5.91,49.77a11.26,11.26,0,0,0,10,5.75,11.71,11.71,0,0,0,5.68-1.55,2.48,2.48,0,0,0,1-2.31c0-20.32,6.33-40,12.68-53.23.18-.39.67-.42.65.1l-.35,14.64c0,24,1.73,39.24,13.75,46.55a15.71,15.71,0,0,0,7.73,2,16.11,16.11,0,0,0,14.47-8.95c2.24-4.29,4.35-12.55,4.35-17.23,0-1.81,0-4.75-3-4.75-1.63,0-2.61,1.2-3,3a86.18,86.18,0,0,1-3.19,11.18c-1.4,3.71-3.49,5.87-6,5.87-2.92,0-4.4-2.3-5.24-3.72-3.73-5.67-4-18.71-4-29.59l.89-28c0-2.32-1-5.09-4.54-7.14-2.4-1.38-8.47-4-12.19-4-3.45,0-5.12,1.95-6.36,4.82-2.33,5.15-10.13,25.35-12.22,41.77-.08.43-.62.53-.66,0-1.08-11.61-1.64-25.6-1.63-35,0-2.86-.7-6.93-6.75-9.58a20.76,20.76,0,0,0-8.35-2c-3.69,0-4.48,1.81-5.8,4.2-4.18,7.72-7.07,17.78-11.39,30.48l.06-29a3.69,3.69,0,0,0-3.22-3.62c-5.91-1.36-8.65-2-11-2a2.63,2.63,0,0,0-2.63,2.82L570,211.21c-1.14,6.06-5.78,20.53-12.36,20.53-5.4,0-7.91-5.47-7.91-28.33l1-37.15c0-2.35-1.55-3.33-3.79-4.33a22.72,22.72,0,0,0-9-1.78c-4.09,0-5.5,2-4.67,6.67-4.5-6.09-9-9.46-17-9.46-16,0-28,19.2-28,47.11a69.64,69.64,0,0,0,1.73,15.6c-1.44,6.49-4.84,11.79-9.53,11.79-5.91,0-9.69-8.37-9.69-22.87s5.54-31,5.54-35.39c0-5.17-3.38-8.44-9.38-8.44-3,0-14.14,2.53-19.85,3.36a23.31,23.31,0,0,0,.59-4.86c0-5.1-2.39-8.29-8.32-8.29-7.26,0-12.58,5.18-12.58,14a11.79,11.79,0,0,0,5.3,9.61c-3.92,16.36-10.3,28.54-19.7,42.13l.79-55.06c0-1.79-.48-2.9-4-4.26a22.19,22.19,0,0,0-8.69-1.73c-5.51,0-5.15,4-4.85,6.9a19,19,0,0,0-16.59-9.8c-23.24,0-30.37,35.44-26.87,60.61,0,3.07-3,14-9.77,14-5.4,0-7.91-5.47-7.91-28.33l1-37.15c0-2.35-1.55-3.33-3.79-4.33a22.67,22.67,0,0,0-9-1.78c-4.1,0-5.5,2-4.67,6.67-4.5-6.09-9-9.46-17-9.46-16,0-28.15,17.56-28.15,45.46,0,10.66-9.17,26.91-15.6,26.91-3.58,0-7.38-6.56-7.38-23.31,0-11.43,1.58-50.31,1.58-50.31l22.44-.36c1.07,0,1.7-1.18,2.09-1.9a11.82,11.82,0,0,0,1.53-6c0-2.26-.45-3.08-3.35-3.25l-22.37-1.34.95-20.84c.07-1.32-.72-2.18-2.16-2.82C246.33,117.92,241,116.28,237.65,116.28Zm67.94,54.61c6,0,12.06,5.46,12.06,24.83,0,24.38-8.88,35.72-15.72,35.72-6.4,0-11.26-9-11.26-26.79,0-18,4.75-33.76,14.92-33.76Zm215.54,0c6,0,12,5.46,12,24.83,0,24.38-8.88,35.72-15.71,35.72-6.4,0-11.26-9-11.26-26.79,0-18,4.74-33.76,14.92-33.76ZM384.42,171c7.81,0,11.27,8.05,11.27,23.66,0,23.53-7,36.93-15.49,36.93-5.43,0-11.66-8.9-11.33-26.42,0-11.2,3.65-34.17,15.55-34.17Zm13.22,78.72V259c0,30.76-8.19,36-14.78,36-2.49,0-8.6-1.89-8.6-9.5,0-10.63,11.12-22.73,14.57-26.47l8.81-9.31Z" transform="translate(0.5 0.5)"/></svg>