<svg id="Layer_1" data-name="Layer 1" xmlns="http://www.w3.org/2000/svg" viewBox="0 0 701 401"><defs><style>.cls-1{fill:none;stroke:#000;stroke-miterlimit:10;opacity:0;}.cls-2{isolation:isolate;}.cls-3{fill:#140c0c;}.cls-4{fill:#3853c3;}</style></defs><title>Inventory</title><rect class="cls-1" x="0.5" y="0.5" width="700" height="400"/><g id="Inventory" class="cls-2"><g class="cls-2"><path class="cls-3" d="M27.58,235.15h23V339.59h-23Z" transform="translate(0.5 0.5)"/><path class="cls-3" d="M68.73,267.9H90v9.74h.29a17.72,17.72,0,0,1,3-4.13,21.34,21.34,0,0,1,4.57-3.69,26.34,26.34,0,0,1,6-2.66,25.51,25.51,0,0,1,7.38-1q8.4,0,13.57,2.58a19.65,19.65,0,0,1,8,7.16,28.89,28.89,0,0,1,3.91,10.76,81.77,81.77,0,0,1,1,13.43v39.53H115.64v-35.1q0-3.11-.22-6.42a19.84,19.84,0,0,0-1.33-6.12,10.47,10.47,0,0,0-3.39-4.58q-2.28-1.77-6.56-1.77a13.69,13.69,0,0,0-6.94,1.55,10.5,10.5,0,0,0-4,4.13,16.91,16.91,0,0,0-1.85,5.83,50.93,50.93,0,0,0-.44,6.78v35.7H68.73Z" transform="translate(0.5 0.5)"/><path class="cls-3" d="M145.88,267.9h23.9l18.15,48.68h.29L205,267.9h22.28L199,339.59H175.54Z" transform="translate(0.5 0.5)"/><path class="cls-3" d="M303.29,327.2a35.33,35.33,0,0,1-13.42,10.48,40.37,40.37,0,0,1-16.82,3.69,45.23,45.23,0,0,1-15.57-2.66,37.43,37.43,0,0,1-12.68-7.6,35.53,35.53,0,0,1-8.48-11.87,40.25,40.25,0,0,1,0-31,35.67,35.67,0,0,1,8.48-11.88,37.59,37.59,0,0,1,12.68-7.6,45.23,45.23,0,0,1,15.57-2.65A35.42,35.42,0,0,1,287,268.78a29.07,29.07,0,0,1,10.62,7.6,34.65,34.65,0,0,1,6.71,11.88,47.93,47.93,0,0,1,2.36,15.49v6.93H255.35a17.5,17.5,0,0,0,5.75,10.11A16.32,16.32,0,0,0,272,324.55a16.59,16.59,0,0,0,9.22-2.44,24.82,24.82,0,0,0,6.56-6.27Zm-18.73-31.57a12.89,12.89,0,0,0-3.69-9.59,13.15,13.15,0,0,0-9.89-4,16.74,16.74,0,0,0-6.49,1.18,16.32,16.32,0,0,0-4.79,3,13.27,13.27,0,0,0-3.1,4.27,13.9,13.9,0,0,0-1.25,5.09Z" transform="translate(0.5 0.5)"/><path class="cls-3" d="M320.11,267.9h21.24v9.74h.29a17.72,17.72,0,0,1,2.95-4.13,21.4,21.4,0,0,1,4.58-3.69,26.15,26.15,0,0,1,6.05-2.66,25.49,25.49,0,0,1,7.37-1q8.42,0,13.57,2.58a19.52,19.52,0,0,1,8,7.16,28.89,28.89,0,0,1,3.91,10.76,81.72,81.72,0,0,1,1,13.43v39.53H367v-35.1c0-2.07-.08-4.21-.22-6.42a20.13,20.13,0,0,0-1.33-6.12,9.51,9.51,0,0,0-10-6.35,13.68,13.68,0,0,0-6.93,1.55,10.53,10.53,0,0,0-4.06,4.13,16.69,16.69,0,0,0-1.84,5.83,49.27,49.27,0,0,0-.45,6.78v35.7H320.11Z" transform="translate(0.5 0.5)"/><path class="cls-3" d="M453.61,285.6H434.14v23.9a46.64,46.64,0,0,0,.29,5.39,10.87,10.87,0,0,0,1.33,4.2,6.75,6.75,0,0,0,3.17,2.73,14.07,14.07,0,0,0,5.68,1,39.61,39.61,0,0,0,4.65-.37,7.85,7.85,0,0,0,4.35-1.7v18.44a32.92,32.92,0,0,1-7.67,1.77,69.67,69.67,0,0,1-7.82.45,42.9,42.9,0,0,1-10.33-1.18,23.51,23.51,0,0,1-8.26-3.77,17.58,17.58,0,0,1-5.53-6.71,22.91,22.91,0,0,1-2-10V285.6H397.85V267.9H412V246.66h22.13V267.9h19.47Z" transform="translate(0.5 0.5)"/><path class="cls-3" d="M462.17,303.75a37.46,37.46,0,0,1,3.1-15.49,35.67,35.67,0,0,1,8.48-11.88,37.59,37.59,0,0,1,12.68-7.6,47,47,0,0,1,31.13,0,37.54,37.54,0,0,1,12.69,7.6,35.67,35.67,0,0,1,8.48,11.88,40.25,40.25,0,0,1,0,31,35.53,35.53,0,0,1-8.48,11.87,37.38,37.38,0,0,1-12.69,7.6,46.87,46.87,0,0,1-31.13,0,37.43,37.43,0,0,1-12.68-7.6,35.53,35.53,0,0,1-8.48-11.87A37.49,37.49,0,0,1,462.17,303.75Zm22.13,0q0,8.12,4.64,13.13t13.06,5q8.4,0,13-5t4.65-13.13q0-8.12-4.65-13.13t-13-5q-8.42,0-13.06,5T484.3,303.75Z" transform="translate(0.5 0.5)"/><path class="cls-3" d="M554.81,267.9h22.13v11.51h.29a27.2,27.2,0,0,1,8.41-10,21.3,21.3,0,0,1,12.25-3.32c1.27,0,2.55.05,3.83.15a18.67,18.67,0,0,1,3.54.59v20.21a34,34,0,0,0-4.65-1.11,30.71,30.71,0,0,0-4.79-.37q-6.35,0-10,1.77a13.35,13.35,0,0,0-5.68,4.94,18.74,18.74,0,0,0-2.58,7.6,72.92,72.92,0,0,0-.59,9.74v29.94H554.81Z" transform="translate(0.5 0.5)"/><path class="cls-3" d="M656.16,351.25q-2.22,5.76-4.28,10.18a24.62,24.62,0,0,1-5.24,7.45,20.45,20.45,0,0,1-8,4.57A43.55,43.55,0,0,1,625.77,375a51.65,51.65,0,0,1-16.53-2.66l3-18.14a25.46,25.46,0,0,0,10.33,2.21,19,19,0,0,0,6.05-.81,10.07,10.07,0,0,0,3.91-2.36,13.18,13.18,0,0,0,2.58-3.76c.69-1.48,1.42-3.2,2.21-5.16l1.63-4.13L607.47,267.9h23.9l18.44,47.35h.3l15.78-47.35h22.72Z" transform="translate(0.5 0.5)"/></g></g><g id="shipping-box"><path id="Path_2" data-name="Path 2" class="cls-4" d="M444.78,52.35l-85.1-23.21c-.11,0-.22,0-.33,0a1.74,1.74,0,0,0-1.38,0c-.11,0-.22,0-.33,0l-85.1,23.21a3.86,3.86,0,0,0-2.85,3.73V187.6a3.86,3.86,0,0,0,2.85,3.73l85.1,23.21a3.92,3.92,0,0,0,2,0l85.1-23.21a3.86,3.86,0,0,0,2.85-3.73V56.08A3.87,3.87,0,0,0,444.78,52.35Zm-51.32-6,23.2,6.33v63.67l-3.87,3.87-5-5a3.87,3.87,0,0,0-5.46,0l-5,5-3.9-3.87Zm-92.83,6.34,23.21-6.33v70L320,120.24l-5-5a3.88,3.88,0,0,0-5.45,0l-5,5-3.87-3.87ZM277.42,59l15.48-4.19V118a3.9,3.9,0,0,0,1.13,2.74l7.74,7.73a3.87,3.87,0,0,0,5.46,0l5-5,5,5a3.88,3.88,0,0,0,5.45,0l7.74-7.74a3.9,3.9,0,0,0,1.13-2.74V44.47c0-.07,0-.12,0-.19l23.27-6.34V205.73l-77.37-21.09ZM439.89,184.66l-77.37,21.08V37.92l23.25,6.33c0,.08,0,.13,0,.2V118a3.86,3.86,0,0,0,1.13,2.74l7.74,7.73a3.86,3.86,0,0,0,5.45,0l5-5,5,5a3.89,3.89,0,0,0,5.46,0l7.74-7.74a3.89,3.89,0,0,0,1.12-2.74V54.81L439.88,59Z" transform="translate(0.5 0.5)"/><path id="Path_3" data-name="Path 3" class="cls-4" d="M342.05,165.53l-11.6-11.61h0a4,4,0,0,0-1.26-.84,4.63,4.63,0,0,0-.84-.17,3.44,3.44,0,0,0-.64-.12,3.39,3.39,0,0,0-.84.17,4.66,4.66,0,0,0-.63.12,4.11,4.11,0,0,0-1.29.84L313.37,165.5a3.87,3.87,0,0,0,5.46,5.46l5-5v13.84a3.87,3.87,0,0,0,7.74,0h0V166l5,5a3.87,3.87,0,0,0,5.69-5.25l-.21-.21Z" transform="translate(0.5 0.5)"/><path id="Path_4" data-name="Path 4" class="cls-4" d="M396.11,168.45l-23.21,7.74a3.87,3.87,0,1,0,2.45,7.35l23.22-7.73a3.88,3.88,0,0,0-2.46-7.35h0Z" transform="translate(0.5 0.5)"/></g></svg>