<svg xmlns="http://www.w3.org/2000/svg" viewBox="0 0 128 128"> <path d="M47.6 98.1c-19.2 5.4 11.7 16.4 36.1 6-4-1.6-6.9-3.4-6.9-3.4-10.9 2.1-16 2.2-25.8 1.1-8.2-.9-3.4-3.7-3.4-3.7zm33.2-10.4c-14.4 2.8-22.8 2.7-33.4 1.6-8.2-.8-2.8-4.8-2.8-4.8-21.1 7 11.8 15 41.3 6.3-3.1-1.1-5.1-3.1-5.1-3.1zm11.3-60.6S49.4 37.8 69.8 61.3c6 6.9-1.6 13.2-1.6 13.2s15.3-7.9 8.3-17.8c-6.6-9.2-11.6-13.8 15.6-29.6zm10 81.1s3.5 2.9-3.9 5.2c-14.1 4.3-58.7 5.6-71.1.2-4.5-1.9 3.9-4.6 6.5-5.2 2.7-.6 4.3-.5 4.3-.5-5-3.5-32 6.8-13.7 9.8 49.8 8.1 90.8-3.6 77.9-9.5zM85 77.9c2.4-1.6 5.7-3.1 5.7-3.1s-9.4 1.7-18.8 2.5c-11.5 1-23.8 1.2-30 .3-14.7-2 8-7.3 8-7.3s-8.8-.6-19.6 4.6C17.5 81.1 62 84 85 77.9zM90.6 93c-.1.3-.5.6-.5.6 31.3-8.2 19.8-29 4.8-23.7-1.3.5-2 1.5-2 1.5s.8-.3 2.7-.7c7.6-1.5 18.4 10.2-5 22.3zM64.2 70.1c-4.6-10.4-20.3-19.6 0-35.6C89.5 14.6 76.5 1.6 76.5 1.6c5.2 20.6-18.5 26.8-27 39.7-5.8 8.7 2.9 18.1 14.7 28.8zm27.3 51.7c-19.2 3.6-42.9 3.2-56.9.9 0 0 2.9 2.4 17.6 3.3 22.5 1.4 57-.8 57.8-11.4 0 0-1.5 4-18.5 7.2z"></path> </svg>
