<svg xmlns="http://www.w3.org/2000/svg" viewBox="0 0 258 332.5"><path d="M177.75 254.125l1.75-1 2.75-1.75 1.5 12-1.25.75c-.125 0-.25.125-.25.125-.125.125-.375.25-.5.25l-2.875 1.625-1.125-12zm-123.375-1.5A139.76 139.76 0 0 1 45.5 244.5c-21.75-22.25-33.625-51.625-33.625-83s11.875-60.875 33.625-83c3.875-4 8-7.625 12.375-11l4.375-3.375-1.875 10.125.625 5-.875.75c-2.5 2.125-4.75 4.25-6.75 6.25-19.625 20.125-30.5 46.875-30.5 75.25s10.875 55.125 30.5 75.25c.875.875 1.75 1.75 3 2.875l.625.5 1.375 15.75-4-3.25zM212.125 222c12.125-17.875 18.5-38.75 18.5-60.5 0-28.5-10.875-55.125-30.5-75.25l-.75-.75-.875-15.75 3.875 3.375c2.125 1.875 4 3.75 5.75 5.5 21.625 22.125 33.625 51.625 33.625 83 0 22.375-6.125 44.125-17.875 62.875l-.75 1.125-6.875-.875-7.5 2.375 3.375-5.125zM87.75 59.75l-1.375-8.25 2-.75c.5-.25 1.125-.375 1.625-.625l2.75-1v7.625L92.125 61 91 61.5c-.125.125-.25.125-.375.125L87.75 62.75v-3zM114 69.375L112.25 69c-1.375-.375-2.375-1.125-3-2.25-1-1.75-.75-4.25.375-7.625 2.25-6.25 11.375-14.625 19.25-13.375 2.375.375 5.375 1.875 6.5 4.375.75 1.75.625 3.625-.375 5.5L134.25 57l-1.5-.375c-8.125-1.875-13.625 1.625-18 11.25l-.75 1.5zm13.375-19.5c-5.375 0-12 6.25-13.625 10.75v.125c3.125-4.75 8.5-10 18-8.625V52c-.375-.875-1.875-1.75-3.25-2-.5-.125-.75-.125-1.125-.125z"/><path d="M186.25 90.875c-.75 0-1.5-.125-2.125-.25-3.5-.75-5.5-3.375-5.375-7.125v-1.375l1.25-.5c1.75-.75 3.875-.875 6-1 1.125 0 2.25-.125 3.25-.25-.125-.25-.125-.375-.25-.625-1.375-3.5-2.875-7.125-2.625-12.375l.125-2.125 3.875.125.5 1.125 1.875 4.125c1.875 4.125 3.625 7.875 6 11.25l.625 1-.5 1.125c-1.375 3.75-7.5 6.875-12.625 6.875zm-3-5.75c.375 1 1 1.25 1.875 1.375 3 .625 7.75-1.375 9.5-3.375-.125-.125-.25-.375-.25-.5l-1.125.75c-1.875 1.25-4.5 1.375-6.875 1.5-1.125 0-2.25.125-3.125.25zM139.25 94c-4 0-8.625-.875-10.625-3.625-.875-1.125-1.875-3.375.125-6.75l.625-1h1.25c1.375.125 3 .375 4.5.625 2.375.5 4.75.875 6.375.375-4.375-7.5-5.875-13.125-4.5-17l1.625-4.5 2.25 4.25c.875 1.625 1.625 3.375 2.25 4.875 1.125 2.75 2.125 5.25 4 7.125.125.125.375.375.625.5 1.625 1.5 4.75 4.25 3 9.25-.625 1.875-3.875 4.375-5.75 5-1.375.625-3.5.875-5.75.875zM132 87.125c-.125.5.125.625.125.75 1.375 1.75 7.75 2.5 11.75 1.375.75-.25 2.625-1.75 3-2.375.25-.75.25-1.375.25-1.875L146 86c-3.125 3.125-7.625 2.25-11.625 1.5-.75-.125-1.625-.25-2.375-.375zM146.875 87z"/><path d="M159.75 124.875c-1.25 0-2.625-.125-4-.25l-.625-.125-.5-.5c-3.625-3.125-5-9.875-1.5-14.5L155 107l1.625 2.75c.625 1.125.875 2.375 1.125 3.5.5 2.5.875 3 1.875 3.125 5 .875 11-2 15.875-4.375 1.5-.75 2.875-1.375 4.125-1.875 1.5-2.875.5-4-1.875-6.625-.5-.625-1.125-1.125-1.625-1.875l-1.125-1.25c-6.25-7.5-14-16.75-13.625-28.125v-1l.875-.625c1.5-1 2.625-.875 3.375-.625 2 .75 2.5 3.125 2.75 4.625 0 .25.125.375.125.625 3.125 7.125 11 16.625 17 23.25.5.5 1.125 1.125 1.75 1.625 1.375 1.125 2.5 2.125 2.875 3.5.625 2.375-.25 4.75-1 6.75-.25.75-.75 1.875-.625 2.375l.25 1.375-1.125.75c-7 4.375-15.75 10-27.875 10zm-2.875-4.375c.5 0 1 .125 1.375.125a5.964 5.964 0 0 1-2-1c.25.25.375.625.625.875zm19.875-4.25c-.875.5-1.875.875-2.875 1.375 1-.5 2-.875 2.875-1.375zm-8.375-32.75c2.625 5.25 6.5 10.125 10 14.25l1.125 1.375c.5.625 1 1.125 1.5 1.625 2.5 2.625 5.5 6 2.375 11.75l1.125-.75c.125-1 .5-1.875.875-2.875.5-1.375 1.125-3 .875-4.125-.25-.375-1-1-1.5-1.375-.75-.625-1.5-1.25-2.125-2-4.75-5-10.25-11.625-14.25-17.875zM71.625 117.5L68 114.25c-2.875-2.625-3.875-8.375-3.125-13.125-.125.125-.375.25-.5.375l-3.875 2.625.625-4.625c.75-5.5 3.875-7.375 5.625-8.125 3.125-1.25 7-.375 10 2.25 3.875 3.375 5.625 8.625 4.5 14.125l-.625 2.875-2.5-1.5c-1.75-1-2.625-3-3.5-4.875-.5-1-1.25-2.75-1.75-2.875-.125 0-.25 0-.25.125-1.125 1.125-1 6.375-1 9.125v6.875zm-3.25-22.125c.25.125.5.125.75.25l2 1-.625 1.25c.75-.5 1.75-.75 2.75-.625.625 0 1.25.25 1.75.5l-.875-.875c-1.875-1.5-4.125-2.125-5.75-1.5z"/><path d="M169.5 135.75l-.25-2c-.125-1.75-.5-6.125.125-8.125l.375-1.375 1.375-.125c5.75-.5 9.875-2.75 14.25-5.125 1.75-.875 3.5-1.875 5.375-2.75l5.625-2.625-2.875 5.5c-4.25 8-10.125 16.25-22.125 16.5l-1.875.125zm3.875-7.5v3.125c5.625-.625 9.5-3.75 12.5-7.75-3.625 2-7.5 3.875-12.5 4.625z"/><path d="M165.125 136.25c-17.625 0-26.5-6.625-28.625-12.625l-2-5.25 4.875 2.625c5.25 2.75 15.125 4 28.75 3.625h1.75l.375 1.625c.5 2.25.625 4.875.625 7.375v2.5l-2 .125h-3.75zM145 127.375c5.25 3.375 13.75 4.75 21.625 4.625 0-1.125 0-2.125-.125-3.125-8.875.25-16-.25-21.5-1.5z"/><path d="M156.625 148.75c-4.25 0-8.625-.625-11.75-2.25-3.5-1.875-6-5.375-7.875-8.25-.5-.75-1.125-1.5-1.5-2.125l-.75-.75c-1.375-1.375-3.375-3.125-2.5-5.375.875-2.125 3.75-2.125 5-2.125h1.5l.5 1.375c4 10.125 17.75 9.75 31 9.25 1 0 2 0 3-.125l3.25-.125-1.125 3c-.75 2-2.5 4.375-4.875 5.375-3 1-8.375 2.125-13.875 2.125zm-13.25-9.125c1.125 1.25 2.25 2.375 3.625 3 5.5 2.875 17.125 1.75 21.5 0-8.875.375-18.375.375-25.125-3zM200.25 242.625h-.75l-3.75-.25 2.25-3.125c3.625-5.125 9.875-7.75 19-8l.5 4.25c-2.5.5-4.75 1.875-7 3.375-3.25 1.75-6.375 3.75-10.25 3.75z"/><path d="M206.125 246.625c-1.125 0-2.25 0-3.375-.125l-3.625-.25 2.125-3c3.375-5.25 14.375-3.5 19.25-1.75l-.5 4.125c-.75.125-1.5.125-2.25.25-3.625.25-7.75.75-11.625.75zM217 254.25c-5.25 0-10.5-.125-14.5-.5l-4.375-.375 3-3.25c4.5-4.875 17.75-1.625 21.375 0l-.875 4c-1.5.125-3 .125-4.625.125z"/><path d="M140.125 324.75c-12.375 0-22.375-1.375-29.75-4l-.875-.375-.375-.875c-3.125-7.75-5.75-16.875-8.375-25.625-.5-1.75-1-3.625-1.625-5.375h-2c-10.25 0-19.25-4.5-27.125-8.375-2-1-3.875-1.875-5.625-2.75-.875-.375-2-.875-3.125-1.25-3.25-1.25-6.625-2.375-8-5.375-1.125-2.375-1.125-5.625-1.125-9.375 0-1.5 0-3.125-.125-4.75l-.125-1.25c-.75-12.625-1.625-24.5-4.875-37.125-.75-3.125-2-6.25-3.25-9.5-.875-2.25-1.875-4.625-2.625-7.125-.5-1.625-1.25-3.375-1.875-5.25-1.5-4.125-3.125-8.375-3.75-12.25-1.125-7.25 4-9.75 8-11.625 1.375-.625 2.75-1.25 3.875-2.125C52.75 166.5 57.125 164 62.25 161c2-1.125 4.125-2.375 6.375-3.75.5-.375 1.375-.75 2.25-1.25 1.875-1 6.375-3.5 7.125-4.5.5-1.375-1.25-4-2.375-5.875-.625-1-1.25-1.875-1.625-2.75-1.75-3.75-2.75-7-3.125-10.5-5.875-1.375-11-5-14.5-10-5.5-8.125-9-22.625-4.375-33.5.25-.625.625-1.125 1.125-1.75.375-.375 1-1.25 1-1.625.25-1-.125-2.625-.5-4.125-.25-1.25-.5-2.5-.625-3.875-.5-16.125 3.375-26.5 11.75-30.75 3.625-12.625 14.125-18.375 24.25-24 2-1.125 4-2.125 5.875-3.375 4.25-2.5 8.875-4.25 13.75-6l1.75-.625c7.75-2.875 17.25-4.375 26.875-4.375 15.625 0 30 4 39.125 11 6.375 4.75 17.625 15.875 21.875 24.25 4.875 9.875 7.625 23.375 7.875 39 .25 14.25-1.75 29.125-5.375 42l-.125.25c-1 3.25-2.375 8.25-4.25 12.375-.375.875-1.125 2-1.75 3.125-1 1.75-3.125 5.25-3 6.375.5 1.375 6 6 8.125 7.75 1.25 1 2.125 1.75 2.625 2.25.75.75 1.75 1.625 2.875 2.5 3.75 3.125 7.875 6.75 8.375 10.75s-1 8.875-2.5 13c-.375 1-.625 1.875-.875 2.75-3.5 11.5-7.25 23.75-11.625 36 6.125-2.75 13-5.25 19.25-5.25 6.625 0 11.625 3 14.125 8.5 2.5 5.25 5.25 13.875 6.375 19 1.75 7.375-1.625 24.5-10.75 27.5-3.5 1.125-7.5 1.75-11.75 1.75-3.625 0-7.5-.375-11.625-1.25l-.5-.125-.375-.375a13.342 13.342 0 0 1-2.625-3.125h-1c-4.5 0-8.125.625-11 1.875-.25 3.875-3.125 5.25-5.375 6-.5 3.375.5 7.5 1.5 11.375 1 4.25 2.125 8.75 1.375 12.5-1.125 5.875-7.25 7.25-11.875 8.125 0 1.75.25 3.375.5 5l.125.875-.125.375c-1.375 5.125-7.125 7.625-12 8.125-5.5 1.375-13.625 2.125-22.75 2.125zM116 310.125c8.5 2.5 18 3.75 27.25 3.75 7.625 0 14.875-.875 21.125-2.625-1.375-7.5-1.625-15.75-1.75-23.625-.125-6.125-.375-12.375-1-18.125-.5-4.875-.75-9.75-.875-14.5-.25-5.25-.375-10.75-1.125-16.125-5.25-1-11.5-1.5-18.375-1.5-15 0-30.375 2.25-39.25 3.875 3 27 7.25 47.875 14 68.875zm53.875-31.25c0 4.375.25 10.125.625 15.25.125 1.625.25 3.25.25 4.625 2.125-.25 3.5-.625 5.25-1.375h.125c0-4.25-1-8.5-1.875-12.625-.5-2.125-1-4.375-1.375-6.625-.375.125-.75.25-1.25.375s-1.125.25-1.75.375zM62.75 263.125c2.625 1.25 5.25 2.75 7.875 4 8.5 4.5 17.25 9.125 28.5 10.375-1.75-12.25-3.375-24-4.5-35.875-.875-.125-1.75-.25-3-.25s-2.5.125-3.75.25-2.5.25-3.75.25c-.875 0-1.625 0-2.375-.125l-1.75-.5v-1.75c0-4.5 3.625-5.125 5.375-5.5.375-.125 1-.25 1.25-.25l-.5-.5c-.875-1-2.625-2.875-1.625-6.25l.625-2.125 2.125.75c1.75.625 3.125 1.625 4.25 2.5.625.5 1.25.875 1.875 1.25.875-3.875.375-9.25 0-13.75-.25-3.125-.625-5.75-.375-7.875.5-5.875 2.75-7.125 4.5-7.125.375 0 .875.125 1.25.25 2.75 1 2.625 4.875 1.875 12.75-.25 2.625-.5 5.5-.375 7.25v4c0 2.5 0 4.875.5 6.5 13.75-1.875 27-3.125 40.5-3.75a66.743 66.743 0 0 1-5.125-2.625c-.625-.375-1.75-.875-3-1.5-5.625-2.625-9.625-4.625-10.375-7.25-1-3.125.375-5.5 1.75-7.375-5.625-.25-7.5-6.5-9-11.625-.125-.625-.375-1.25-.5-1.875-1.625-5.125-2.625-9.25-3.125-12.5l-1.25-.625c-6.625-3.125-13.5-6.375-19.125-10.375-.625-.375-1.375-1.375-3.5-3.875-1.5-1.75-4-4.625-5.25-5.875-13 5.25-25.125 14.125-35.625 22.125 9.25 21.125 14.625 47.625 15.625 78.875zm105.125-24.25c-.125 10.375.5 20.5 1.25 30 2.625-.375 4.75-.75 7.125-1.25-.375-3.25-.625-6.5-.75-9.75-.5-6.75-1-13.625-2.375-19.5-1.875 0-3.5.125-5.25.5zm16-1.5c.375 3.5 1 7.125 1.625 11 .75 4.625 1.5 9.375 2 14 .625-.125 1.25-.375 2-.625.375-.125.875-.375 1.375-.5 0-5.875-.5-16.875-4.125-23.875h-2.875zm28.75 21.75c3.5 0 6.25.5 8.5 1.5l3.5 1.5c3.125-2.875 4.75-8.125 3.625-13.25l-.25-1.125c-1.125-5.125-3.25-14.625-5.125-17.5-1.125-1.625-3.5-3.5-5.625-3.5-.625 0-1.125.125-1.625.5-2.875 1.875-6.5 3-10 4.25-3.75 1.25-7.5 2.5-9.875 4.375 1.75 6.375 2.375 14.25 3.125 21.875.125.75.125 1.5.25 2.25h.125c2.125 0 4.375-.125 6.5-.375 2.375-.25 4.625-.5 6.875-.5zM188 190.625c.25.625.75 1.125 1.375 1.625.875.875 1.75 1.875 2.375 3.25l.375 1-.5.875A523.64 523.64 0 0 1 180.5 216c-2.125 3.375-4.25 6.875-6.375 10.375 1.5-.125 3-.125 4.625-.25 2.75 0 5.375 0 7.75-1 .875-.375 2.375-4.25 3.25-6.25.25-.75.5-1.375.875-2.125 3.875-9.375 8.75-23.125 10.875-33.75.125-.375.25-1 .375-1.625.5-2 1.25-5.75 1.125-7.125-.25-1.875-2.875-3.875-5-5.5-.875-.625-1.625-1.25-2.375-1.875-2-1.75-3.75-3.5-5.375-5.125-1.75-1.75-3.5-3.5-5.5-5.25-.75.75-1.5 1.375-2.25 2 1.375.625 2.875 1.75 4.25 4 4.125 7.25 4.125 21.375 1.25 28.125zm-55.625 21c8.75 4.875 17.25 8.75 25 11.5V223c-3.5-8.375-7.125-17.125-12.25-24.125H145c-5.5 3.75-10.75 7.125-12.625 12.75zM152 193c4.25 5.625 7.25 12.5 10 19.125 1 2.25 2 4.625 3 6.875 1.125-5.875 1.375-12.125 1.625-18.625.125-1.875.125-3.75.25-5.625-2-.5-3.625-1.625-4.875-2.5-1-.75-1.875-1.375-2.625-1.5-.5 0-1.25.375-2 .75-1.125.5-2.5 1.25-4.25 1.25-.375 0-.625 0-1-.125 0 .125-.125.375-.125.375zm22.375 1.75c-.25 5.75-.875 14.125-2.125 21.75 3.125-4.875 6.125-10 9-15 .625-1.125 1.375-2.375 2-3.5-1.5-1.875-3.875-3.625-6.625-3.625-.625 0-1.375.125-2.25.375zm-51.75-24.5c-.625 0-1 .125-1.25.5-2 2.125-1.625 8.875-1.5 12.875V184c.125 3.5 1.625 7.375 2.875 10.5.375 1 .75 2 1 2.875l.375 1.125.375 1.125c2.25 0 8.625-2.375 10.875-3.625 2.625-1.5 5-3.5 7.375-5.375l4.125-3.375v-1.625c-2.125-.875-4.25-1.375-6.75-1.5L132 183.75l7.25-3.625c1.375-.625 2.875-1 4.25-1.375h.25c-1.125-.5-2-1.125-2.75-1.625-.625-.375-1.125-.75-1.75-1.125-3.875-2.125-10.25-4.75-15.875-5.75h-.75zm42.75 14.875c4.625 1.125 9.75 1.875 15.625 2 .625-1.375.875-3.75.75-6.25-.25-6-1.75-11.5-2.75-12.125-.375-.25-.875-.375-1.375-.375-2.75 0-6.875 2.75-10.125 5-1.25.875-2.375 1.625-3.375 2.125 0 .125.125.25.125.375h.625c2 0 4.125.5 5.875 1.25l6.5 3.25-7.25.75c-.5 0-1 .125-1.5.125-1.25.125-2.5.25-3.375.5v1.5c.25.75.25 1.25.25 1.875zM104 170.625c2.25 1.125 5.125 2.125 7.375 2.625.125-.5.25-1 .375-1.375 0-.125.125-.375.125-.5-1-.125-2.125-.25-3.375-.25-1.5-.25-3-.375-4.5-.5zm52.75-.125c-.75.125-1.5.375-2.125.5h1.625c.125-.25.375-.375.5-.5zm-72.125-53.75l.625 1.125c2.125 4.25-.625 6.875-2.25 8.5-.75.75-1.5 1.5-1.625 2.125 0 .5.375 3 .875 4.875 1.875 7.625 5.875 17 9.625 22.375 4.25 6.125 12.875 7.375 23 8.125 1.125-1.375 3-2.75 6.375-3.25-2.875-2.375-5.625-5.25-8.125-8.125-4.375-4.75-10.375-11.375-10.625-19.5l-.25-7 5 6.875c8.625 12 16.125 22.375 31.75 27.625 2.5.875 5.375 1.25 8.25 1.25 11.875 0 23-6.875 27.125-9.875 2.875-2 4.875-5.125 7-8.375.625-.875 1.125-1.75 1.75-2.625 10.125-14.5 15.375-36.125 14.375-57.75 0-1.125-.125-2.375-.125-3.5-.375-7.5-.625-14.5-3-19.25-1.75-3.5-6.875-7.25-11.625-7.25-1.875 0-3.5.625-4.75 1.75l-2.875 2.625-.75-3.75c-.5-2.625.125-5.125 1.75-7.125 1.75-2.125 4.75-3.5 8-3.625-4.25-5.625-8.75-11.25-14.375-14.5-9.5-5.375-22.125-8.75-32.25-8.75-5.625 0-10.375 1-14.25 2.875-15.5 7.75-25.75 16.125-29.875 24.5 2.875 7.625 1.25 14.75-.25 21.625-.875 3.625-1.625 7.5-1.75 11.25-.125 2.875.625 5.625 1.375 8.5s1.5 5.875 1.625 9.25v.625l-.375.5c-1.5 2.5-5.125 3.875-10.375 3.875H82l-1.625-.125L80 101c-1.5-7.5-3.75-11-7.375-11.375-.375 0-.875-.125-1.25-.125-6.75 0-11.125 6-11.5 11.5-.25 5.125 2.375 12.125 6.25 16.125 1.625 1.625 4.125 3.625 7.375 3.625h.75c1.125-.125 1.875-.75 3-1.625 1.375-1.125 3.25-2.625 6.125-2.625l1.25.25zM70.75 79.625c4.75 0 9.25 1.875 12.5 5.125.375.375.75.75 1 1.125-1.375-6-.375-12.125.625-18.125 1-5.875 1.875-11.5.375-16.5-7 .875-13.125 3.875-17.5 8.875-4.25 4.625-4 13.5-3.375 20.75 2-.875 4.25-1.25 6.375-1.25zm29.75-52.25c-9.125 3.5-18.5 9.5-23.75 16.25 1.75-.625 3.625-1.25 5.875-1.375H83c.625 0 1.375.125 2 .125.625.125 1.125.125 1.625.125.25 0 .5 0 .75-.125 1.25-.375 3.25-3.75 4.625-6 1-1.75 2-3.5 3.125-4.625 1.375-1.5 2.875-2.625 4.125-3.5.375-.25.75-.5 1.25-.875z"/><path d="M161.375 202.125c-2.375 0-4.375-2-4.375-4.375s2-4.375 4.375-4.375 4.375 2 4.375 4.375-2 4.375-4.375 4.375zm0-4.625c-.125 0-.125.125-.125.125 0 .125.375.125.375 0-.125 0-.125-.125-.25-.125zM163.625 212.75c-2.375 0-4.375-2-4.375-4.375s2-4.375 4.375-4.375 4.375 2 4.375 4.375c.125 2.375-1.875 4.375-4.375 4.375zm0-4.625c-.125 0-.125.125-.125.125 0 .125.375.125.375 0-.125 0-.125-.125-.25-.125z"/></svg>