<svg width="700" height="400" viewBox="0 0 700 400" version="1.1" xmlns="http://www.w3.org/2000/svg" xmlns:xlink="http://www.w3.org/1999/xlink">
<title>Frame 2</title>
<desc>Created using Figma</desc>
<g id="Canvas" transform="translate(-2048 496)">
<clipPath id="clip-0" clip-rule="evenodd">
<path d="M 2048 -496L 2748 -496L 2748 -96L 2048 -96L 2048 -496Z" fill="#FFFFFF"/>
</clipPath>
<g id="Frame 2" clip-path="url(#clip-0)">
<path d="M 2048 -496L 2748 -496L 2748 -96L 2048 -96L 2048 -496Z" fill="#FFFFFF"/>
<g id="Group 2">
<g id="opla">
<use xlink:href="#path0_fill" transform="translate(2271.39 -437)" fill="#27AE60"/>
</g>
<g id="Group 2.1">
<g id=".">
<use xlink:href="#path1_fill" transform="translate(2252.79 -392.333)" fill="#27AE60"/>
</g>
<g id="Line 2.1">
<use xlink:href="#path2_stroke" transform="matrix(1 -2.4509e-16 2.44769e-16 1 2580.13 -176.444)" fill="#FFFFFF"/>
</g>
<g id="K">
<use xlink:href="#path3_fill" transform="translate(2104 -429.556)" fill="#27AE60"/>
</g>
</g>
</g>
<g id="Line">
<use xlink:href="#path4_stroke" transform="translate(2585 -188)" fill="#27AE60"/>
</g>
</g>
</g>
<defs>
<path id="path0_fill" d="M 5.2114 171.801C 5.2114 154.778 9.98851 141.315 19.5427 131.413C 29.097 121.511 41.2569 116.561 56.0225 116.561C 70.6144 116.561 82.2532 121.251 90.9389 130.631C 99.7983 139.838 104.228 152.78 104.228 169.456C 104.228 186.828 99.5377 200.638 90.1572 210.887C 80.9504 220.962 68.8773 226 53.938 226C 39.3461 226 27.5336 221.136 18.5005 211.408C 9.64109 201.68 5.2114 188.478 5.2114 171.801ZM 22.1484 169.456C 22.1484 183.353 25.0147 193.863 30.7473 200.985C 36.4798 208.108 44.7312 211.669 55.5014 211.669C 65.7505 211.669 73.5676 208.281 78.9527 201.506C 84.5115 194.732 87.2909 184.656 87.2909 171.28C 87.2909 157.731 84.5115 147.655 78.9527 141.054C 73.5676 134.279 65.3162 130.892 54.1985 130.892C 44.2969 130.892 36.4798 134.019 30.7473 140.272C 25.0147 146.352 22.1484 156.08 22.1484 169.456ZM 171.946 258.571L 171.946 272.903L 125.043 272.903L 125.043 258.571L 140.677 258.571L 140.677 130.892L 125.043 130.892L 125.043 116.561L 155.269 116.561L 156.311 129.068L 157.354 129.068C 166.387 120.73 176.288 116.561 187.059 116.561C 199.566 116.561 209.728 121.511 217.545 131.413C 225.362 141.141 229.271 153.735 229.271 169.196C 229.271 186.046 224.668 199.769 215.461 210.366C 206.428 220.789 194.789 226 180.544 226C 172.38 226 164.476 224.35 156.833 221.049L 156.311 221.31L 156.311 258.571L 171.946 258.571ZM 156.311 207.239C 162.739 210.192 170.122 211.669 178.46 211.669C 189.23 211.669 197.568 208.542 203.475 202.288C 209.381 195.861 212.334 185.699 212.334 171.801C 212.334 158.773 209.641 148.698 204.256 141.575C 199.045 134.453 191.749 130.892 182.368 130.892C 173.162 130.892 164.476 135.322 156.311 144.181L 156.311 207.239ZM 250.086 211.669L 265.72 211.669L 265.72 83.9894L 250.086 83.9894L 250.086 69.658L 281.354 69.658L 281.354 211.669L 296.989 211.669L 296.989 226L 250.086 226L 250.086 211.669ZM 317.819 125.681C 330.847 119.601 344.137 116.561 357.686 116.561C 369.499 116.561 378.358 119.253 384.264 124.638C 390.344 130.023 393.384 138.709 393.384 150.695L 393.384 211.669L 409.018 211.669L 409.018 226L 378.792 226L 377.75 210.105L 376.968 210.105C 367.588 220.702 356.47 226 343.615 226C 333.193 226 325.202 223.394 319.643 218.183C 314.084 212.798 311.305 205.415 311.305 196.034C 311.305 172.757 329.805 161.118 366.806 161.118L 377.75 161.118L 377.75 150.174C 377.75 143.92 375.926 139.143 372.278 135.843C 368.804 132.542 363.158 130.892 355.341 130.892C 343.876 130.892 331.369 133.932 317.819 140.012L 317.819 125.681ZM 364.2 175.449C 340.228 175.449 328.242 181.964 328.242 194.992C 328.242 200.551 329.805 204.72 332.932 207.5C 336.233 210.279 340.923 211.669 347.003 211.669C 358.12 211.669 368.37 206.37 377.75 195.774L 377.75 175.449L 364.2 175.449Z"/>
<path id="path1_fill" d="M 56.99 126.637C 56.99 121.294 58.437 117.064 61.3311 113.948C 64.4479 110.831 68.6777 109.272 74.0207 109.272C 79.1411 109.272 83.1483 110.831 86.0424 113.948C 89.1591 116.842 90.7175 120.849 90.7175 125.969C 90.7175 131.312 89.1591 135.542 86.0424 138.659C 82.9257 141.553 78.6958 143 73.3528 143C 68.2325 143 64.2252 141.553 61.3311 138.659C 58.437 135.542 56.99 131.535 56.99 126.637Z"/>
<path id="path2_stroke" d="M 0 0L 96.7143 0L 96.7143 -14.884L 0 -14.884L 0 0Z"/>
<path id="path3_fill" d="M 171.739 230.322L 171.739 250L 107.337 250L 107.337 230.322L 122.721 230.322L 46.5125 153.039L 125.942 76.4725L 107.337 76.4725L 107.337 56.7942L 171.739 56.7942L 171.739 76.4725L 152.418 76.4725L 74.7778 151.25L 152.776 230.322L 171.739 230.322ZM 0 230.322L 21.4673 230.322L 21.4673 76.4725L 0 76.4725L 0 56.7942L 64.4019 56.7942L 64.4019 76.4725L 42.9346 76.4725L 42.9346 230.322L 64.4019 230.322L 64.4019 250L 0 250L 0 230.322Z"/>
<path id="path4_stroke" d="M 0 0L 94 0L 94 -10L 0 -10L 0 0Z"/>
</defs>
</svg>
