<?xml version="1.0" encoding="UTF-8"?>
<svg width="108px" height="108px" viewBox="0 0 108 108" version="1.1" xmlns="http://www.w3.org/2000/svg" xmlns:xlink="http://www.w3.org/1999/xlink">
    <!-- Generator: Sketch 52.6 (67491) - http://www.bohemiancoding.com/sketch -->
    <title>icons8-kotlin</title>
    <desc>Created with Sketch.</desc>
    <g id="Page-1" stroke="none" stroke-width="1" fill="none" fill-rule="evenodd">
        <g id="icons8-kotlin" fill="#000000" fill-rule="nonzero">
            <path d="M2.57145547,1.14194077e-15 C1.15134474,0.000141988537 0.000153022726,1.15132366 1.10329502e-05,2.571422 L1.10329502e-05,51.4284401 L1.10329502e-05,105.428302 C-3.67765007e-06,105.433324 -3.67765007e-06,105.438346 1.10329502e-05,105.443368 C0.00198019209,105.492003 0.00532973355,105.540572 0.0100556092,105.589016 C0.012378274,105.630944 0.0157275562,105.672809 0.0201004426,105.714573 C0.0217148593,105.724628 0.0233889849,105.734673 0.0251227308,105.744708 C0.0333348112,105.82221 0.0450657631,105.899298 0.060279262,105.975735 C0.0757040697,106.046796 0.0941359473,106.117172 0.115525203,106.186671 C0.129503637,106.228907 0.144575746,106.270774 0.16072631,106.312228 C0.179225731,106.363073 0.199325145,106.413322 0.220994539,106.462898 C0.25440749,106.536582 0.291279042,106.608649 0.331486164,106.678857 C0.353829246,106.719664 0.377275562,106.759857 0.401799227,106.799392 C0.419591809,106.829902 0.43801103,106.860042 0.457045168,106.889793 C0.489124343,106.934382 0.522623877,106.977931 0.557492216,107.020375 C0.577108785,107.045861 0.59720173,107.070977 0.617760445,107.09571 C0.651737524,107.135274 0.686910235,107.173795 0.723229782,107.211221 C0.744554112,107.235062 0.766321406,107.258504 0.788520299,107.281534 C0.843293679,107.332545 0.900267958,107.38114 0.95928041,107.427182 C0.964281872,107.432224 0.969304203,107.437246 0.974347274,107.442248 C1.03269893,107.488368 1.09302396,107.531936 1.15515222,107.572827 C1.16680045,107.581296 1.17851962,107.589667 1.19030849,107.597939 C1.1986504,107.603009 1.2070211,107.608031 1.21542019,107.613005 C1.27751695,107.650844 1.34119068,107.686032 1.40626971,107.718475 C1.48313515,107.757567 1.56191823,107.792768 1.64232034,107.823944 C1.69361298,107.844022 1.74553742,107.862446 1.79801333,107.879189 C1.83461561,107.890053 1.87145528,107.9001 1.90850495,107.909323 C1.91352215,107.911013 1.91854454,107.912687 1.92357207,107.914345 C1.99322179,107.932356 2.06359658,107.947436 2.13451075,107.959546 C2.18619187,107.967825 2.23811372,107.974525 2.29020374,107.979636 C2.33693204,107.985946 2.38382506,107.99097 2.4308296,107.994702 C2.44757042,107.994866 2.46431244,107.994866 2.48105326,107.994702 C2.51115552,107.996907 2.54129426,107.998581 2.57145547,107.999724 C2.59656591,108.000092 2.62168039,108.000092 2.64679082,107.999724 L105.429233,107.999724 C106.469042,107.999316 107.406291,107.37279 107.804187,106.412131 C108.202084,105.451472 107.982324,104.345733 107.247324,103.610227 L57.6365261,53.9998621 L107.247324,4.38949759 C107.982324,3.65399174 108.202084,2.54825198 107.804188,1.58759278 C107.406291,0.626933581 106.469042,0.000408206638 105.429233,0 L51.4288998,1.14194077e-15 L2.57145547,1.14194077e-15 Z M5.14289991,5.14284401 L45.2212735,5.14284401 L5.14289991,45.2208679 L5.14289991,5.14284401 Z M52.4936372,5.14284401 L99.2216067,5.14284401 L52.1822533,52.181787 L5.14289991,99.22073 L5.14289991,52.4931682 L52.4936372,5.14284401 Z M54.0003443,57.6360122 L99.2216067,102.85688 L8.77908306,102.85688 L54.0003443,57.6360122 Z" id="Shape"></path>
        </g>
    </g>
</svg>