<svg id="Layer_1" data-name="Layer 1" xmlns="http://www.w3.org/2000/svg" viewBox="0 0 505.52 304.92"><title>minimo</title><path d="M353.14,197.17a80,80,0,1,1,80-80A80.09,80.09,0,0,1,353.14,197.17Z" transform="translate(-106.16 -33)" style="fill:none"/><path d="M353.14,41.18a76,76,0,1,1-76,76,76.1,76.1,0,0,1,76-76m0-8.18a84.13,84.13,0,1,0,84.13,84.13A84.08,84.08,0,0,0,353.14,33Z" transform="translate(-106.16 -33)"/><path d="M400.7,148.79H386.21V114.44c0-6.54-.93-11.33-2.8-14.26s-5-4.44-9.58-4.44c-3.74,0-7,1.87-9.58,5.61a22.29,22.29,0,0,0-4,13.44v34H345.78V113.27q0-17.53-12.62-17.53a11.32,11.32,0,0,0-9.58,5.26c-2.57,3.51-3.74,8.06-3.74,13.67v34H305.35V85.81h14.49v9.93h.23c4.56-7.6,11.33-11.45,20.1-11.45a18.7,18.7,0,0,1,11.57,3.62,17.9,17.9,0,0,1,6.78,9.46c4.67-8.65,11.68-13,21.15-13q21,0,21,25.59Z" transform="translate(-106.16 -33)"/><path d="M223.52,336H205.73V293.23q0-12.34-3.49-17.86t-11.77-5.52q-7,0-11.84,7a28.46,28.46,0,0,0-4.87,16.71V336H155.91V291.78q0-21.92-15.48-21.92-7.21,0-11.84,6.59t-4.64,17.09V336H106.16V257.51h17.78v12.42h.31q8.51-14.26,24.76-14.26a23.35,23.35,0,0,1,14.22,4.48,22.34,22.34,0,0,1,8.32,11.77q8.74-16.25,26.06-16.25,25.91,0,25.91,32Z" transform="translate(-106.16 -33)"/><path d="M254.18,241a10.69,10.69,0,0,1-7.47-2.84,9.33,9.33,0,0,1-3.1-7.21,9.57,9.57,0,0,1,3.1-7.28,10.53,10.53,0,0,1,7.47-2.91,10.87,10.87,0,0,1,7.67,2.91A9.52,9.52,0,0,1,265,231a9.38,9.38,0,0,1-3.14,7.09A10.78,10.78,0,0,1,254.18,241ZM263,336H245.21V257.51H263Z" transform="translate(-106.16 -33)"/><path d="M352.52,336H340V291.24q0-25-18.24-25a19.79,19.79,0,0,0-15.6,7.09q-6.17,7.09-6.17,17.9V336H287.37V257.51h12.57v13h.31q8.89-14.87,25.75-14.87,12.88,0,19.7,8.32t6.82,24Z" transform="translate(-106.16 -33)"/><path d="M382.65,237.58a8,8,0,0,1-5.75-2.3,7.76,7.76,0,0,1-2.38-5.83,8.05,8.05,0,0,1,8.13-8.2,8.12,8.12,0,0,1,5.86,2.34,8.19,8.19,0,0,1,0,11.61A8,8,0,0,1,382.65,237.58ZM388.78,336H376.21V257.51h12.57Z" transform="translate(-106.16 -33)"/><path d="M512.5,336V288.79q0-14.79-4.64-20.77t-14.68-6q-9.28,0-16,8t-6.75,20v46h-7.05V288.25q0-26.22-19.93-26.22-9.58,0-15.94,8t-6.36,20.73V336h-7.05V257.51h7.05v13h.31q8.2-14.95,24-14.95a22.56,22.56,0,0,1,14.68,4.94,24.31,24.31,0,0,1,8.24,13,30,30,0,0,1,10.54-13.22,25.79,25.79,0,0,1,14.91-4.71q25.76,0,25.76,31.89V336Z" transform="translate(-106.16 -33)"/><path d="M574.58,337.92q-17.17,0-27.17-11.31t-10-29.4q0-19.55,10.46-30.58t27.56-11q16.79,0,26.52,11t9.73,30.35q0,18.32-9.93,29.66T574.58,337.92Zm.54-75.89q-13.87,0-22.11,9.35t-8.24,26q0,15.41,8,24.76t22,9.35q14.18,0,21.85-9.2t7.67-25.53q0-16.79-7.63-25.75T575.12,262Z" transform="translate(-106.16 -33)"/></svg>
