<?xml version="1.0" encoding="utf-8"?>
<!-- Generator: Adobe Illustrator 21.0.0, SVG Export Plug-In . SVG Version: 6.00 Build 0)  -->
<svg version="1.1" id="Layer_1" xmlns="http://www.w3.org/2000/svg" xmlns:xlink="http://www.w3.org/1999/xlink" x="0px" y="0px"
	 viewBox="0 0 505.5 100" style="enable-background:new 0 0 505.5 100;" xml:space="preserve">
<style type="text/css">
	.st0{fill:none;}
</style>
<title>minimo</title>
<g>
	<path class="st0" d="M71.4,91.1C49,91.1,30.8,73,30.8,50.6S49,10,71.4,10s40.5,18.2,40.5,40.5C111.9,73,93.7,91.1,71.4,91.1z"/>
	<path d="M71.4,12.1c21.3,0,38.5,17.2,38.5,38.5S92.6,89.1,71.4,89.1S32.8,71.9,32.8,50.6C32.9,29.3,50.1,12.1,71.4,12.1 M71.4,7.9
		C47.8,7.9,28.7,27,28.7,50.6s19.1,42.6,42.6,42.6S114,74.1,114,50.6C114,27,94.9,7.9,71.4,7.9C71.4,7.9,71.4,7.9,71.4,7.9z"/>
	<path d="M95.5,66.6h-7.3V49.2c0-3.3-0.5-5.7-1.4-7.2s-2.5-2.3-4.9-2.3c-1.9,0-3.5,0.9-4.9,2.8c-1.4,2-2.1,4.4-2,6.8v17.2h-7.3v-18
		c0-5.9-2.1-8.9-6.4-8.9c-2,0-3.8,1-4.9,2.7c-1.3,1.8-1.9,4.1-1.9,6.9v17.2h-7.3V34.7h7.3v5h0.1c2.3-3.9,5.7-5.8,10.2-5.8
		c2.1-0.1,4.2,0.6,5.9,1.8c1.6,1.2,2.9,2.9,3.4,4.8C76.5,36.2,80,34,84.8,34c7.1,0,10.6,4.3,10.6,13L95.5,66.6z"/>
</g>
<g>
	<path d="M220.5,83.4h-11.3V56.3c0-5.2-0.7-9-2.2-11.3c-1.5-2.3-4-3.5-7.5-3.5c-3,0-5.5,1.5-7.5,4.4c-2.1,3.1-3.2,6.8-3.1,10.6v26.9
		h-11.3V55.3c0-9.3-3.3-13.9-9.8-13.9c-3,0-5.6,1.4-7.5,4.2c-2,2.8-2.9,6.4-2.9,10.8v26.9H146V33.6h11.3v7.9h0.2c3.6-6,8.8-9,15.7-9
		c3.2-0.1,6.4,0.9,9,2.8c2.5,1.8,4.4,4.5,5.3,7.5c3.7-6.9,9.2-10.3,16.5-10.3c11,0,16.4,6.8,16.4,20.3L220.5,83.4z"/>
	<path d="M239.9,23.1c-1.8,0-3.5-0.6-4.7-1.8c-1.3-1.2-2-2.8-2-4.6c0-1.8,0.7-3.4,2-4.6c1.3-1.2,3-1.9,4.7-1.8
		c1.8,0,3.5,0.6,4.9,1.8c1.3,1.2,2,2.9,2,4.6c0,1.7-0.7,3.4-2,4.5C243.5,22.5,241.7,23.2,239.9,23.1z M245.5,83.4h-11.3V33.6h11.3
		V83.4z"/>
	<path d="M302.3,83.4h-7.9V55c0-10.6-3.9-15.9-11.6-15.9c-3.8-0.1-7.5,1.6-9.9,4.5c-2.6,3-3.9,6.8-3.9,11.4v28.4h-8V33.6h8v8.2h0.2
		c3.8-6.3,9.2-9.4,16.3-9.4c5.4,0,9.6,1.8,12.5,5.3s4.3,8.6,4.3,15.2L302.3,83.4z"/>
	<path d="M321.4,21c-1.4,0-2.7-0.5-3.6-1.5c-1-1-1.6-2.3-1.5-3.7c-0.1-2.8,2.2-5.1,5-5.2c0,0,0.1,0,0.1,0c1.4,0,2.7,0.5,3.7,1.5
		c2,2,2,5.3,0,7.3c0,0,0,0,0,0C324.1,20.4,322.8,21,321.4,21z M325.3,83.4h-8V33.6h8V83.4z"/>
	<path d="M403.8,83.4V53.4c0-6.3-1-10.6-2.9-13.2s-5.1-3.8-9.3-3.8c-3.9,0-7.3,1.7-10.1,5.1s-4.3,7.6-4.3,12.7v29.2h-4.5V53.1
		c0-11.1-4.2-16.6-12.6-16.6c-4.1,0-7.4,1.7-10.1,5.1c-2.7,3.4-4,7.8-4,13.2v28.7h-4.5V33.6h4.5v8.2h0.2c3.5-6.3,8.5-9.5,15.2-9.5
		c3.4-0.1,6.7,1,9.3,3.1c2.6,2.1,4.4,5,5.2,8.2c1.4-3.4,3.7-6.3,6.7-8.4c2.8-2,6.1-3,9.5-3c10.9,0,16.3,6.7,16.3,20.2v30.8H403.8z"
		/>
	<path d="M443.2,84.6c-7.3,0-13-2.4-17.2-7.2c-4.2-4.8-6.3-11-6.3-18.7c0-8.3,2.2-14.7,6.6-19.4c4.4-4.7,10.3-7,17.5-7
		c7.1,0,12.7,2.3,16.8,7c4.1,4.7,6.2,11.1,6.2,19.3c0,7.7-2.1,14-6.3,18.8C456.2,82.2,450.4,84.6,443.2,84.6z M443.5,36.5
		c-5.9,0-10.5,2-14,5.9s-5.2,9.5-5.2,16.5c0,6.5,1.7,11.8,5.1,15.7c3.4,4,8,5.9,14,5.9c6,0,10.6-1.9,13.9-5.8
		c3.2-3.9,4.9-9.3,4.9-16.2c0-7.1-1.6-12.5-4.8-16.3C453.9,38.4,449.4,36.5,443.5,36.5L443.5,36.5z"/>
</g>
</svg>
