<svg id="Layer_1" data-name="Layer 1" xmlns="http://www.w3.org/2000/svg" viewBox="0 0 701 401"><defs><style>.cls-1{fill:none;stroke:#000;stroke-miterlimit:10;opacity:0;}.cls-2{fill:#b4d9ff;}.cls-3{isolation:isolate;}.cls-4{fill:#05386b;}</style></defs><title>MLab</title><rect class="cls-1" x="0.5" y="0.5" width="700" height="400"/><g id="Group_221" data-name="Group 221"><g id="Group_220" data-name="Group 220"><g id="chip"><g id="Group_175" data-name="Group 175"><g id="Group_174" data-name="Group 174"><path id="Path_80" data-name="Path 80" class="cls-2" d="M201.54,200.81H162v-5.58H172.7a2.46,2.46,0,0,0,0-4.91H162v-5.58h7.4a10.26,10.26,0,0,0,7.3-3l16.13-16.13a7.69,7.69,0,1,0-3.47-3.47l-16.13,16.13a5.4,5.4,0,0,1-3.83,1.59H162v-5.41a13,13,0,0,0-12.94-12.95h-5.41V139.76a7.69,7.69,0,1,0-4.91,0v21.71H133.2V150.82a2.46,2.46,0,1,0-4.91,0v10.65h-5.58V122a2.46,2.46,0,0,0-4.91,0v39.5h-5.58V150.82a2.46,2.46,0,1,0-4.91,0v10.65h-5.58v-7.39a10.25,10.25,0,0,0-3-7.3L82.57,130.64a7.7,7.7,0,1,0-3.47,3.47l16.14,16.14a5.34,5.34,0,0,1,1.58,3.83v7.39H91.41a13,13,0,0,0-3.23.41,2.45,2.45,0,1,0,1.14,4.77l.08,0a8.51,8.51,0,0,1,2-.25H149.1a8,8,0,0,1,8,8V232.1a8,8,0,0,1-.25,2,2.45,2.45,0,1,0,4.75,1.22,13,13,0,0,0,.41-3.23v-5.41h21.72a7.7,7.7,0,1,0,0-4.91H162V216.2H172.7a2.46,2.46,0,0,0,0-4.91H162v-5.58h39.5a2.45,2.45,0,1,0,0-4.9Zm-7.22-44.1a2.79,2.79,0,1,1,0,3.95,2.83,2.83,0,0,1-.81-2A2.74,2.74,0,0,1,194.32,156.71ZM77.65,129.19a2.79,2.79,0,1,1,0-4A2.78,2.78,0,0,1,77.65,129.19Zm63.58,6.06a2.79,2.79,0,1,1,2.8-2.79h0A2.8,2.8,0,0,1,141.23,135.25Zm49.83,86.2a2.79,2.79,0,1,1-2.8,2.79h0a2.8,2.8,0,0,1,2.79-2.79Z" transform="translate(0.5 0.5)"/></g></g><g id="Group_177" data-name="Group 177"><g id="Group_176" data-name="Group 176"><path id="Path_81" data-name="Path 81" class="cls-2" d="M170.27,273.86a7.71,7.71,0,0,0-8.86-1.45l-16.14-16.14a5.34,5.34,0,0,1-1.58-3.83v-7.39h5.41a13,13,0,0,0,3.23-.41,2.45,2.45,0,0,0-1.22-4.75,8.51,8.51,0,0,1-2,.25H91.41a8,8,0,0,1-8-8V174.42a7.53,7.53,0,0,1,.25-2,2.46,2.46,0,0,0-4.76-1.23h0a13.13,13.13,0,0,0-.4,3.24v5.41H56.75a7.7,7.7,0,1,0,0,4.9H78.47v5.59H67.81a2.46,2.46,0,0,0,0,4.91H78.47v5.58H39a2.45,2.45,0,1,0,0,4.9h39.5v5.59H67.81a2.45,2.45,0,0,0,0,4.9H78.47v5.59h-7.4a10.25,10.25,0,0,0-7.3,3L47.64,240.94a7.69,7.69,0,1,0,3.47,3.47l16.13-16.13a5.4,5.4,0,0,1,3.83-1.59h7.4v5.41A13,13,0,0,0,91.41,245h5.42v21.72a7.7,7.7,0,1,0,4.9,0V245h5.58V255.7a2.46,2.46,0,1,0,4.91,0V245h5.58v39.51a2.46,2.46,0,0,0,4.91,0v-39.5h5.58V255.7a2.46,2.46,0,1,0,4.91,0V245.05h5.58v7.39a10.25,10.25,0,0,0,3,7.3l16.14,16.14a7.7,7.7,0,1,0,12.34-2ZM49.46,185.07a2.79,2.79,0,1,1,2.79-2.79h0A2.79,2.79,0,0,1,49.46,185.07Zm-3.27,64.74a2.79,2.79,0,1,1,0-3.95,2.84,2.84,0,0,1,.82,2A2.79,2.79,0,0,1,46.19,249.81Zm55.88,24.25a2.79,2.79,0,1,1-2.79-2.79h0a2.79,2.79,0,0,1,2.79,2.79Zm64.74,7.22a2.79,2.79,0,1,1,0-3.95,2.79,2.79,0,0,1,0,3.95Z" transform="translate(0.5 0.5)"/></g></g><g id="Group_179" data-name="Group 179"><g id="Group_178" data-name="Group 178"><path id="Path_82" data-name="Path 82" class="cls-2" d="M146.31,196.71c0-5.25-3.84-9.7-9.09-11.14a8.25,8.25,0,0,0,.24-2c0-5-4.41-9-9.83-9a10.17,10.17,0,0,0-7.37,3.06,10.19,10.19,0,0,0-7.38-3.06c-5.42,0-9.83,4-9.83,9a8.79,8.79,0,0,0,.24,2C98,187,94.2,191.46,94.2,196.71a10.78,10.78,0,0,0,2.59,7,12.09,12.09,0,0,0-2.59,7.44,12.63,12.63,0,0,0,5.9,10.48h0c0,5.69,5.07,10.32,11.31,10.32a11.69,11.69,0,0,0,8.85-3.91,11.66,11.66,0,0,0,8.85,3.91c6,0,10.91-4.28,11.28-9.68a11.47,11.47,0,0,0,5.92-9.81,11,11,0,0,0-3.41-7.87A11.12,11.12,0,0,0,146.31,196.71Zm-8.68,10a6.55,6.55,0,0,1,3.77,5.7,6.25,6.25,0,0,1-2.16,4.61,11,11,0,0,0-6.45-5.19,2.45,2.45,0,1,0-1.47,4.68,5.57,5.57,0,0,1,4.18,5.08c0,3-2.86,5.41-6.39,5.41s-6.4-2.43-6.4-5.41V205.88c0-3,2.87-5.41,6.39-5.41a2.46,2.46,0,0,0,0-4.91,11.94,11.94,0,0,0-6.39,1.82v-3.13a2.46,2.46,0,1,0-4.91,0v13.62a11.51,11.51,0,0,0-2.71-1.26,2.46,2.46,0,0,0-1.47,4.69,5.55,5.55,0,0,1,4.18,5.07v5.25c0,3-2.87,5.41-6.39,5.41s-6.4-2.43-6.4-5.41a4.93,4.93,0,0,1,1.53-3.5,2.45,2.45,0,0,0-3.46-3.48,10.31,10.31,0,0,0-1.52,1.9,7.49,7.49,0,0,1-2.45-5.41c0-3.63,2.85-6.83,6.94-7.76a2.46,2.46,0,0,0-1.1-4.79h0a14.73,14.73,0,0,0-4.5,1.84,5.92,5.92,0,0,1-1.34-3.71c0-3.69,3.5-6.7,7.81-6.72H107a2.46,2.46,0,0,0,2.46-2.45,2.48,2.48,0,0,0-.37-1.3l-.06-.09,0,0-.12-.16h0a3.69,3.69,0,0,1-.89-2.35c0-2.27,2.21-4.11,4.92-4.11s4.92,1.84,4.92,4.11a2.46,2.46,0,0,0,4.91,0c0-2.27,2.2-4.11,4.92-4.11s4.92,1.84,4.92,4.11a3.46,3.46,0,0,1-.37,1.54,13.71,13.71,0,0,0-4,1,2.45,2.45,0,0,0,1.91,4.52,9,9,0,0,1,3.39-.69h.13c4.32,0,7.82,3,7.82,6.72a6.56,6.56,0,0,1-3.78,5.7,2.45,2.45,0,0,0-1,3.31,2.49,2.49,0,0,0,1,1Z" transform="translate(0.5 0.5)"/></g></g></g></g></g><g id="MLab" class="cls-3"><g class="cls-3"><path class="cls-4" d="M237.82,147.13h38.64l26.69,75.63h.32l26.85-75.63h38.47V263H343.26v-88.9h-.33L312.48,263H293l-29.31-88.9h-.33V263H237.82Z" transform="translate(0.5 0.5)"/><path class="cls-4" d="M393.35,147.13h25.54v92.33H466.2V263H393.35Z" transform="translate(0.5 0.5)"/><path class="cls-4" d="M527.1,253.05h-.33a23.14,23.14,0,0,1-10.88,9.17A37.55,37.55,0,0,1,501.56,265a37.16,37.16,0,0,1-10.72-1.55,27.2,27.2,0,0,1-9.09-4.67,22.49,22.49,0,0,1-6.22-7.7,23.45,23.45,0,0,1-2.29-10.64,24.31,24.31,0,0,1,2.54-11.62,22.81,22.81,0,0,1,6.87-7.86,34.36,34.36,0,0,1,9.91-4.83,73.25,73.25,0,0,1,11.54-2.54,111.9,111.9,0,0,1,11.95-1c4-.11,7.67-.16,11.05-.16a12.78,12.78,0,0,0-4.66-10.4,16.89,16.89,0,0,0-11.06-3.85,24.08,24.08,0,0,0-11.05,2.54,30.26,30.26,0,0,0-8.92,7l-13.09-13.42a44.93,44.93,0,0,1,16-9.58,57.27,57.27,0,0,1,19-3.19q10.8,0,17.76,2.7a25.81,25.81,0,0,1,11.13,7.94A30.58,30.58,0,0,1,548.06,205a84.43,84.43,0,0,1,1.63,17.6V263H527.1ZM521,228.17q-2.77,0-6.95.24a35.32,35.32,0,0,0-8,1.39,17.91,17.91,0,0,0-6.54,3.44,7.94,7.94,0,0,0-2.71,6.39,7,7,0,0,0,3.77,6.54,15.74,15.74,0,0,0,7.86,2.13,24.85,24.85,0,0,0,7-1,21,21,0,0,0,6-2.78,13.44,13.44,0,0,0,4.18-4.59,13.25,13.25,0,0,0,1.55-6.55v-5.23Z" transform="translate(0.5 0.5)"/><path class="cls-4" d="M567.37,139.27h24.56V192h.33a22.85,22.85,0,0,1,10.88-8.1,42.28,42.28,0,0,1,14.33-2.37A32.23,32.23,0,0,1,632.69,185a35,35,0,0,1,11.38,9.41A44.1,44.1,0,0,1,651.28,208a50.13,50.13,0,0,1,2.53,16A47.47,47.47,0,0,1,651,240.44a38.06,38.06,0,0,1-7.94,13A35.77,35.77,0,0,1,630.73,262a41,41,0,0,1-16,3,27.25,27.25,0,0,1-8-1.15,34.16,34.16,0,0,1-6.95-2.94,29.12,29.12,0,0,1-5.57-4,27.42,27.42,0,0,1-3.85-4.34H590V263H567.37Zm22.59,84q0,9,5.16,14.57t14.49,5.57q9.33,0,14.49-5.57t5.16-14.57q0-9-5.16-14.57t-14.49-5.56q-9.33,0-14.49,5.56T590,223.25Z" transform="translate(0.5 0.5)"/></g></g></svg>