<svg id="Layer_1" data-name="Layer 1" xmlns="http://www.w3.org/2000/svg" viewBox="0 0 558.33 151.49"><defs><style>.cls-1{fill:#b4d9ff;}.cls-2{isolation:isolate;}.cls-3{fill:#05386b;}</style></defs><title>MLab-line</title><g id="Group_221" data-name="Group 221"><g id="Group_220" data-name="Group 220"><g id="chip"><g id="Group_175" data-name="Group 175"><g id="Group_174" data-name="Group 174"><path id="Path_80" data-name="Path 80" class="cls-1" d="M215.26,193H179.53v-5h9.64a2.22,2.22,0,0,0,0-4.44h-9.64v-5h6.7a9.31,9.31,0,0,0,6.6-2.74l14.59-14.59a7,7,0,1,0-3.14-3.14l-14.59,14.59a4.89,4.89,0,0,1-3.46,1.44h-6.7v-4.9a11.7,11.7,0,0,0-11.7-11.7h-4.9V137.82a7,7,0,1,0-4.44,0v19.65h-5v-9.64a2.22,2.22,0,0,0-4.44,0v9.64h-5V121.74a2.22,2.22,0,0,0-4.44,0v35.73h-5.05v-9.64a2.22,2.22,0,0,0-4.44,0v9.64h-5v-6.7a9.31,9.31,0,0,0-2.74-6.6l-14.6-14.6a7,7,0,1,0-3.14,3.14l14.6,14.6a4.89,4.89,0,0,1,1.44,3.46v6.7h-4.9a11.91,11.91,0,0,0-2.92.36,2.22,2.22,0,1,0,1,4.32l.07,0a7.5,7.5,0,0,1,1.82-.23h52.18a7.27,7.27,0,0,1,7.26,7.27v52.18a7,7,0,0,1-.22,1.82,2.22,2.22,0,1,0,4.3,1.1,12,12,0,0,0,.36-2.92v-4.9h19.65a7,7,0,1,0,0-4.44H179.53v-5h9.64a2.22,2.22,0,1,0,0-4.43h-9.64v-5.05h35.73a2.22,2.22,0,0,0,0-4.44Zm-6.53-39.88a2.52,2.52,0,1,1,0,3.57,2.56,2.56,0,0,1-.74-1.79A2.52,2.52,0,0,1,208.73,153.16ZM103.21,128.27a2.52,2.52,0,1,1,0-3.57A2.53,2.53,0,0,1,103.21,128.27Zm57.51,5.48a2.53,2.53,0,1,1,2.52-2.53h0A2.52,2.52,0,0,1,160.72,133.75Zm45.06,78a2.53,2.53,0,1,1-2.53,2.52h0a2.52,2.52,0,0,1,2.52-2.52Z" transform="translate(-66 -119.51)"/></g></g><g id="Group_177" data-name="Group 177"><g id="Group_176" data-name="Group 176"><path id="Path_81" data-name="Path 81" class="cls-1" d="M187,259.11a7,7,0,0,0-8-1.3l-14.6-14.6a4.91,4.91,0,0,1-1.44-3.46v-6.7h4.9a11.52,11.52,0,0,0,2.92-.37,2.21,2.21,0,0,0-1.1-4.29,7.5,7.5,0,0,1-1.82.23H115.65a7.29,7.29,0,0,1-7.27-7.27V169.17a7.5,7.5,0,0,1,.23-1.82,2.22,2.22,0,0,0-4.3-1.1h0a11.92,11.92,0,0,0-.37,2.92v4.9H84.3a7,7,0,1,0,0,4.43H104v5.06H94.31a2.22,2.22,0,0,0,0,4.43H104v5H68.22a2.22,2.22,0,0,0,0,4.44H104v5.05H94.31a2.22,2.22,0,0,0,0,4.44H104V212h-6.7a9.26,9.26,0,0,0-6.6,2.73L76.06,229.34a7,7,0,1,0,3.14,3.14l14.59-14.59a4.87,4.87,0,0,1,3.46-1.44H104v4.9a11.7,11.7,0,0,0,11.7,11.7h4.9V252.7a7,7,0,1,0,4.44,0V233.05h5v9.64a2.22,2.22,0,1,0,4.43,0v-9.64h5.05v35.73a2.22,2.22,0,0,0,4.44,0V233.05h5v9.64a2.22,2.22,0,1,0,4.44,0v-9.64h5v6.7a9.31,9.31,0,0,0,2.74,6.6l14.6,14.59A7,7,0,1,0,187,259.11ZM77.71,178.81a2.53,2.53,0,1,1,2.52-2.52h0A2.52,2.52,0,0,1,77.71,178.81Zm-3,58.55a2.52,2.52,0,1,1,0-3.57,2.56,2.56,0,0,1,.74,1.79A2.52,2.52,0,0,1,74.75,237.36Zm50.54,21.94a2.53,2.53,0,1,1-2.52-2.53h0a2.52,2.52,0,0,1,2.52,2.52Zm58.55,6.52a2.52,2.52,0,1,1,0-3.57,2.5,2.5,0,0,1,0,3.57Z" transform="translate(-66 -119.51)"/></g></g><g id="Group_179" data-name="Group 179"><g id="Group_178" data-name="Group 178"><path id="Path_82" data-name="Path 82" class="cls-1" d="M165.3,189.33c0-4.74-3.47-8.76-8.22-10.07a7.76,7.76,0,0,0,.22-1.79c0-4.49-4-8.15-8.89-8.15a9.24,9.24,0,0,0-6.67,2.77,9.23,9.23,0,0,0-6.67-2.77c-4.9,0-8.89,3.66-8.89,8.15a7.76,7.76,0,0,0,.22,1.79c-4.75,1.31-8.22,5.33-8.22,10.07a9.77,9.77,0,0,0,2.33,6.32,11,11,0,0,0-2.33,6.72,11.44,11.44,0,0,0,5.33,9.49h0c0,5.15,4.59,9.33,10.23,9.33a10.57,10.57,0,0,0,8-3.53,10.57,10.57,0,0,0,8,3.53c5.43,0,9.88-3.87,10.21-8.75a10.37,10.37,0,0,0,5.35-8.88,10,10,0,0,0-3.08-7.12A10,10,0,0,0,165.3,189.33Zm-7.85,9.08a5.92,5.92,0,0,1,3.42,5.15,5.72,5.72,0,0,1-2,4.17,10,10,0,0,0-5.83-4.7,2.22,2.22,0,0,0-1.33,4.24,5,5,0,0,1,3.78,4.59c0,2.7-2.59,4.9-5.78,4.9s-5.79-2.2-5.79-4.9V197.63c0-2.7,2.6-4.89,5.78-4.89a2.22,2.22,0,0,0,0-4.44,10.83,10.83,0,0,0-5.78,1.64v-2.83a2.22,2.22,0,1,0-4.44,0v12.32a10.3,10.3,0,0,0-2.45-1.14,2.22,2.22,0,1,0-1.33,4.24,5,5,0,0,1,3.78,4.59v4.75c0,2.7-2.59,4.89-5.78,4.89s-5.79-2.2-5.79-4.89a4.51,4.51,0,0,1,1.38-3.17,2.22,2.22,0,0,0-3.13-3.15,9.86,9.86,0,0,0-1.37,1.72,6.79,6.79,0,0,1-2.22-4.89c0-3.29,2.58-6.18,6.28-7a2.22,2.22,0,1,0-1-4.32h0a13.53,13.53,0,0,0-4.07,1.66,5.29,5.29,0,0,1-1.21-3.36c0-3.33,3.16-6.05,7.06-6.08h.06a2.22,2.22,0,0,0,1.88-3.39.56.56,0,0,0-.05-.08l0,0a.76.76,0,0,0-.11-.14h0a3.26,3.26,0,0,1-.81-2.13c0-2,2-3.71,4.45-3.71s4.45,1.67,4.45,3.71a2.22,2.22,0,0,0,4.44,0c0-2,2-3.71,4.45-3.71s4.45,1.67,4.45,3.71a3.2,3.2,0,0,1-.33,1.4,12.38,12.38,0,0,0-3.65.91,2.22,2.22,0,0,0,1.73,4.09,8.05,8.05,0,0,1,3.07-.62h.12c3.9,0,7.06,2.74,7.06,6.08a5.93,5.93,0,0,1-3.41,5.15,2.22,2.22,0,0,0-.93,3,2.25,2.25,0,0,0,.93.93Z" transform="translate(-66 -119.51)"/></g></g></g></g></g><g id="MLab" class="cls-2"><g class="cls-2"><path class="cls-3" d="M248.08,144.49H283l24.14,68.41h.3l24.28-68.41h34.8V249.32h-23.1v-80.4h-.3l-27.54,80.4H298l-26.51-80.4h-.29v80.4h-23.1Z" transform="translate(-66 -119.51)"/><path class="cls-3" d="M388.75,144.49h23.1V228h42.79v21.32H388.75Z" transform="translate(-66 -119.51)"/><path class="cls-3" d="M509.72,240.29h-.29a20.89,20.89,0,0,1-9.85,8.29,34.47,34.47,0,0,1-22.66,1.12,24.33,24.33,0,0,1-8.21-4.23,20.31,20.31,0,0,1-5.63-6.95,21.2,21.2,0,0,1-2.07-9.63,22,22,0,0,1,2.29-10.51,20.57,20.57,0,0,1,6.22-7.11,31,31,0,0,1,9-4.37,64.33,64.33,0,0,1,10.44-2.29,98.24,98.24,0,0,1,10.81-.89q5.4-.15,10-.15a11.55,11.55,0,0,0-4.22-9.4,15.2,15.2,0,0,0-10-3.48,21.73,21.73,0,0,0-10,2.29,27.27,27.27,0,0,0-8.07,6.3L465.6,187.13a40.75,40.75,0,0,1,14.51-8.66,51.93,51.93,0,0,1,17.17-2.89q9.78,0,16.07,2.45a23.41,23.41,0,0,1,10.07,7.18,27.67,27.67,0,0,1,5.26,11.62,76.8,76.8,0,0,1,1.48,15.92v36.57H509.72Zm-5.48-22.5c-1.68,0-3.77.07-6.29.22a32.06,32.06,0,0,0-7.26,1.26,16,16,0,0,0-5.92,3.11,7.14,7.14,0,0,0-2.44,5.77,6.34,6.34,0,0,0,3.4,5.92,14.19,14.19,0,0,0,7.11,1.93,22.34,22.34,0,0,0,6.29-.89,18.57,18.57,0,0,0,5.41-2.52,11.7,11.7,0,0,0,5.18-10.07v-4.73Z" transform="translate(-66 -119.51)"/><path class="cls-3" d="M546.15,137.38h22.21v47.68h.29a20.77,20.77,0,0,1,9.85-7.33,38.18,38.18,0,0,1,13-2.15,29.25,29.25,0,0,1,13.77,3.19,31.87,31.87,0,0,1,10.29,8.51A39.89,39.89,0,0,1,622,199.5a45.35,45.35,0,0,1,2.3,14.44,42.76,42.76,0,0,1-2.52,14.95,34.29,34.29,0,0,1-7.18,11.77,32.27,32.27,0,0,1-11.18,7.7,37,37,0,0,1-14.51,2.74,25.18,25.18,0,0,1-7.26-1,31.73,31.73,0,0,1-6.29-2.67,26.71,26.71,0,0,1-5-3.63,23.74,23.74,0,0,1-3.48-3.92h-.3v9.47H546.15Zm20.43,76q0,8.15,4.66,13.18t13.11,5q8.45,0,13.1-5t4.67-13.18q0-8.15-4.67-13.18t-13.1-5q-8.45,0-13.11,5T566.58,213.34Z" transform="translate(-66 -119.51)"/></g></g></svg>