<?xml version="1.0" encoding="utf-8"?>
<!-- Generator: Adobe Illustrator 21.0.0, SVG Export Plug-In . SVG Version: 6.00 Build 0)  -->
<svg version="1.1" id="Layer_1" xmlns="http://www.w3.org/2000/svg" xmlns:xlink="http://www.w3.org/1999/xlink" x="0px" y="0px"
	 viewBox="0 0 512 512" style="enable-background:new 0 0 512 512;" xml:space="preserve">
<style type="text/css">
	.st0{stroke:#000000;stroke-width:11;stroke-miterlimit:10;}
</style>
<g>
	<path class="st0" d="M496,159.2H365.2v19.4h53.9v167.2h22.9V178.6H496V159.2z M343.2,178.6v-19.4h-99.9v186.6h99.9v-19.4h-77.1
		v-65.1h68.7v-19.4h-68.7v-63.3L343.2,178.6z M45.2,328.7c0,8.9-7.2,16.1-16.1,16.1c-8.9,0-16.1-7.2-16.1-16.1
		c0-8.9,7.2-16.1,16.1-16.1C38,312.6,45.2,319.8,45.2,328.7z M217.2,159.2h-22.9v147.3L89.1,159.2H66.2v186.6h22.9V198.6
		l105.3,147.2h22.8V159.2z"/>
</g>
</svg>
