<?xml version="1.0" encoding="utf-8"?>
<!-- Generator: Adobe Illustrator 21.0.0, SVG Export Plug-In . SVG Version: 6.00 Build 0)  -->
<svg version="1.1" id="Layer_1" xmlns="http://www.w3.org/2000/svg" xmlns:xlink="http://www.w3.org/1999/xlink" x="0px" y="0px"
	 viewBox="0 0 38 41.7" style="enable-background:new 0 0 38 41.7;" xml:space="preserve">
<path d="M19.2,41.2c-0.5,0-0.9-0.1-1.3-0.4L13.1,38c0.6-0.2,1-0.4,1.8-0.9l3.8,2.3c0.2,0.1,0.4,0.1,0.5,0.1s0.3,0,0.5-0.1L35,30.6
	c0.3-0.2,0.5-0.5,0.5-0.9V12c0-0.4-0.2-0.7-0.5-0.9L19.8,2.3c-0.2-0.1-0.3-0.1-0.5-0.1s-0.4,0-0.5,0.1L3.4,11.1
	c-0.3,0.2-0.5,0.5-0.5,0.9v17.7c0,0.4,0.2,0.7,0.5,0.9L7.6,33c0.7,0.3,1.3,0.5,1.9,0.5c1.7,0,2.6-1.3,2.6-2.5V13.7h1.7V31
	c0,2.7-1.4,4.2-4,4.2c-0.8,0-1.4,0-3.3-0.9l-4-2.3c-0.8-0.5-1.3-1.4-1.3-2.3V12c0-0.9,0.5-1.8,1.3-2.3l15.3-8.8
	c0.4-0.2,0.8-0.3,1.3-0.3s0.9,0.1,1.3,0.3l15.3,8.8c0.8,0.5,1.3,1.4,1.3,2.3v17.7c0,0.9-0.5,1.8-1.3,2.3l-15.3,8.8
	C20.2,41.1,19.7,41.2,19.2,41.2z M24,29c-4.9,0-7.5-1.7-7.5-5h1.7c0.4,2.5,1.9,3.4,5.8,3.4c2.4,0,5.2-0.3,5.2-3
	c0-1.7-1.4-2.3-5.9-2.8c-4.6-0.5-6.3-1.5-6.3-4.1c0-2.8,2.3-4.4,6.4-4.4c4.6,0,6.7,1.5,7.1,4.7h-1.8c-0.6-2.6-2.4-3.1-5.3-3.1
	c-3,0-4.5,0.9-4.5,2.7c0,1.7,1.2,2,5.7,2.6c5,0.7,6.4,1.6,6.4,4.2C31,28.4,26.6,29,24,29z"/>
</svg>
