<svg xmlns="http://www.w3.org/2000/svg" id="Ebene_1" viewBox="0 0 143.2 75.5"> <style>.st0{fill:none;stroke:#000;stroke-width:2.5;stroke-linejoin:round;stroke-miterlimit:10}</style> <path class="st0" d="M71.6 3C33.6 3 2.8 18.7 2.8 37.9s30.9 34.9 68.9 34.9 68.9-15.7 68.9-34.9S109.6 3 71.6 3zM52.8 43.9c-1.5 1.4-3.1 1.9-4.9 2.5-1.8.6-4.1.5-6.8.5h-6.3l-1.7 10h-7.3l6.5-34h14c4.2 0 7.3 1.2 9.2 3.4s2.5 5.4 1.7 9.3c-.3 1.6-.9 3.2-1.6 4.5-.5 1.4-1.5 2.7-2.8 3.8zm24.3 3L80 32.5c.3-1.7.2-2.9-.4-3.6-.6-.6-1.8-1-3.6-1h-5.8l-3.7 19h-7.2l6.4-33h7.2l-1.7 9h6.5c4.1 0 6.9.8 8.4 2.2s2 3.4 1.4 6.5l-3 15.2-7.4.1zm42.3-11.2c-.3 1.6-.9 3.1-1.6 4.5-.8 1.4-1.7 2.6-3 3.7-1.5 1.4-3.1 1.9-4.9 2.5s-4.1.5-6.8.5h-6.3l-1.7 10h-7.3l6.5-34h14c4.2 0 7.3 1.2 9.2 3.4 2.1 2.2 2.6 5.5 1.9 9.4zm-13.7-7.8h-5l-2.7 14h4.4c2.9 0 5.1-.3 6.6-1.4 1.4-1.1 2.4-2.8 2.9-5.4.5-2.5.3-4.4-.7-5.5-.9-1-2.7-1.7-5.5-1.7zm-62 0h-5l-2.7 14h4.4c2.9 0 5.1-.3 6.6-1.4 1.4-1.1 2.4-2.8 2.9-5.4.5-2.5.3-4.4-.7-5.5s-2.7-1.7-5.5-1.7z"></path> </svg>
