<svg xmlns="http://www.w3.org/2000/svg" id="Ebene_1" viewBox="0 0 263 185.3"> <style>.st0{fill:none;stroke:#000;stroke-width:5;stroke-linejoin:round;stroke-miterlimit:10}</style> <path class="st0" d="M156.9 181.8L54.5 4.4h51.2l102.4 177.4h-51.2z"></path> <path class="st0" d="M156.9 181.8l25.6-44.3 25.6 44.3h-51.2zm-25.6-44.4l25.6 44.3 25.6-44.3h-51.2zm-25.6-44.3l25.6 44.3 25.6-44.3h-51.2zm0 0l25.6-44.3 25.6 44.3h-51.2zM80.1 48.7l25.6 44.4 25.6-44.3-51.2-.1zm0 0l25.6-44.3 25.6 44.3H80.1zM54.5 4.4l25.6 44.3 25.6-44.3H54.5zm0 177.4L3.3 93.1l25.6-44.3 76.8 133H54.5z"></path> <path class="st0" d="M54.5 181.8l25.6-44.3 25.6 44.3H54.5z"></path> <path class="st0" d="M28.9 137.5l25.6 44.3 25.6-44.3H28.9zm0 0l25.6-44.3 25.6 44.3H28.9zM3.3 93.1l25.6 44.3 25.6-44.3H3.3z"></path> <path class="st0" d="M3.3 93.1l25.6-44.3 25.6 44.3H3.3z"></path> <path class="st0" d="M54.5 93.1L28.9 48.7 54.5 4.4l25.6 44.3-25.6 44.4z"></path> <path class="st0" d="M80.1 48.7L54.5 4.4 28.9 48.7h51.2zM208.1 181.8l-25.6-44.4 25.6-44.3 25.6 44.3-25.6 44.4z"></path> <path class="st0" d="M233.7 137.4l-25.6 44.4-25.6-44.4h51.2z"></path> <g> <path class="st0" d="M233.7 137.4l-76.8-133h51.2l51.2 88.7-25.6 44.3z"></path> <path class="st0" d="M208.1 93.1l25.6 44.3 25.6-44.3h-51.2zm0 0l25.6-44.3 25.6 44.3h-51.2zm-25.6-44.4l25.6-44.3 25.6 44.3h-51.2z"></path> <path class="st0" d="M156.9 4.4l25.6 44.3 25.6-44.3h-51.2z"></path> </g> </svg>