<svg id="Layer_1" data-name="Layer 1" xmlns="http://www.w3.org/2000/svg" viewBox="0 0 474.36 257.75"><title>portuguese</title><path d="M12,104H126.42a200.82,200.82,0,0,1,27.11,2.1,92.06,92.06,0,0,1,28.33,8.57,60.55,60.55,0,0,1,22.21,18.89Q213.16,146,213.17,167a57.44,57.44,0,0,1-2.45,16.79,64.59,64.59,0,0,1-6.47,14.69,65.91,65.91,0,0,1-8.92,11.72,44.64,44.64,0,0,1-9.79,7.87,76.79,76.79,0,0,1,12.24,7A53.61,53.61,0,0,1,210,236.94a68.66,68.66,0,0,1,9.44,17.66q3.85,10.32,3.85,24.31,0,19.94-7,34.1a63.57,63.57,0,0,1-19.24,23.26,81.2,81.2,0,0,1-28.68,13.29,144,144,0,0,1-35.68,4.2H12Zm8,242.06H132.71A138.1,138.1,0,0,0,163,342.75a75.63,75.63,0,0,0,26.41-11.19,60.23,60.23,0,0,0,18.71-20.64q7.17-12.76,7.17-32,0-15-4.72-25.36A58.19,58.19,0,0,0,199,236.41a62.92,62.92,0,0,0-14.17-10.84q-7.35-4-12.24-6.12A111.49,111.49,0,0,0,196,197.76q9.09-11.54,9.09-29.73,0-14-4.72-23.61a48,48,0,0,0-12.24-15.92,58.45,58.45,0,0,0-16.62-9.79,98.59,98.59,0,0,0-17.84-5.07,106,106,0,0,0-16.09-1.75q-7.35-.17-11.19-.18H20.08ZM63.46,146h53.87q6.64,0,14.52.52a45.58,45.58,0,0,1,14.87,3.5,27.42,27.42,0,0,1,11.72,9.62q4.72,6.65,4.72,18.89t-4.72,18.71a27.76,27.76,0,0,1-11.72,9.44,45.44,45.44,0,0,1-14.87,3.5q-7.87.52-14.52.52H63.46Zm0,92.69h58.76q7.35,0,16.09.52a47.69,47.69,0,0,1,16.62,4,31.4,31.4,0,0,1,13.12,11q5.25,7.53,5.25,21.16t-5.25,21a31.78,31.78,0,0,1-13.12,10.84,47.56,47.56,0,0,1-16.62,4q-8.75.53-16.09.53H63.46Zm8-35.68h45.82q6.3,0,12.94-.35A35.73,35.73,0,0,0,142.33,200a21.25,21.25,0,0,0,9.09-7.35q3.67-5.07,3.67-14.17,0-9.44-3.67-14.34a23.17,23.17,0,0,0-9.09-7.35,33.49,33.49,0,0,0-12.07-2.8q-6.65-.34-12.94-.35H71.5Zm0,101.09h50.72q6.64,0,14.17-.53a45.44,45.44,0,0,0,14-3.15A24.24,24.24,0,0,0,161,292q4.2-5.77,4.2-16.62T161,258.63a23.84,23.84,0,0,0-10.67-8.57,45.44,45.44,0,0,0-14-3.15q-7.53-.53-14.17-.53H71.5Z" transform="translate(-8.04 -100.02)" style="stroke:#000;stroke-miterlimit:10;stroke-width:8px"/><path d="M250.24,104H373a149.75,149.75,0,0,1,32.53,3.5,81.45,81.45,0,0,1,28,11.72,60.22,60.22,0,0,1,19.59,21.86q7.34,13.64,7.35,33.93a75.29,75.29,0,0,1-3.32,23.44A71.74,71.74,0,0,1,448.92,216,54.55,54.55,0,0,1,438.25,228a79.38,79.38,0,0,1-10.67,7.52q16.79,9.1,22.91,24.66A108.93,108.93,0,0,1,457.67,294l1.75,23.44a106.82,106.82,0,0,0,2.1,15.57,48.89,48.89,0,0,0,3.32,10.14,29.34,29.34,0,0,0,4,6.47q2.1,2.45,3.85,4.2H408q-2.8-2.1-4.55-12.42t-3.15-30.61q-1-16.79-3.85-26.76t-8.39-15.39a27,27,0,0,0-14.52-7A131,131,0,0,0,351.33,260H309.71v93.74H250.24Zm8,242.06h43.38V252.33h47.57q11.89,0,22,.7a40.07,40.07,0,0,1,17.84,5.25q7.69,4.55,12.42,14.34t5.77,27.63l1,17.49q.7,12.59,2.1,18.36t2.8,10h44.42q-1.75-2.1-3.32-8t-3-21l-1.75-22a160.85,160.85,0,0,0-3.67-23.26,50.14,50.14,0,0,0-6.12-14.87,40.56,40.56,0,0,0-10-10.49q-6.12-4.54-14.87-9.79v-.7q1.39-1,7.52-4.72a65.1,65.1,0,0,0,12.77-10.49,68.54,68.54,0,0,0,11.89-17.31q5.25-10.49,5.25-25.53,0-16.44-4.72-27.81a54.24,54.24,0,0,0-12.42-18.71,57.16,57.16,0,0,0-17.14-11.37,91.15,91.15,0,0,0-18.71-5.77,123.62,123.62,0,0,0-17.66-2.1q-8.4-.34-13.64-.35H258.29ZM301.66,146h57.71q5.59,0,14.17.52a45.09,45.09,0,0,1,16.44,4.2,34.81,34.81,0,0,1,13.47,11.37q5.59,7.7,5.6,21.69,0,14.35-5.6,22.21A34.29,34.29,0,0,1,390,217.53a45.09,45.09,0,0,1-16.44,4.2q-8.58.52-14.17.52H301.66Zm8,68.56h49.67q5.94,0,13.29-.52a40.33,40.33,0,0,0,13.64-3.32,24.48,24.48,0,0,0,10.49-9.09q4.2-6.3,4.2-17.84,0-11.19-4.2-17.31a24.91,24.91,0,0,0-10.49-8.92,40.45,40.45,0,0,0-13.64-3.32q-7.35-.52-13.29-.52H309.71Z" transform="translate(-8.04 -100.02)" style="stroke:#000;stroke-miterlimit:10;stroke-width:8px"/></svg>
