<svg width="74" height="78" viewBox="0 0 74 78" fill="none" xmlns="http://www.w3.org/2000/svg">
<path d="M26 45.0002C26 45.0002 19.25 52.5622 18.25 53.5622C17.25 54.5622 15.25 56.5622 11.25 52.5622C7.25 48.5622 1 27.5622 1 18.5622C1 9.56219 5.234 3.04419 13.187 2.18719C20.89 1.35819 29 5.00019 29 5.00019" stroke="black" stroke-width="2" stroke-miterlimit="10"/>
<path d="M58.2129 43.9469C60.8939 41.8409 61.1809 35.2339 60.7019 31.2129C60.2229 27.1919 61.0329 24.8209 60.9369 19.9379C57.6819 6.62893 40.6119 -2.16107 30.7499 4.06193C20.8879 10.2849 21.8959 24.1989 22.3749 28.1239C22.8539 32.0489 19.9309 34.6629 21.7499 40.3119C23.5689 45.9609 29.3939 47.0099 31.7869 47.0099C34.1809 47.0099 36.6699 47.9669 36.6699 50.5529C36.6699 53.1389 36.3829 60.8929 36.9569 67.2129C37.5309 73.5319 40.9399 75.5889 43.4679 75.9259C51.3459 76.9739 54.0959 71.6169 54.8619 69.2239C55.6279 66.8309 56.9139 56.7849 57.1599 51.1279C57.3509 46.7239 60.5109 46.8189 60.5109 46.8189C60.5109 46.8189 64.1189 49.1579 70.4679 47.2339C72.5739 46.5959 73.5639 47.8719 71.9359 49.4039C70.3079 50.9359 65.9189 53.9639 57.8119 52.6869" stroke="black" stroke-width="2" stroke-miterlimit="10"/>
<path d="M61.0848 20.6172C61.0848 20.6172 54.5618 18.3752 52.3748 22.8122C50.4818 26.6532 56.3618 41.1062 60.5738 46.4042" stroke="black" stroke-width="2" stroke-miterlimit="10"/>
<path d="M21.5742 23.6171C21.5742 23.6171 29.2262 19.0051 33.3752 21.7501C37.5242 24.4951 35.9362 35.1061 34.1492 39.0001C32.3622 42.8941 31.7872 46.7871 31.7872 46.7871C31.7872 46.7871 31.3402 51.8931 24.1912 52.7231C21.3822 53.1701 22.2762 55.0211 24.3192 55.5951C26.3622 56.1691 33.0002 57.6381 36.8932 51.7651" stroke="black" stroke-width="2" stroke-miterlimit="10"/>
<path d="M44.6172 2.80918C44.6172 2.80918 61.9732 -1.36482 70.0002 8.43818C76.5532 16.4412 65.2342 42.3202 59.8092 46.5962" stroke="black" stroke-width="2" stroke-miterlimit="10" stroke-linecap="round"/>
<path d="M56.1542 25.0372C54.5022 25.2052 52.7312 23.0982 56.0582 22.6912C59.1772 22.3102 58.3232 24.8172 56.1542 25.0372Z" fill="black"/>
<path d="M30.2229 25.848C28.3989 25.618 27.0109 22.903 30.7039 23.292C34.1649 23.657 32.6189 26.151 30.2229 25.848Z" fill="black"/>
<path d="M26.4921 14.4468C26.2561 15.1348 26.0411 15.8718 25.8511 16.6598" stroke="black" stroke-miterlimit="10" stroke-linecap="round" stroke-linejoin="round"/>
<path d="M34.8081 5.479C32.0191 6.355 29.0371 8.418 27.0771 12.935" stroke="black" stroke-miterlimit="10" stroke-linecap="round" stroke-linejoin="round"/>
<path d="M42.0639 5.29782C42.0639 5.29782 39.9539 4.67682 37.2129 4.97882" stroke="black" stroke-miterlimit="10" stroke-linecap="round" stroke-linejoin="round"/>
<path d="M7.14781 8.81689C5.22681 10.8909 3.77881 14.2679 3.97481 19.7619" stroke="black" stroke-miterlimit="10" stroke-linecap="round" stroke-linejoin="round"/>
<path d="M15.3189 5.55308C15.3189 5.55308 11.9019 5.29508 8.81592 7.38608" stroke="black" stroke-miterlimit="10" stroke-linecap="round" stroke-linejoin="round"/>
<path d="M40.5488 69.6001C41.1978 71.3021 42.4068 72.8661 44.6488 73.2131" stroke="black" stroke-miterlimit="10" stroke-linecap="round" stroke-linejoin="round"/>
<path d="M39.8299 64.5962C39.8299 64.5962 39.7349 65.9542 40.0159 67.5972" stroke="black" stroke-miterlimit="10" stroke-linecap="round" stroke-linejoin="round"/>
</svg>
