<svg width="700" height="400" viewBox="0 0 700 400" version="1.1" xmlns="http://www.w3.org/2000/svg" xmlns:xlink="http://www.w3.org/1999/xlink">
<title>Logo</title>
<desc>Created using Figma</desc>
<g id="Canvas" transform="translate(-2606 584)">
<clipPath id="clip-0" clip-rule="evenodd">
<path d="M 2606 -584L 3306 -584L 3306 -184L 2606 -184L 2606 -584Z" fill="#FFFFFF"/>
</clipPath>
<g id="Logo" clip-path="url(#clip-0)">
<path d="M 2606 -584L 3306 -584L 3306 -184L 2606 -184L 2606 -584Z" fill="#FFFFFF"/>
<g id="Group">
<g id="Rectangle">
<use xlink:href="#path0_fill" transform="translate(2881 -534)" fill="#2D9CDB"/>
</g>
<g id="Rectangle">
<use xlink:href="#path1_fill" transform="translate(2891 -523)" fill="#FFFFFF"/>
</g>
<g id="Rectangle">
<use xlink:href="#path2_fill" transform="translate(2914 -500)" fill="#2D9CDB"/>
</g>
</g>
<g id="procuratio">
<use xlink:href="#path3_fill" transform="translate(2543 -370)" fill="#2D9CDB"/>
</g>
</g>
</g>
<defs>
<path id="path0_fill" d="M 0 15C 0 6.71573 6.71573 0 15 0L 135 0C 143.284 0 150 6.71573 150 15L 150 135C 150 143.284 143.284 150 135 150L 15 150C 6.71573 150 0 143.284 0 135L 0 15Z"/>
<path id="path1_fill" d="M 0 64.5C 0 28.8776 28.8776 0 64.5 0L 64.5 0C 100.122 0 129 28.8776 129 64.5L 129 64.5C 129 100.122 100.122 129 64.5 129L 64.5 129C 28.8776 129 0 100.122 0 64.5L 0 64.5Z"/>
<path id="path2_fill" d="M 0 41.5C 0 18.5802 18.5802 0 41.5 0L 41.5 0C 64.4198 0 83 18.5802 83 41.5L 83 41.5C 83 64.4198 64.4198 83 41.5 83L 41.5 83C 18.5802 83 0 64.4198 0 41.5L 0 41.5Z"/>
<path id="path3_fill" d="M 128.027 42.6231C 123.567 42.6231 118.781 43.7109 114.32 45.6691L 114.32 43.7109L 92.6716 43.7109L 92.6716 122.038L 114.32 122.038L 114.32 101.042C 118.781 103 123.567 104.088 128.027 104.088C 144.346 104.088 157.618 92.3388 157.618 73.4099C 157.618 54.0457 144.346 42.6231 128.027 42.6231ZM 124.002 85.7028C 120.521 85.7028 116.931 84.3974 114.32 82.2216L 114.32 64.4893C 116.931 62.3136 120.521 61.0081 124.002 61.0081C 131.4 61.0081 136.295 66.1211 136.295 73.4099C 136.295 81.2425 131.4 85.7028 124.002 85.7028ZM 196.648 43.7109L 175 43.7109L 175 103L 196.648 103L 196.648 75.5856C 196.648 70.799 198.498 64.8157 209.05 64.8157C 210.682 64.8157 212.531 64.9245 214.598 65.2508L 214.598 42.5143C 206.983 42.9494 201.109 45.234 196.648 49.1503L 196.648 43.7109ZM 260.366 42.6231C 242.416 42.6231 227.839 56.3303 227.839 73.4099C 227.839 90.3807 242.416 104.088 260.366 104.088C 278.316 104.088 292.894 90.3807 292.894 73.4099C 292.894 56.3303 278.316 42.6231 260.366 42.6231ZM 260.366 85.7028C 254.057 85.7028 248.944 80.1547 248.944 73.4099C 248.944 66.5563 254.057 61.0081 260.366 61.0081C 266.676 61.0081 271.789 66.5563 271.789 73.4099C 271.789 80.1547 266.676 85.7028 260.366 85.7028ZM 350.583 79.1756C 348.625 83.0919 344.709 85.7028 340.357 85.7028C 334.048 85.7028 328.935 80.1547 328.935 73.4099C 328.935 66.5563 334.048 61.0081 340.357 61.0081C 344.709 61.0081 348.625 63.619 350.583 67.5353L 364.29 55.2424C 358.96 47.5185 350.366 42.6231 340.357 42.6231C 322.407 42.6231 307.83 56.3303 307.83 73.4099C 307.83 90.3807 322.407 104.088 340.357 104.088C 350.039 104.088 358.742 99.1924 364.073 91.3598L 350.583 79.1756ZM 417.2 43.7109L 417.2 82.7656C 415.351 84.615 412.74 85.7028 409.694 85.7028C 403.602 85.7028 401.97 82.7656 401.97 76.1295L 401.97 43.7109L 380.321 43.7109L 380.321 76.1295C 380.321 96.364 386.631 104.088 405.669 104.088C 409.585 104.088 413.393 103 417.2 100.933L 417.2 103L 438.849 103L 438.849 43.7109L 417.2 43.7109ZM 470.159 44.1461L 461.13 44.1461L 461.13 103L 470.159 103L 470.159 73.1923C 470.159 61.9872 476.469 51.87 487.674 51.87C 490.176 51.87 493.005 52.4139 496.051 53.6106L 496.703 44.7988C 494.201 43.6022 491.699 43.0582 489.523 43.0582C 480.494 43.167 473.858 48.1712 470.159 55.6775L 470.159 44.1461ZM 561.56 44.1461L 561.56 49.5855C 556.338 45.5603 548.832 43.0582 541.108 43.0582C 523.376 43.0582 511.192 57.2006 511.192 73.3011C 511.192 89.5104 523.376 103.653 541.108 103.653C 549.267 103.653 556.229 101.151 561.56 97.1255L 561.56 103L 570.589 103L 570.589 44.1461L 561.56 44.1461ZM 561.56 88.7489C 556.991 92.9916 550.355 95.6025 542.522 95.6025C 529.577 95.6025 519.895 85.3765 519.895 73.3011C 519.895 61.2257 529.468 51.1085 542.522 51.1085C 550.246 51.1085 556.882 53.7194 561.56 58.1796L 561.56 88.7489ZM 628.145 51.6524L 628.145 44.1461L 608.237 44.1461L 608.237 20.9744L 599.098 20.9744L 599.098 44.1461L 589.416 44.1461L 589.416 51.6524L 599.098 51.6524L 599.098 85.9204C 599.098 97.6694 606.714 103.653 616.069 103.653C 622.597 103.653 626.513 102.347 627.927 101.912L 627.927 95.0585C 625.969 95.3849 623.358 95.82 619.55 95.82C 611.935 95.82 608.237 92.1213 608.237 81.2425L 608.237 51.6524L 628.145 51.6524ZM 647.981 103L 657.011 103L 657.011 44.1461L 647.981 44.1461L 647.981 103ZM 652.55 34.3552C 655.596 34.3552 658.099 31.8531 658.099 28.6983C 658.099 25.5435 655.596 23.1501 652.55 23.1501C 649.396 23.1501 646.785 25.5435 646.785 28.6983C 646.785 31.8531 649.396 34.3552 652.55 34.3552ZM 711.103 43.0582C 693.371 43.0582 679.011 56.6566 679.011 73.4099C 679.011 90.0543 693.371 103.653 711.103 103.653C 728.727 103.653 743.087 90.0543 743.087 73.4099C 743.087 56.6566 728.727 43.0582 711.103 43.0582ZM 711.103 95.6025C 698.267 95.6025 687.932 85.594 687.932 73.4099C 687.932 61.1169 698.267 51.1085 711.103 51.1085C 723.832 51.1085 734.166 61.1169 734.166 73.4099C 734.166 85.594 723.832 95.6025 711.103 95.6025Z"/>
</defs>
</svg>
