<svg xmlns="http://www.w3.org/2000/svg" viewBox="0 0 1090.7 1104"> <path d="M680.4 956.9h.3c11.4 0 24.8-11.1 25-25.4.1-10.4-4.2-16.6-7.8-19.9-4.3-3.9-9.6-5.8-16.4-5.9h-.4c-16.1 0-25.7 8.8-25.9 23.6-.2 15 11.1 27.4 25.2 27.6z"></path> <path d="M1075.4 434.7c-6.8-30.3-15.8-65.5-35.6-98.6-29.3-48.9-74.4-74.8-130.4-74.8h-1.7c-5.9.1-12.2.1-19.8.1h-69.5c-3.6 0-7.1.5-10.4 1.4.1 48.5.1 98.2-.2 147.3-.2 39.7-15.1 76.2-41.9 102.7-26.7 26.4-63.3 41-103.1 41-24.4 0-48.9.1-73.3.1H426.9c-33 0-63.4 10.7-87.9 30.9-24.5 20.2-40.7 48-46.9 80.3-1.5 7.8-1.9 16.3-2 26.5-.2 22.4-.2 45.3-.1 67.5v38.3c0 11-9 20-20 20h-9.7c0 13.7.1 27.3.1 40.8.1 20.9.1 42.4.2 63.6 0 20.8 4 40.4 11.8 58.1 8.2 18.6 20.4 34.8 36.3 48.2 22 18.6 42.7 31.9 63 40.5 55.2 23.5 112.7 35.4 170.7 35.4 33.7 0 68.2-4 102.5-12 38.8-9 79.9-21 117.2-47.7 35-25 56.4-57.3 63.5-96.1.7-3.1 1.1-6.2 1.1-9.4 0-17.5 0-33.3.1-48.5 0-16.3.1-33.2.1-52.5v-.6c28.5 0 54.5.1 79.3.2h.7c58.6 0 103.8-26.1 130.8-75.6 30.1-55.2 47.5-113.8 51.9-174.4 3.4-46.2-1.1-94.7-14.2-152.7zm-25.6 149.9c-4.1 56.2-20.3 108.8-47.1 158.1-20.5 37.6-53 54.7-95.6 54.7h-.5c-49.8-.2-99.7-.2-149.5-.2-66.1 0-132.2.1-198.4.1h-13.5c0 10.6.2 29.4.2 40h241.8c0 37.6-.2 64.9-.2 101.5 0 .3-.2.7-.2 1-5.3 31-22.6 54.1-47.6 72-31 22.1-66.6 32.8-103 41.3-31.4 7.3-62.6 11-93.5 11-52.7 0-104.5-10.7-155.1-32.2-19.1-8.1-36.9-20.8-52.9-34.3-22.8-19.3-33.9-45.6-33.9-75.8-.1-78-.8-156.1.2-234.1.9-70.2 55.4-122.8 125.5-123 45.8-.1 91.7-.5 137.5-.5 32.1 0 64.3.2 96.4.7h2.6c77.7 0 143.3-59.6 154.1-133.7 1.3-8.6 1.4-17.4 1.4-26.2.2-30.6.1-61.2.1-91.8v-11.8h35.2c11.4 0 22.9.1 34.3.1 6.7 0 13.4 0 20.1-.1h1.3c42.5 0 74.3 18.8 96.1 55.3 16.1 26.9 24.1 56.7 30.9 86.9 10.4 46.4 16.7 93.2 13.3 141z"></path> <path d="M546.5 40c41.1 0 82.2 3.7 123 11.1 37.2 6.7 69 24 92.9 53.9 16.7 20.9 25.5 44.8 25.5 71.7 0 77.7.4 155.4-.1 233.1-.4 71.2-53.8 123.7-125.1 123.8-24.4 0-48.8.1-73.2.1H426.8c-76.8.1-140 52.1-154.4 127.5-1.9 9.8-2.2 20.1-2.3 30.1-.3 31.3-.1 62.6-.1 93.9v12.1h-20.1c-4.6 0-9.3-.1-13.9-.1h-17.4c-14.4 0-28.9-.1-43.2-.9-39-2.2-68.3-21.8-89.9-53.8-18.1-26.7-26-57.2-33.4-88-19.1-79.7-15.5-158.6 6.7-237.2 20.7-73.1 76.8-115.9 152.9-116 43.2-.1 86.3-.1 129.5-.1h202.7v-37.4c-81.1 0-162.6-.3-243.2-.3-.5-3.1 0 1.9 0 0 .1-34.3-.5-68.7.7-102.9 2-54.6 23.9-84.2 76.6-98.9 31.8-8.9 64.9-14.7 97.8-18.1 23.5-2.4 47.1-3.6 70.7-3.6m0-40c-24.9 0-50.1 1.3-74.9 3.9-37 3.8-72.1 10.3-104.4 19.3-35.1 9.8-60.7 25.7-78.3 48.7-17.2 22.4-26.2 51-27.5 87.3-.9 25-.9 50-.8 74.3 0 9.2.1 18.6 0 27.9-17.1 0-33.2 0-48.9.1-46.1.1-88.1 13.5-121.4 38.8-33.3 25.3-57.4 62-70 106.3C8.2 449.3 1.4 492.3 0 534.2c-1.4 43.5 3 87.1 13.2 129.7C21.6 699.2 31 733.5 52.3 765c14.3 21.1 31.3 37.8 50.6 49.7 21 12.9 44.6 20.2 70.3 21.6 14.6.8 28.7 1 45.5 1h17.5c5.3 0 9.6 0 13.5.1h20.4c22.1 0 40-17.9 40-40V759c0-22.1-.1-44.9.1-67.2.1-9.2.4-16.6 1.6-23 5.3-27.7 19.1-51.4 40-68.6 20.9-17.2 46.9-26.3 75.2-26.4h162.7c28.4 0 51.7 0 73.3-.1 93.5-.2 164.4-70.5 165-163.6.3-53.3.3-107.3.2-159.6 0-24.2-.1-49.2-.1-73.8 0-35.8-11.5-68.3-34.3-96.7-29.3-36.6-68.7-59.5-117-68.3C633.6 3.9 589.9 0 546.5 0zM406.9 189.2c-14.7 0-26.8-12-26.9-26.7-.1-13.5 8-28 25.9-28.1 16.1 0 28.2 11.5 28.4 26.6.1 15.1-12.3 28-27.1 28.1l-.3.1z"></path> </svg>
