<svg xmlns="http://www.w3.org/2000/svg" id="Ebene_1" viewBox="0 0 561.8 499.9"> <style>.st0{fill:none;stroke:#000;stroke-width:17;stroke-linejoin:round;stroke-miterlimit:10}</style> <path class="st0" d="M281 202.2c-26 0-47.2 21.2-47.2 47.2s21.2 47.2 47.2 47.2c26 0 47.2-21.2 47.2-47.2S307 202.2 281 202.2z"></path> <path d="M364.2 9.2c-20.9 7.7-44.1 22.3-67 42.2-5.1 4.5-9.6 8.7-13.9 12.8l-2.1 2-2.1-1.9c-3.3-3.1-6.3-5.9-9.4-8.7-37-33.1-74.9-52.1-103.6-52.1-9.5 0-17.8 2.1-24.8 6.1-13.8 8-23.3 24.6-27.4 48-3.7 21.9-2.6 49.3 3.2 79.1 1.2 6 2.6 12.2 4.2 18.4l.7 2.8-2.8.8c-7.3 2.1-14.3 4.3-20.8 6.6-29.6 10.3-54 23.5-70.6 38.4C11.6 218.2 3 234 3 249.4c0 16.4 9.8 33.5 28.3 49.3 17.8 15.3 42.9 28.7 72.4 38.7 4.8 1.7 9.9 3.3 15.1 4.8l2.8.8-.7 2.8c-1.8 7.2-3.2 13.7-4.4 19.8-5.9 30.8-6.6 58.6-2 80.4 4.4 21.3 13.8 36.7 27.2 44.4 7.1 4.1 15.6 6.2 25.3 6.2 9.6 0 20.2-2.1 31.5-6.1 22.1-7.8 46.2-22.8 69.7-43.3 3.8-3.4 7.7-6.9 11.6-10.7l2.1-2 2.1 2c5.4 5.1 10.3 9.7 15.1 13.8 35 30.1 69 46.7 95.7 46.7 9.4 0 17.8-2.1 24.8-6.2 14.3-8.3 24.1-25.3 28.6-49.3 4.2-23 3.3-51.3-2.8-82.1-1.1-5.6-2.2-10.3-3.4-14.8l-.7-2.8 2.7-.8c3.6-1.1 7.1-2.2 10.5-3.3 31.8-10.5 58.3-24.4 76.7-40.2 18-15.4 27.5-32 27.5-48.1 0-16-9.6-32.5-27.8-47.7-17.3-14.3-41.5-27.1-70.1-36.9-5.7-2-11.7-3.9-17.9-5.7l-2.7-.8.7-2.8.3-1.3c.9-3.8 1.8-7.3 2.5-10.9 6.8-32.8 8-62.7 3.6-86.6-4.4-23.3-14-39.9-27.9-47.9C412.6 5 404.5 3 395.3 3V1.5 3c-9.4 0-19.9 2.1-31.1 6.2zm-85.1 85l2.2-2.4 2.2 2.4c11.1 12 22.3 25.5 33.3 40.1l3.8 5.1-6.4-.3c-11.9-.5-22.8-.8-33.4-.8-10.4 0-21.2.3-32.9.8l-6.4.3 3.9-5.1c11.1-14.5 22.4-28 33.7-40.1zM399 223l-2.5 5.8-2.9-5.5c-5.3-10-10.7-19.8-16.2-29.2-5.8-9.9-11.5-19.3-17-28l-3.4-5.4 6.4.8c18.1 2.3 35.5 5.4 51.6 9.1l3.2.7-1 3.1c-4.9 15.2-11 31.5-18.2 48.6zm.2 53.1c7.5 17 13.9 33.7 19 49.8l1 3.1-3.2.7c-16.5 3.7-34.2 6.8-52.7 9l-6.2.7 3.4-5.3c5-8 10.3-16.8 17.1-28.5 5.9-10.3 11.4-20.3 16.2-29.7l2.9-5.6 2.5 5.8zm-37.2-73c8.6 14.7 16.5 29.5 24.3 45.2l.7 1.3-.6 1.3c-7.5 15.5-15.7 30.8-24.3 45.7-8.9 15.3-18 30-27.1 43.7l-.8 1.2-1.5.1c-16.6 1.2-34 1.8-51.6 1.8-16.5 0-33.6-.5-51-1.6l-1.5-.1-.8-1.2c-9.4-13.7-18.7-28.4-27.6-43.7-8.4-14.5-16.5-29.8-24.1-45.5l-.6-1.3.6-1.3c7.4-15.4 15.5-30.8 24-45.5 8.1-14.2 17.3-28.8 27.3-43.5l.8-1.2 1.4-.1c17.2-1.3 34.5-2 51.4-2 17.9 0 35.3.6 51.5 1.9l1.4.1.8 1.2c10.1 14.9 19 29.1 27.3 43.5zm-198.8 74l2.5-5.9 2.9 5.7c5.1 9.9 10.4 19.6 15.8 28.9 5.4 9.3 11.1 18.7 17.5 28.7l3.4 5.3-6.2-.7c-18.3-2-35.8-4.8-52-8.4l-3.1-.7 1-3.1c4.7-15.6 10.9-32.3 18.2-49.8zm0-54.1c-7.1-16.7-13.1-33.2-18-49l-1-3.1 3.2-.7c17-3.7 34.3-6.6 51.3-8.7l6.3-.8-3.5 5.4c-5.2 8.1-10.6 17.1-17.1 28.2-5.5 9.6-10.9 19.4-15.8 29l-2.9 5.7-2.5-6zM131.7 60.7c3.1-17.8 9.7-30.4 18.7-35.5 4.2-2.4 9.5-3.6 15.8-3.6 11.1 0 24.8 3.9 39.7 11.2 16.8 8.3 34.4 20.5 52.3 36.4 2.5 2.2 5.3 4.7 8.5 7.8l2.1 2-2 2.2c-16.3 17.6-32.3 37.5-47.6 58.9l-.8 1.1-1.4.1c-26.7 2.5-51.8 6.4-74.7 11.6l-2.9.6-.7-2.8c-1.6-6.2-2.9-11.9-3.9-17.5-5.4-27.4-6.5-52.5-3.1-72.5zm-5.2 265.1l-2.8-.8c-5-1.4-9.7-3-14-4.4-27.7-9.5-50.7-21.7-66.6-35.4-14.2-12.2-22-24.9-22-35.7 0-10.4 7.3-22.4 20.7-33.8 14.8-12.7 36.5-24.2 62.7-33.3 6-2.1 12.3-4.1 19.5-6.2l2.8-.8.9 2.8c6.8 22.3 16 46 27.3 70.6l.6 1.3-.6 1.3c-11.2 24.3-20.5 48.4-27.6 71.6l-.9 2.8zm140.8 97.9c-3.7 3.5-7.3 6.8-10.7 9.8-17.2 15.1-34.2 26.7-50.5 34.5-14.4 6.9-27.8 10.5-38.9 10.5-6.6 0-12.1-1.3-16.4-3.8-9-5.2-15.7-17.5-18.9-34.7-3.6-19.2-2.7-43.7 2.4-71 1.1-5.5 2.4-12 4.1-18.8l.7-2.8 2.9.6c22.7 5.1 48 8.8 75.2 10.9l1.4.1.8 1.1c15.6 22.1 31.7 42 47.9 59.3l2 2.2-2 2.1zm14.7-15.1l-2.2-2.4c-11.5-12.4-22.9-26-34-40.6l-3.8-5.1 6.3.2c10.6.4 21.6.6 32.7.6 10.7 0 22-.3 33.8-.8l6.2-.3-3.7 5c-10.2 14.1-21.4 27.8-33.1 40.8l-2.2 2.6zm148.7 29.5c-3.4 18.4-10.5 31.5-19.9 36.9-4.2 2.4-9.5 3.7-15.8 3.7-22.2 0-52.8-15.4-84-42.2-3.6-3.1-8.9-7.8-14.2-13l-2.1-2 2-2.1c15.9-17.4 31.6-37.4 46.8-59.5l.8-1.2 1.4-.1c27.4-2.4 52.8-6.3 75.6-11.6l2.9-.7.7 2.8c1.1 4.4 2.2 9 3.1 13.9 5.6 28.5 6.6 54.5 2.7 75.1zm4.8-262.5l2.8.8c5.1 1.5 10.6 3.3 16.8 5.3 26.8 9.3 49 20.9 64.4 33.7 13.8 11.5 21.4 23.5 21.4 33.9 0 10.8-8.1 23.5-22.9 35.7-16.5 13.7-40.4 25.9-69.1 35.3-3.1 1-6.4 2-9.5 3l-2.9.9-.9-2.9c-6.9-21.8-16.4-45.6-28.2-70.7l-.6-1.3.6-1.3c11.1-23.8 20.3-47.3 27.3-69.8l.8-2.6zM410.4 24.5c9.4 5.4 16.4 18.8 19.6 37.7 3.6 21.1 2.3 47.9-3.8 77.5-.6 3.3-1.4 6.6-2.2 10.1l-.3 1.2-.7 2.9-2.9-.7c-23.2-5.4-48.4-9.3-74.8-11.8l-1.4-.1-.8-1.1c-15.4-22-31.3-41.8-47.1-58.9l-2-2.1 2.1-2c4.7-4.6 8.9-8.5 13-12 21.3-18.6 42.5-32 61.3-38.9 9.2-3.4 17.5-5.1 24.8-5.1 6-.2 11.1.9 15.2 3.3z"></path> </svg>
