<svg xmlns="http://www.w3.org/2000/svg" viewBox="0 0 256 244"> <path d="M175.5 136.2h-.7c-8.3.3-14.9 7.3-14.6 15.8.2 3.9 1.8 7.5 4.4 10.2l1.5 1.5-1 1.9c-11.3 22.1-28.6 38.8-54.7 52.4-14.1 7.4-28.7 11.1-43.5 11.1-3.8 0-7.6-.2-11.4-.7-15.6-2.1-27.8-9.2-35.3-20.5-11-16.9-12-35.4-2.8-53.5 6.4-12.8 16.2-21.7 21.4-25.9-.9-3-1.9-6.7-2.7-10.2C18.1 132.5 7 150 4 169.3c-2.5 15.9.8 32.4 8.6 44.4 10.2 15.5 31 25.1 54.2 25.1 6.6 0 12.7-.7 18.8-2.2h.2c20.1-3.9 38-11.8 53.2-23.5 15-11.5 27-26.5 35.8-44.5l.7-1.5 1.7-.2c8-.9 13.9-7.7 13.6-15.8-.3-8.3-7.2-14.9-15.3-14.9zm.3 21.6c-3.4 0-6.2-2.8-6.2-6.2s2.8-6.2 6.2-6.2 6.2 2.8 6.2 6.2-2.8 6.2-6.2 6.2z"></path> <path d="M167.5 22.3C155.9 9.9 141 3 125.6 3 97.5 3 71.7 23.3 61.3 53.5c-16.2 45.2-2 85.3 12.8 110.9l1 1.7-1.1 1.6c-1.1 1.4-2 4.3-1.7 7.4v.2c.2 8.1 7.1 14.7 15.2 14.7h.7c4-.1 7.8-1.8 10.5-4.8 2.8-3 4.2-6.9 4.1-11-.2-8.1-7.1-14.7-15.2-14.7h-.7c-.3 0-.9 0-1.1.1l-2.4 1-1.3-2.2C68.6 136 62.7 111 64.8 84.3c1.3-20 8-37.6 19.8-52.1 10-12.8 29-19 42.4-19.3h.9c15.7 0 29.4 8.6 39.6 24.8 7.5 12 11.6 25.9 12.6 35.4 2.5.7 5.9 1.7 10.1 3-2.6-22.1-10.3-40.5-22.7-53.8zM87.8 169.1c3.4 0 6.2 2.8 6.2 6.2s-2.8 6.2-6.2 6.2-6.2-2.8-6.2-6.2 2.8-6.2 6.2-6.2z"></path> <path d="M252.3 172.6c-2.2-14.8-9-29.1-19.8-41.4-24.3-28.4-60-44-100.6-44h-7.1l-.8-1.7c-2.4-4.9-7.6-8.1-13.3-8.1h-.7c-8.4.4-14.9 7.5-14.6 15.9.2 8.1 7.1 14.7 15.2 14.7h.6c5.7-.3 11.1-4 13.3-9.3l.8-1.8h7.9c25.3 0 49.3 7.3 71.1 21.7 17 11.2 29 25.8 35.6 43.1 5.8 14.4 5.5 28.6-.8 40.9-9.7 18.5-26.1 28.3-47.3 28.3-11.8 0-23.6-3.1-31.3-6.3-2.6 2.3-6.1 5.1-9.3 7.5 12.4 5.1 24.5 7.7 36 7.7 30.2 0 52.2-16.5 60.5-32.9 4.7-9.2 6.4-21.8 4.6-34.3zM110.5 99.1c-3.4 0-6.2-2.8-6.2-6.2s2.8-6.2 6.2-6.2 6.2 2.8 6.2 6.2-2.8 6.2-6.2 6.2z"></path> </svg>
