<svg xmlns="http://www.w3.org/2000/svg" viewBox="0 0 52.5 52.3"><path d="M13 49c-1.1 0-3.4-.1-5.5-1.3-1.7-1-3.8-3.2-4.1-8V26.5l.1-.3s0-.1.1-.1l5.9-10.2c0-.1.1-.1.2-.2l9.1-8.5c.1-.1.2-.1.3-.2l9.2-3.4c.2-.1.3-.2.4-.2h.3l12.2.2h.2c3.9.7 6.4 2.9 7.3 6.2.2.9.3 1.9.3 3v1.6l-2.4 31.3c.1.4-.1.7-.3.9-.1 0-.1.1-.2.1s-.2.1-.3.1h-.2l-32 2.2H13zm-7.8-9.5c.1 3.4 1.1 5.6 3.2 6.8 1.2.7 2.5.9 3.4 1h.2L7.1 35.8l-1.9 3.7zm9.4 7.5h.2c6.4-1 12.3-4.1 18.6-9.7l.2-.2L19 32.4 14.6 47zm20.6-9.1c-4.3 4-8.1 6.7-12.1 8.4l.1.3 20.5-1.4-8.5-7.3zM8.4 34.5l4.8 11.2 4-13.2-8.8 2zm37.9-11.3c-2.1 4.3-5 8.4-9.6 13.4l-.1.1 8.4 7.5 1.6-20.9-.3-.1zM5.1 31.7v3.8l.3.1.9-1.7-.9-2.2h-.3zm14.9-.8l14.1 4.6-3.6-14.3L20 30.9zm12.1-10.5l3.7 14.5.2-.2c5-5.5 8.1-10.1 9.9-15l.1-.2-13.9.9zM19.9 8.6L11 16.8l-5.8 9.9 2.5 6.1 10.1-2.3L30.1 19l3.3-10.5-4.7-3.3-8.8 3.4zm12.3 10.1l12.7-.9L35 9.7l-2.8 9zM36 8.3L46.7 17l.1-.2c.7-2.6.8-4.8.3-6.5-.7-2.7-2.5-4.3-5.7-4.9h-.1L36 8.3zm-1.4-1.1L38 5.3l-6.2-.1 2.8 2z"/></svg>
