<svg xmlns="http://www.w3.org/2000/svg" viewBox="0 0 12.7 14"> <path d="M2.9 13c-.2 0-.4 0-.6-.1-.1 0-.3-.2-.4-.4-.1-.2-.2-.6.1-1.2.4-.9 2.2-1.8 2.4-1.9h.1l.1-.1-.1-.1c-.2-.2-.5-.4-.9-.6-.9-.6-2-1.4-2.2-2.5-.1-.4.1-1.3 1.3-2.4.9-.9 2.3-1.6 3.8-2.2.7-.2 1.4-.4 2.1-.4 1.4 0 2.5.5 2.7 1.4.3 1.3-.8 2.9-2.3 3.5-1 .4-1.7.5-2.2.5-.3 0-.7 0-.9-.1-.3-.2-.6-.4-.7-.6.2.1.6.4 1.3.4h.4c1.8-.2 3-1.3 3.5-2.1.3-.5.4-1.1.2-1.5-.2-.5-.9-.8-1.9-.8-.6 0-1.7.2-3.1.9C2.4 4.3 2.3 5.6 2.3 6c-.1 1 .8 1.6 1.6 2.3.3.3.7.5 1 .8l.1.1h.1c.2-.1.6-.2 1.2-.2.7 0 1.3.2 1.7.6.3.3.4.7.4 1 0 .2-.1.3-.1.4 0-.1.1-.1.1-.2 0-.2 0-.5-.3-.9-.3-.1-.7-.5-1.5-.6h-.5c-.3 0-.6 0-.8.1h-.2l.1.2c.2.5.3 1.5-.3 2.3-.4.7-1.2 1.1-2 1.1zm1.6-3.3c-.2.1-.9.5-1.4 1-.4.4-.6 1-.6 1.3 0 .2.1.3.2.4.1 0 .2.1.3.1.4 0 .9-.3 1.3-.6.2-.2.3-.4.4-.6l.1-.1v-.1c.1-.4.1-.8 0-1.3v-.2l-.3.1z"></path> </svg>
