<?xml version="1.0" encoding="UTF-8"?><svg version="1.1" viewBox="0 0 24 24" xmlns="http://www.w3.org/2000/svg" xmlns:xlink="http://www.w3.org/1999/xlink"><!--Generated by IJSVG (https://github.com/iconjar/IJSVG)--><path d="M23.9521,8.28515c-0.012207,-0.0257587 -0.0383911,-0.0386992 -0.0544434,-0.0615282l0.0134277,-0.0092773l-4.5,-6.50043c-0.0891113,-0.127694 -0.229187,-0.198927 -0.376282,-0.209548l0.0003052,-0.0043339l-7.00293,-0.495272c-0.0158691,-0.0010377 -0.0308838,-0.0037234 -0.0466919,-0.0032961l-0.0206908,-0.0014651l-7,0.500033l0.0003051,0.0042117c-0.147522,0.0103766 -0.28772,0.0818536 -0.376282,0.20967l-4.5,6.50043l0.0134277,0.0092773c-0.0160522,0.0228291 -0.0422363,0.0357695 -0.0544433,0.0615283c-0.0830078,0.174816 -0.0566406,0.381861 0.0654297,0.531285l11.5,14.0009c0.0957031,0.11573 0.237305,0.182629 0.386719,0.182629c0.149414,0 0.291016,-0.0668983 0.386719,-0.182629l11.5,-14.0009c0.12207,-0.149425 0.148438,-0.356469 0.0654296,-0.531285Zm-1.40643,-0.285153h-2.58307l-0.322022,-4.19678l2.90509,4.19678Zm-9.17102,-5.90076l5.16022,0.368591l0.368225,4.79126l-5.52844,-5.15985Zm4.85687,5.90076h-12.4631l6.23157,-5.81592l6.23157,5.81592Zm-13.1347,-0.740906l0.368225,-4.79156l5.16492,-0.372681l-5.53314,5.16425Zm13.568,1.74091l-6.66486,12.4415l-6.66486,-12.4415h13.3297Zm-14.6275,-1h-2.58307l2.90509,-4.19678l-0.322021,4.19678Zm0.163452,1l4.95593,9.2511l-7.59912,-9.2511h2.64319Zm10.6425,9.2511l4.95593,-9.2511h2.64319l-7.59912,9.2511Z" fill="#303C42"></path></svg>