<svg id="Layer_1" data-name="Layer 1" xmlns="http://www.w3.org/2000/svg" viewBox="0 0 467.11 290.59"><title>spanish</title><path d="M13.86,103.17H226.75v56.06H78.26V207H210.84v53.79H78.26V315.3H230.54v58.34H13.86ZM22.58,365.3H221.83V323.63H69.55V252.42H202.13V215.29H69.55V150.9H218V111.5H22.58Z" transform="translate(-9.86 -93.11)" style="stroke:#000;stroke-miterlimit:10;stroke-width:8px"/><path d="M307.82,278.56q.37,4.93,1.7,13.26A43.85,43.85,0,0,0,316,308.29q5.11,8.15,15.91,14t30.49,5.87q25,0,35.61-8.33t10.61-24.24q0-11.36-8.9-16.67a103.75,103.75,0,0,0-22.54-9.47L315.77,252q-5.68-1.51-16.29-5.3A75.19,75.19,0,0,1,278.65,235a72.48,72.48,0,0,1-17.8-20.83q-7.58-12.87-7.58-32.58a78.37,78.37,0,0,1,7.39-34.09,76,76,0,0,1,21.21-26.71q13.83-11.17,33.53-17.43t44.32-6.25q23.1,0,41.67,5.68a89.55,89.55,0,0,1,32,17,79.7,79.7,0,0,1,21.21,28.6q7.76,17.24,8.9,40.34H400.63q-.76-4.92-2.08-11.74A32.81,32.81,0,0,0,392.67,164q-4.54-6.25-13.45-10.8t-24.43-4.55A69.54,69.54,0,0,0,341.53,150a44.6,44.6,0,0,0-12.5,4.36,26.31,26.31,0,0,0-9.28,8.14q-3.6,5.11-3.6,13.07,0,9.09,5.11,13.83t16.1,7.77l73.49,20.08a124.21,124.21,0,0,1,23.68,9.09,74.79,74.79,0,0,1,19.7,14.39,66.27,66.27,0,0,1,13.64,20.83q5.12,12.13,5.12,28A98.15,98.15,0,0,1,466.92,324a72.89,72.89,0,0,1-19.51,28.6q-13.45,12.31-34.85,19.7t-52.46,7.39q-25.77,0-46.78-5.68t-36.18-18a85.25,85.25,0,0,1-23.87-31.44q-8.72-19.12-9.85-46Zm-55.69,8.33a94,94,0,0,0,8.14,33.52,76,76,0,0,0,20.46,26.71q13.44,11.36,33.15,17.8t46.21,6.44q49.62,0,76.9-21.4t27.27-60.42q0-19.32-8-31.44a69.61,69.61,0,0,0-19.13-19.7A89.41,89.41,0,0,0,414.07,227q-11.93-3.78-20.27-6.06l-43.56-11.74a218.1,218.1,0,0,1-20.83-6.63,53.14,53.14,0,0,1-13.26-7,20.39,20.39,0,0,1-6.82-8.52,31.11,31.11,0,0,1-1.89-11.55q0-10.23,4.54-16.86a35.79,35.79,0,0,1,11.74-10.8A51.42,51.42,0,0,1,339.07,142a76.61,76.61,0,0,1,15.72-1.7q17,0,27.28,4.73t15.72,11.17a37.47,37.47,0,0,1,7.58,13.26,104,104,0,0,1,2.84,11h46.59q-3.79-37.12-29.55-56.06t-65.53-18.94q-26.9,0-45.65,6.82t-30.3,17.61a64,64,0,0,0-16.67,24.43A77.23,77.23,0,0,0,262,181.58q0,15.54,5.11,26.14a55.57,55.57,0,0,0,13.26,17.8,65.44,65.44,0,0,0,18,11.36,150.42,150.42,0,0,0,19.7,6.82l61.75,17.8q13.64,4.17,21.21,8.33t11.18,8.52a19,19,0,0,1,4.36,8.71,49.85,49.85,0,0,1,.76,8.52q0,11-4.36,18.56A38.13,38.13,0,0,1,401,326.85a51.58,51.58,0,0,1-17.42,7.39,94.23,94.23,0,0,1-21.21,2.27q-20.46,0-32.58-6.06t-18.56-14.21a46.34,46.34,0,0,1-8.71-16.48q-2.27-8.33-3-12.88Z" transform="translate(-9.86 -93.11)" style="stroke:#000;stroke-miterlimit:10;stroke-width:8px"/></svg>
