<svg id="Layer_1" data-name="Layer 1" xmlns="http://www.w3.org/2000/svg" viewBox="0 0 701 401"><defs><style>.cls-1{fill:none;stroke:#000;stroke-miterlimit:10;opacity:0;}.cls-2{fill:#fefefe;}.cls-3{fill:#1ab16b;}.cls-4{fill:#1bb26b;}</style></defs><title>spotify</title><rect class="cls-1" x="0.5" y="0.5" width="700" height="400"/><path class="cls-2" d="M128.38,298.74a96.37,96.37,0,1,0-96.45-96.29A96.23,96.23,0,0,0,128.38,298.74Zm490.08-72.8c-.28-.71-.47-1.16-.64-1.61L601.57,182c-.79-2.07-.79-2.07-3.06-2.07-7.47,0-14.93,0-22.39,0-1.33,0-1.68-.42-1.54-1.62.11-.91,0-1.84.14-2.75.42-4.15,2.86-6.33,7-6.4a26.11,26.11,0,0,1,8.13,1.36c1.57.49,2,.17,2-1.48,0-3.77,0-7.55,0-11.32a1.67,1.67,0,0,0-1.46-1.93,41.07,41.07,0,0,0-16.13-1.28c-8.14,1-13.64,5.84-15.7,13.78a36.11,36.11,0,0,0-1,9.43c0,2,0,2-2.07,2H551c-1.06,0-1.61.44-1.6,1.58q0,6,0,12c0,1.11.43,1.58,1.57,1.53,1.66-.06,3.33.1,5-.05,1.44-.13,1.71.38,1.71,1.74,0,16.15,0,32.31,0,48.46,0,1.9.13,2,2,2h12.86c2.23,0,2.23,0,2.23-2.18,0-16.16,0-32.31,0-48.46,0-1.3.36-1.6,1.6-1.57,3.55.08,7.1.1,10.64,0a2.13,2.13,0,0,1,2.38,1.63q9.84,23.73,19.81,47.41a4.36,4.36,0,0,1-.37,4.44,7.56,7.56,0,0,1-7.7,4,18.47,18.47,0,0,1-6.94-2.1c-.94-.49-1.62-.42-2.1.66q-2.31,5.16-4.69,10.28a1.46,1.46,0,0,0,.78,2.23,32.06,32.06,0,0,0,14,3.77c5.17.17,10.11-.55,14.34-3.88a25.82,25.82,0,0,0,6.73-8.64c2.7-5.19,4.54-10.74,6.65-16.17q10.95-28.1,21.8-56.25c.7-1.82.35-2.31-1.62-2.31-4.65,0-9.3,0-14,0a1.81,1.81,0,0,0-2,1.42c-2.23,6.51-4.54,13-6.82,19.49Zm-272.6-37.43c0-2.56-.05-4.71,0-6.85.05-1.35-.51-1.78-1.8-1.76-4.51,0-9,0-13.54,0-1.63,0-1.82.2-1.82,1.85V265c0,1.64.28,1.91,1.94,1.91h13.13c1.87,0,2.07-.2,2.07-2V239.52l.41-.3a16,16,0,0,0,1.26,1.57,26.05,26.05,0,0,0,9.31,6c14.76,5.41,31.59-1.94,38.12-16.74,3.43-7.75,4-15.87,2.65-24.17a32.82,32.82,0,0,0-10.38-19.58c-8.65-7.83-21.81-10-31.92-5.27A29.22,29.22,0,0,0,345.86,188.51Zm-58.28-31a32.88,32.88,0,0,0-5.49.37c-1.36.21-2.71.49-4,.81-12.93,3.17-20.8,13-20.62,25.91.08,6.2,1.88,11.77,6.59,16.11a31.21,31.21,0,0,0,9.36,5.73c5.41,2.27,11.09,3.59,16.76,5a43.08,43.08,0,0,1,11.71,4.35c5.13,3,4.57,10.46,1,13.44a13.14,13.14,0,0,1-4.95,2.62A29.7,29.7,0,0,1,284,232c-7.07-1.39-13-5.05-18.38-9.61-1.43-1.21-1.74-1.18-2.9.2l-8.09,9.61c-1,1.18-1,1.58.22,2.62a52.63,52.63,0,0,0,12.52,8.25c11.53,5.35,23.51,7.08,35.87,3.67,15.86-4.37,22-17.79,19-31.63-1.5-7-6.24-11.47-12.36-14.67-5.38-2.82-11.18-4.42-17-5.85-4.59-1.13-9.19-2.29-13.42-4.54-3.12-1.66-4.83-4.17-4.67-7.78a8.24,8.24,0,0,1,5-7.36c4.39-2.2,9-2,13.64-1.15,6,1.11,11.24,3.92,16.15,7.44,1.7,1.22,1.91,1.19,3.16-.57l6.78-9.56c1.24-1.75,1.23-1.92-.45-3.21C310.05,160.91,299.82,157.53,287.58,157.53Zm151.59,91.14c.86-.06,2.43-.1,4-.3,19.23-2.42,32.07-18.32,31.27-36.18a33.39,33.39,0,0,0-9.75-22.91c-9-9-19.95-12.14-32.37-10.15a35,35,0,0,0-28.61,42.53C407.36,237.6,421.61,248.68,439.17,248.67Zm44.64-35.57c0,4.92,0,9.84,0,14.77a31.89,31.89,0,0,0,.54,6.17c1.12,5.89,4,10.58,9.87,12.62a28.53,28.53,0,0,0,23-1.6,1.78,1.78,0,0,0,1.06-1.76c0-3.68,0-7.36,0-11,0-1.71-.69-2.12-2.27-1.37a18.77,18.77,0,0,1-9,1.81c-3.13-.13-5.18-1.63-5.77-4.36a12.55,12.55,0,0,1-.3-2.73c0-9.81,0-19.61,0-29.41,0-1,.27-1.32,1.31-1.31,4.84.06,9.67,0,14.51.05,1.37,0,1.77-.51,1.75-1.78,0-3.77,0-7.55,0-11.32,0-1.74-.18-1.92-1.88-1.92-4.8,0-9.59,0-14.38,0-1.06,0-1.3-.32-1.29-1.32.06-4.88,0-9.76,0-14.64,0-1.76-.16-1.92-1.87-1.92H485.81c-1.79,0-2,.21-2,2,0,4.87,0,9.75,0,14.63,0,1-.29,1.34-1.31,1.29-1.75-.08-3.51,0-5.26,0-1.23,0-1.76.47-1.75,1.7q0,5.86,0,11.74c0,1.18.51,1.63,1.69,1.59,1.79-.06,3.59,0,5.39,0,1,0,1.25.24,1.24,1.22C483.78,201.78,483.81,207.44,483.81,213.1Zm58.68.5V181.86c0-1.76-.17-1.94-1.86-1.94h-13.4c-1.66,0-1.84.18-1.84,1.8q0,31.82,0,63.62c0,1.65.12,1.76,1.84,1.76H540.5c1.91,0,2-.08,2-2Zm-8.42-63.23a10.68,10.68,0,1,0,10.67,10.7A10.56,10.56,0,0,0,534.07,150.37Zm141.15,39.91a10.47,10.47,0,0,0-10.5-10.53,10.66,10.66,0,0,0-10.62,10.63,10.56,10.56,0,1,0,21.12-.1Z" transform="translate(0.5 0.5)"/><path class="cls-3" d="M128.38,298.74a96.37,96.37,0,1,1,96.54-95.51A96.25,96.25,0,0,1,128.38,298.74ZM61.86,171.67A8.42,8.42,0,0,0,65.55,179c1.92,1.32,4,2.22,6.48,1.56a141.53,141.53,0,0,1,21-4.24c5.35-.61,10.71-1.06,16.08-1.26a160.76,160.76,0,0,1,20.58.71c3.34.31,6.67.72,10,1.09a129.38,129.38,0,0,1,14,2.47,111.4,111.4,0,0,1,32,12.16,8.95,8.95,0,0,0,9-15.45c-1.76-1.07-3.58-2.06-5.42-3a136.58,136.58,0,0,0-34.69-11.86A193.27,193.27,0,0,0,134,158.08c-5.47-.54-10.94-.75-16.42-1-2.61-.11-5.23.13-7.83.15A171.62,171.62,0,0,0,87.29,159a130.25,130.25,0,0,0-19.23,4.18A8.93,8.93,0,0,0,61.86,171.67Zm56.63,18.62c-13.27-.19-22.24.51-31.14,2.11a111.82,111.82,0,0,0-13.66,3.3,7.22,7.22,0,0,0-5.16,5.59A7,7,0,0,0,71,208.47a7.29,7.29,0,0,0,7.36,1.42A104.87,104.87,0,0,1,98.19,206a133.74,133.74,0,0,1,31.8.48c15.61,2.11,30.44,6.53,44,14.69a7.27,7.27,0,0,0,4.59,1.17,7.44,7.44,0,0,0,3.08-14C160.91,195.92,138.18,190.86,118.49,190.29Zm-7.43,31.34c-2.64,0-7.78.32-12.91.86a169.2,169.2,0,0,0-21.34,3.62,5.89,5.89,0,0,0-4.44,5.38c-.22,4.26,3.45,7,7.91,6.06,15.28-3.41,30.68-5,46.32-3.22a91.65,91.65,0,0,1,37.53,12.46,6,6,0,0,0,8.53-1.86c1.77-2.93.81-6.41-2.31-8.31a93.21,93.21,0,0,0-8.86-4.77C146.33,224.67,130.27,221.67,111.06,221.63Z" transform="translate(0.5 0.5)"/><path class="cls-4" d="M618.46,225.94l8.79-25.09c2.28-6.49,4.59-13,6.82-19.49a1.81,1.81,0,0,1,2-1.42c4.66,0,9.31,0,14,0,2,0,2.32.49,1.62,2.31q-10.89,28.14-21.8,56.25c-2.11,5.43-4,11-6.65,16.17a25.82,25.82,0,0,1-6.73,8.64c-4.23,3.33-9.17,4.05-14.34,3.88a32.06,32.06,0,0,1-14-3.77,1.46,1.46,0,0,1-.78-2.23q2.37-5.13,4.69-10.28c.48-1.08,1.16-1.15,2.1-.66a18.47,18.47,0,0,0,6.94,2.1,7.56,7.56,0,0,0,7.7-4,4.36,4.36,0,0,0,.37-4.44q-10-23.65-19.81-47.41a2.13,2.13,0,0,0-2.38-1.63c-3.54.11-7.09.09-10.64,0-1.24,0-1.61.27-1.6,1.57,0,16.15,0,32.3,0,48.46,0,2.18,0,2.18-2.23,2.18H559.67c-1.92,0-2-.12-2-2,0-16.15,0-32.31,0-48.46,0-1.36-.27-1.87-1.71-1.74-1.65.15-3.32,0-5,.05-1.14,0-1.57-.42-1.57-1.53q0-6,0-12c0-1.14.54-1.59,1.6-1.58h4.56c2.07,0,2.08,0,2.07-2a36.11,36.11,0,0,1,1-9.43c2.06-7.94,7.56-12.78,15.7-13.78a41.07,41.07,0,0,1,16.13,1.28,1.67,1.67,0,0,1,1.46,1.93c-.06,3.77,0,7.55,0,11.32,0,1.65-.44,2-2,1.48a26.11,26.11,0,0,0-8.13-1.36c-4.18.07-6.62,2.25-7,6.4-.09.91,0,1.84-.14,2.75-.14,1.2.21,1.63,1.54,1.62,7.46-.08,14.92,0,22.39,0,2.27,0,2.27,0,3.06,2.07l16.25,42.3C618,224.78,618.18,225.23,618.46,225.94Z" transform="translate(0.5 0.5)"/><path class="cls-4" d="M345.86,188.51a29.22,29.22,0,0,1,9.45-7.47c10.11-4.74,23.27-2.56,31.92,5.27a32.82,32.82,0,0,1,10.38,19.58c1.38,8.3.78,16.42-2.65,24.17-6.53,14.8-23.36,22.15-38.12,16.74a26.05,26.05,0,0,1-9.31-6,16,16,0,0,1-1.26-1.57l-.41.3v25.33c0,1.84-.2,2-2.07,2H330.66c-1.66,0-1.94-.27-1.94-1.91V181.77c0-1.65.19-1.85,1.82-1.85,4.51,0,9,0,13.54,0,1.29,0,1.85.41,1.8,1.76C345.81,183.8,345.86,186,345.86,188.51Zm-.34,25A20.7,20.7,0,0,0,348.05,224c3.52,6.28,8.87,9.61,16.15,9.32,6.9-.29,11.87-3.77,14.63-10a22.82,22.82,0,0,0-.35-20,16.78,16.78,0,0,0-26.58-5.08C347.38,202.24,345.62,207.54,345.52,213.48Z" transform="translate(0.5 0.5)"/><path class="cls-4" d="M287.58,157.53c12.24,0,22.47,3.38,31.52,10.32,1.68,1.29,1.69,1.46.45,3.21l-6.78,9.56c-1.25,1.76-1.46,1.79-3.16.57-4.91-3.52-10.15-6.33-16.15-7.44-4.63-.85-9.25-1.05-13.64,1.15a8.24,8.24,0,0,0-5,7.36c-.16,3.61,1.55,6.12,4.67,7.78,4.23,2.25,8.83,3.41,13.42,4.54,5.86,1.43,11.66,3,17,5.85,6.12,3.2,10.86,7.64,12.36,14.67,2.94,13.84-3.17,27.26-19,31.63-12.36,3.41-24.34,1.68-35.87-3.67a52.63,52.63,0,0,1-12.52-8.25c-1.19-1-1.21-1.44-.22-2.62l8.09-9.61c1.16-1.38,1.47-1.41,2.9-.2C271.08,226.94,277,230.6,284,232a29.7,29.7,0,0,0,13.81-.11,13.14,13.14,0,0,0,4.95-2.62c3.61-3,4.17-10.41-1-13.44a43.08,43.08,0,0,0-11.71-4.35c-5.67-1.42-11.35-2.74-16.76-5a31.21,31.21,0,0,1-9.36-5.73c-4.71-4.34-6.51-9.91-6.59-16.11-.18-12.9,7.69-22.74,20.62-25.91,1.34-.32,2.69-.6,4-.81A32.88,32.88,0,0,1,287.58,157.53Z" transform="translate(0.5 0.5)"/><path class="cls-4" d="M439.17,248.67c-17.56,0-31.81-11.07-35.48-27a35,35,0,0,1,28.61-42.53c12.42-2,23.41,1.15,32.37,10.15a33.39,33.39,0,0,1,9.75,22.91c.8,17.86-12,33.76-31.27,36.18C441.6,248.57,440,248.61,439.17,248.67Zm18.1-34.86a20.22,20.22,0,0,0-1.73-8.71c-5.42-12.38-21.92-15.26-30.63-5.29-4.59,5.25-5.67,11.5-4.45,18.2a18.59,18.59,0,0,0,25.2,14.17C452.8,229.45,457.27,222.39,457.27,213.81Z" transform="translate(0.5 0.5)"/><path class="cls-4" d="M483.81,213.1c0-5.66,0-11.32,0-17,0-1-.28-1.26-1.24-1.22-1.8.07-3.6,0-5.39,0-1.18,0-1.7-.41-1.69-1.59q0-5.88,0-11.74c0-1.23.52-1.74,1.75-1.7,1.75.06,3.51,0,5.26,0,1,.05,1.33-.24,1.31-1.29-.06-4.88,0-9.76,0-14.63,0-1.75.21-2,2-2h13.27c1.71,0,1.87.16,1.87,1.92,0,4.88,0,9.76,0,14.64,0,1,.23,1.34,1.29,1.32,4.79-.06,9.58,0,14.38,0,1.7,0,1.88.18,1.88,1.92,0,3.77,0,7.55,0,11.32,0,1.27-.38,1.8-1.75,1.78-4.84-.07-9.67,0-14.51-.05-1,0-1.31.28-1.31,1.31,0,9.8,0,19.6,0,29.41a12.55,12.55,0,0,0,.3,2.73c.59,2.73,2.64,4.23,5.77,4.36a18.77,18.77,0,0,0,9-1.81c1.58-.75,2.26-.34,2.27,1.37,0,3.68,0,7.36,0,11a1.78,1.78,0,0,1-1.06,1.76,28.53,28.53,0,0,1-23,1.6c-5.86-2-8.75-6.73-9.87-12.62a31.89,31.89,0,0,1-.54-6.17C483.82,222.94,483.81,218,483.81,213.1Z" transform="translate(0.5 0.5)"/><path class="cls-3" d="M542.49,213.6v31.46c0,2-.08,2-2,2H527.23c-1.72,0-1.84-.11-1.84-1.76q0-31.8,0-63.62c0-1.62.18-1.8,1.84-1.8h13.4c1.69,0,1.86.18,1.86,1.94Z" transform="translate(0.5 0.5)"/><path class="cls-4" d="M534.07,150.37a10.68,10.68,0,1,1-10.77,10.57A10.62,10.62,0,0,1,534.07,150.37Z" transform="translate(0.5 0.5)"/><path class="cls-4" d="M675.22,190.28a10.56,10.56,0,1,1-10.5-10.53A10.56,10.56,0,0,1,675.22,190.28Zm-1.22,0a9.1,9.1,0,0,0-9.31-9.35,9.43,9.43,0,0,0-.1,18.85A9.36,9.36,0,0,0,674,190.3Z" transform="translate(0.5 0.5)"/><path class="cls-2" d="M61.86,171.67a8.93,8.93,0,0,1,6.2-8.52A130.25,130.25,0,0,1,87.29,159a171.62,171.62,0,0,1,22.43-1.73c2.6,0,5.22-.26,7.83-.15,5.48.24,11,.45,16.42,1a193.27,193.27,0,0,1,20.61,3.09A136.58,136.58,0,0,1,189.27,173c1.84.95,3.66,1.94,5.42,3a8.95,8.95,0,0,1-9,15.45,111.4,111.4,0,0,0-32-12.16,129.38,129.38,0,0,0-14-2.47c-3.33-.37-6.66-.78-10-1.09a160.76,160.76,0,0,0-20.58-.71c-5.37.2-10.73.65-16.08,1.26a141.53,141.53,0,0,0-21,4.24c-2.48.66-4.56-.24-6.48-1.56A8.42,8.42,0,0,1,61.86,171.67Z" transform="translate(0.5 0.5)"/><path class="cls-2" d="M118.49,190.29c19.69.57,42.42,5.63,63.18,18a7.44,7.44,0,0,1-3.08,14,7.27,7.27,0,0,1-4.59-1.17c-13.57-8.16-28.4-12.58-44-14.69a133.74,133.74,0,0,0-31.8-.48,104.87,104.87,0,0,0-19.86,3.94A7.29,7.29,0,0,1,71,208.47a7,7,0,0,1-2.44-7.18,7.22,7.22,0,0,1,5.16-5.59,111.82,111.82,0,0,1,13.66-3.3C96.25,190.8,105.22,190.1,118.49,190.29Z" transform="translate(0.5 0.5)"/><path class="cls-2" d="M111.06,221.63c19.21,0,35.27,3,50.43,10.22a93.21,93.21,0,0,1,8.86,4.77c3.12,1.9,4.08,5.38,2.31,8.31a6,6,0,0,1-8.53,1.86,91.65,91.65,0,0,0-37.53-12.46c-15.64-1.77-31-.19-46.32,3.22-4.46,1-8.13-1.8-7.91-6.06a5.89,5.89,0,0,1,4.44-5.38,169.2,169.2,0,0,1,21.34-3.62C103.28,222,108.42,221.61,111.06,221.63Z" transform="translate(0.5 0.5)"/><path class="cls-2" d="M345.52,213.48c.1-5.94,1.86-11.24,6.38-15.31a16.78,16.78,0,0,1,26.58,5.08,22.82,22.82,0,0,1,.35,20c-2.76,6.26-7.73,9.74-14.63,10-7.28.29-12.63-3-16.15-9.32A20.7,20.7,0,0,1,345.52,213.48Z" transform="translate(0.5 0.5)"/><path class="cls-2" d="M457.27,213.81c0,8.58-4.47,15.64-11.61,18.37A18.59,18.59,0,0,1,420.46,218c-1.22-6.7-.14-12.95,4.45-18.2,8.71-10,25.21-7.09,30.63,5.29A20.22,20.22,0,0,1,457.27,213.81Z" transform="translate(0.5 0.5)"/><path class="cls-2" d="M674,190.3a9.34,9.34,0,1,1-18.68.14,9.27,9.27,0,0,1,9.37-9.49A9.1,9.1,0,0,1,674,190.3Zm-4,5.12c-.77-1.07-1.4-2-2.1-2.93-.51-.66-.81-1.14.26-1.59a2.53,2.53,0,0,0,1.38-2,3.36,3.36,0,0,0-2.93-4.32,40.48,40.48,0,0,0-5.51-.13c-.84,0-.66.57-.66,1.05,0,3,0,6,0,9,0,.84.23,1.12,1.08,1.1s1.25-.16,1.12-1.07a3.69,3.69,0,0,1,0-1.24c.1-.51-.45-1.34.46-1.47s1.76-.32,2.31.71c.3.56.8,1,1.07,1.59C667.15,195.63,668.32,195.81,670,195.42Z" transform="translate(0.5 0.5)"/><path class="cls-4" d="M670,195.42c-1.66.39-2.83.21-3.54-1.29-.27-.57-.77-1-1.07-1.59-.55-1-1.5-.82-2.31-.71s-.36,1-.46,1.47a3.69,3.69,0,0,0,0,1.24c.13.91-.33,1.05-1.12,1.07s-1.09-.26-1.08-1.1c.05-3,0-6,0-9,0-.48-.18-1.08.66-1.05a40.48,40.48,0,0,1,5.51.13,3.36,3.36,0,0,1,2.93,4.32,2.53,2.53,0,0,1-1.38,2c-1.07.45-.77.93-.26,1.59C668.58,193.4,669.21,194.35,670,195.42Zm-5.64-5.54c.53,0,1,0,1.53-.09a1.49,1.49,0,0,0,.53-.17,1.61,1.61,0,0,0,.7-2.41c-.46-.65-3.69-1.15-4.31-.67-.07.05-.15.13-.15.2a10.16,10.16,0,0,0,.08,2.87C662.88,190.17,663.8,189.73,664.34,189.88Z" transform="translate(0.5 0.5)"/><path class="cls-2" d="M664.34,189.88c-.54-.15-1.46.29-1.62-.27a10.16,10.16,0,0,1-.08-2.87c0-.07.08-.15.15-.2.62-.48,3.85,0,4.31.67a1.61,1.61,0,0,1-.7,2.41,1.49,1.49,0,0,1-.53.17C665.37,189.84,664.87,189.85,664.34,189.88Z" transform="translate(0.5 0.5)"/></svg>