<svg id="Layer_1" data-name="Layer 1" xmlns="http://www.w3.org/2000/svg" viewBox="0 0 629.75 329.77"><defs><style>.cls-1{fill:#29a19c;}.cls-2{fill:#a3f7bf;fill-rule:evenodd;}.cls-3{isolation:isolate;}.cls-4{fill:#1b2028;}</style></defs><title>Streamy</title><g id="Page-1"><g id="Group-6"><g id="Group"><rect id="Rectangle" class="cls-1" x="347.35" y="27.03" width="39.65" height="111.74"/><polygon id="Triangle" class="cls-2" points="412.23 82.91 246.42 165.81 246.42 0 412.23 82.91"/><rect class="cls-1" x="282.47" y="9.01" width="39.65" height="147.79"/></g></g></g><g id="Streamy" class="cls-3"><g class="cls-3"><path class="cls-4" d="M103.09,238.33a18,18,0,0,0-8.35-5.75,30,30,0,0,0-10-1.87,26.32,26.32,0,0,0-5.67.65,22.07,22.07,0,0,0-5.51,2A12.07,12.07,0,0,0,69.37,237a9.23,9.23,0,0,0-1.62,5.51,9.13,9.13,0,0,0,3.89,7.94,36.58,36.58,0,0,0,9.81,4.7q5.91,1.95,12.73,3.89a53.06,53.06,0,0,1,12.72,5.51,30.27,30.27,0,0,1,9.81,9.57q3.89,6,3.89,16A36.84,36.84,0,0,1,117,306.9a33.83,33.83,0,0,1-9.64,11.83,41.17,41.17,0,0,1-14.11,7A62,62,0,0,1,76.34,328a61.39,61.39,0,0,1-20.74-3.4,51.93,51.93,0,0,1-17.83-11l18-19.78a26.19,26.19,0,0,0,9.81,8,28,28,0,0,0,12.23,2.83A27.38,27.38,0,0,0,84,303.9a20,20,0,0,0,5.68-2.19,12.29,12.29,0,0,0,4-3.72,9.3,9.3,0,0,0,1.54-5.35,9.7,9.7,0,0,0-4-8.19,36.75,36.75,0,0,0-10-5.11q-6-2.1-13-4.21a58.33,58.33,0,0,1-13-5.67,31.18,31.18,0,0,1-10-9.41q-4-5.82-4-15.39a34.47,34.47,0,0,1,3.65-16.21,35.13,35.13,0,0,1,9.73-11.68,42.33,42.33,0,0,1,14-7.05,57.6,57.6,0,0,1,16.37-2.35,64.27,64.27,0,0,1,18.8,2.76,43.54,43.54,0,0,1,16.38,9.24Z" transform="translate(-37.77 -34.19)"/><path class="cls-4" d="M190,265.73H168.58V292a48.83,48.83,0,0,0,.32,5.92,12,12,0,0,0,1.46,4.62,7.39,7.39,0,0,0,3.49,3,15.27,15.27,0,0,0,6.24,1.06,42.14,42.14,0,0,0,5.1-.41,8.65,8.65,0,0,0,4.78-1.86v20.26a37.24,37.24,0,0,1-8.42,1.95,79,79,0,0,1-8.6.48,46.9,46.9,0,0,1-11.34-1.29,26,26,0,0,1-9.08-4.14,19.42,19.42,0,0,1-6.08-7.37,25.22,25.22,0,0,1-2.19-11V265.73H128.7V246.28h15.56V222.93h24.32v23.35H190Z" transform="translate(-37.77 -34.19)"/><path class="cls-4" d="M202.29,246.28h24.32v12.64h.32A30,30,0,0,1,236.17,248q5.36-3.64,13.46-3.65c1.4,0,2.81.06,4.21.16a21.47,21.47,0,0,1,3.89.65v22.21a36.9,36.9,0,0,0-5.1-1.22,34.45,34.45,0,0,0-5.27-.4q-7,0-11,1.94a14.69,14.69,0,0,0-6.24,5.43,20.64,20.64,0,0,0-2.83,8.35,80,80,0,0,0-.65,10.7v32.91H202.29Z" transform="translate(-37.77 -34.19)"/><path class="cls-4" d="M339.92,311.44A38.82,38.82,0,0,1,325.17,323,44.25,44.25,0,0,1,306.69,327a49.46,49.46,0,0,1-17.1-2.92,41.15,41.15,0,0,1-13.95-8.34,39.24,39.24,0,0,1-9.32-13.05,44.3,44.3,0,0,1,0-34,39.24,39.24,0,0,1,9.32-13,41.18,41.18,0,0,1,13.95-8.35,49.46,49.46,0,0,1,17.1-2.92A38.88,38.88,0,0,1,322,247.25a31.88,31.88,0,0,1,11.67,8.35,38.15,38.15,0,0,1,7.37,13,52.56,52.56,0,0,1,2.59,17v7.62H287.23a19.28,19.28,0,0,0,6.33,11.1,17.88,17.88,0,0,0,12,4.13,18.27,18.27,0,0,0,10.13-2.67A27.41,27.41,0,0,0,322.9,299Zm-20.59-34.69a14.09,14.09,0,0,0-4.05-10.54,14.43,14.43,0,0,0-10.86-4.37,18.29,18.29,0,0,0-7.13,1.29,18,18,0,0,0-5.27,3.33,14.58,14.58,0,0,0-3.41,4.7,15.53,15.53,0,0,0-1.38,5.59Z" transform="translate(-37.77 -34.19)"/><path class="cls-4" d="M407.83,315.17h-.32a22.93,22.93,0,0,1-10.78,9.08A37.15,37.15,0,0,1,382.55,327a36.42,36.42,0,0,1-10.62-1.54,26.67,26.67,0,0,1-9-4.62,22.37,22.37,0,0,1-6.16-7.62,23.26,23.26,0,0,1-2.27-10.53A24.09,24.09,0,0,1,357,291.18a22.36,22.36,0,0,1,6.8-7.78,33.92,33.92,0,0,1,9.81-4.78,70.78,70.78,0,0,1,11.43-2.52,109.66,109.66,0,0,1,11.83-1c3.95-.11,7.59-.16,10.94-.16a12.66,12.66,0,0,0-4.62-10.3,16.69,16.69,0,0,0-10.94-3.8,23.74,23.74,0,0,0-10.94,2.51,29.66,29.66,0,0,0-8.83,6.89l-13-13.29a44.6,44.6,0,0,1,15.88-9.49,56.71,56.71,0,0,1,18.81-3.16q10.69,0,17.59,2.68a25.57,25.57,0,0,1,11,7.86,30.37,30.37,0,0,1,5.75,12.72A83.65,83.65,0,0,1,430.2,285v40H407.83Zm-6-24.64q-2.76,0-6.89.24a35.18,35.18,0,0,0-7.95,1.38,17.72,17.72,0,0,0-6.48,3.4,7.88,7.88,0,0,0-2.67,6.33,7,7,0,0,0,3.72,6.48,15.56,15.56,0,0,0,7.78,2.11,24.67,24.67,0,0,0,6.89-1,20.54,20.54,0,0,0,5.92-2.76,13.22,13.22,0,0,0,4.13-4.54,13.05,13.05,0,0,0,1.54-6.48v-5.19Z" transform="translate(-37.77 -34.19)"/><path class="cls-4" d="M445.44,246.28h23.34V257h.33a19.15,19.15,0,0,1,3.24-4.54,23.4,23.4,0,0,1,5-4.06,28.86,28.86,0,0,1,6.65-2.91,27.58,27.58,0,0,1,8.1-1.14,30.75,30.75,0,0,1,14.67,3.41,21.5,21.5,0,0,1,9.65,10.69q4.21-7.6,10.21-10.86t14.75-3.24A30,30,0,0,1,554.78,247a21.93,21.93,0,0,1,8.59,7.29,30.93,30.93,0,0,1,4.54,10.86,62.5,62.5,0,0,1,1.37,13.37v46.53H545V279.18a18.36,18.36,0,0,0-2.35-9.48q-2.36-4-8.35-4a16,16,0,0,0-7,1.38,11.53,11.53,0,0,0-4.54,3.81,15.62,15.62,0,0,0-2.43,5.67,30.71,30.71,0,0,0-.73,6.81v41.66H495.2V283.4c0-1.41-.05-3.14-.16-5.19a20.65,20.65,0,0,0-1.13-5.83,11.2,11.2,0,0,0-3.16-4.71q-2.19-1.94-6.41-1.94a15.09,15.09,0,0,0-7.62,1.7,11.62,11.62,0,0,0-4.45,4.54,18.64,18.64,0,0,0-2,6.4,56,56,0,0,0-.49,7.46v39.23H445.44Z" transform="translate(-37.77 -34.19)"/><path class="cls-4" d="M631.85,337.86q-2.43,6.33-4.7,11.19a26.77,26.77,0,0,1-5.75,8.18,22.48,22.48,0,0,1-8.84,5,47.91,47.91,0,0,1-14.1,1.7A56.94,56.94,0,0,1,580.3,361l3.25-19.94a27.66,27.66,0,0,0,11.34,2.44,20.65,20.65,0,0,0,6.65-.9,10.85,10.85,0,0,0,4.29-2.59,14.28,14.28,0,0,0,2.84-4.13c.76-1.62,1.57-3.52,2.43-5.68l1.79-4.53-34.53-79.43h26.26l20.26,52h.33l17.34-52h25Z" transform="translate(-37.77 -34.19)"/></g></g></svg>