<svg id="Layer_1" data-name="Layer 1" xmlns="http://www.w3.org/2000/svg" viewBox="0 0 637.21 156.31"><defs><style>.cls-1{fill:#29a19c;}.cls-2{fill:#a3f7bf;fill-rule:evenodd;}.cls-3{isolation:isolate;}.cls-4{fill:#1b2028;}</style></defs><title>streamy-horizontal</title><g id="Page-1"><g id="Group-6"><g id="Group"><rect id="Rectangle" class="cls-1" x="95.15" y="25.49" width="37.38" height="105.34"/><polygon id="Triangle" class="cls-2" points="156.31 78.16 0 156.31 0 0 156.31 78.16"/><rect class="cls-1" x="33.98" y="8.5" width="37.38" height="139.32"/></g></g></g><g id="Streamy" class="cls-3"><g class="cls-3"><path class="cls-4" d="M256.33,168.64a13.21,13.21,0,0,0-6.14-4.23,21.83,21.83,0,0,0-7.33-1.38,19.07,19.07,0,0,0-4.17.48,16.25,16.25,0,0,0-4.05,1.49,9,9,0,0,0-3.1,2.68,6.86,6.86,0,0,0-1.19,4.06,6.69,6.69,0,0,0,2.86,5.83,26.75,26.75,0,0,0,7.21,3.46q4.35,1.42,9.36,2.86a38.8,38.8,0,0,1,9.35,4.05,22.19,22.19,0,0,1,7.21,7q2.87,4.42,2.86,11.8a27.12,27.12,0,0,1-2.62,12.28,24.85,24.85,0,0,1-7.09,8.7,30.24,30.24,0,0,1-10.37,5.12,47.56,47.56,0,0,1-27.71-.83,38.26,38.26,0,0,1-13.11-8.1l13.23-14.54a19.36,19.36,0,0,0,7.21,5.9,20.59,20.59,0,0,0,9,2.08,20.24,20.24,0,0,0,4.59-.54,14.83,14.83,0,0,0,4.17-1.6,9.06,9.06,0,0,0,3-2.75,6.85,6.85,0,0,0,1.13-3.93,7.13,7.13,0,0,0-2.92-6,26.87,26.87,0,0,0-7.33-3.75q-4.41-1.54-9.53-3.1a42.57,42.57,0,0,1-9.54-4.17,23,23,0,0,1-7.33-6.91q-2.91-4.29-2.92-11.33a25.3,25.3,0,0,1,2.69-11.91,25.68,25.68,0,0,1,7.15-8.58,30.94,30.94,0,0,1,10.3-5.19,42.33,42.33,0,0,1,12-1.73,47.38,47.38,0,0,1,13.83,2,31.9,31.9,0,0,1,12,6.79Z" transform="translate(-34.1 -111.69)"/><path class="cls-4" d="M320.21,188.78H304.48v19.3a36.07,36.07,0,0,0,.24,4.35,8.67,8.67,0,0,0,1.07,3.4,5.44,5.44,0,0,0,2.56,2.21,11.47,11.47,0,0,0,4.59.77,30.55,30.55,0,0,0,3.75-.3,6.26,6.26,0,0,0,3.52-1.37V232a27.41,27.41,0,0,1-6.2,1.43,56.68,56.68,0,0,1-6.31.36,34.24,34.24,0,0,1-8.35-1,18.79,18.79,0,0,1-6.67-3,14.06,14.06,0,0,1-4.47-5.42,18.54,18.54,0,0,1-1.61-8.1V188.78H275.16v-14.3H286.6V157.31h17.88v17.17h15.73Z" transform="translate(-34.1 -111.69)"/><path class="cls-4" d="M329.27,174.48h17.88v9.29h.23a22,22,0,0,1,6.8-8,17.13,17.13,0,0,1,9.89-2.68c1,0,2.06,0,3.1.11a16.24,16.24,0,0,1,2.86.48V190a25.53,25.53,0,0,0-3.76-.89,24.1,24.1,0,0,0-3.87-.3,18.84,18.84,0,0,0-8.1,1.43,10.69,10.69,0,0,0-4.59,4,15.09,15.09,0,0,0-2.09,6.14,59.33,59.33,0,0,0-.47,7.86v24.2H329.27Z" transform="translate(-34.1 -111.69)"/><path class="cls-4" d="M430.45,222.39a28.58,28.58,0,0,1-10.84,8.46,32.59,32.59,0,0,1-13.59,3,36.48,36.48,0,0,1-12.57-2.15,30.07,30.07,0,0,1-10.25-6.14,28.76,28.76,0,0,1-6.86-9.59,32.58,32.58,0,0,1,0-25,28.86,28.86,0,0,1,6.86-9.59,30.23,30.23,0,0,1,10.25-6.14A36.47,36.47,0,0,1,406,173.05a28.61,28.61,0,0,1,11.26,2.14,23.41,23.41,0,0,1,8.58,6.14,27.85,27.85,0,0,1,5.43,9.59,38.76,38.76,0,0,1,1.9,12.52V209H391.72a14.08,14.08,0,0,0,4.65,8.16,13.12,13.12,0,0,0,8.82,3,13.39,13.39,0,0,0,7.45-2,20,20,0,0,0,5.3-5.06Zm-15.13-25.51a10.35,10.35,0,0,0-3-7.74,10.59,10.59,0,0,0-8-3.22,13.53,13.53,0,0,0-5.24,1,13.23,13.23,0,0,0-3.87,2.44,10.78,10.78,0,0,0-2.51,3.46,11.49,11.49,0,0,0-1,4.11Z" transform="translate(-34.1 -111.69)"/><path class="cls-4" d="M480.39,225.13h-.24a16.81,16.81,0,0,1-7.93,6.67,27.67,27.67,0,0,1-18.23.9,19.88,19.88,0,0,1-6.62-3.4,16.47,16.47,0,0,1-4.52-5.6,17,17,0,0,1-1.67-7.75,17.75,17.75,0,0,1,1.84-8.46,16.62,16.62,0,0,1,5-5.72,25,25,0,0,1,7.21-3.52,53.35,53.35,0,0,1,8.4-1.85,82.26,82.26,0,0,1,8.7-.71q4.35-.12,8.05-.12A9.32,9.32,0,0,0,477,188a12.28,12.28,0,0,0-8-2.8,17.53,17.53,0,0,0-8.05,1.85,22,22,0,0,0-6.49,5.06l-9.54-9.77a32.81,32.81,0,0,1,11.68-7,41.74,41.74,0,0,1,13.83-2.32,36.2,36.2,0,0,1,12.93,2,18.87,18.87,0,0,1,8.1,5.78,22.2,22.2,0,0,1,4.23,9.36A61,61,0,0,1,496.83,203V232.4H480.39ZM476,207q-2,0-5.07.18a26.14,26.14,0,0,0-5.84,1,13,13,0,0,0-4.76,2.51,5.73,5.73,0,0,0-2,4.64,5.11,5.11,0,0,0,2.74,4.77,11.39,11.39,0,0,0,5.72,1.55,18.21,18.21,0,0,0,5.07-.71,15.26,15.26,0,0,0,4.35-2,9.71,9.71,0,0,0,3-3.34,9.55,9.55,0,0,0,1.14-4.76V207Z" transform="translate(-34.1 -111.69)"/><path class="cls-4" d="M508,174.48H525.2v7.86h.24a14.59,14.59,0,0,1,2.38-3.34,17.16,17.16,0,0,1,3.69-3,21,21,0,0,1,4.89-2.15,20.25,20.25,0,0,1,6-.83,22.57,22.57,0,0,1,10.78,2.5,15.87,15.87,0,0,1,7.1,7.86,19.29,19.29,0,0,1,7.5-8,22.58,22.58,0,0,1,10.85-2.38,22.14,22.14,0,0,1,9.83,2,16.07,16.07,0,0,1,6.32,5.37,22.63,22.63,0,0,1,3.34,8,45.92,45.92,0,0,1,1,9.83V232.4H581.21V198.67a13.47,13.47,0,0,0-1.73-7c-1.15-1.95-3.2-2.92-6.13-2.92a11.91,11.91,0,0,0-5.19,1,8.65,8.65,0,0,0-3.34,2.8,11.55,11.55,0,0,0-1.78,4.17,22.63,22.63,0,0,0-.54,5V232.4H544.62V201.77c0-1,0-2.31-.12-3.82a15.26,15.26,0,0,0-.83-4.29,8.22,8.22,0,0,0-2.32-3.45,6.87,6.87,0,0,0-4.71-1.43A11,11,0,0,0,531,190a8.49,8.49,0,0,0-3.28,3.34,13.58,13.58,0,0,0-1.49,4.7,40.4,40.4,0,0,0-.36,5.49V232.4H508Z" transform="translate(-34.1 -111.69)"/><path class="cls-4" d="M645.09,241.81q-1.79,4.65-3.46,8.23a19.68,19.68,0,0,1-4.23,6,16.55,16.55,0,0,1-6.49,3.7A35.27,35.27,0,0,1,620.54,261a42.22,42.22,0,0,1-13.35-2.14l2.39-14.66a20.47,20.47,0,0,0,8.34,1.78,15.49,15.49,0,0,0,4.88-.65,8.07,8.07,0,0,0,3.16-1.91,10.51,10.51,0,0,0,2.09-3c.55-1.19,1.15-2.58,1.79-4.17l1.31-3.34-25.39-58.39h19.31L640,212.73h.23L653,174.48h18.35Z" transform="translate(-34.1 -111.69)"/></g></g></svg>