<svg width="821" height="154" viewBox="0 0 821 154" fill="none" xmlns="http://www.w3.org/2000/svg">
<path d="M214.74 53.7074C214.408 50.0615 212.933 47.2277 210.315 45.206C207.73 43.151 204.034 42.1236 199.228 42.1236C196.046 42.1236 193.395 42.5379 191.274 43.3665C189.152 44.1951 187.561 45.3385 186.501 46.7969C185.44 48.2221 184.893 49.8627 184.86 51.7188C184.794 53.2434 185.092 54.5857 185.755 55.7457C186.451 56.9058 187.445 57.9332 188.738 58.8281C190.064 59.6899 191.655 60.4522 193.511 61.1151C195.367 61.7779 197.455 62.358 199.775 62.8551L208.525 64.8438C213.563 65.9375 218.004 67.3958 221.849 69.2188C225.727 71.0417 228.975 73.2126 231.593 75.7315C234.245 78.2505 236.25 81.1506 237.609 84.4318C238.968 87.7131 239.664 91.392 239.697 95.4688C239.664 101.899 238.04 107.417 234.825 112.024C231.61 116.631 226.986 120.161 220.954 122.614C214.955 125.066 207.713 126.293 199.228 126.293C190.71 126.293 183.286 125.017 176.955 122.464C170.625 119.912 165.703 116.035 162.19 110.831C158.677 105.627 156.87 99.0483 156.771 91.0938H180.336C180.535 94.375 181.413 97.1094 182.971 99.2969C184.529 101.484 186.667 103.142 189.384 104.268C192.135 105.395 195.317 105.959 198.93 105.959C202.244 105.959 205.061 105.511 207.382 104.616C209.735 103.722 211.541 102.479 212.801 100.888C214.06 99.2969 214.706 97.474 214.74 95.419C214.706 93.4967 214.11 91.8561 212.95 90.4972C211.79 89.1051 210 87.9119 207.58 86.9176C205.194 85.8902 202.145 84.9455 198.433 84.0838L187.794 81.598C178.977 79.5762 172.034 76.3116 166.963 71.804C161.892 67.2633 159.373 61.1316 159.406 53.4091C159.373 47.1117 161.063 41.5933 164.477 36.8537C167.891 32.1141 172.614 28.4186 178.646 25.767C184.678 23.1155 191.555 21.7898 199.278 21.7898C207.166 21.7898 214.01 23.1321 219.811 25.8168C225.644 28.4683 230.168 32.197 233.383 37.0028C236.598 41.8087 238.239 47.3769 238.305 53.7074H214.74ZM301.394 92.0384V48.6364H325.656V125H302.488V110.781H301.693C300.002 115.455 297.119 119.167 293.042 121.918C288.999 124.635 284.11 125.994 278.376 125.994C273.172 125.994 268.598 124.801 264.654 122.415C260.71 120.028 257.644 116.697 255.457 112.422C253.269 108.113 252.159 103.075 252.126 97.3082V48.6364H276.437V92.5355C276.47 96.6785 277.564 99.9432 279.718 102.33C281.873 104.716 284.806 105.909 288.518 105.909C290.937 105.909 293.108 105.379 295.031 104.318C296.986 103.224 298.527 101.65 299.654 99.5952C300.814 97.5071 301.394 94.9882 301.394 92.0384ZM341.13 125V48.6364H364.745V62.5568H365.54C366.932 57.5189 369.203 53.7737 372.351 51.321C375.5 48.8352 379.162 47.5923 383.339 47.5923C384.465 47.5923 385.626 47.6752 386.819 47.8409C388.012 47.9735 389.122 48.1889 390.15 48.4872V69.6165C388.99 69.2187 387.465 68.9039 385.576 68.6719C383.72 68.4399 382.063 68.3239 380.604 68.3239C377.721 68.3239 375.119 68.9702 372.799 70.2628C370.512 71.5223 368.706 73.2955 367.38 75.5824C366.087 77.8362 365.441 80.4877 365.441 83.5369V125H341.13ZM476.456 48.6364L450.256 125H422.415L396.265 48.6364H421.868L435.938 101.236H436.733L450.853 48.6364H476.456ZM519.013 126.442C511.026 126.442 504.132 124.867 498.331 121.719C492.564 118.537 488.123 114.013 485.008 108.146C481.925 102.247 480.384 95.2367 480.384 87.1165C480.384 79.2282 481.942 72.3343 485.057 66.4347C488.173 60.5019 492.564 55.8949 498.232 52.6136C503.9 49.2992 510.578 47.642 518.268 47.642C523.703 47.642 528.675 48.4872 533.182 50.1776C537.69 51.8679 541.584 54.3703 544.866 57.6847C548.147 60.9991 550.699 65.0923 552.522 69.9645C554.345 74.8035 555.256 80.3551 555.256 86.6193V92.6847H488.885V78.5653H532.635C532.602 75.9801 531.989 73.6766 530.796 71.6548C529.603 69.633 527.962 68.0587 525.874 66.9318C523.819 65.7718 521.449 65.1918 518.765 65.1918C516.047 65.1918 513.611 65.8049 511.456 67.0312C509.302 68.2244 507.595 69.8651 506.336 71.9531C505.076 74.008 504.413 76.3447 504.347 78.9631V93.331C504.347 96.4465 504.96 99.1809 506.187 101.534C507.413 103.854 509.153 105.661 511.407 106.953C513.661 108.246 516.345 108.892 519.461 108.892C521.615 108.892 523.571 108.594 525.327 107.997C527.084 107.401 528.592 106.522 529.851 105.362C531.111 104.202 532.055 102.777 532.685 101.087L555.008 101.733C554.08 106.738 552.041 111.096 548.893 114.808C545.777 118.487 541.684 121.354 536.613 123.409C531.542 125.431 525.675 126.442 519.013 126.442ZM580.487 153.636C577.57 153.636 574.819 153.404 572.234 152.94C569.649 152.509 567.428 151.929 565.572 151.2L570.942 133.551C573.328 134.347 575.482 134.811 577.405 134.943C579.36 135.076 581.034 134.761 582.426 133.999C583.851 133.269 584.945 131.96 585.707 130.071L586.652 127.784L559.507 48.6364H584.961L599.031 103.125H599.827L614.095 48.6364H639.699L610.913 132.308C609.521 136.484 607.549 140.163 604.997 143.345C602.478 146.56 599.213 149.079 595.203 150.902C591.226 152.725 586.32 153.636 580.487 153.636ZM715.689 71.9531L693.367 72.5497C693.135 70.9588 692.505 69.5502 691.478 68.3239C690.45 67.0644 689.108 66.0866 687.451 65.3906C685.827 64.6615 683.938 64.2969 681.783 64.2969C678.966 64.2969 676.563 64.8603 674.574 65.9872C672.619 67.1141 671.658 68.6387 671.691 70.5611C671.658 72.0526 672.254 73.3452 673.481 74.4389C674.74 75.5327 676.977 76.411 680.192 77.0739L694.908 79.858C702.531 81.3163 708.199 83.7358 711.911 87.1165C715.656 90.4972 717.546 94.9716 717.579 100.54C717.546 105.777 715.988 110.334 712.905 114.212C709.856 118.089 705.68 121.106 700.377 123.26C695.074 125.381 689.009 126.442 682.181 126.442C671.277 126.442 662.676 124.205 656.378 119.73C650.114 115.223 646.535 109.19 645.64 101.634L669.653 101.037C670.183 103.821 671.558 105.942 673.779 107.401C676 108.859 678.833 109.588 682.28 109.588C685.396 109.588 687.931 109.008 689.887 107.848C691.842 106.688 692.837 105.147 692.87 103.224C692.837 101.501 692.074 100.125 690.583 99.098C689.091 98.0374 686.755 97.2088 683.573 96.6122L670.249 94.0767C662.593 92.6847 656.892 90.116 653.147 86.3707C649.402 82.5923 647.546 77.7865 647.579 71.9531C647.546 66.849 648.904 62.4905 651.655 58.8778C654.406 55.232 658.317 52.4479 663.388 50.5256C668.459 48.6032 674.442 47.642 681.336 47.642C691.677 47.642 699.83 49.813 705.796 54.1548C711.762 58.4635 715.06 64.3963 715.689 71.9531Z" fill="#3F4444"/>
<path opacity="0.3" d="M99.1466 18.4934H75.6632V18.7869C80.6458 18.7869 85.4242 20.7663 88.9474 24.2894C92.4706 27.8126 94.4499 32.5911 94.4499 37.5736H19.3033C19.3033 32.5911 21.2826 27.8126 24.8057 24.2894C28.3289 20.7663 33.1074 18.7869 38.0899 18.7869V18.4934H14.6066C10.8697 18.4934 7.28585 19.9779 4.64347 22.6203C2.00108 25.2627 0.516602 28.8465 0.516602 32.5834L0.516602 135.91C0.516602 139.647 2.00108 143.231 4.64347 145.873C7.28585 148.516 10.8697 150 14.6066 150H99.1466C102.883 150 106.467 148.516 109.11 145.873C111.752 143.231 113.237 139.647 113.237 135.91V32.5834C113.237 28.8465 111.752 25.2627 109.11 22.6203C106.467 19.9779 102.883 18.4934 99.1466 18.4934Z" fill="#004C97"/>
<path d="M75.6647 18.7867C75.6647 13.8041 73.6854 9.02567 70.1622 5.50249C66.639 1.9793 61.8605 0 56.878 0C51.8955 0 47.117 1.9793 43.5938 5.50249C40.0707 9.02567 38.0913 13.8041 38.0913 18.7867C33.1088 18.7867 28.3304 20.766 24.8072 24.2891C21.284 27.8123 19.3047 32.5908 19.3047 37.5733H94.4513C94.4513 32.5908 92.472 27.8123 88.9488 24.2891C85.4257 20.766 80.6472 18.7867 75.6647 18.7867ZM56.878 25.8317C55.4846 25.8317 54.1226 25.4185 52.964 24.6444C51.8055 23.8702 50.9025 22.77 50.3693 21.4827C49.8361 20.1954 49.6965 18.7788 49.9684 17.4123C50.2402 16.0457 50.9112 14.7904 51.8964 13.8051C52.8817 12.8198 54.137 12.1489 55.5036 11.877C56.8702 11.6052 58.2867 11.7447 59.574 12.2779C60.8613 12.8112 61.9616 13.7141 62.7357 14.8727C63.5098 16.0312 63.923 17.3933 63.923 18.7867C63.9253 19.7125 63.7447 20.6296 63.3915 21.4854C63.0382 22.3412 62.5194 23.1188 61.8648 23.7734C61.2101 24.4281 60.4325 24.9469 59.5768 25.3001C58.721 25.6533 57.8038 25.834 56.878 25.8317V25.8317Z" fill="#004C97"/>
<path d="M66.4421 80.0044H47.1201V59.3831C47.1201 58.6886 47.6896 58.1213 48.3856 58.1213H65.1766C65.8714 58.1213 66.4421 58.6886 66.4421 59.3831V80.0044Z" fill="#53B5C9"/>
<path d="M47.1201 99.2681H66.4421V119.89C66.4421 120.584 65.8714 121.152 65.1766 121.152H48.3856C47.6896 121.152 47.1201 120.584 47.1201 119.89V99.2681Z" fill="#DC701A"/>
<path d="M47.1189 80.0041V99.2681H26.4364C25.7404 99.2681 25.1709 98.7003 25.1709 98.0063V81.2659C25.1709 80.5724 25.7404 80.0041 26.4364 80.0041H47.1189" fill="#E32687"/>
<path d="M66.4424 99.2681V80.0041H87.1236C87.8209 80.0041 88.3892 80.5724 88.3892 81.2659V98.0063C88.3892 98.7003 87.8209 99.2681 87.1236 99.2681H66.4424Z" fill="#6BC42E"/>
<path d="M66.4421 99.2688H47.1201V80.0038H66.4421V99.2688Z" fill="#254A9B"/>
</svg>
