<svg width="700" height="400" viewBox="0 0 700 400" fill="none" xmlns="http://www.w3.org/2000/svg">
<path d="M111.95 253.615C111.594 249.709 110.014 246.673 107.209 244.506C104.439 242.305 100.479 241.204 95.3303 241.204C91.9212 241.204 89.0803 241.648 86.8075 242.536C84.5348 243.423 82.8303 244.648 81.6939 246.211C80.5575 247.738 79.9716 249.496 79.9361 251.484C79.8651 253.118 80.1847 254.556 80.8949 255.799C81.6406 257.042 82.706 258.143 84.0909 259.102C85.5114 260.025 87.2159 260.842 89.2045 261.552C91.1932 262.262 93.4304 262.884 95.9162 263.416L105.291 265.547C110.689 266.719 115.447 268.281 119.567 270.234C123.722 272.188 127.202 274.513 130.007 277.212C132.848 279.911 134.996 283.018 136.452 286.534C137.908 290.05 138.654 293.991 138.69 298.359C138.654 305.249 136.914 311.161 133.469 316.097C130.025 321.033 125.071 324.815 118.608 327.443C112.18 330.071 104.421 331.385 95.3303 331.385C86.2038 331.385 78.2493 330.018 71.4666 327.283C64.6839 324.549 59.4105 320.394 55.6463 314.819C51.8821 309.244 49.9467 302.195 49.8402 293.672H75.0888C75.3018 297.188 76.2429 300.117 77.9119 302.461C79.581 304.805 81.8714 306.58 84.7834 307.788C87.7308 308.995 91.1399 309.599 95.0107 309.599C98.5618 309.599 101.58 309.119 104.066 308.161C106.587 307.202 108.523 305.87 109.872 304.165C111.222 302.461 111.914 300.508 111.95 298.306C111.914 296.246 111.275 294.489 110.032 293.033C108.789 291.541 106.871 290.263 104.279 289.197C101.722 288.097 98.4553 287.085 94.478 286.161L83.0788 283.498C73.6328 281.332 66.1932 277.834 60.7599 273.004C55.3267 268.139 52.6278 261.57 52.6634 253.295C52.6278 246.548 54.4389 240.636 58.0966 235.558C61.7543 230.479 66.8146 226.52 73.2777 223.679C79.7408 220.838 87.1094 219.418 95.3835 219.418C103.835 219.418 111.168 220.856 117.383 223.732C123.633 226.573 128.48 230.568 131.925 235.717C135.369 240.866 137.127 246.832 137.198 253.615H111.95ZM204.794 294.684V248.182H230.788V330H205.966V314.766H205.114C203.303 319.773 200.213 323.75 195.845 326.697C191.513 329.609 186.275 331.065 180.131 331.065C174.556 331.065 169.656 329.787 165.43 327.23C161.204 324.673 157.919 321.104 155.575 316.523C153.232 311.907 152.042 306.509 152.006 300.33V248.182H178.054V295.217C178.089 299.656 179.261 303.153 181.57 305.71C183.878 308.267 187.021 309.545 190.998 309.545C193.59 309.545 195.916 308.977 197.976 307.841C200.071 306.669 201.722 304.982 202.93 302.781C204.173 300.543 204.794 297.844 204.794 294.684ZM247.368 330V248.182H272.67V263.097H273.522C275.013 257.699 277.446 253.686 280.819 251.058C284.193 248.395 288.117 247.063 292.591 247.063C293.799 247.063 295.042 247.152 296.32 247.33C297.599 247.472 298.788 247.702 299.889 248.022V270.661C298.646 270.234 297.013 269.897 294.988 269.648C293 269.4 291.224 269.276 289.662 269.276C286.572 269.276 283.785 269.968 281.299 271.353C278.849 272.702 276.913 274.602 275.493 277.053C274.108 279.467 273.415 282.308 273.415 285.575V330H247.368ZM392.361 248.182L364.289 330H334.459L306.441 248.182H333.873L348.948 304.538H349.8L364.928 248.182H392.361ZM437.957 331.545C429.399 331.545 422.013 329.858 415.798 326.484C409.619 323.075 404.861 318.228 401.523 311.942C398.22 305.621 396.569 298.111 396.569 289.411C396.569 280.959 398.238 273.572 401.576 267.251C404.914 260.895 409.619 255.959 415.692 252.443C421.764 248.892 428.92 247.116 437.158 247.116C442.982 247.116 448.309 248.022 453.138 249.833C457.968 251.644 462.14 254.325 465.656 257.876C469.172 261.428 471.906 265.813 473.859 271.033C475.812 276.218 476.789 282.166 476.789 288.878V295.376H405.677V280.249H452.552C452.517 277.479 451.86 275.011 450.582 272.844C449.303 270.678 447.545 268.991 445.308 267.784C443.106 266.541 440.567 265.92 437.691 265.92C434.779 265.92 432.169 266.577 429.861 267.891C427.552 269.169 425.724 270.927 424.374 273.164C423.025 275.366 422.314 277.869 422.243 280.675V296.069C422.243 299.407 422.9 302.337 424.214 304.858C425.528 307.344 427.393 309.279 429.807 310.664C432.222 312.049 435.099 312.741 438.437 312.741C440.745 312.741 442.84 312.422 444.722 311.783C446.604 311.143 448.22 310.202 449.569 308.96C450.919 307.717 451.931 306.19 452.606 304.379L476.523 305.071C475.528 310.433 473.344 315.103 469.971 319.08C466.633 323.022 462.247 326.094 456.814 328.295C451.381 330.462 445.095 331.545 437.957 331.545ZM503.822 360.682C500.697 360.682 497.749 360.433 494.98 359.936C492.21 359.474 489.83 358.853 487.842 358.072L493.595 339.162C496.151 340.014 498.46 340.511 500.519 340.653C502.615 340.795 504.408 340.458 505.899 339.641C507.426 338.86 508.598 337.457 509.415 335.433L510.427 332.983L481.343 248.182H508.616L523.691 306.562H524.543L539.83 248.182H567.263L536.421 337.83C534.93 342.305 532.817 346.246 530.083 349.656C527.384 353.1 523.886 355.799 519.589 357.752C515.328 359.705 510.072 360.682 503.822 360.682ZM648.682 273.164L624.765 273.803C624.516 272.099 623.841 270.589 622.741 269.276C621.64 267.926 620.202 266.879 618.426 266.133C616.686 265.352 614.662 264.961 612.354 264.961C609.335 264.961 606.76 265.565 604.63 266.772C602.535 267.979 601.505 269.613 601.54 271.673C601.505 273.271 602.144 274.656 603.458 275.827C604.807 276.999 607.204 277.94 610.649 278.651L626.416 281.634C634.584 283.196 640.656 285.788 644.633 289.411C648.646 293.033 650.67 297.827 650.706 303.793C650.67 309.403 649.001 314.286 645.699 318.441C642.432 322.596 637.957 325.827 632.275 328.136C626.594 330.408 620.095 331.545 612.78 331.545C601.096 331.545 591.881 329.148 585.134 324.354C578.422 319.524 574.587 313.061 573.628 304.964L599.356 304.325C599.925 307.308 601.398 309.581 603.778 311.143C606.157 312.706 609.193 313.487 612.886 313.487C616.224 313.487 618.941 312.866 621.036 311.623C623.131 310.38 624.197 308.729 624.232 306.669C624.197 304.822 623.38 303.349 621.782 302.248C620.184 301.112 617.68 300.224 614.271 299.585L599.996 296.868C591.792 295.376 585.684 292.624 581.672 288.612C577.659 284.563 575.67 279.414 575.706 273.164C575.67 267.695 577.126 263.026 580.074 259.155C583.021 255.249 587.211 252.266 592.645 250.206C598.078 248.146 604.488 247.116 611.874 247.116C622.954 247.116 631.689 249.442 638.082 254.094C644.474 258.711 648.007 265.067 648.682 273.164Z" fill="#3F4444"/>
<path opacity="0.3" d="M400.093 68.8496H374.888V69.1647C380.236 69.1647 385.365 71.2891 389.146 75.0707C392.928 78.8522 395.052 83.9811 395.052 89.329H314.395C314.395 83.9811 316.519 78.8522 320.301 75.0707C324.082 71.2891 329.211 69.1647 334.559 69.1647V68.8496H309.354C305.343 68.8496 301.496 70.443 298.66 73.2791C295.824 76.1153 294.23 79.9619 294.23 83.9729V194.877C294.23 198.888 295.824 202.735 298.66 205.571C301.496 208.407 305.343 210 309.354 210H400.093C404.104 210 407.951 208.407 410.787 205.571C413.623 202.735 415.217 198.888 415.217 194.877V83.9729C415.217 79.9619 413.623 76.1153 410.787 73.2791C407.951 70.443 404.104 68.8496 400.093 68.8496Z" fill="#004C97"/>
<path d="M374.89 69.1644C374.89 63.8164 372.765 58.6876 368.984 54.906C365.202 51.1245 360.073 49 354.725 49C349.377 49 344.248 51.1245 340.467 54.906C336.685 58.6876 334.561 63.8164 334.561 69.1644C329.213 69.1644 324.084 71.2888 320.302 75.0704C316.521 78.8519 314.396 83.9808 314.396 89.3287H395.054C395.054 83.9808 392.93 78.8519 389.148 75.0704C385.366 71.2888 380.238 69.1644 374.89 69.1644ZM354.725 76.726C353.23 76.726 351.768 76.2825 350.524 75.4516C349.281 74.6208 348.312 73.4398 347.739 72.0581C347.167 70.6764 347.017 69.156 347.309 67.6892C347.601 66.2224 348.321 64.875 349.378 63.8175C350.436 62.76 351.783 62.0398 353.25 61.748C354.717 61.4563 356.237 61.606 357.619 62.1783C359.001 62.7507 360.182 63.7198 361.013 64.9633C361.843 66.2069 362.287 67.6688 362.287 69.1644C362.289 70.1581 362.095 71.1425 361.716 72.061C361.337 72.9796 360.78 73.8142 360.078 74.5168C359.375 75.2195 358.54 75.7764 357.622 76.1555C356.703 76.5346 355.719 76.7285 354.725 76.726V76.726Z" fill="#004C97"/>
<path d="M364.993 134.871H344.254V112.738C344.254 111.992 344.865 111.383 345.612 111.383H363.635C364.38 111.383 364.993 111.992 364.993 112.738V134.871Z" fill="#53B5C9"/>
<path d="M344.254 155.548H364.993V177.682C364.993 178.427 364.38 179.037 363.635 179.037H345.612C344.865 179.037 344.254 178.427 344.254 177.682V155.548Z" fill="#DC701A"/>
<path d="M344.253 134.871V155.548H322.054C321.307 155.548 320.695 154.938 320.695 154.194V136.225C320.695 135.481 321.307 134.871 322.054 134.871H344.253" fill="#E32687"/>
<path d="M364.992 155.548V134.871H387.19C387.939 134.871 388.548 135.481 388.548 136.225V154.194C388.548 154.938 387.939 155.548 387.19 155.548H364.992Z" fill="#6BC42E"/>
<path d="M364.993 155.549H344.254V134.871H364.993V155.549Z" fill="#254A9B"/>
</svg>
