<?xml version="1.0" encoding="UTF-8"?>
<svg width="98px" height="116px" viewBox="0 0 98 116" version="1.1" xmlns="http://www.w3.org/2000/svg" xmlns:xlink="http://www.w3.org/1999/xlink">
    <!-- Generator: Sketch 52.6 (67491) - http://www.bohemiancoding.com/sketch -->
    <title>icons8-svelte</title>
    <desc>Created with Sketch.</desc>
    <g id="Page-1" stroke="none" stroke-width="1" fill="none" fill-rule="evenodd">
        <g id="icons8-svelte" transform="translate(0.000000, -1.000000)" fill="#000000" fill-rule="nonzero">
            <path d="M62.144532,1.0039062 C55.436046,0.8201622 48.68647,2.5101 42.78125,6.2578124 C42.7786432,6.25910885 42.7760392,6.26041098 42.773438,6.2617188 L16.695312,22.953124 C16.691312,22.955726 16.687594,22.958538 16.683594,22.960938 L16.679688,22.964844 C9.092518,27.726734 3.8312944,35.514052 2.3125,44.332032 C1.0778412,51.27755 2.1747372,58.368468 5.269532,64.683594 C3.1517518,68.09558 1.6403678,71.81037 0.984375,75.738282 C0.9836942,75.742282 0.9811488,75.7458 0.9804688,75.75 C-0.6247888,84.718178 1.4883056,93.971466 6.722656,101.328124 C6.725456,101.331924 6.727668,101.335844 6.730468,101.339844 C6.730468,101.339844 6.734376,101.34375 6.734376,101.34375 C17.776582,117.086062 39.43329,121.728804 55.171876,111.738282 L81.257812,95.140624 C88.856188,90.379632 94.12077,82.58586 95.640624,73.761718 C96.87526,66.816334 95.778244,59.725194 92.683594,53.410156 C94.799846,50.000628 96.308208,46.284206 96.964844,42.359376 C98.672438,33.291432 96.552052,24.01197 91.210938,16.648438 C84.366328,6.8116658 73.313952,1.3098344 62.144532,1.0039062 Z M62.058594,5.0195312 C71.98923,5.3033694 81.858304,10.1901848 87.945312,18.957032 C87.9542959,18.9688518 87.9634111,18.9805712 87.972656,18.992188 C92.679178,25.477228 94.543186,33.642538 93.03125,41.640624 C93.0284897,41.6549185 93.0258855,41.6692427 93.023438,41.683594 C92.406804,45.385258 91.001094,48.913354 88.875,52.101562 C88.4642353,52.7168918 88.4266731,53.5087051 88.777344,54.160156 C91.877774,59.916766 92.857608,66.56681 91.699218,73.070312 C91.6992066,73.0742187 91.6992066,73.0781253 91.699218,73.082032 C90.375074,80.76989 85.770438,87.590994 79.132812,91.75 C79.1288968,91.7525902 79.1249908,91.7551943 79.121094,91.757812 L53.027344,108.363282 C39.167342,117.16132 19.8373,113.075788 10,99.035156 C9.99740976,99.0312408 9.99480574,99.0273348 9.992188,99.023438 C5.371386,92.537182 3.500208,84.343606 4.921875,76.433594 C4.92322346,76.4257891 4.92452555,76.4179763 4.9257812,76.410156 C5.542416,72.708492 6.952032,69.180396 9.078124,65.992188 C9.48888932,65.3768586 9.52645229,64.5850453 9.175782,63.933594 C6.075354,58.176986 5.09161,51.523034 6.25,45.019532 C6.25131406,45.0156294 6.25261607,45.0117227 6.253906,45.007812 C7.577998,37.320262 12.18056,30.50281 18.816406,26.34375 C18.8229389,26.3398811 18.8294496,26.335975 18.835938,26.332032 L44.921876,9.6328124 L44.929688,9.6289062 C50.124224,6.3344414 56.103072,4.8493102 62.058594,5.0195312 Z M61.882812,12.890625 C60.13509,12.928019 58.372636,13.1693096 56.625,13.6210938 C56.600138,13.627129 56.5753941,13.6336405 56.550782,13.640625 C54.507536,14.253385 52.513102,15.08559 50.691406,16.261718 L50.6875,16.265624 C50.6841,16.267824 50.679382,16.267184 50.675782,16.269532 L24.390624,32.996094 C19.596978,35.979598 16.216232,40.939946 15.25,46.496094 C14.195958,52.200456 15.57001,58.001822 18.828124,62.632812 C18.828124,62.632812 18.832032,62.636718 18.832032,62.636718 C18.833726,62.639118 18.834138,62.642132 18.835938,62.644532 C24.282174,70.49054 34.041692,74.1582 43.355468,71.753906 L43.363282,71.753906 C45.466988,71.226854 47.481462,70.38287 49.300782,69.207032 L59.304688,62.824218 C59.492628,62.710978 59.92007,62.54867 60.429688,62.375 C62.228076,61.921726 63.989912,62.5512 65.046876,64.066406 C65.601168,64.866338 65.863406,65.999004 65.683594,66.960938 C65.494994,67.969932 65.010018,68.685684 64.078124,69.285156 L37.90625,86 C37.71831,86.11324 37.290868,86.27555 36.78125,86.449218 C35.033352,86.888532 33.252962,86.196768 32.179688,84.671876 C31.678318,83.909468 31.400814,82.87586 31.460938,82.023438 C31.460938,82.023438 31.460938,82.019532 31.460938,82.019532 L31.550782,81.117188 C31.645436,80.1652451 31.0527849,79.2795434 30.136718,79.003906 L29.179688,78.714844 C25.659416,77.630574 22.4254,76.0104 19.445312,73.84375 C19.4401154,73.8411233 19.4349073,73.8385192 19.429688,73.835938 L18.089844,72.878906 C17.5679446,72.5067155 16.8992791,72.4072101 16.291621,72.611309 C15.6839629,72.8154079 15.2109392,73.2983815 15.019532,73.910156 L14.539062,75.441406 C14.5225317,75.4941744 14.5081967,75.5476057 14.496094,75.601562 C14.310454,76.43504 14.124134,77.199322 13.925782,78.089844 C13.9170211,78.1247825 13.9092056,78.1599514 13.902344,78.195312 C12.957768,83.858382 14.222714,89.668434 17.601562,94.324218 C23.050866,102.16445 32.80956,105.836824 42.121094,103.429688 C42.145983,103.422357 42.170727,103.414543 42.195312,103.40625 C44.244114,102.791824 46.240688,101.958558 48.066406,100.777344 L48.054688,100.789062 L74.355468,84.046876 C79.152714,81.061072 82.536634,76.096304 83.5,70.535156 C83.5013141,70.531254 83.5026161,70.527348 83.503906,70.523438 C84.446046,64.861356 83.183772,59.05065 79.804688,54.394532 C74.355386,46.554294 64.596694,42.881924 55.285156,45.289062 C55.260294,45.2950974 55.2355501,45.3016093 55.210938,45.308594 C53.166052,45.921846 51.174446,46.755964 49.351562,47.933594 L39.335938,54.320312 C39.145798,54.433212 38.723376,54.593666 38.21875,54.765624 C36.420566,55.218832 34.658072,54.588744 33.601562,53.074218 C33.047268,52.274286 32.785032,51.137714 32.964844,50.175782 C33.153464,49.166786 33.634512,48.45494 34.566406,47.855468 L60.738282,31.140624 L60.75,31.136718 C60.94014,31.023818 61.362562,30.863366 61.867188,30.691406 C63.658562,30.239918 65.410932,30.868926 66.46875,32.371094 C66.970118,33.1335 67.247624,34.16711 67.1875,35.019532 C67.1875,35.019532 67.1875,35.023438 67.1875,35.023438 L67.097656,35.925782 C67.0010297,36.8791169 67.5940815,37.767056 68.511718,38.042968 L69.457032,38.324218 C69.457032,38.324218 69.460938,38.324218 69.460938,38.324218 L69.46875,38.328124 C72.98902,39.412396 76.223038,41.032568 79.203124,43.199218 C79.2083213,43.2018454 79.21353,43.2044501 79.21875,43.207032 L80.558594,44.167968 C81.0804934,44.5401585 81.7491589,44.6396639 82.356817,44.435565 C82.9644751,44.2314661 83.4374988,43.7484925 83.628906,43.136718 L84.09375,41.640624 L84.105468,41.605468 C84.415252,40.672538 84.624596,39.831812 84.820312,38.953124 C84.8277643,38.9181489 84.8342773,38.8829803 84.839844,38.847656 C85.784336,33.185082 84.522738,27.375496 81.140624,22.722656 C77.054702,16.844266 70.551546,13.3070464 63.625,12.921875 C63.047028,12.889735 62.465386,12.8781604 61.882812,12.890625 Z M61.980468,16.890624 C62.45831,16.880024 62.936364,16.888098 63.410156,16.914062 C69.134304,17.22776 74.495618,20.14469 77.875,25.019532 C77.8839591,25.0326608 77.8930745,25.0456824 77.902344,25.058594 C80.632526,28.806358 81.662918,33.50415 80.894532,38.160156 C80.797092,38.594614 80.676286,38.977108 80.570312,39.367188 C77.676254,37.395804 74.568906,35.835374 71.234376,34.746094 L71.175782,35.3125 C71.192382,35.080276 71.00346,34.884034 71,34.652344 C70.87324,34.611884 70.760168,34.543086 70.632812,34.503906 L70.988282,34.609376 C70.956102,33.040118 70.677384,31.459788 69.796876,30.136718 C69.7891873,30.1249171 69.7813742,30.1131978 69.773438,30.101562 C67.77193,27.224722 64.188672,25.949976 60.832032,26.820312 C60.7873232,26.8317969 60.7430253,26.844826 60.699218,26.859376 C60.129182,27.050056 59.426956,27.262254 58.675782,27.714844 C58.6613432,27.7237759 58.6470187,27.7328913 58.632812,27.742188 L32.410156,44.488282 C32.4075492,44.4895783 32.4049452,44.4908803 32.402344,44.492188 C30.654238,45.616716 29.41464,47.3904 29.03125,49.441406 C28.639062,51.539472 29.14279,53.663496 30.3125,55.351562 C30.3124987,55.352864 30.3124987,55.354166 30.3125,55.355468 C32.314008,58.23231 35.897266,59.507056 39.253906,58.636718 C39.2986141,58.6252337 39.3429113,58.6122052 39.386718,58.597656 C39.956756,58.406976 40.658982,58.194778 41.410156,57.742188 C41.4245941,57.7332561 41.438918,57.7241407 41.453124,57.714844 L51.5,51.304688 C51.5039152,51.3020978 51.5078212,51.2994937 51.511718,51.296876 C52.924352,50.38292 54.552922,49.691768 56.3125,49.160156 C64.01936,47.17993 72.03466,50.199332 76.535156,56.691406 C76.5441399,56.7032258 76.5532551,56.7149452 76.5625,56.726562 C79.294818,60.483278 80.330218,65.189958 79.558594,69.851562 C78.79796,74.242414 76.056992,78.274152 72.242188,80.648438 C72.2369603,80.6523185 72.2317516,80.6562246 72.226562,80.660156 L45.90625,97.414062 C45.9023348,97.4166529 45.8984288,97.4192576 45.894532,97.421876 C44.481898,98.33583 42.853328,99.026982 41.09375,99.558594 C33.38689,101.53882 25.37159,98.519418 20.871094,92.027344 C20.8621349,92.0142152 20.8530195,92.0011936 20.84375,91.988282 C18.11196,88.232294 17.075628,83.530502 17.847656,78.871094 C17.935076,78.481432 18.027376,78.085434 18.117188,77.703124 C21.000206,79.661626 24.094652,81.216454 27.414062,82.300782 L27.472656,81.734376 C27.456056,81.966762 27.644958,82.162678 27.648438,82.394532 C27.775158,82.434992 27.888302,82.503788 28.015624,82.542968 L27.660156,82.4375 C27.692436,84.006574 27.971152,85.583328 28.851562,86.90625 C28.8592507,86.9180509 28.8670638,86.9297702 28.875,86.941406 C30.860944,89.795878 34.414836,91.202298 37.816406,90.320312 C37.8611141,90.3088277 37.9054113,90.2957992 37.949218,90.28125 C38.519256,90.09057 39.221482,89.878372 39.972656,89.425782 C39.9870941,89.4168501 40.001418,89.4077347 40.015624,89.398438 L66.238282,72.652344 C66.2395858,72.6510438 66.2408878,72.6497418 66.242188,72.648438 C67.990294,71.52391 69.233796,69.750224 69.617188,67.699218 C70.009376,65.601152 69.505648,63.47713 68.335938,61.789062 C68.3346378,61.7877582 68.3333358,61.7864562 68.332032,61.785156 C66.33099,58.908984 62.75093,57.633632 59.394532,58.503906 C59.3498232,58.5153902 59.3055253,58.5284187 59.261718,58.542968 C58.691682,58.733648 57.989456,58.945848 57.238282,59.398438 C57.2238432,59.4073699 57.2095187,59.4164853 57.195312,59.425782 L47.148438,65.835938 C47.1445222,65.8385282 47.1406155,65.8411323 47.136718,65.84375 C45.710438,66.766534 44.09475,67.450394 42.378906,67.878906 C42.3736928,67.880187 42.3684847,67.881489 42.363282,67.882812 C34.648004,69.8773 26.619124,66.85135 22.113282,60.351562 C22.1106911,60.3476468 22.1080864,60.3437408 22.105468,60.339844 C19.439652,56.55593 18.326602,51.83795 19.183594,47.214844 C19.1849424,47.2070391 19.1862444,47.1992263 19.1875,47.191406 C19.948134,42.800554 22.689102,38.768816 26.503906,36.394532 C26.5091337,36.3906508 26.5143424,36.3867441 26.519532,36.382812 L52.835938,19.636718 C52.8411573,19.6341368 52.8463654,19.6315327 52.851562,19.628906 C54.267502,18.712812 55.899736,18.020372 57.664062,17.488282 C59.101104,17.119994 60.546948,16.92243 61.980468,16.890624 Z" id="Shape"></path>
        </g>
    </g>
</svg>