<svg xmlns="http://www.w3.org/2000/svg" viewBox="0 0 40 36"> <path d="M28.3 4.5c5.7 5.4 8.7 13 7.1 19.4-.1.2-.1.4-.1.5v.1c-.2.5-.1 1 .2 1.3 1.9 2.5 2.6 4.9 2.8 6.6-1.2-1-2.6-1.6-4.3-1.6-1.7 0-3.3.5-4.6 1-.1 0-.1 0-.2.1-2.3 1.3-5 2-7.9 2-2.8 0-5.7-.6-8.5-1.9-2.8-1.2-5.5-2.9-7.7-5 3 1.3 6.1 1.9 9.1 1.9 3.3 0 6.5-.8 9-2.4.3-.2.5-.6.6-1 0-.4-.2-.8-.5-1-3.9-3-7.8-6.8-11.9-11.5 3.2 2.4 6.2 4.5 7.8 5.5.2.1.4.2.6.2.4 0 .7-.2.9-.5.4-.5.3-1.1-.1-1.6-1.3-1.3-2.5-2.7-3.6-4.1 5.4 4.4 9.3 6.8 9.5 6.9.4.2.6.4.8.5.2.1.4.1.5.1.1 0 .3 0 .4-.1.3-.1.6-.4.7-.7.2-.5.4-1.1.6-1.7 1.2-3.9.7-8.6-1.2-13M24.4 0c3.8 5.3 5.6 11.8 4.1 17.4-.1.5-.3 1-.5 1.5-.2-.1-.4-.2-.7-.4 0 0-9-5.5-18.7-15.3-.2 0 5.3 7.9 11.3 14.3C17 15.8 8.9 9.9 3.8 5.2c.6 1 1.3 2.1 2.2 3 4.2 5.5 9.9 12.2 16.6 17.3-2.4 1.5-5.3 2.3-8.4 2.3-3 0-6.3-.7-9.6-2.3-1.7-.8-3.3-1.7-4.6-2.8 2.8 4.4 7.1 8.3 12.4 10.5 3.1 1.3 6.1 2 9 2 3.1 0 6.1-.8 8.5-2.2 1.1-.4 2.6-1 4.1-1 1.8 0 3.7.7 5.1 3.3 0 .1.1.2.1.2.5 0 1.2-5.4-2.8-10.5l-.1-.1c.1-.2.1-.5.2-.7C38.7 15.7 33.4 5.4 24.4 0z"></path> </svg>