<svg id="Layer_1" data-name="Layer 1" xmlns="http://www.w3.org/2000/svg" viewBox="0 0 701 401"><defs><style>.cls-1{fill:#921ce8;}.cls-2{fill:#fff;}.cls-3{isolation:isolate;}.cls-4{fill:#383838;}.cls-5{fill:none;stroke:#000;stroke-miterlimit:10;opacity:0;}</style></defs><title>Todos</title><g id="Group_11" data-name="Group 11"><circle id="Ellipse_5" data-name="Ellipse 5" class="cls-1" cx="352.7" cy="102.35" r="82.65"/><path id="Path_8" data-name="Path 8" class="cls-2" d="M334.85,124,311,100.12l-8.14,8.14,32,31.93,68.71-68.71-8.14-8.06Z"/></g><g id="Todos" class="cls-3"><g class="cls-3"><path class="cls-4" d="M105.72,244H63.34v-29H180.85v29H138.46V363.64H105.72Z"/><path class="cls-4" d="M166.37,312.65a53.37,53.37,0,0,1,4.41-22,50.56,50.56,0,0,1,12.06-16.9,53.41,53.41,0,0,1,18-10.8,66.73,66.73,0,0,1,44.28,0,53.36,53.36,0,0,1,18,10.8,50.72,50.72,0,0,1,12.07,16.9,57.23,57.23,0,0,1,0,44.06,50.72,50.72,0,0,1-12.07,16.9,53.22,53.22,0,0,1-18,10.81,66.9,66.9,0,0,1-44.28,0,53.27,53.27,0,0,1-18-10.81,50.56,50.56,0,0,1-12.06-16.9A53.34,53.34,0,0,1,166.37,312.65Zm31.48,0q0,11.55,6.61,18.68T223,338.46q12,0,18.57-7.13t6.61-18.68q0-11.53-6.61-18.68T223,286.84q-12,0-18.57,7.13T197.85,312.65Z"/><path class="cls-4" d="M405.17,363.64h-29V350.21h-.42a34.31,34.31,0,0,1-4.93,5.56,37.59,37.59,0,0,1-7.13,5.15,43.69,43.69,0,0,1-9,3.77,35.43,35.43,0,0,1-10.17,1.47A52.55,52.55,0,0,1,324,362.28a45.71,45.71,0,0,1-15.84-10.91,48.66,48.66,0,0,1-10.18-16.69,60.6,60.6,0,0,1-3.57-21.19A64,64,0,0,1,297.63,293a56,56,0,0,1,9.23-17.31,45.07,45.07,0,0,1,14.58-12.07A41.49,41.49,0,0,1,341,259.14a54.32,54.32,0,0,1,18.36,3,29.36,29.36,0,0,1,13.95,10.39h.42V205h31.48Zm-29-51q0-11.53-6.61-18.68T351,286.84q-12,0-18.57,7.13t-6.61,18.68q0,11.55,6.61,18.68T351,338.46q12,0,18.57-7.13T376.21,312.65Z"/><path class="cls-4" d="M426.57,312.65a53.37,53.37,0,0,1,4.41-22,50.72,50.72,0,0,1,12.07-16.9,53.36,53.36,0,0,1,18-10.8,66.73,66.73,0,0,1,44.28,0,53.5,53.5,0,0,1,18,10.8,50.7,50.7,0,0,1,12.06,16.9,57.23,57.23,0,0,1,0,44.06,50.7,50.7,0,0,1-12.06,16.9,53.37,53.37,0,0,1-18,10.81,66.9,66.9,0,0,1-44.28,0,53.22,53.22,0,0,1-18-10.81A50.72,50.72,0,0,1,431,334.68,53.34,53.34,0,0,1,426.57,312.65Zm31.48,0q0,11.55,6.61,18.68t18.57,7.13q12,0,18.57-7.13t6.61-18.68q0-11.53-6.61-18.68t-18.57-7.13q-12,0-18.57,7.13T458.05,312.65Z"/><path class="cls-4" d="M616.06,291.67a22.28,22.28,0,0,0-18.26-8.61A17.17,17.17,0,0,0,590,285a6.68,6.68,0,0,0-3.78,6.51c0,2.51,1.3,4.37,3.89,5.56a50.4,50.4,0,0,0,9.86,3.14l12.8,2.94a48.53,48.53,0,0,1,12.8,4.93,28.72,28.72,0,0,1,9.86,9.13q3.88,5.77,3.88,15.43,0,9.86-4.3,16.26a32.94,32.94,0,0,1-11,10.28,47.45,47.45,0,0,1-15.11,5.46,89.84,89.84,0,0,1-16.58,1.57,80.57,80.57,0,0,1-21.62-3,40.34,40.34,0,0,1-18.46-10.81l19.09-21.19a31.67,31.67,0,0,0,9.76,8.29,26.3,26.3,0,0,0,12.49,2.83,29.43,29.43,0,0,0,9.86-1.57q4.41-1.57,4.41-5.78a6.42,6.42,0,0,0-3.88-6,43,43,0,0,0-9.87-3.35l-12.8-2.94a52.84,52.84,0,0,1-12.8-4.72,26.76,26.76,0,0,1-9.86-8.92q-3.88-5.78-3.88-15.43A31,31,0,0,1,558.46,278a32.15,32.15,0,0,1,9.65-10.71,42,42,0,0,1,13.75-6.19,63.39,63.39,0,0,1,15.73-2A73.82,73.82,0,0,1,618,262.08a37.78,37.78,0,0,1,17.42,10.49Z"/></g></g><rect class="cls-5" x="0.5" y="0.5" width="700" height="400"/></svg>