<svg id="Layer_1" data-name="Layer 1" xmlns="http://www.w3.org/2000/svg" viewBox="0 0 631.31 336.46"><defs><style>.cls-1{fill:#921ce8;}.cls-2{fill:#fff;}.cls-3{isolation:isolate;}.cls-4{fill:#383838;}</style></defs><title>Todos</title><g id="Group_11" data-name="Group 11"><circle id="Ellipse_5" data-name="Ellipse 5" class="cls-1" cx="230.01" cy="82.65" r="82.65"/><path id="Path_8" data-name="Path 8" class="cls-2" d="M247.85,129,224,105.12l-8.14,8.14,32,31.93,68.71-68.71-8.14-8.06Z" transform="translate(-35.69 -24.71)"/></g><g id="Todos" class="cls-3"><g class="cls-3"><path class="cls-4" d="M82.15,227.31H35.69V195.57H164.48v31.74H118V358.4H82.15Z" transform="translate(-35.69 -24.71)"/><path class="cls-4" d="M148.61,302.51a58.5,58.5,0,0,1,4.83-24.14,55.58,55.58,0,0,1,13.23-18.52A58.44,58.44,0,0,1,186.45,248,73.15,73.15,0,0,1,235,248a58.44,58.44,0,0,1,19.78,11.84A55.58,55.58,0,0,1,268,278.37a62.77,62.77,0,0,1,0,48.29,55.58,55.58,0,0,1-13.23,18.52A58.28,58.28,0,0,1,235,357a73.15,73.15,0,0,1-48.52,0,58.28,58.28,0,0,1-19.78-11.84,55.58,55.58,0,0,1-13.23-18.52A58.52,58.52,0,0,1,148.61,302.51Zm34.5,0q0,12.66,7.25,20.47t20.35,7.82q13.11,0,20.35-7.82t7.25-20.47q0-12.64-7.25-20.46t-20.35-7.82q-13.11,0-20.35,7.82T183.11,302.51Z" transform="translate(-35.69 -24.71)"/><path class="cls-4" d="M410.34,358.4H378.6V343.68h-.46a37.58,37.58,0,0,1-5.41,6.1,40.49,40.49,0,0,1-7.82,5.63,47.27,47.27,0,0,1-9.88,4.14,39.07,39.07,0,0,1-11.16,1.61,57.74,57.74,0,0,1-22.54-4.25A50.21,50.21,0,0,1,304,345a53.38,53.38,0,0,1-11.16-18.29,66.42,66.42,0,0,1-3.91-23.23A70.37,70.37,0,0,1,292.47,281a61.55,61.55,0,0,1,10.12-19,49.44,49.44,0,0,1,16-13.23A45.46,45.46,0,0,1,340,243.87a59.37,59.37,0,0,1,20.13,3.33,32.24,32.24,0,0,1,15.29,11.39h.46V184.53h34.5ZM378.6,302.51q0-12.64-7.24-20.46T351,274.23q-13.11,0-20.35,7.82t-7.25,20.46q0,12.66,7.25,20.47T351,330.8q13.11,0,20.36-7.82T378.6,302.51Z" transform="translate(-35.69 -24.71)"/><path class="cls-4" d="M433.79,302.51a58.5,58.5,0,0,1,4.83-24.14,55.58,55.58,0,0,1,13.23-18.52A58.44,58.44,0,0,1,471.63,248a73.18,73.18,0,0,1,48.53,0,58.49,58.49,0,0,1,19.77,11.84,55.58,55.58,0,0,1,13.23,18.52,62.77,62.77,0,0,1,0,48.29,55.58,55.58,0,0,1-13.23,18.52A58.33,58.33,0,0,1,520.16,357a73.18,73.18,0,0,1-48.53,0,58.28,58.28,0,0,1-19.78-11.84,55.58,55.58,0,0,1-13.23-18.52A58.52,58.52,0,0,1,433.79,302.51Zm34.5,0q0,12.66,7.25,20.47t20.35,7.82q13.11,0,20.35-7.82t7.25-20.47q0-12.64-7.25-20.46t-20.35-7.82q-13.11,0-20.35,7.82T468.29,302.51Z" transform="translate(-35.69 -24.71)"/><path class="cls-4" d="M641.47,279.52a24.42,24.42,0,0,0-20-9.43,18.83,18.83,0,0,0-8.51,2.07q-4.14,2.07-4.14,7.13,0,4.14,4.26,6.09a55.89,55.89,0,0,0,10.81,3.45l14,3.22a52.55,52.55,0,0,1,14,5.41,31.35,31.35,0,0,1,10.81,10q4.25,6.33,4.25,16.9,0,10.81-4.71,17.83a36.21,36.21,0,0,1-12.08,11.27,51.91,51.91,0,0,1-16.56,6,98.4,98.4,0,0,1-18.17,1.72,88,88,0,0,1-23.69-3.33A44.2,44.2,0,0,1,571.55,346l20.93-23.23a34.71,34.71,0,0,0,10.7,9.09,28.82,28.82,0,0,0,13.68,3.1,32,32,0,0,0,10.81-1.72q4.83-1.73,4.83-6.33,0-4.36-4.25-6.55a46.65,46.65,0,0,0-10.81-3.68l-14-3.22a57.88,57.88,0,0,1-14-5.18,29.26,29.26,0,0,1-10.81-9.77q-4.26-6.33-4.26-16.9a34.12,34.12,0,0,1,4-17,35.39,35.39,0,0,1,10.58-11.73A45.79,45.79,0,0,1,604,246.05a69.36,69.36,0,0,1,17.25-2.18,80.78,80.78,0,0,1,22.31,3.22,41.4,41.4,0,0,1,19.09,11.5Z" transform="translate(-35.69 -24.71)"/></g></g></svg>