<svg width="700" height="400" viewBox="0 0 700 400" version="1.1" xmlns="http://www.w3.org/2000/svg" xmlns:xlink="http://www.w3.org/1999/xlink">
<title>Frame 2</title>
<desc>Created using Figma</desc>
<g id="Canvas" transform="translate(-2628 496)">
<clipPath id="clip-0" clip-rule="evenodd">
<path d="M 2628 -496L 3328 -496L 3328 -96L 2628 -96L 2628 -496Z" fill="#FFFFFF"/>
</clipPath>
<g id="Frame 2" clip-path="url(#clip-0)">
<path d="M 2628 -496L 3328 -496L 3328 -96L 2628 -96L 2628 -496Z" fill="#FFFFFF"/>
<g id="Group 2">
<g id="T">
<use xlink:href="#path0_fill" transform="translate(2650 -506)" fill="url(#paint0_linear)"/>
</g>
<g id="bly">
<use xlink:href="#path1_fill" transform="translate(2987.77 -506)" fill="url(#paint1_linear)"/>
</g>
<g id="&#226;&#136;&#158;">
<use xlink:href="#path2_fill" transform="translate(2753.13 -485.387)" fill="url(#paint2_linear)"/>
</g>
</g>
</g>
</g>
<defs>
<linearGradient id="paint0_linear" x1="0" y1="0" x2="1" y2="0" gradientUnits="userSpaceOnUse" gradientTransform="matrix(9.47273e-15 399.387 -154.701 2.44554e-14 154.701 -2.44554e-14)">
<stop offset="0" stop-color="#F47246"/>
<stop offset="1" stop-color="#EFA949"/>
</linearGradient>
<linearGradient id="paint1_linear" x1="0" y1="0" x2="1" y2="0" gradientUnits="userSpaceOnUse" gradientTransform="matrix(2.16294e-14 399.387 -353.235 2.44554e-14 353.235 -2.44554e-14)">
<stop offset="0" stop-color="#F47246"/>
<stop offset="1" stop-color="#EFA949"/>
</linearGradient>
<linearGradient id="paint2_linear" x1="0" y1="0" x2="1" y2="0" gradientUnits="userSpaceOnUse" gradientTransform="matrix(1.05779e-14 399.387 -172.75 2.44554e-14 172.75 -2.44554e-14)">
<stop offset="0" stop-color="#F47246"/>
<stop offset="1" stop-color="#EFA949"/>
</linearGradient>
<path id="path0_fill" d="M 52.5815 294L 52.5815 152.752L 1.03101 152.752L 1.03101 122.853L 140.217 122.853L 140.217 152.752L 88.409 152.752L 88.409 294L 52.5815 294Z"/>
<path id="path1_fill" d="M 66.7578 270.029C 75.1777 270.029 82.0511 266.506 87.378 259.461C 92.7049 252.244 95.3683 242.965 95.3683 231.624C 95.3683 205.505 85.7456 192.446 66.5001 192.446C 47.7701 192.446 38.4051 206.192 38.4051 233.686C 38.4051 244.512 41.0685 253.275 46.3954 259.977C 51.8941 266.678 58.6816 270.029 66.7578 270.029ZM 6.70156 294L 6.70156 120.79L 39.6938 120.79L 39.6938 183.682C 49.1448 170.451 61.6887 163.835 77.3257 163.835C 85.5737 163.835 92.8767 165.468 99.2346 168.732C 105.764 171.825 111.263 176.293 115.731 182.136C 120.198 187.978 123.549 194.937 125.783 203.013C 128.189 210.918 129.392 219.681 129.392 229.304C 129.392 239.958 128.017 249.495 125.268 257.915C 122.518 266.335 118.738 273.466 113.926 279.308C 109.115 285.151 103.273 289.618 96.3993 292.711C 89.6978 295.804 82.3948 297.351 74.4904 297.351C 58.6816 297.351 46.9109 291.079 39.1783 278.535L 38.9206 294L 6.70156 294ZM 140.36 294L 140.36 120.79L 173.868 120.79L 173.868 294L 140.36 294ZM 267.603 277.246C 265.198 282.917 260.816 287.384 254.458 290.649C 248.272 293.742 241.227 295.289 233.322 295.289C 226.621 295.289 220.435 294.258 214.764 292.196C 209.093 289.962 204.196 286.869 200.072 282.917C 195.948 278.793 192.683 273.981 190.278 268.483C 188.044 262.812 186.927 256.454 186.927 249.409L 186.927 167.186L 220.435 167.186L 220.435 244.512C 220.435 260.32 227.566 268.225 241.828 268.225C 249.561 268.225 255.747 265.991 260.386 261.523C 265.198 257.056 267.603 251.385 267.603 244.512L 267.603 167.186L 301.111 167.186L 301.111 297.351C 301.111 306.286 299.565 314.277 296.471 321.322C 293.55 328.367 289.426 334.295 284.099 339.107C 278.944 343.918 272.758 347.612 265.541 350.19C 258.496 352.768 250.935 354.056 242.859 354.056C 224.129 354.056 210.124 349.331 200.845 339.88C 191.566 330.429 186.927 317.455 186.927 300.959L 218.115 300.959C 218.115 308.52 220.263 314.448 224.559 318.744C 229.026 323.04 235.642 325.188 244.406 325.188C 247.499 325.188 250.42 324.501 253.169 323.126C 255.918 321.923 258.324 320.119 260.386 317.713C 262.62 315.479 264.338 312.644 265.541 309.207C 266.916 305.771 267.603 301.99 267.603 297.866L 267.603 277.246Z"/>
<path id="path2_fill" d="M 119.803 238.178C 114.751 247.56 107.775 255.018 98.8738 260.551C 90.2133 266.084 79.1471 268.851 65.6753 268.851C 58.4582 268.851 51.7223 267.648 45.4675 265.242C 39.2127 262.596 33.6796 258.867 28.8683 254.056C 24.2974 249.004 20.6889 242.749 18.0427 235.291C 15.3964 227.834 14.0733 219.173 14.0733 209.31C 14.0733 199.206 15.3964 190.425 18.0427 182.968C 20.9295 175.269 24.6583 169.015 29.2291 164.203C 34.0405 159.151 39.5736 155.423 45.8283 153.017C 52.0831 150.371 58.6988 149.047 65.6753 149.047C 79.3877 149.047 90.3336 151.814 98.5129 157.347C 106.692 162.88 113.789 170.458 119.803 180.081C 125.817 170.458 132.914 162.88 141.094 157.347C 149.273 151.814 160.219 149.047 173.931 149.047C 180.908 149.047 187.523 150.371 193.778 153.017C 200.033 155.423 205.446 159.151 210.017 164.203C 214.828 169.015 218.557 175.269 221.203 182.968C 224.09 190.425 225.533 199.206 225.533 209.31C 225.533 219.173 224.21 227.834 221.564 235.291C 218.918 242.749 215.189 249.004 210.377 254.056C 205.807 258.867 200.394 262.596 194.139 265.242C 187.884 267.648 181.148 268.851 173.931 268.851C 160.459 268.851 149.273 266.084 140.372 260.551C 131.711 255.018 124.855 247.56 119.803 238.178ZM 105.369 210.392C 101.279 202.694 96.5884 196.44 91.2958 191.628C 86.2439 186.576 79.7485 184.05 71.8098 184.05C 62.9087 184.05 56.1728 186.456 51.602 191.267C 47.2718 195.838 45.1066 201.852 45.1066 209.31C 45.1066 226.631 54.0077 235.291 71.8098 235.291C 80.4703 235.291 87.4467 232.765 92.7393 227.713C 98.2723 222.661 102.482 216.888 105.369 210.392ZM 134.237 210.392C 137.124 216.888 141.214 222.661 146.506 227.713C 152.039 232.765 159.136 235.291 167.797 235.291C 185.599 235.291 194.5 226.631 194.5 209.31C 194.5 201.852 192.214 195.838 187.644 191.267C 183.313 186.456 176.698 184.05 167.797 184.05C 159.858 184.05 153.242 186.576 147.95 191.628C 142.898 196.44 138.327 202.694 134.237 210.392Z"/>
</defs>
</svg>
