<svg id="Layer_1" data-name="Layer 1" xmlns="http://www.w3.org/2000/svg" viewBox="0 0 701 401"><defs><style>.cls-1{fill:none;stroke:#bdccd4;stroke-miterlimit:10;opacity:0;}.cls-2{isolation:isolate;}.cls-3{fill:#1e2553;}.cls-4{fill:#509cca;}.cls-5{fill:#fff;}</style></defs><title>VendorReg</title><rect class="cls-1" x="0.5" y="0.5" width="700" height="400"/><g id="VendorReg" class="cls-2"><g class="cls-2"><path class="cls-3" d="M117,238.78,75.6,341.57H56.34L15,238.78H32.11a7.24,7.24,0,0,1,4.5,1.32,7.89,7.89,0,0,1,2.58,3.36l22.25,59.22c.85,2.22,1.68,4.64,2.51,7.26s1.59,5.37,2.3,8.25q.93-4.32,2-8.25t2.37-7.26l22.11-59.22a7.93,7.93,0,0,1,2.51-3.22,6.93,6.93,0,0,1,4.5-1.46Z" transform="translate(0.5 0.5)"/><path class="cls-3" d="M125,308.06q.92,10.28,5.84,15t12.86,4.75a22.53,22.53,0,0,0,7-1,33.89,33.89,0,0,0,5.18-2.13l4-2.12a7.61,7.61,0,0,1,3.58-1,4.18,4.18,0,0,1,3.54,1.7l5.67,7.09a30.82,30.82,0,0,1-6.87,6,36.71,36.71,0,0,1-7.79,3.76,41.51,41.51,0,0,1-8.15,1.91,60.8,60.8,0,0,1-7.93.53,40.07,40.07,0,0,1-14.28-2.51,32.48,32.48,0,0,1-11.54-7.44,34.78,34.78,0,0,1-7.76-12.22,46.56,46.56,0,0,1-2.83-16.93,40,40,0,0,1,2.44-14,33,33,0,0,1,18.24-19.23,37,37,0,0,1,14.88-2.87A36.48,36.48,0,0,1,154,269.63a28.6,28.6,0,0,1,10.2,6.48,29.19,29.19,0,0,1,6.66,10.45,39.22,39.22,0,0,1,2.38,14.14,23.9,23.9,0,0,1-.22,3.61,6.47,6.47,0,0,1-.7,2.27,2.62,2.62,0,0,1-1.35,1.16,6.2,6.2,0,0,1-2.2.32Zm30.74-11.61a20.55,20.55,0,0,0-.81-5.81,13.69,13.69,0,0,0-2.59-4.89,12.58,12.58,0,0,0-4.46-3.37,15.46,15.46,0,0,0-6.45-1.24q-7,0-11,4c-2.64,2.65-4.37,6.42-5.17,11.34Z" transform="translate(0.5 0.5)"/><path class="cls-3" d="M200.63,277a46.24,46.24,0,0,1,4.57-3.9,30.37,30.37,0,0,1,5-3.05,27.16,27.16,0,0,1,5.74-2,29.91,29.91,0,0,1,6.69-.71,25.67,25.67,0,0,1,10.56,2.06,21.78,21.78,0,0,1,7.75,5.73,24.67,24.67,0,0,1,4.75,8.79,37.45,37.45,0,0,1,1.59,11.19v46.4H227.83v-46.4q0-6.09-2.83-9.46t-8.36-3.36a17.31,17.31,0,0,0-7.72,1.77,26.42,26.42,0,0,0-6.87,5v52.49H182.5v-73h12a4.75,4.75,0,0,1,4.89,3.4Z" transform="translate(0.5 0.5)"/><path class="cls-3" d="M324.66,236V341.57h-12a4.54,4.54,0,0,1-4.81-3.4l-1.63-6.38a43.56,43.56,0,0,1-4.64,4.4,30.45,30.45,0,0,1-5.28,3.43,27.12,27.12,0,0,1-6.09,2.23,30.5,30.5,0,0,1-7.09.78,23.31,23.31,0,0,1-10.76-2.48,24.13,24.13,0,0,1-8.47-7.26,35.83,35.83,0,0,1-5.56-11.72,58,58,0,0,1-2-15.87,49.7,49.7,0,0,1,2.23-15.16A37,37,0,0,1,264.88,278a29.61,29.61,0,0,1,9.92-8,28.46,28.46,0,0,1,12.89-2.9,25.17,25.17,0,0,1,10,1.77,26.57,26.57,0,0,1,7.4,4.82V236Zm-19.55,51.57a15.5,15.5,0,0,0-6-4.46,18.44,18.44,0,0,0-6.84-1.28,15.06,15.06,0,0,0-6.44,1.35,12.84,12.84,0,0,0-5,4.21,21.29,21.29,0,0,0-3.22,7.33,43.42,43.42,0,0,0-1.14,10.63,49.16,49.16,0,0,0,.93,10.34,19.91,19.91,0,0,0,2.65,6.87,10.34,10.34,0,0,0,4.22,3.79,12.76,12.76,0,0,0,5.52,1.17,16.92,16.92,0,0,0,8.68-2.05,25.31,25.31,0,0,0,6.62-5.81Z" transform="translate(0.5 0.5)"/><path class="cls-3" d="M371,267.4A41.05,41.05,0,0,1,385.94,270a32.25,32.25,0,0,1,19,19.27,48.2,48.2,0,0,1,0,31.35,33.29,33.29,0,0,1-7.44,11.86A32.63,32.63,0,0,1,385.94,340,40.84,40.84,0,0,1,371,342.63,41.31,41.31,0,0,1,355.94,340a32.53,32.53,0,0,1-11.58-7.51,33.66,33.66,0,0,1-7.48-11.86,47.68,47.68,0,0,1,0-31.35,33.27,33.27,0,0,1,7.48-11.79A32.73,32.73,0,0,1,355.94,270,41.52,41.52,0,0,1,371,267.4ZM371,328q8.36,0,12.4-5.78t4-17.17q0-11.34-4-17.11T371,282.14q-8.57,0-12.61,5.77t-4,17.11q0,11.4,4,17.17T371,328Z" transform="translate(0.5 0.5)"/><path class="cls-3" d="M435.38,280.58a32.68,32.68,0,0,1,8-9.85A16.52,16.52,0,0,1,454,267.12a13.11,13.11,0,0,1,8.08,2.34l-1.28,14.45a3.31,3.31,0,0,1-1.09,1.95,3.46,3.46,0,0,1-2,.53,24.18,24.18,0,0,1-3.26-.32,27.24,27.24,0,0,0-4-.32,13.61,13.61,0,0,0-4.78.78,12.18,12.18,0,0,0-3.72,2.19A15.82,15.82,0,0,0,439,292.2a32.78,32.78,0,0,0-2.44,4.67v44.7H417v-73h11.54c2,0,3.36.35,4.11,1.06a6.65,6.65,0,0,1,1.63,3.68Z" transform="translate(0.5 0.5)"/></g><g class="cls-2"><path class="cls-4" d="M488.23,301.19l-5,40.38H465l12.54-102.43h29.12A53.58,53.58,0,0,1,521.8,241a28.94,28.94,0,0,1,10.35,5.25,20.44,20.44,0,0,1,6,8A26.94,26.94,0,0,1,540,264.57a36.78,36.78,0,0,1-1.66,11.16,32.87,32.87,0,0,1-4.79,9.45,32.24,32.24,0,0,1-7.65,7.44,36.11,36.11,0,0,1-10.27,5,14.26,14.26,0,0,1,3,2.41,14.06,14.06,0,0,1,2.33,3.4l18.28,38.18h-16.5a7.54,7.54,0,0,1-3.94-1,5.79,5.79,0,0,1-2.37-2.72l-15-33.23a6.08,6.08,0,0,0-2.09-2.65,7.08,7.08,0,0,0-3.86-.82Zm5.95-47.88-4.32,34.78h10.62a25.55,25.55,0,0,0,9.53-1.6,17.69,17.69,0,0,0,6.59-4.39,18.13,18.13,0,0,0,3.86-6.55,25,25,0,0,0,1.27-8.08q0-6.66-4.1-10.41t-12.69-3.75Z" transform="translate(0.5 0.5)"/><path class="cls-4" d="M610.21,285.75a20.22,20.22,0,0,1-2,8.92,18.18,18.18,0,0,1-7,7.23,49.55,49.55,0,0,1-13.63,5.49A142.41,142.41,0,0,1,565.72,311V312q0,17.15,14.52,17.14a22.44,22.44,0,0,0,9.74-2.05,19.71,19.71,0,0,0,3.26-1.92c1-.7,1.87-1.34,2.69-1.91a22.08,22.08,0,0,1,2.45-1.45,5.77,5.77,0,0,1,2.62-.6,4,4,0,0,1,1.7.39,3.57,3.57,0,0,1,1.42,1.17l4.46,5.38a74.22,74.22,0,0,1-7.37,6.52,41,41,0,0,1-7.36,4.53,34.57,34.57,0,0,1-7.94,2.62,45.67,45.67,0,0,1-9.14.85,29.63,29.63,0,0,1-11.54-2.16,25.41,25.41,0,0,1-8.86-6.09,27.52,27.52,0,0,1-5.7-9.49,36.13,36.13,0,0,1-2-12.43,51.15,51.15,0,0,1,1.24-11.27,50.39,50.39,0,0,1,3.58-10.48,44.4,44.4,0,0,1,5.74-9.14,38.92,38.92,0,0,1,7.68-7.23,35.31,35.31,0,0,1,9.42-4.74,34.71,34.71,0,0,1,11-1.7,28.07,28.07,0,0,1,10,1.63,22.7,22.7,0,0,1,7.16,4.21,17.12,17.12,0,0,1,4.28,5.78A15.17,15.17,0,0,1,610.21,285.75Zm-23.87-5.67a15.2,15.2,0,0,0-6.59,1.45,18.19,18.19,0,0,0-5.49,4.08,25.85,25.85,0,0,0-4.25,6.27,38.5,38.5,0,0,0-2.87,8,121.72,121.72,0,0,0,14.13-2.63,34.77,34.77,0,0,0,8.29-3.11,9.53,9.53,0,0,0,3.9-3.61,9.19,9.19,0,0,0,.95-4.11,5.88,5.88,0,0,0-1.87-4.22,8.13,8.13,0,0,0-2.48-1.49A10.21,10.21,0,0,0,586.34,280.08Z" transform="translate(0.5 0.5)"/><path class="cls-4" d="M673.11,289.93a22.19,22.19,0,0,1-.71,5.84,29.8,29.8,0,0,1-1.73,4.78,41.74,41.74,0,0,1-2.23,4.15c-.81,1.3-1.56,2.62-2.27,4a23.69,23.69,0,0,0-1.74,4.25,16.87,16.87,0,0,0-.67,4.92,12,12,0,0,0,1.2,5.35c.81,1.63,1.68,3.29,2.63,5a55.33,55.33,0,0,1,2.62,5.46,17.45,17.45,0,0,1,1.2,6.72A22.67,22.67,0,0,1,669,350.6a25.19,25.19,0,0,1-6.94,8.5,34.62,34.62,0,0,1-11,5.78A47.66,47.66,0,0,1,636.28,367a48.4,48.4,0,0,1-12.08-1.38,30.59,30.59,0,0,1-9.14-3.86,18.29,18.29,0,0,1-5.81-5.85,14.16,14.16,0,0,1-2-7.4,16.55,16.55,0,0,1,3-10.13,22.59,22.59,0,0,1,7.86-6.62,37.83,37.83,0,0,1,10.8-3.61,65.34,65.34,0,0,1,11.94-1.1q2.91,0,5.67.24c1.84.17,3.58.4,5.24.68-.19-.76-.34-1.51-.46-2.27a15.33,15.33,0,0,1-.18-2.41,22.06,22.06,0,0,1,2.27-9.06,21.55,21.55,0,0,1-6.09,2.83,29.73,29.73,0,0,1-8.22,1,22.77,22.77,0,0,1-7.83-1.35,18,18,0,0,1-6.55-4.1,19.9,19.9,0,0,1-4.5-6.91,25.84,25.84,0,0,1-1.66-9.67,28.31,28.31,0,0,1,2-10.38,26.9,26.9,0,0,1,5.88-9.06,28.75,28.75,0,0,1,9.63-6.41,34.16,34.16,0,0,1,13.32-2.41,30.63,30.63,0,0,1,7.69.95,25.22,25.22,0,0,1,6.69,2.8h20.33l-.78,5.67a7.14,7.14,0,0,1-1.1,2.9,4,4,0,0,1-2.37,1.63l-7.44,2a20.87,20.87,0,0,1,.53,3A28.49,28.49,0,0,1,673.11,289.93Zm-17.64,51.92a17.93,17.93,0,0,0-.1-2c-.07-.63-.16-1.23-.25-1.8-2.55-.43-4.9-.73-7-.92s-4.17-.29-6.06-.29a37.76,37.76,0,0,0-8.25.78,20.77,20.77,0,0,0-5.67,2.06,8.76,8.76,0,0,0-3.25,3,6.86,6.86,0,0,0-1,3.62,7.17,7.17,0,0,0,3.4,6.44q3.39,2.21,10.48,2.2a24.83,24.83,0,0,0,7.23-1,17.94,17.94,0,0,0,5.59-2.77,12.94,12.94,0,0,0,3.65-4.18A10.68,10.68,0,0,0,655.47,341.85Zm-11.4-34.35a10.42,10.42,0,0,0,5.59-1.49,13.53,13.53,0,0,0,4.08-3.9,18.07,18.07,0,0,0,2.51-5.42,22.22,22.22,0,0,0,.85-6.12c0-3.55-.83-6.26-2.48-8.15s-4.06-2.83-7.22-2.83a11.07,11.07,0,0,0-5.6,1.38,12.58,12.58,0,0,0-4,3.68,16.73,16.73,0,0,0-2.44,5.28,23.35,23.35,0,0,0-.82,6.16q0,5.46,2.45,8.43A8.69,8.69,0,0,0,644.07,307.5Z" transform="translate(0.5 0.5)"/></g></g><g id="Group_877" data-name="Group 877"><path id="Path_765" data-name="Path 765" class="cls-4" d="M357.76,40a79.37,79.37,0,0,1,80.13,78.59,80.14,80.14,0,0,1-160.25,0A79.37,79.37,0,0,1,357.76,40Z" transform="translate(0.5 0.5)"/><g id="_" data-name=" " class="cls-2"><g class="cls-2"><path class="cls-5" d="M363.54,112h45.72v11.56H363.54v49.74H351.06V123.54H306.27V112h44.79V63.9h12.48Z" transform="translate(0.5 0.5)"/></g></g></g></svg>