<svg id="Layer_1" data-name="Layer 1" xmlns="http://www.w3.org/2000/svg" viewBox="0 0 658.32 114.8"><defs><style>.cls-1{isolation:isolate;}.cls-2{fill:#1e2553;}.cls-3{fill:#509cca;}.cls-4{fill:#fff;}</style></defs><title>VendorReg-horizontal</title><g id="VendorReg" class="cls-1"><g class="cls-1"><path class="cls-2" d="M218.34,149.24l-33.48,83.18H169.27l-33.48-83.18h13.87a5.91,5.91,0,0,1,3.64,1.06,6.35,6.35,0,0,1,2.09,2.73l18,47.92c.69,1.8,1.37,3.75,2,5.88s1.29,4.34,1.86,6.67c.5-2.33,1-4.55,1.64-6.67s1.23-4.08,1.92-5.88L198.73,153a6.36,6.36,0,0,1,2-2.61,5.62,5.62,0,0,1,3.64-1.18Z" transform="translate(-18.95 -138.2)"/><path class="cls-2" d="M224.81,205.31q.75,8.31,4.73,12.15A14.38,14.38,0,0,0,240,221.3a18.44,18.44,0,0,0,5.64-.77,27.76,27.76,0,0,0,4.19-1.72l3.27-1.72a6.07,6.07,0,0,1,2.89-.78,3.39,3.39,0,0,1,2.87,1.38l4.58,5.73a24.77,24.77,0,0,1-5.56,4.84,29.2,29.2,0,0,1-6.3,3,33.61,33.61,0,0,1-6.6,1.55,49.32,49.32,0,0,1-6.42.43,32.47,32.47,0,0,1-11.55-2,26.39,26.39,0,0,1-9.34-6,28.18,28.18,0,0,1-6.28-9.89,37.68,37.68,0,0,1-2.29-13.7,32.29,32.29,0,0,1,2-11.35,26.65,26.65,0,0,1,14.76-15.57,30,30,0,0,1,12-2.32,29.28,29.28,0,0,1,10.46,1.81,23.13,23.13,0,0,1,8.25,5.24,23.66,23.66,0,0,1,5.39,8.46,31.79,31.79,0,0,1,1.92,11.44,21.14,21.14,0,0,1-.17,2.92,5.49,5.49,0,0,1-.57,1.83,2.09,2.09,0,0,1-1.09,1,5.19,5.19,0,0,1-1.78.26Zm24.88-9.4a16.55,16.55,0,0,0-.66-4.71,10.88,10.88,0,0,0-2.09-3.95,10.17,10.17,0,0,0-3.61-2.72,12.37,12.37,0,0,0-5.22-1q-5.67,0-8.88,3.21T225,195.91Z" transform="translate(-18.95 -138.2)"/><path class="cls-2" d="M286,180.2a36.19,36.19,0,0,1,3.69-3.15,24.54,24.54,0,0,1,4.07-2.47,22,22,0,0,1,4.65-1.6,23.62,23.62,0,0,1,5.41-.58,20.89,20.89,0,0,1,8.54,1.66,17.51,17.51,0,0,1,6.28,4.65,19.89,19.89,0,0,1,3.84,7.11,30.22,30.22,0,0,1,1.29,9.05v37.55H308.05V194.87q0-4.92-2.3-7.65c-1.52-1.81-3.78-2.72-6.76-2.72a14.08,14.08,0,0,0-6.25,1.43,21.65,21.65,0,0,0-5.56,4v42.48H271.36v-59.1h9.75a3.84,3.84,0,0,1,3.95,2.75Z" transform="translate(-18.95 -138.2)"/><path class="cls-2" d="M386.41,147v85.47h-9.75a3.7,3.7,0,0,1-3.9-2.75l-1.31-5.16a34.8,34.8,0,0,1-3.76,3.55,24.27,24.27,0,0,1-4.27,2.78,21.63,21.63,0,0,1-4.93,1.81,24.66,24.66,0,0,1-5.73.63,18.92,18.92,0,0,1-8.71-2,19.39,19.39,0,0,1-6.85-5.87,28.74,28.74,0,0,1-4.5-9.49,46.76,46.76,0,0,1-1.61-12.84,40.13,40.13,0,0,1,1.81-12.27A29.76,29.76,0,0,1,338,181a24,24,0,0,1,8-6.48,23.07,23.07,0,0,1,10.43-2.35,20.31,20.31,0,0,1,8.12,1.44,21.64,21.64,0,0,1,6,3.89V147Zm-15.82,41.73a12.64,12.64,0,0,0-4.85-3.61,14.85,14.85,0,0,0-5.53-1,12.23,12.23,0,0,0-5.22,1.09,10.38,10.38,0,0,0-4,3.41,17.47,17.47,0,0,0-2.61,5.93,35.44,35.44,0,0,0-.91,8.6,40.66,40.66,0,0,0,.74,8.37,16.51,16.51,0,0,0,2.15,5.56,8.49,8.49,0,0,0,3.41,3.07,10.37,10.37,0,0,0,4.47.94,13.7,13.7,0,0,0,7-1.66,20.68,20.68,0,0,0,5.36-4.7Z" transform="translate(-18.95 -138.2)"/><path class="cls-2" d="M423.9,172.4A33.14,33.14,0,0,1,436,174.52a26.67,26.67,0,0,1,9.35,6,27,27,0,0,1,6,9.55,39,39,0,0,1,0,25.36,27.09,27.09,0,0,1-6,9.6,26.33,26.33,0,0,1-9.35,6.08,33.14,33.14,0,0,1-12.09,2.12,33.52,33.52,0,0,1-12.18-2.12,26.27,26.27,0,0,1-9.38-6.08,27.13,27.13,0,0,1-6-9.6,38.47,38.47,0,0,1,0-25.36,27,27,0,0,1,6-9.55,26.61,26.61,0,0,1,9.38-6A33.52,33.52,0,0,1,423.9,172.4Zm0,49q6.77,0,10-4.67t3.27-13.9q0-9.17-3.27-13.84t-10-4.67q-6.94,0-10.21,4.67t-3.26,13.84q0,9.22,3.26,13.9T423.9,221.41Z" transform="translate(-18.95 -138.2)"/><path class="cls-2" d="M476,183.06a26.69,26.69,0,0,1,6.48-8,13.39,13.39,0,0,1,8.6-2.93,10.64,10.64,0,0,1,6.54,1.89l-1,11.7a2.68,2.68,0,0,1-.88,1.58,2.85,2.85,0,0,1-1.64.43,19.71,19.71,0,0,1-2.64-.26,21.86,21.86,0,0,0-3.21-.26,11.06,11.06,0,0,0-3.87.63,9.54,9.54,0,0,0-3,1.78,12.49,12.49,0,0,0-2.38,2.81,26.12,26.12,0,0,0-2,3.78v36.17H461.16v-59.1h9.34a4.94,4.94,0,0,1,3.33.86,5.38,5.38,0,0,1,1.31,3Z" transform="translate(-18.95 -138.2)"/></g><g class="cls-1"><path class="cls-3" d="M518.77,199.75l-4,32.67H500l10.14-82.89h23.56a43.45,43.45,0,0,1,12.27,1.52,23.36,23.36,0,0,1,8.37,4.24,16.54,16.54,0,0,1,4.81,6.51,21.58,21.58,0,0,1,1.55,8.31,29.74,29.74,0,0,1-1.34,9,26.06,26.06,0,0,1-10.07,13.67,29.12,29.12,0,0,1-8.31,4,12.12,12.12,0,0,1,2.41,2,11.14,11.14,0,0,1,1.89,2.75L560,232.42H546.68a6.14,6.14,0,0,1-3.18-.77,4.72,4.72,0,0,1-1.92-2.21l-12.15-26.89a4.9,4.9,0,0,0-1.69-2.14,5.79,5.79,0,0,0-3.12-.66ZM523.58,161l-3.49,28.14h8.6a20.81,20.81,0,0,0,7.71-1.29,14.45,14.45,0,0,0,5.33-3.55,14.74,14.74,0,0,0,3.12-5.31,20.09,20.09,0,0,0,1-6.53,10.88,10.88,0,0,0-3.32-8.43q-3.33-3-10.26-3Z" transform="translate(-18.95 -138.2)"/><path class="cls-3" d="M617.48,187.25a16.4,16.4,0,0,1-1.58,7.22,14.74,14.74,0,0,1-5.64,5.85,40.44,40.44,0,0,1-11,4.44,115,115,0,0,1-17.74,3v.75q0,13.88,11.75,13.87a18.34,18.34,0,0,0,7.88-1.66,16,16,0,0,0,2.64-1.55c.78-.57,1.51-1.09,2.18-1.55a17.33,17.33,0,0,1,2-1.17,4.59,4.59,0,0,1,2.12-.49,3.26,3.26,0,0,1,1.37.32,2.9,2.9,0,0,1,1.15.94l3.61,4.36a60,60,0,0,1-6,5.27,33,33,0,0,1-6,3.67,28.12,28.12,0,0,1-6.42,2.12,37.09,37.09,0,0,1-7.4.69,23.92,23.92,0,0,1-9.34-1.75,20.51,20.51,0,0,1-7.17-4.93,22.21,22.21,0,0,1-4.61-7.68,29.28,29.28,0,0,1-1.64-10.06,41.74,41.74,0,0,1,3.9-17.6,35.69,35.69,0,0,1,4.65-7.39,31,31,0,0,1,6.22-5.85,28.71,28.71,0,0,1,7.62-3.84A28.09,28.09,0,0,1,599,172.8a22.72,22.72,0,0,1,8.11,1.32,18.14,18.14,0,0,1,5.79,3.41,13.92,13.92,0,0,1,3.47,4.67A12.32,12.32,0,0,1,617.48,187.25Zm-19.32-4.59a12.27,12.27,0,0,0-5.33,1.18,14.74,14.74,0,0,0-4.44,3.29,21.07,21.07,0,0,0-3.44,5.08,30.93,30.93,0,0,0-2.32,6.45,99.83,99.83,0,0,0,11.43-2.12,28.31,28.31,0,0,0,6.71-2.53,7.59,7.59,0,0,0,3.15-2.92,7.27,7.27,0,0,0,.78-3.32,4.84,4.84,0,0,0-1.52-3.42,6.7,6.7,0,0,0-2-1.2A8.32,8.32,0,0,0,598.16,182.66Z" transform="translate(-18.95 -138.2)"/><path class="cls-3" d="M668.38,190.63a18,18,0,0,1-.57,4.73,23.16,23.16,0,0,1-1.41,3.87,31.25,31.25,0,0,1-1.8,3.35c-.65,1.06-1.26,2.12-1.84,3.21a19.53,19.53,0,0,0-1.4,3.44,13.94,13.94,0,0,0-.55,4,9.62,9.62,0,0,0,1,4.32c.65,1.32,1.35,2.67,2.12,4.05A43,43,0,0,1,666,226a14.14,14.14,0,0,1,1,5.45,18.39,18.39,0,0,1-2,8.28,20.56,20.56,0,0,1-5.62,6.88,28,28,0,0,1-8.94,4.67A38.3,38.3,0,0,1,638.57,253a38.87,38.87,0,0,1-9.77-1.12,24.55,24.55,0,0,1-7.4-3.12,14.91,14.91,0,0,1-4.7-4.73,11.42,11.42,0,0,1-1.63-6,13.35,13.35,0,0,1,2.47-8.2,18.3,18.3,0,0,1,6.36-5.36,30.59,30.59,0,0,1,8.74-2.92,53.67,53.67,0,0,1,9.66-.89c1.57,0,3.09.07,4.59.2s2.9.32,4.24.54c-.16-.61-.28-1.22-.38-1.83a13.35,13.35,0,0,1-.14-2,17.8,17.8,0,0,1,1.84-7.34,17.31,17.31,0,0,1-4.93,2.3,24.26,24.26,0,0,1-6.65.8,18.41,18.41,0,0,1-6.34-1.09,14.76,14.76,0,0,1-5.3-3.32,16.17,16.17,0,0,1-3.64-5.59,20.91,20.91,0,0,1-1.35-7.83,22.88,22.88,0,0,1,1.61-8.4,21.75,21.75,0,0,1,4.76-7.33,23.31,23.31,0,0,1,7.79-5.19,27.69,27.69,0,0,1,10.78-1.95,24.71,24.71,0,0,1,6.22.77,20.22,20.22,0,0,1,5.41,2.27h16.46l-.63,4.58a5.94,5.94,0,0,1-.89,2.35,3.26,3.26,0,0,1-1.92,1.32l-6,1.61a19.31,19.31,0,0,1,.43,2.4A24.9,24.9,0,0,1,668.38,190.63Zm-14.27,42a13.82,13.82,0,0,0-.09-1.58c-.06-.51-.12-1-.2-1.46q-3.09-.51-5.7-.74c-1.74-.16-3.38-.23-4.9-.23a30.62,30.62,0,0,0-6.68.63,16.7,16.7,0,0,0-4.59,1.66,7.05,7.05,0,0,0-2.63,2.41,5.49,5.49,0,0,0-.84,2.92,5.83,5.83,0,0,0,2.76,5.22q2.75,1.77,8.48,1.77a19.89,19.89,0,0,0,5.85-.8,14.36,14.36,0,0,0,4.52-2.23,10.58,10.58,0,0,0,3-3.39A8.68,8.68,0,0,0,654.11,232.65Zm-9.23-27.8a8.38,8.38,0,0,0,4.53-1.21,10.85,10.85,0,0,0,3.29-3.15,14.67,14.67,0,0,0,2-4.38,18.16,18.16,0,0,0,.69-5q0-4.31-2-6.6a7.39,7.39,0,0,0-5.85-2.29,8.9,8.9,0,0,0-4.53,1.12,10.2,10.2,0,0,0-3.26,3,13.51,13.51,0,0,0-2,4.27,18.82,18.82,0,0,0-.66,5,10.48,10.48,0,0,0,2,6.82A7,7,0,0,0,644.88,204.85Z" transform="translate(-18.95 -138.2)"/></g></g><g id="Group_877" data-name="Group 877"><path id="Path_765" data-name="Path 765" class="cls-3" d="M73,138.2a53,53,0,1,1,0,106,53,53,0,1,1,0-106Z" transform="translate(-18.95 -138.2)"/><g id="_" data-name=" " class="cls-1"><g class="cls-1"><path class="cls-4" d="M76.87,186.73H107.7v7.8H76.87v33.53H68.45V194.53H38.26v-7.8H68.45V154.31h8.42Z" transform="translate(-18.95 -138.2)"/></g></g></g></svg>