<svg width="281" height="308" viewBox="0 0 281 308" fill="none" xmlns="http://www.w3.org/2000/svg">
<path fill-rule="evenodd" clip-rule="evenodd" d="M192.925 8.94154C166.836 14.8621 152.546 18.266 151.308 18.855C150.272 19.3485 148.699 20.3935 147.813 21.1769C144.49 24.116 144.36 24.4956 138.166 49.2536C135.041 61.7446 132.394 72.0553 132.283 72.1659C132.173 72.2769 106.204 65.7181 74.5759 57.5911L17.0701 42.8146L13.7384 42.9597C9.65066 43.1376 6.98045 44.2924 4.17228 47.0974C1.3987 49.8672 0.219217 52.5568 0.0282778 56.5461C-0.0589141 58.3694 0.0617564 60.535 0.304569 61.4981C0.691598 63.0332 125.384 297.425 128.073 301.671C129.458 303.859 131.594 305.707 134.235 307.002C136.09 307.912 136.642 308 140.5 308C144.358 308 144.91 307.912 146.765 307.002C149.406 305.707 151.542 303.859 152.927 301.671C155.624 297.41 280.306 63.0421 280.694 61.504C280.938 60.535 281.059 58.3745 280.972 56.5461C280.846 53.9208 280.614 52.8931 279.752 51.1308C278.392 48.3489 275.568 45.5318 272.772 44.1675C270.904 43.2562 270.054 43.0791 267.069 42.9796C263.685 42.8668 263.143 42.9715 251.605 45.9621C245.029 47.6666 239.634 49.0375 239.616 49.0085C239.598 48.9795 241.988 42.1767 244.928 33.891L250.273 18.826L250.296 14.6005C250.316 10.6457 250.248 10.2335 249.235 8.17029C247.854 5.35571 245.039 2.54481 242.229 1.17353C240.301 0.233252 239.565 0.0877461 236.342 0.0116864C232.719 -0.0735593 232.005 0.0734158 192.925 8.94154ZM232.883 22.2248C231.499 26.2159 227.092 38.8687 223.089 50.3416C219.086 61.8141 215.916 71.3054 216.044 71.4329C216.171 71.5608 227.247 68.6848 240.655 65.0424C254.063 61.4004 265.096 58.4755 265.173 58.5428C265.25 58.6104 237.44 110.912 203.374 174.768C169.309 238.624 141.402 290.835 141.359 290.792C141.317 290.75 150.239 252.648 161.188 206.121C172.136 159.595 180.982 121.416 180.845 121.279C180.708 121.143 169.978 123.46 156.999 126.43C144.021 129.399 133.338 131.765 133.26 131.687C133.182 131.608 138.701 109.239 145.524 81.9773L157.929 32.4106L196.214 23.7247C217.27 18.9473 234.701 15.0226 234.948 15.0032C235.226 14.9815 234.436 17.7454 232.883 22.2248Z" fill="black"/>
</svg>
