<?xml version="1.0" encoding="utf-8"?>
<!-- Generator: Adobe Illustrator 21.0.0, SVG Export Plug-In . SVG Version: 6.00 Build 0)  -->
<svg version="1.1" id="Layer_1" xmlns="http://www.w3.org/2000/svg" xmlns:xlink="http://www.w3.org/1999/xlink" x="0px" y="0px"
	 viewBox="0 0 600 600" style="enable-background:new 0 0 600 600;" xml:space="preserve">
<style type="text/css">
	.st0{fill:#FFFFFF;stroke:#000000;stroke-width:11;stroke-miterlimit:10;}
	.st1{fill:#FFFFFF;stroke:#000000;stroke-width:10;stroke-miterlimit:10;}
</style>
<title>icon-square-small</title>
<path class="st0" d="M303.5,9L562,155.2v292.5L303.5,594L45,447.8V155.2L303.5,9z"/>
<path class="st1" d="M515.9,437.6L312.1,553v-89.7l127-69.9L515.9,437.6z M529.8,425V183.9l-74.5,43V382L529.8,425z M90.4,437.6
	l203.8,115.3v-89.7l-127-69.8L90.4,437.6z M76.4,425V183.9l74.5,43V382C150.9,382,76.4,425,76.4,425z M85.1,168.3l209-118.2v86.8
	l-133.9,73.6l-1.1,0.6L85.1,168.3L85.1,168.3z M521,168.3L312.1,50.1v86.8l133.8,73.7l1.1,0.6L521,168.3L521,168.3z"/>
<path class="st1" d="M294.1,442.8l-125.3-69V237.4l125.3,72.3V442.8z M312.1,442.8l125.3-68.9V237.4l-125.3,72.3V442.8z
	 M177.3,221.6l125.8-69.2l125.7,69.2l-125.7,72.6L177.3,221.6z"/>
</svg>
