<?xml version="1.0" encoding="UTF-8"?>
<svg width="222px" height="222px" viewBox="0 0 222 222" version="1.1" xmlns="http://www.w3.org/2000/svg" xmlns:xlink="http://www.w3.org/1999/xlink">
    <!-- Generator: Sketch 52.6 (67491) - http://www.bohemiancoding.com/sketch -->
    <title>wordpress</title>
    <desc>Created with Sketch.</desc>
    <g id="Page-1" stroke="none" stroke-width="1" fill="none" fill-rule="evenodd">
        <g id="wordpress" fill="#000000" fill-rule="nonzero">
            <path d="M8.72226883e-15,111.00491 C8.72226883e-15,154.925738 25.5330443,192.91583 62.565779,210.874961 L9.62399363,65.8174178 C3.45678139,79.6328896 0,94.9015879 8.72226883e-15,111.00491 Z M185.949305,105.398204 C185.949305,91.6809235 181.009643,82.1760361 176.796691,74.7822549 C171.169601,65.630855 165.905866,57.9032244 165.905866,48.7420054 C165.905866,38.539962 173.614881,29.0448936 184.544988,29.0448936 C185.016367,29.0448936 185.497567,29.1136273 185.968946,29.1430846 C166.229939,11.056305 139.921083,0 111.019641,0 C72.2290542,0 38.1129789,19.9033128 18.2757675,50.0381264 C20.8879943,50.1166792 23.3332744,50.1755938 25.4151995,50.1755938 C37.0327347,50.1755938 55.0040697,48.7518245 55.0040697,48.7518245 C60.9748739,48.4179751 61.6819428,57.1864302 55.7013182,57.9032244 C55.7013182,57.9032244 49.7010528,58.6003804 43.0035389,58.963687 L83.4341325,179.178911 L107.729806,106.340838 L90.4262585,58.963687 C84.4456339,58.6003804 78.7890825,57.9032244 78.7890825,57.9032244 C72.7986375,57.5399177 73.5155269,48.4179751 79.5059719,48.7518245 C79.5059719,48.7518245 97.821021,50.1755938 108.731487,50.1755938 C120.339202,50.1755938 138.330178,48.7518245 138.330178,48.7518245 C144.291162,48.4179751 144.998231,57.1864302 139.017606,57.9032244 C139.017606,57.9032244 133.017341,58.6003804 126.329647,58.963687 L166.445988,178.265735 L177.523401,141.28701 C183.150491,126.852935 185.978767,114.912911 185.978767,105.398204 L185.949305,105.398204 Z M112.96408,120.715998 L79.6434575,217.493034 C89.581704,220.409306 100.089534,222 111.00982,222 C123.923649,222 136.336636,219.761246 147.875608,215.696139 C147.580996,215.224822 147.306025,214.724048 147.080156,214.183998 L112.96408,120.715998 Z M208.418384,57.7461188 C208.909405,61.2908134 209.184376,65.0809854 209.184376,69.1755496 C209.184376,80.4282365 207.072989,93.0850546 200.72901,108.93308 L166.819163,206.937503 C199.815713,187.711708 222,151.970189 222,111.014729 C222,91.7005617 217.070158,73.5646866 208.408564,57.7461188 L208.418384,57.7461188 Z" id="Shape"></path>
        </g>
    </g>
</svg>